<svg width="84" height="48" viewBox="0 0 84 48" fill="none" xmlns="http://www.w3.org/2000/svg">
<path d="M82.0293 28.8435C82.4263 28.8598 82.7873 28.6542 82.9743 28.3018C83.1646 27.9494 83.1318 27.535 82.8989 27.2185C80.2409 23.6162 75.9752 21.4659 71.4863 21.4659C70.1934 21.4659 68.9137 21.6389 67.68 21.9815L65.4061 17.2958C65.5505 17.3154 65.6948 17.3219 65.8326 17.3219C67.3158 17.3219 68.4643 16.3072 69.1304 15.126C69.2387 14.9367 69.2945 14.7214 69.2945 14.5028V11.3409C69.2945 11.1125 69.2354 10.8906 69.1206 10.6981C68.4413 9.54954 67.5717 8.86759 66.5316 8.64899C66.4857 8.63593 66.4397 8.62614 66.3905 8.62288C66.3413 8.61309 66.2921 8.60004 66.2396 8.59352C64.5136 8.38469 62.8368 9.50384 61.9738 10.2119L60.0773 6.29965C60.0051 6.15282 59.8771 6.04188 59.7196 5.9962C59.6507 5.97662 59.5785 5.97009 59.5063 5.97662L57.8689 2.93882C57.9444 2.23075 57.6885 1.49656 57.1306 0.857038C56.1265 -0.298039 54.5777 0.0119467 54.1709 0.119611H47.8511C46.6698 0.119611 45.7083 1.07563 45.7083 2.25034C45.7083 3.42505 46.6697 4.38107 47.8511 4.38107H53.3703C53.495 4.72694 53.7411 5.16091 54.207 5.39581C54.4203 5.50349 54.65 5.5557 54.8961 5.5557C55.0569 5.5557 55.2242 5.52633 55.3981 5.48065L56.6647 7.77778C56.6253 7.91482 56.6352 8.06492 56.7008 8.1987L57.928 10.6329L56.6909 10.9298C56.6285 10.8711 56.5728 10.8124 56.5071 10.7569C55.526 9.8824 54.3382 9.38321 53.0388 9.16127V8.75666C53.0388 7.99639 52.4186 7.37972 51.6541 7.37972H46.9093C46.1448 7.37972 45.5246 7.99642 45.5246 8.75666V10.1401C41.9349 11.3801 38.6929 13.3705 37.3442 14.5777C36.4977 15.338 35.8971 16.2223 35.4771 17.1196H29.9054C28.7668 17.1196 27.7069 16.4638 27.2049 15.449L26.9654 14.9693C26.1385 13.2987 24.3928 12.2219 22.5191 12.2219H10.6799C8.71767 12.2219 7.0934 13.7653 7.05728 15.661C7.0376 16.6106 7.39526 17.5046 8.06136 18.18C8.49778 18.6205 9.02932 18.9305 9.61019 19.0937C9.1508 19.3025 8.70129 19.5309 8.25826 19.7757L3.38547 19.7855C2.61107 19.7855 1.97776 20.4152 1.97776 21.1885V23.3388C1.97776 23.8674 2.27964 24.3242 2.71606 24.5624C1.60043 26.0079 0.714457 27.5969 0.0811642 29.31C-0.0697793 29.7244 -0.00743287 30.1845 0.245229 30.5467C0.501175 30.9121 0.924462 31.1308 1.37069 31.1308H5.43295C4.89153 32.5404 4.6159 34.025 4.6159 35.5521C4.6159 42.4174 10.2303 48 17.1339 48C21.9312 48 26.3086 45.2624 28.3952 40.9912L38.7771 40.9847H38.7902H47.6726C50.4288 40.9847 52.8538 39.3336 53.8513 36.7787L61.382 17.5079L64.3417 23.3845C59.9939 25.91 57.3196 30.5174 57.3196 35.5459C57.3196 35.6536 57.3196 35.7547 57.3262 35.8624C57.3459 36.1691 57.5985 36.4041 57.907 36.4041H58.9931C59.2031 39.4549 60.5157 42.2905 62.7273 44.444C65.08 46.7346 68.1874 47.9941 71.482 47.9941C78.386 47.9974 84 42.4112 84 35.5495C84 33.1415 83.3208 30.8444 82.0279 28.8442L82.0293 28.8435ZM71.4828 22.6243C75.509 22.6243 79.3416 24.5103 81.7899 27.6819C81.5077 27.6754 81.2255 27.6819 80.9433 27.6949C80.9007 27.6917 80.8613 27.6949 80.8219 27.7015C79.5258 27.7667 78.2395 28.0049 77.0451 28.4161C76.5398 28.589 75.9983 28.5466 75.5652 28.3051C74.3248 27.6134 72.9139 27.2447 71.4832 27.2447C71.0731 27.2447 70.6662 27.274 70.2691 27.3328L68.192 23.0485C69.2617 22.7679 70.3638 22.6243 71.4828 22.6243ZM64.2934 35.5492C64.2934 33.1574 65.5009 30.9354 67.4796 29.6138L68.9168 32.4657C68.0243 33.1998 67.4566 34.3092 67.4566 35.5492C67.4566 37.7582 69.2613 39.5528 71.4828 39.5528C73.7043 39.5528 75.509 37.7582 75.509 35.5492C75.509 33.6403 74.1604 32.0448 72.3622 31.6434L70.8036 28.4293C71.03 28.4097 71.2564 28.3967 71.4828 28.3967C72.7133 28.3967 73.9274 28.7132 74.9939 29.307C75.427 29.5485 75.9159 29.6692 76.4147 29.6692C76.4869 29.6692 76.5591 29.666 76.6345 29.6594C78.3507 31.1408 79.3317 33.2715 79.3317 35.5426C79.3317 39.8464 75.8109 43.3509 71.4827 43.3509C67.4238 43.3509 64.1063 40.3424 63.683 36.4008H63.7191C63.8799 36.4008 64.0341 36.3355 64.1424 36.218C64.2539 36.1006 64.3097 35.944 64.2999 35.7873C64.2966 35.7123 64.2934 35.6307 64.2934 35.5492ZM71.4828 32.7006C73.0611 32.7006 74.3475 33.9763 74.3475 35.5492C74.3475 37.1186 73.0645 38.3978 71.4828 38.3978C69.9045 38.3978 68.6182 37.122 68.6182 35.5492C68.6182 33.9797 69.9044 32.7006 71.4828 32.7006ZM68.1129 11.2889C68.1227 11.3019 68.126 11.3247 68.126 11.3476V14.5094C68.126 14.5323 68.1227 14.5486 68.1129 14.5682C67.9095 14.9271 67.5223 15.4949 66.9349 15.8472V10.0294C67.3746 10.2806 67.7651 10.6983 68.1129 11.2889ZM65.77 9.72915V16.1539C65.4517 16.1474 65.1039 16.0691 64.7233 15.8994L62.4886 11.2921C63.0694 10.7864 64.4247 9.74544 65.77 9.72915ZM69.3959 28.1939C69.3992 28.2004 69.4024 28.2102 69.4057 28.2167L71.0333 31.571C70.6395 31.6134 70.2621 31.7113 69.9144 31.8614L57.9835 8.16594L59.2993 7.37631L69.3959 28.1939ZM57.5894 7.05279L56.4507 4.9873C56.7985 4.75564 57.0643 4.51744 57.2645 4.27924L58.4753 6.52415L57.5894 7.05279ZM46.869 2.24972C46.869 1.71133 47.3087 1.27407 47.8502 1.27407H54.2061V3.22528H47.8502C47.3087 3.22528 46.869 2.78813 46.869 2.24972ZM54.7344 4.36741C54.7049 4.3511 54.6753 4.32826 54.6491 4.30216C55.0691 4.13901 55.371 3.7344 55.371 3.25801V1.23495C55.371 1.21211 55.3644 1.19253 55.3644 1.16969C55.6729 1.20885 55.9977 1.32631 56.2438 1.60693C56.6081 2.02459 56.7688 2.47817 56.6999 2.87945C56.6179 3.34605 56.2241 3.79313 55.5547 4.17161C55.1905 4.3837 54.8985 4.44898 54.7344 4.36741ZM46.6886 8.76586C46.6886 8.64514 46.787 8.54724 46.9084 8.54724H51.6532C51.7746 8.54724 51.8731 8.64514 51.8731 8.76586V9.04974C50.2159 8.97143 48.4309 9.26836 46.6852 9.77737L46.6886 8.76586ZM38.1279 15.4451C40.9334 12.9294 51.3448 7.70543 55.7356 11.621C57.606 13.2916 58.2524 15.5104 57.5075 17.7031C56.7463 19.9513 54.6594 21.586 52.3132 21.785L41.5861 21.7883H35.66C35.6567 20.5581 35.8966 17.4454 38.1279 15.4451ZM45.8981 36.8401C45.7111 36.7259 45.5372 36.5922 45.3764 36.4421C45.908 35.7634 46.2295 34.9118 46.2295 33.9851C46.2295 33.0812 45.9243 32.2459 45.4125 31.5737C46.0195 31.0223 46.8136 30.709 47.6504 30.709C49.1565 30.709 50.4526 31.6945 50.8562 33.1171L50.6265 33.9067C50.1245 35.6328 48.5134 36.8401 46.7053 36.8401L45.8981 36.8401ZM42.0688 36.8401C41.7144 35.3588 40.3756 34.2526 38.7776 34.2526H31.8047C31.8966 34.0307 31.9491 33.7892 31.9491 33.5347C31.9491 32.8919 32.2018 32.2883 32.6579 31.8347C33.0385 31.4562 33.5373 31.2115 34.0623 31.1462C34.1739 31.1331 34.2756 31.1266 34.374 31.1266H42.1935C43.7783 31.1266 45.0647 32.409 45.0647 33.9817C45.0647 35.5577 43.7751 36.8369 42.1935 36.8369L42.0688 36.8401ZM38.7776 39.829H38.771H38.6595V35.4077H38.7809C40.0048 35.4077 41.0023 36.3996 41.0023 37.6167C41.0023 38.8305 40.0113 39.8191 38.794 39.8257L38.7776 39.829ZM28.0446 39.829H28.0315H24.0185H24.0053H16.6683V35.4077H28.3042C28.3108 35.4077 28.3174 35.4109 28.3239 35.4109H30.0696C30.0827 35.4109 30.0958 35.4077 30.109 35.4077H37.4953V39.829H28.0446ZM23.8445 20.0194L19.08 32.0463C18.7256 31.8506 18.3417 31.7103 17.9348 31.6254L22.4138 19.4774C22.9027 19.6373 23.3786 19.8204 23.8445 20.0194ZM28.2973 22.7995C28.3072 22.8092 28.3203 22.8158 28.3301 22.8223C28.3432 22.8321 28.3564 22.8419 28.3695 22.8517C28.3859 22.8614 28.4056 22.8712 28.422 22.881C28.4351 22.8876 28.4515 22.8973 28.4647 22.9006C28.4843 22.9071 28.5073 22.9137 28.527 22.9202C28.5401 22.9234 28.5533 22.93 28.5697 22.9332C28.6058 22.9398 28.6418 22.943 28.6812 22.943H41.0027V25.1651C40.9961 25.201 40.9928 25.2337 40.9928 25.2728C40.9928 25.3087 40.9961 25.3446 41.0027 25.3805V27.6939V27.7037V27.7135V28.9959C41.0027 29.5343 40.563 29.9715 40.0215 29.9715H34.3743C34.2332 29.9715 34.0855 29.9813 33.9248 29.9976C33.1405 30.0955 32.4022 30.4544 31.8378 31.0157C31.1618 31.6879 30.7911 32.5819 30.7911 33.5347C30.7911 33.9262 30.4793 34.2428 30.0921 34.2525H28.8617C28.4482 30.5491 26.2432 27.2208 22.9815 25.3606L24.9044 20.5086C26.125 21.1351 27.2669 21.9054 28.2973 22.7995ZM14.9258 39.8291C13.7019 39.8291 12.7044 38.8371 12.7044 37.6201C12.7044 36.403 13.7019 35.4111 14.9258 35.4111H15.5066V39.8324L14.9258 39.8291ZM14.9258 34.2527C14.8077 34.2527 14.6896 34.2592 14.5747 34.2722C15.0473 33.339 16.0218 32.706 17.121 32.7028H17.1309H17.1374C18.2236 32.706 19.2014 33.326 19.6837 34.256L14.9258 34.2527ZM20.9406 34.2527C20.747 33.6947 20.4352 33.1955 20.0382 32.7843L21.5083 29.0711C23.3031 30.2686 24.5172 32.1383 24.8716 34.2527H20.9406ZM26.0496 34.2527C25.6722 31.6651 24.1759 29.3746 21.9446 27.9715L22.5484 26.4477C25.3737 28.1183 27.2834 31.0224 27.687 34.2527L26.0496 34.2527ZM16.7178 31.5673C14.9852 31.7467 13.548 33.0323 13.1936 34.7324C12.2059 35.3197 11.5432 36.3932 11.5432 37.6201C11.5432 39.4767 13.0624 40.9874 14.9295 40.9874H22.7587C21.2952 42.4851 19.2674 43.3563 17.1345 43.3563C12.8065 43.3563 9.28225 39.8519 9.28225 35.548C9.28225 31.2441 12.8031 27.7429 17.1345 27.7429C17.4594 27.7429 17.7842 27.7658 18.1057 27.8049L16.7178 31.5673ZM51.3393 31.4596C50.5189 30.2882 49.1638 29.5507 47.6511 29.5507C46.4993 29.5507 45.4099 29.988 44.5863 30.758C43.9169 30.2653 43.0901 29.9716 42.1942 29.9716H41.9251C42.0761 29.678 42.1647 29.3484 42.1647 28.996V28.2781H52.2617L51.3393 31.4596ZM52.5993 27.1231H42.1646V25.8506H52.9664L52.5993 27.1231ZM53.3048 24.6955H42.1644V22.9465L52.3362 22.9433C52.3526 22.9433 52.3658 22.9433 52.3822 22.94C52.9006 22.8976 53.4093 22.7964 53.8982 22.6431L53.3048 24.6955ZM8.21915 15.69C8.24212 14.4174 9.34461 13.3831 10.6802 13.3831H22.5194C23.9533 13.3831 25.2889 14.2086 25.9222 15.4877L26.1617 15.9673C26.8574 17.3737 28.3274 18.2807 29.9057 18.2807H35.0213C34.5619 19.7099 34.4864 21.0347 34.4897 21.7851H28.895C27.6711 20.7475 26.306 19.873 24.836 19.1878C24.1568 18.868 23.4381 18.5874 22.7031 18.3525C22.6801 18.3427 22.6539 18.3362 22.6276 18.3329C22.6211 18.3329 22.6178 18.3296 22.6112 18.3264C22.6079 18.3264 22.6047 18.3264 22.6014 18.3231C22.4504 18.2937 22.2995 18.2676 22.1486 18.2448C22.1387 18.2415 22.1256 18.2415 22.1157 18.2383C21.466 18.1339 20.8163 18.0817 20.1699 18.0817H10.5819C9.94204 18.0817 9.34153 17.8304 8.89531 17.3769C8.44576 16.9233 8.2093 16.3262 8.21915 15.69ZM3.1429 21.1848C3.1429 21.0477 3.25118 20.9401 3.38571 20.9401H6.45045C5.38732 21.7101 4.40945 22.5911 3.53003 23.5798H3.38565C3.25111 23.5798 3.14283 23.4721 3.14283 23.3384L3.1429 21.1848ZM1.19707 29.8804C1.17082 29.8413 1.14457 29.7793 1.17082 29.7042C1.86974 27.8117 2.90009 26.0725 4.229 24.5324C5.50214 23.0576 7.0083 21.8209 8.69817 20.8616C9.9451 20.1503 11.274 19.6054 12.6456 19.2367H20.1664C20.5241 19.2367 20.885 19.2563 21.2426 19.2889L19.4838 24.0528C18.7094 23.8962 17.9219 23.8146 17.1245 23.8146C12.9244 23.8146 9.00973 26.066 6.90985 29.6846C6.80813 29.8608 6.61781 29.9685 6.41765 29.9685L1.37096 29.9718C1.27581 29.9718 1.22332 29.9163 1.19707 29.8804ZM17.1348 46.8382C10.874 46.8382 5.78107 41.7741 5.78107 35.5481C5.78107 34.0046 6.09279 32.5135 6.69988 31.1039C7.20521 31.0224 7.66129 30.7189 7.9238 30.2653C9.81712 26.9991 13.3445 24.9729 17.1313 24.9729C17.7875 24.9729 18.4438 25.0316 19.0837 25.1523L18.516 26.6957C18.0599 26.624 17.5972 26.5881 17.1346 26.5881C12.1633 26.5881 8.12113 30.608 8.12113 35.5485C8.12113 40.4919 12.1637 44.5115 17.1346 44.5115C19.9434 44.5115 22.5914 43.1965 24.2879 40.9842H27.0835C25.1016 44.5669 21.2925 46.8382 17.1348 46.8382ZM52.7736 36.3608C51.9499 38.4687 49.9516 39.8293 47.6777 39.8293H41.3283C41.7712 39.3268 42.0633 38.6938 42.142 37.9955H45.7285H45.7318H45.7351H46.7063C49.0295 37.9955 51.1 36.4456 51.7464 34.2268L55.2837 22.0462C56.8128 21.1849 58.0301 19.7785 58.6076 18.0785C59.3328 15.9412 58.9423 13.7257 57.574 11.9148L58.4632 11.7027L60.6847 16.1141L52.7736 36.3608ZM64.8716 24.425L66.9585 28.5656C64.6681 30.0372 63.2375 32.5301 63.139 35.2482H58.4927C58.5911 30.7746 61.0061 26.7029 64.8716 24.425ZM71.4834 46.8382C65.5672 46.8382 60.6094 42.2113 60.1625 36.4068H62.5152C62.9451 40.9945 66.7809 44.5119 71.4833 44.5119C76.4513 44.5119 80.4942 40.492 80.4942 35.549C80.4942 33.2062 79.5853 30.9939 77.9741 29.3363C78.6829 29.1307 79.582 28.9382 80.632 28.8664C82.0759 30.8177 82.8404 33.1214 82.8404 35.5522C82.8404 41.7747 77.7445 46.8391 71.4833 46.8391L71.4834 46.8382Z" fill="#80011D"/>
</svg>
