<svg width="48" height="48" viewBox="0 0 48 48" fill="none" xmlns="http://www.w3.org/2000/svg">
<path d="M47.2425 35.645C47.6631 35.645 48 35.3041 48 34.8876C48 31.1535 47.1731 28.4135 45.403 26.2639C43.835 24.3591 41.781 23.2178 39.6045 22.0071C37.6588 20.9251 35.6416 19.8043 33.9043 18.0607C33.888 18.0444 33.8675 18.024 33.8451 18.0076L33.8328 17.9954C33.8267 17.9893 33.8267 17.9893 33.8226 17.9852C33.8124 17.975 33.8022 17.9688 33.7859 17.9586C33.7797 17.9525 33.7695 17.9484 33.7654 17.9484C33.7593 17.9423 33.7552 17.9423 33.7491 17.9382C33.7389 17.9321 33.7328 17.928 33.7226 17.9219C33.7124 17.9158 33.7022 17.9117 33.6899 17.9056C33.6838 17.8994 33.6797 17.8994 33.6695 17.8953H33.6634C33.6572 17.8953 33.6572 17.8892 33.6532 17.8892C33.6429 17.8831 33.6327 17.879 33.6205 17.879C33.6103 17.8729 33.5939 17.8688 33.5837 17.8688C33.5776 17.8688 33.5776 17.8688 33.5735 17.8627C33.5674 17.8627 33.5633 17.8627 33.5572 17.8566H33.5511C33.5409 17.8504 33.5245 17.8504 33.5143 17.8463C33.5041 17.8463 33.4939 17.8402 33.4817 17.8402C33.4755 17.8402 33.4653 17.8402 33.4612 17.8341C33.4551 17.8341 33.451 17.8341 33.4408 17.828C33.4204 17.828 33.398 17.8218 33.3714 17.8218H33.3653H33.3551C33.3347 17.8218 33.3122 17.8218 33.2918 17.828C33.2857 17.828 33.2755 17.828 33.2714 17.8341C33.2652 17.8341 33.255 17.8341 33.251 17.8402C33.2407 17.8402 33.2305 17.8463 33.2183 17.8463C33.202 17.8525 33.1917 17.8525 33.1754 17.8566H33.1693C33.1632 17.8566 33.1591 17.8566 33.153 17.8627C33.1468 17.8627 33.1468 17.8627 33.1427 17.8688C33.1325 17.8749 33.1162 17.879 33.106 17.879C33.0958 17.8851 33.0856 17.8851 33.0733 17.8892C33.0672 17.8892 33.0672 17.8953 33.0631 17.8953H33.057C33.0509 17.9015 33.0468 17.9015 33.0407 17.9056C33.0305 17.9117 33.0202 17.9158 33.008 17.9219C32.9978 17.928 32.9917 17.9321 32.9815 17.9382C32.9753 17.9443 32.9712 17.9443 32.9651 17.9484C32.959 17.9546 32.9488 17.9586 32.9447 17.9586C32.9345 17.9648 32.9243 17.975 32.912 17.9852C32.9059 17.9913 32.9018 17.9913 32.8957 17.9954L32.8896 18.0015C32.8896 18.0015 32.8835 18.0015 32.8835 18.0076C32.8671 18.024 32.8508 18.0342 32.8345 18.0505L32.8283 18.0566C31.0848 19.8001 29.0737 20.921 27.1281 22.0031C24.9517 23.2137 22.8937 24.3611 21.3296 26.2598C19.5595 28.4096 18.7326 31.1494 18.7326 34.8835C18.7326 35.3041 19.0736 35.6409 19.4901 35.6409H20.1842V46.4776L9.39793 46.4755C9.50409 38.1889 11.6968 25.1796 15.3495 16.4169C15.6599 16.5618 16.0008 16.6414 16.3622 16.6414H16.399C17.6158 20.3102 18.3876 23.7338 18.6979 26.8227C18.7305 27.133 18.949 27.3943 19.2471 27.478C19.3165 27.4984 19.3859 27.5046 19.4553 27.5046C19.6901 27.5046 19.9147 27.3984 20.0576 27.2065C21.94 24.7382 22.7342 22.0167 22.3565 19.3401C22.1544 17.9212 21.6092 16.5676 20.7783 15.3508C23.6693 16.8922 26.1644 18.5194 28.2446 20.22C28.3834 20.3323 28.5549 20.3915 28.7244 20.3915C28.853 20.3915 28.9796 20.3588 29.0919 20.2956C29.3635 20.1404 29.5125 19.8423 29.4757 19.532C29.0164 16.1185 27.3483 13.3825 24.7778 11.8313C23.6998 11.18 22.5054 10.7594 21.2417 10.5737C22.1482 9.7836 22.8587 8.79751 23.3222 7.64601C24.3573 5.07562 23.9469 2.03588 22.3299 0.249465C22.1441 0.0473455 21.8603 -0.044526 21.595 0.0208053C21.3275 0.084093 21.109 0.288256 21.0396 0.553647C20.4843 2.5381 19.4185 4.66544 18.2875 6.55785C18.2813 6.00254 18.2017 5.46353 18.0527 4.95316C17.4442 2.85237 15.7435 1.20476 12.9853 0.0573909C12.7096 -0.0569388 12.385 0.00226688 12.1706 0.214593C11.9522 0.422838 11.8766 0.743359 11.9848 1.02512C12.9811 3.74044 13.6161 5.72897 14.1613 8.51783C12.7525 6.91314 11.0151 5.81474 9.0673 5.33291C6.15589 4.61222 3.04042 5.36557 0.30426 7.45617C0.0592595 7.64196 -0.0530303 7.96861 0.0327186 8.2667C0.118467 8.56477 0.379801 8.78322 0.688091 8.8159C3.36065 9.08335 6.2822 9.70195 9.41403 10.6513C7.87869 10.9392 6.46383 11.5639 5.28171 12.501C3.2339 14.1282 1.93748 16.5597 1.53727 19.5406C1.49439 19.8509 1.64956 20.1531 1.9211 20.3041C2.03748 20.3674 2.1661 20.4001 2.2886 20.4001C2.4601 20.4001 2.62956 20.3409 2.7684 20.2286C5.2 18.2339 8.224 16.3291 11.7703 14.5651C8.12793 20.8657 5.50874 28.3051 3.84039 37.1164C3.83426 37.1369 3.83018 37.1532 3.82405 37.1757C3.82405 37.1859 3.81793 37.2022 3.81793 37.2124C3.2626 40.1462 2.82162 43.2333 2.47452 46.4811H0.75745C0.340947 46.4811 0 46.822 0 47.2426C0 47.6652 0.340957 48 0.75745 48H47.2383C47.6589 48 47.9957 47.6591 47.9957 47.2426C47.9957 46.8261 47.6548 46.4852 47.2383 46.4852H46.5441V35.6443L47.2425 35.645ZM46.4687 34.1302H41.4238C41.2952 26.9782 39.376 24.6634 37.2792 22.4338C37.8121 22.7441 38.345 23.0422 38.8738 23.3341C42.9714 25.6187 46.2403 27.4359 46.4687 34.1302ZM26.8259 34.1302C26.9484 27.2929 28.7511 25.3899 30.8255 23.1911C31.3972 22.5889 32.0035 21.9437 32.6058 21.1699V34.1301L26.8259 34.1302ZM34.1291 21.17C34.7314 21.9479 35.3398 22.593 35.9094 23.1912C37.9838 25.3839 39.7865 27.2866 39.909 34.1303H34.1288L34.1291 21.17ZM27.8675 23.33C28.3963 23.036 28.9292 22.738 29.4621 22.4297C27.3612 24.6591 25.44 26.9783 25.3134 34.126H20.2685C20.491 27.4356 23.7597 25.6124 27.8675 23.33ZM8.76769 24.6468C9.44961 24.9837 10.1275 25.3247 10.7889 25.6819C9.82938 29.5426 9.08824 33.5708 8.59212 37.3559C7.54067 37.1211 6.49534 36.9087 5.46223 36.7107C6.31972 32.3478 7.42428 28.3378 8.76769 24.6468ZM16.6668 15.074C16.6606 15.074 16.6606 15.074 16.6566 15.0801C16.5606 15.1128 16.4646 15.1332 16.3585 15.1332C15.8623 15.1332 15.4581 14.7269 15.4581 14.2328C15.4581 14.1797 15.4642 14.1267 15.4744 14.0736C15.5908 13.9143 15.6929 13.7428 15.7684 13.557C15.9338 13.4121 16.1359 13.3325 16.3605 13.3325C16.8566 13.3325 17.2609 13.7387 17.2609 14.2328C17.2588 14.6146 17.0138 14.9454 16.6668 15.074C16.6729 15.074 16.6729 15.074 16.6668 15.074ZM14.2147 13.2243C14.0493 13.4101 13.8084 13.5346 13.5369 13.5346C13.0407 13.5346 12.6365 13.1283 12.6365 12.6342C12.6365 12.1381 13.0428 11.7339 13.5369 11.7339C13.8411 11.7339 14.1126 11.889 14.2718 12.1177C14.278 12.1238 14.2821 12.134 14.2882 12.1381C14.378 12.283 14.4372 12.4484 14.4372 12.6281C14.4372 12.8547 14.3515 13.0589 14.2147 13.2243ZM13.5369 15.0474C13.7186 15.0474 13.9003 15.027 14.0697 14.9882C14.1024 15.0903 14.1391 15.1863 14.1861 15.2761C13.0448 17.9159 12.0362 20.962 11.1828 24.1674C10.5642 23.8428 9.93943 23.5284 9.31061 23.2242C10.458 20.2904 11.7749 17.5649 13.2572 15.0332C13.345 15.0414 13.4409 15.0474 13.5369 15.0474ZM19.9416 24.5774C19.5313 21.9479 18.8208 19.122 17.8347 16.1455C18.1858 15.874 18.4594 15.5106 18.6187 15.0941C19.8498 16.3803 20.6195 17.8993 20.8543 19.5632C21.0931 21.2332 20.7787 22.9359 19.9416 24.5774ZM23.9944 13.1382C25.6481 14.1345 26.8629 15.7412 27.5244 17.7563C24.8784 15.831 21.7055 14.0079 18.0531 12.3113C18.3349 12.2256 18.6085 12.1296 18.8739 12.0234C20.7522 11.8683 22.5121 12.2419 23.9944 13.1382ZM21.9792 2.52996C22.5223 3.86925 22.5223 5.5699 21.9159 7.08888C21.5096 8.09743 20.5827 9.61636 18.5451 10.5228C18.1715 10.5596 17.7938 10.6127 17.414 10.6882C18.8861 8.59354 20.8379 5.52276 21.9792 2.52996ZM16.5931 5.37798C16.9667 6.6683 16.7381 8.18315 15.9377 9.81439C15.4253 6.78057 14.8659 4.68385 14.0492 2.29921C15.3926 3.14444 16.246 4.17756 16.5931 5.37798ZM8.69823 6.80304C10.6031 7.27261 12.2814 8.46083 13.5737 10.2166H13.5308C13.3655 10.2166 13.2103 10.2329 13.0572 10.2656C9.44753 8.96506 6.05448 8.06271 2.94095 7.5768C4.83358 6.60906 6.82174 6.33757 8.69823 6.80304ZM11.2054 11.9867C11.1462 12.1888 11.1197 12.4073 11.1197 12.6318C11.1197 12.8135 11.1401 12.9952 11.1789 13.1647C8.27153 14.6101 5.69713 16.1454 3.49409 17.7521C4.65582 14.21 7.53038 12.0395 11.2054 11.9867ZM5.18428 38.1986C6.25005 38.4008 7.32805 38.6253 8.41013 38.8662C8.08959 41.6346 7.90788 44.2317 7.88135 46.4812H4.00012C4.31454 43.5903 4.70452 40.8323 5.18428 38.1986ZM31.1849 46.4816H26.5401V41.2389C26.5401 39.9588 27.5793 38.9135 28.8594 38.9135C30.1396 38.9135 31.1849 39.9527 31.1849 41.2389V46.4816ZM45.0293 46.4816H32.7038V41.2389C32.7038 39.1217 30.9806 37.3986 28.8634 37.3986C26.7461 37.3986 25.023 39.1217 25.023 41.2389V46.4816H21.7011V35.645H45.0294L45.0293 46.4816ZM34.9763 38.1558V43.366C34.9763 43.7865 35.3173 44.1234 35.7338 44.1234H40.9441C41.3647 44.1234 41.7016 43.7824 41.7016 43.366V38.1558C41.7016 37.7352 41.3606 37.3983 40.9441 37.3983H35.7338C35.3173 37.3983 34.9763 37.7352 34.9763 38.1558ZM36.4953 38.9132H40.1907V42.6085H36.4953V38.9132Z" fill="#80011D"/>
</svg>
