<svg width="80" height="48" viewBox="0 0 80 48" fill="none" xmlns="http://www.w3.org/2000/svg">
<path d="M63.2157 36.0125H56.9584V29.6906C56.9584 29.3191 56.6572 29.018 56.2858 29.018H49.3606L44.7711 14.7489C44.6816 14.4708 44.4229 14.2824 44.1308 14.2824H40.442V0.672421C40.442 0.48898 40.367 0.313441 40.2345 0.186663C40.102 0.0598853 39.9239 -0.00669727 39.7402 0.000532752C39.6305 0.00524068 37.0385 0.134539 35.6908 1.62342C35.1 2.27597 34.7034 3.00789 34.3198 3.71559C33.9134 4.46533 33.5296 5.1737 32.9781 5.62751C31.959 6.46586 30.1338 6.50655 30.1165 6.50671C29.7486 6.51176 29.4532 6.81138 29.4532 7.17927V13.822C29.4777 14.2275 29.6898 14.4655 30.135 14.4945C30.2286 14.4932 32.4459 14.4498 33.8326 13.3092C34.587 12.6886 35.0522 11.8299 35.5024 10.9994C35.8481 10.3615 36.2057 9.70188 36.6879 9.16888C37.3033 8.48909 38.3848 8.19636 39.0967 8.07311V14.2825H35.4079C35.1158 14.2825 34.857 14.4712 34.7676 14.7491L30.178 29.0182H23.2528C22.8814 29.0182 22.5803 29.3193 22.5803 29.6907V36.0126H16.323C15.9515 36.0126 15.6504 36.3138 15.6504 36.6852V47.3274C15.6504 47.6989 15.9515 48 16.323 48H63.2156C63.587 48 63.8881 47.6989 63.8881 47.3274V36.6852C63.8883 36.3136 63.5871 36.0125 63.2157 36.0125ZM35.6908 8.26613C35.1 8.91868 34.7034 9.6506 34.3198 10.3583C33.9134 11.108 33.5296 11.8164 32.9781 12.2702C32.3538 12.7839 31.4266 12.9981 30.7985 13.0869V7.80089C31.5828 7.70623 32.8969 7.43619 33.8327 6.66628C34.5872 6.04567 35.0524 5.18698 35.5025 4.35654C35.8482 3.71861 36.2059 3.059 36.6881 2.526C37.3035 1.84621 38.3851 1.55347 39.0969 1.43023V6.71067C38.2168 6.84081 36.6432 7.21391 35.6908 8.26613ZM35.8982 15.6275H43.6408L47.9478 29.018H31.5914L35.8982 15.6275ZM23.9256 30.3631H55.6133V36.0125H23.9256V30.3631ZM62.5432 46.6547H16.9957V37.3576H62.5432V46.6547Z" fill="#80011D"/>
<path d="M0.402845 30.4048C0.489942 30.4429 0.581578 30.4613 0.672206 30.4613C0.873301 30.4613 1.06969 30.3708 1.20033 30.2054C2.67089 28.3425 5.10034 27.1144 8.84651 26.3408C10.5866 25.9813 12.3092 25.7994 13.829 25.6388C17.0803 25.2953 19.6487 25.0239 20.2375 23.1667C20.7093 21.6788 19.5579 20.7132 18.6329 19.9372C17.5964 19.0677 17.1309 18.5783 17.3409 17.8507C17.5476 17.1346 19.268 16.5278 20.7858 15.9926C23.3072 15.1033 26.1649 14.0953 25.8187 11.6136C25.5279 9.52781 23.4174 9.22281 21.8764 9.00002C20.9618 8.86786 20.0162 8.73116 19.703 8.32712C19.399 7.93502 19.4985 6.86128 19.5863 5.91398C19.7484 4.16481 19.9703 1.76932 17.8269 1.02463C14.3924 -0.168829 8.12653 7.46994 5.10825 13.2064C2.74033 17.7068 1.02446 23.2506 0.00838866 29.6838C-0.0396994 29.9859 0.122556 30.2822 0.402845 30.4048ZM6.29834 13.8327C9.44122 7.85919 14.7008 2.23625 17.0106 2.23625C17.1457 2.23625 17.271 2.25558 17.385 2.2951C18.4534 2.66635 18.4197 3.91983 18.2465 5.78972C18.125 7.10105 18.0103 8.33956 18.6397 9.15118C19.2858 9.98448 20.5048 10.1607 21.6837 10.331C23.3335 10.5694 24.3452 10.7873 24.4864 11.7992C24.6668 13.0924 22.8808 13.8272 20.3384 14.724C18.3373 15.4297 16.4473 16.0964 16.0485 17.4776C15.5726 19.1261 16.7901 20.1472 17.7684 20.9677C18.7108 21.7583 19.135 22.1928 18.9553 22.7601C18.6324 23.7787 16.341 24.0208 13.6876 24.3011C12.1368 24.465 10.3793 24.6507 8.57446 25.0234C6.54568 25.4426 3.8282 26.1732 1.69029 27.8442C2.70603 22.4257 4.25292 17.7203 6.29834 13.8327Z" fill="#80011D"/>
<path d="M5.28804 31.527C5.05836 31.6404 4.91309 31.8741 4.91309 32.1302C4.91309 32.3862 5.05853 32.6201 5.28804 32.7333C6.01945 33.0939 9.73064 34.8934 10.9789 34.8934C12.5026 34.8934 13.7421 33.6538 13.7421 32.1302C13.7421 30.6065 12.5026 29.3669 10.9789 29.3669C9.73064 29.3671 6.01945 31.1664 5.28804 31.527ZM12.397 32.1302C12.397 32.912 11.7608 33.5483 10.9789 33.5483C10.4464 33.5483 8.70381 32.8397 7.15423 32.1302C8.70364 31.4206 10.4461 30.7121 10.9789 30.7121C11.7608 30.7122 12.397 31.3483 12.397 32.1302Z" fill="#80011D"/>
<path d="M5.25436 3.7004C4.93018 3.03742 4.36708 2.54023 3.66897 2.30063C2.97068 2.06086 2.22128 2.10777 1.55813 2.43195C0.895157 2.75612 0.398135 3.31922 0.158536 4.01734C-0.246682 5.19785 0.250508 9.2924 0.354419 10.1012C0.413772 10.7636 0.914494 10.9918 1.49542 10.4928C2.07399 9.91822 4.98046 6.99191 5.38568 5.81123C5.62528 5.11311 5.57853 4.36338 5.25436 3.7004ZM4.11336 5.37457C3.94051 5.87832 2.70468 7.29641 1.53056 8.53191C1.36242 6.83604 1.25784 4.95809 1.43068 4.454C1.55359 4.0957 1.80883 3.80666 2.14898 3.64037C2.49619 3.51141 2.85433 3.46618 3.23231 3.57295C3.97195 3.82667 4.36708 4.63492 4.11336 5.37457Z" fill="#80011D"/>
<path d="M57.6644 8.99977C56.1234 9.22256 54.0129 9.52757 53.722 11.6133C53.3758 14.0953 56.2335 15.1031 58.7549 15.9924C60.2727 16.5277 61.9932 17.1344 62.1998 17.8505C62.41 18.5782 61.9444 19.0675 60.9078 19.937C59.9827 20.7129 58.8314 21.6785 59.3032 23.1664C59.8921 25.0237 62.4602 25.2951 65.7117 25.6386C67.2316 25.7992 68.9542 25.9811 70.6942 26.3406C74.4402 27.1144 76.8699 28.3423 78.3404 30.2051C78.4711 30.3706 78.6673 30.461 78.8685 30.461C78.9592 30.461 79.0508 30.4427 79.1379 30.4045C79.4182 30.2819 79.5803 29.9855 79.5327 29.6834C78.5166 23.2503 76.8008 17.7066 74.4328 13.206C71.4147 7.46953 65.1478 -0.169579 61.7142 1.02405C59.5706 1.76874 59.7927 4.16423 59.9548 5.91339C60.0426 6.86069 60.1421 7.93444 59.8381 8.32654C59.5243 8.73092 58.5789 8.86762 57.6644 8.99977ZM60.9007 9.1511C61.5301 8.33949 61.4154 7.10097 61.2939 5.78964C61.1205 3.91959 61.0869 2.66627 62.1554 2.29502C62.2694 2.25534 62.3943 2.23617 62.5299 2.23617C64.8399 2.23617 70.0995 7.85945 73.2421 13.8326C75.2877 17.7204 76.8345 22.4258 77.8503 27.8441C75.7124 26.1731 72.9949 25.4425 70.9661 25.0234C69.1613 24.6506 67.4036 24.4648 65.853 24.301C63.1997 24.0207 60.9083 23.7786 60.5853 22.76C60.4054 22.1927 60.8298 21.7582 61.7722 20.9677C62.7505 20.1471 63.968 19.126 63.4921 17.4776C63.0933 16.0963 61.2034 15.4296 59.2022 14.7239C56.6596 13.8272 54.8738 13.0923 55.0542 11.7991C55.1954 10.7873 56.2071 10.5695 57.8569 10.3309C59.0356 10.1606 60.2546 9.9844 60.9007 9.1511Z" fill="#80011D"/>
<path d="M68.5611 29.3672C67.0374 29.3672 65.7979 30.6068 65.7979 32.1305C65.7979 33.6541 67.0374 34.8937 68.5611 34.8937C69.8093 34.8937 73.5205 33.0942 74.2519 32.7336C74.4816 32.6203 74.6269 32.3865 74.6269 32.1305C74.6269 31.8744 74.4814 31.6405 74.2519 31.5273C73.5207 31.1665 69.8093 29.3672 68.5611 29.3672ZM68.5611 33.5484C67.7792 33.5484 67.143 32.9121 67.143 32.1303C67.143 31.3484 67.7792 30.7122 68.5611 30.7122C69.0936 30.7122 70.836 31.4207 72.3856 32.1303C70.8362 32.8398 69.0936 33.5484 68.5611 33.5484Z" fill="#80011D"/>
<path d="M79.3811 4.01727C79.1415 3.31915 78.6445 2.75605 77.9815 2.43188C77.3186 2.1077 76.5688 2.06096 75.8707 2.30056C75.1726 2.54016 74.6097 3.03718 74.2853 3.70033C73.961 4.3633 73.9144 5.11304 74.154 5.81116C74.5592 6.99184 77.4657 9.91815 78.0443 10.4927C78.1724 10.62 78.3436 10.6881 78.5183 10.6881C78.5914 10.6881 78.665 10.6761 78.7365 10.6516C78.9786 10.5685 79.1526 10.355 79.1853 10.1011C79.289 9.29233 79.7864 5.19795 79.3811 4.01727ZM78.009 8.53183C76.835 7.29668 75.5992 5.87858 75.4262 5.3745C75.1724 4.63485 75.5676 3.8266 76.3072 3.57288C76.6966 3.42273 77.0566 3.45249 77.3905 3.6403C77.7308 3.80676 77.9859 4.09562 78.1088 4.45393C78.2817 4.95751 78.1769 6.8358 78.009 8.53183Z" fill="#80011D"/>
</svg>
