<svg width="53" height="48" viewBox="0 0 53 48" fill="none" xmlns="http://www.w3.org/2000/svg">
<path d="M52.1199 39.891L51.8583 39.7602V36.4905C51.8583 35.9673 51.5313 35.5095 51.0736 35.3788L48.3924 34.3978C48.327 34.0708 48.1962 33.8093 47.9346 33.6131L48.9155 27.4659C48.9155 27.3352 48.9155 27.2698 48.9155 27.139V27.0736C48.9809 27.0082 49.1117 26.8774 49.1771 26.7466C49.5695 26.0273 49.6349 24.5886 48.2616 23.673C47.5422 23.1499 46.4959 22.4959 45.9728 22.1689L41.4605 14.5177C41.5259 14.4523 41.5259 14.3215 41.5259 14.1907L41.8529 11.7057C41.9837 11.1172 41.7875 10.3324 41.0681 9.74387C41.0027 9.67848 40.9373 9.61308 40.7411 9.48229C35.9019 5.16621 31.3243 2.02725 27.0736 0.13079C26.9428 0.065395 26.7466 0 26.6158 0H26.5504L14.3215 0.653951C13.9292 0.653951 13.5368 0.915531 13.3406 1.24251L12.8174 2.15804C12.5559 2.55041 12.6213 3.00817 12.8174 3.40055L14.3215 5.75477L17.6567 12.5559L13.406 13.079C13.3406 13.079 13.2752 13.079 13.2752 13.079C13.079 13.1444 11.5095 13.5368 10.6594 15.2371C10.267 16.0872 5.10082 24.1962 1.70027 29.624C1.04632 29.951 0 30.7357 0 31.8474V37.2098C0 37.4714 0.130791 37.7984 0.261581 37.9946C0.326976 38.0599 0.980926 38.8447 1.96185 39.2371C2.6812 39.564 20.861 46.6921 22.4959 47.346C22.8229 47.5422 23.7384 48 24.9809 48C25.1117 48 25.2425 48 25.3733 48C26.6812 47.8692 48.1962 44.5341 50.6812 44.1417C50.7466 44.1417 50.8774 44.0763 50.9428 44.0763C51.7275 43.7493 52.7085 42.9646 52.7085 41.8529V40.9373C52.7085 40.545 52.5123 40.1526 52.1199 39.891ZM23.0191 39.7602C23.0191 39.7602 22.9537 39.7602 22.8883 39.6948L46.8229 36.4251L50.3542 40.6758C45.6458 41.3951 26.7466 44.2725 25.1771 44.4687C23.9346 44.5995 23.4768 44.2071 23.2807 44.0109V40.0872C23.346 39.9564 23.2153 39.8256 23.0191 39.7602ZM50.6812 36.4905V39.8256L47.3461 35.7711C47.2807 35.6403 47.1499 35.5749 46.9537 35.6403L21.2534 39.1717C17.4605 37.733 8.56676 34.4632 4.97003 33.2207L17.0681 36.4905L20.2725 38.6485C20.3379 38.7139 20.4033 38.7139 20.4687 38.7139C20.5341 38.7139 20.5995 38.7139 20.5995 38.6485C20.7302 38.5831 20.7956 38.4523 20.861 38.3215L22.1689 30.2779C22.1689 30.2125 22.1689 30.0817 22.1035 30.0164L21.842 29.2316L24.327 28.8392L24.5232 29.5586C24.5886 29.7548 24.7847 29.8856 24.9809 29.8202L29.8202 29.1662C30.0163 29.1662 30.1471 28.97 30.1471 28.7738V27.9237L39.4986 26.9428L40.0218 27.4659C40.0872 27.5313 40.218 27.5967 40.3488 27.5967L45.5804 27.139C45.5804 27.139 45.5804 27.139 45.6458 27.139H45.7112C45.7112 27.139 45.7766 27.139 45.7766 27.0736C45.7766 27.0736 45.842 27.0736 45.842 27.0082L45.9074 26.9428C45.9074 26.9428 45.9074 26.9428 45.9074 26.8774V26.812V26.7466V26.3542H46.8229L47.2807 27.0082C47.3461 27.139 47.5422 27.2044 47.673 27.2044L46.6267 34.1362L47.2153 34.4632L47.0845 35.1172L50.6812 36.4905ZM4.18529 30.1471L11.9673 18.1798L13.0136 20.3379L4.18529 30.1471ZM13.3406 21.1226L14.5831 23.7384L5.49319 29.8202L13.3406 21.1226ZM14.9755 24.5232L15.9564 26.6158L6.21254 30.4087L14.9755 24.5232ZM22.8229 21.6458C22.8229 21.7112 23.4768 23.1499 24.7193 23.1499C24.7847 23.1499 24.9155 23.1499 25.0463 23.1499C26.158 22.9537 36.8828 22.0381 36.9482 22.0381C37.0136 22.0381 37.079 22.0381 37.1444 21.9728C37.2098 21.9728 37.5368 21.6458 37.6022 21.188C37.6676 20.861 37.6022 20.5995 37.406 20.2725C37.8638 19.6839 38.9101 18.049 39.6294 15.9564C40.3488 17.1989 42.3106 20.6649 42.8338 21.4496C43.1608 21.9728 43.03 22.2343 42.9646 22.3651C40.7411 22.5613 20.861 24.5886 19.8801 24.7847C19.2262 24.9155 18.703 23.8038 18.703 23.8038C18.5722 23.5422 15.1717 17.0681 14.5177 16.0872C14.4523 15.9564 14.3869 15.8256 14.4523 15.8256C14.5177 15.6948 14.7793 15.6294 15.0409 15.6294L19.4223 15.1063L22.8229 21.6458ZM46.2343 23.7384C46.4959 23.9346 46.7575 24.0654 47.0191 24.2616L39.564 25.1117V24.654L46.1035 23.8038C46.1035 23.8038 46.1689 23.7384 46.2343 23.7384ZM37.1444 23.7384C37.1444 23.8038 37.2098 23.8038 37.2752 23.8692L37.9292 24.2616L30.3433 25.1117L29.5586 24.5232C31.9782 24.2616 34.6594 24 37.1444 23.7384ZM28.7738 25.5695L28.8392 24.9809L29.8202 25.7003V26.0272C28.4469 26.2234 23.2153 26.8774 21.9074 27.0082C20.6649 27.139 20.0109 28.0545 19.7493 28.7084L18.703 27.9891C18.6376 27.9891 18.6376 27.9237 18.5722 27.9237C18.6376 27.8583 18.703 27.7275 18.6376 27.6621C18.6376 27.5967 18.6376 26.7466 20.0763 26.6812C22.4959 26.485 28.3161 25.8965 28.3815 25.8965C28.5777 25.9619 28.7738 25.7657 28.7738 25.5695ZM16.6758 35.4441L5.42779 32.436H17.2643L16.6758 35.4441ZM17.9183 28.5777L17.3951 31.6512H5.23161L16.4142 27.2698L17.9183 28.5777ZM26.0272 28.9046C26.5504 28.5123 27.6621 27.9891 29.0354 28.5123L26.0272 28.9046ZM41.5259 26.7466C42.049 26.5504 42.7684 26.4196 43.6185 26.5504L41.5259 26.7466ZM48.0654 26.158L47.7384 26.2234L47.4114 25.7657C47.3461 25.6349 47.2153 25.5695 47.0845 25.5695H45.5804C45.4496 25.5695 45.3842 25.6349 45.3188 25.7003C45.2534 25.7657 45.188 25.8965 45.188 25.9619V26.158C42.5068 25.0463 40.545 26.2888 40.1526 26.485L39.9564 26.2888C39.891 26.2234 39.7602 26.158 39.6294 26.158L29.6894 27.139C29.4932 27.139 29.297 27.3352 29.297 27.5313V27.7275C27.0082 26.812 25.3733 28.1853 24.9809 28.5777L24.9155 28.2507C24.8501 28.0545 24.654 27.9237 24.4578 27.9891L21.188 28.5777C21.0572 28.5777 20.9264 28.7084 20.861 28.7738C20.7956 28.9046 20.7956 29.0354 20.861 29.1662L21.4496 30.3433L20.2725 37.6022L17.5259 35.7711C17.5259 35.7711 17.5259 35.7711 17.4605 35.7711L18.1144 32.1744L18.6376 29.1008L19.6839 29.8202C19.7493 29.8856 19.8147 29.8856 19.9455 29.8856C20.0109 29.8856 20.0109 29.8856 20.0763 29.8856C20.2071 29.8202 20.2725 29.7548 20.3379 29.624C20.3379 29.624 20.7302 28.1199 21.9728 27.9891C23.5422 27.8583 30.0163 27.0082 30.2779 26.9428C30.4741 26.9428 30.6049 26.7466 30.6049 26.5504V26.0272L38.7139 25.1117V25.7003C38.7139 25.8311 38.7793 25.8965 38.8447 26.0272C38.9101 26.0926 39.0409 26.158 39.1717 26.158L47.9346 24.9809C48.3924 25.5695 48.0654 26.158 48.0654 26.158ZM45.1226 23.0191C45.1226 23.0191 45.188 23.0191 45.2534 23.0845L38.9101 23.8692L38.4523 23.6076C40.218 23.4114 41.8529 23.2807 43.2262 23.1499C43.2916 23.1499 43.357 23.0845 43.4223 23.0845C43.7493 22.8229 44.1417 22.0381 43.4877 21.0572C42.8992 20.0763 40.0872 15.1063 40.0218 15.1063C40.0218 15.0409 39.9564 15.0409 39.891 14.9755C39.9564 14.8447 39.9564 14.7139 40.0218 14.5177L45.1226 23.0191ZM14.4523 1.83106L26.6812 1.17711C33.7439 4.25068 39.891 10.267 40.4142 10.6594C40.9373 11.0518 40.7411 11.4441 40.7411 11.4441L40.4142 13.6022H40.3488C40.218 13.6022 28.2507 14.8447 26.5504 14.8447C25.7003 14.8447 25.4387 14.7139 25.3079 14.6485C25.3079 14.5831 25.2425 14.5177 25.1771 14.4523L14.9755 4.44687L13.9292 2.74659L14.4523 1.83106ZM16.218 6.80109L24.5886 14.9101C24.5886 14.9755 24.654 15.0409 24.7193 15.1063C24.9809 15.4332 25.5695 15.6294 26.6158 15.6294C28.0545 15.6294 36.0981 14.8447 39.2371 14.5177C38.5177 17.5259 36.6213 19.8801 36.6213 19.9455C36.4905 20.0763 36.4905 20.2725 36.6213 20.4687C36.9482 20.861 36.8828 21.1226 36.752 21.2534C35.4441 21.3842 25.9619 22.1689 24.9155 22.3651C24.1308 22.4959 23.673 21.3842 23.6076 21.3842L19.1608 12.6867L16.218 6.80109ZM50.485 42.9646C50.485 42.9646 26.6158 46.6921 25.3079 46.8229C25.1771 46.8229 25.1117 46.8229 24.9809 46.8229C23.8038 46.8229 23.0191 46.2997 23.0191 46.2997C23.0191 46.2997 3.13896 38.5177 2.41962 38.1907C1.70027 37.8638 1.17711 37.2752 1.17711 37.2752C1.17711 37.2752 1.17711 32.6322 1.17711 31.9128C1.17711 31.1935 2.48501 30.6049 2.48501 30.6049C2.48501 30.6049 11.1172 17.0027 11.7057 15.8256C12.2943 14.5831 13.5368 14.3215 13.5368 14.3215L18.703 13.733L18.9646 14.2561L14.9101 14.7139C14.7793 14.7139 13.9292 14.7793 13.6676 15.3678C13.5368 15.564 13.4714 15.9564 13.7984 16.4142C14.3869 17.3951 17.9183 24 17.9183 24.0654C18.1798 24.654 18.8338 25.5695 19.6839 25.5695C19.7493 25.5695 19.8801 25.5695 19.9455 25.5695C20.3379 25.5041 23.673 25.1117 27.9237 24.7193L27.8583 25.2425C26.5504 25.3733 21.9728 25.8311 19.9455 26.0272C18.3106 26.158 17.8529 27.0736 17.7875 27.5313L16.7411 26.6158L15.4332 23.8038L13.7984 20.3379L12.3597 17.2643C12.2943 17.1335 12.1635 17.0681 12.0327 17.0027C11.9019 17.0027 11.7711 17.0681 11.6403 17.1989L2.41962 31.3896C2.41962 31.3896 2.41962 31.455 2.35422 31.455C2.35422 31.5204 2.09264 32.1744 2.35422 32.6975C2.48501 32.9591 2.74659 33.2207 3.26975 33.4169C4.11989 33.6785 16.0872 38.0599 22.4959 40.4142V44.2071C22.4959 44.2725 22.4959 44.3379 22.5613 44.4033C22.5613 44.4687 23.0845 45.3188 24.7193 45.3188C24.9155 45.3188 25.0463 45.3188 25.2425 45.3188C27.0082 45.1226 49.7657 41.6567 51.4659 41.3951C51.4659 41.5259 51.4659 41.6567 51.4659 41.9183C51.4659 42.5722 50.485 42.9646 50.485 42.9646Z" fill="#80011D"/>
<path d="M26.8123 11.7713C26.8776 11.8367 27.0084 11.9021 27.0738 11.9021C27.0738 11.9021 27.0738 11.9021 27.1392 11.9021L38.7142 10.9211C38.845 10.9211 39.0411 10.7903 39.0411 10.6596C39.0411 10.5288 39.0411 10.3326 38.9103 10.2018C38.5834 9.94021 30.9321 3.00833 26.7469 1.43884C26.6815 1.43884 26.6161 1.43884 26.5507 1.43884L16.9376 2.0274C16.8068 2.0274 16.6106 2.15819 16.6106 2.28898C16.5452 2.41977 16.6106 2.61595 16.7414 2.74674L26.8123 11.7713ZM26.4853 2.15819C29.8204 3.53149 35.6406 8.37072 37.6024 10.1364L27.1392 11.0519L17.9185 2.68135L26.4853 2.15819Z" fill="#80011D"/>
<path d="M37.8641 29.0354C36.1638 27.9237 33.7442 28.643 32.5017 30.6049C31.2592 32.5667 31.6516 35.0517 33.3518 36.1634C33.875 36.4904 34.5289 36.6866 35.1175 36.6866C36.4908 36.6866 37.8641 35.9019 38.7142 34.594C39.9567 32.6321 39.5644 30.1471 37.8641 29.0354ZM33.1556 31.0626C33.7442 30.0817 34.7251 29.4931 35.6407 29.3624C36.0984 29.6239 36.36 30.0817 36.4254 30.6703C36.4908 31.2588 36.36 31.9128 36.033 32.4359C35.7061 32.9591 35.1829 33.4169 34.5943 33.5476C34.0712 33.7438 33.4826 33.6784 33.0249 33.3515C32.8287 33.2207 32.6325 33.0245 32.5017 32.8283C32.5671 32.3051 32.7633 31.6512 33.1556 31.0626ZM37.9949 34.2016C36.9486 35.7711 35.0521 36.425 33.7442 35.5749C33.221 35.2479 32.8941 34.7902 32.6979 34.2016C33.0902 34.4632 33.548 34.594 34.0058 34.594C34.2674 34.594 34.5943 34.5286 34.8559 34.4632C35.6407 34.2016 36.2946 33.6784 36.7524 33.0245C37.2101 32.3051 37.4063 31.455 37.2755 30.6703C37.2101 30.2779 37.0793 29.8855 36.8832 29.5585C37.0793 29.6239 37.2755 29.6893 37.4717 29.8201C38.7142 30.6049 39.0412 32.5667 37.9949 34.2016Z" fill="#80011D"/>
<path d="M44.4687 28.2506C43.5532 27.6621 42.2453 28.0544 41.5259 29.1007C41.1989 29.6239 41.0681 30.2125 41.1335 30.7356C41.1989 31.3242 41.5259 31.7819 41.9837 32.1089C42.3107 32.3051 42.6376 32.3705 42.9646 32.3705C43.1608 32.3705 43.357 32.3705 43.5532 32.3051C44.0763 32.1089 44.5341 31.7819 44.8611 31.2588C45.188 30.7356 45.3188 30.1471 45.2534 29.6239C45.2534 29.0354 44.9265 28.5776 44.4687 28.2506ZM44.2725 30.8664C44.0763 31.1934 43.7493 31.455 43.357 31.5858C43.03 31.7166 42.703 31.6512 42.4414 31.455C42.1799 31.2588 41.9837 30.9972 41.9837 30.6702C41.9183 30.2779 42.0491 29.8855 42.2453 29.5585C42.5722 29.1007 43.03 28.8392 43.4878 28.8392C43.6839 28.8392 43.8801 28.9046 44.0109 28.97C44.2725 29.1661 44.4687 29.4277 44.4687 29.7547C44.5995 30.0817 44.4687 30.474 44.2725 30.8664Z" fill="#80011D"/>
<path d="M25.831 31.1279C24.9155 30.5394 23.6076 30.9317 22.8882 31.9781C22.5612 32.5012 22.4304 33.0898 22.4958 33.6129C22.5612 34.2015 22.8882 34.6593 23.346 34.9862C23.673 35.1824 23.9999 35.2478 24.3269 35.2478C24.5231 35.2478 24.7193 35.2478 24.9155 35.1824C25.4386 34.9862 25.8964 34.6593 26.2234 34.1361C26.5503 33.6129 26.6811 33.0244 26.6157 32.5012C26.6157 31.9127 26.2888 31.3895 25.831 31.1279ZM25.6348 33.6783C25.4386 34.0053 25.1116 34.2669 24.7193 34.3977C24.3923 34.5285 24.0653 34.4631 23.8037 34.2669C23.5422 34.0707 23.346 33.8091 23.346 33.4822C23.2806 33.0898 23.4114 32.6974 23.6076 32.3704C23.9345 31.9127 24.3923 31.6511 24.8501 31.6511C25.0463 31.6511 25.2424 31.7165 25.3732 31.7819C25.6348 31.9781 25.831 32.2396 25.831 32.5666C25.9618 32.959 25.831 33.3514 25.6348 33.6783Z" fill="#80011D"/>
<path d="M20.5348 30.801L19.2923 30.1471C19.1615 30.0817 19.0307 30.0817 18.8999 30.1471C18.7691 30.2125 18.7037 30.2779 18.7037 30.4086L18.3768 31.9781C18.3114 32.1743 18.4422 32.3705 18.573 32.4359L19.8809 33.0245C19.9463 33.0245 20.0116 33.0898 20.077 33.0898C20.1424 33.0898 20.2078 33.0898 20.2732 33.0245C20.404 32.9591 20.4694 32.8283 20.4694 32.7629L20.731 31.2588C20.7964 31.0626 20.6656 30.8664 20.5348 30.801ZM19.7501 32.0435L19.2269 31.7819L19.3577 31.0626L19.8155 31.3242L19.7501 32.0435Z" fill="#80011D"/>
</svg>
