<svg width="48" height="48" viewBox="0 0 48 48" fill="none" xmlns="http://www.w3.org/2000/svg">
<path fill-rule="evenodd" clip-rule="evenodd" d="M47.9711 12.4511C47.917 12.2657 47.7912 12.1095 47.6211 12.0164L38.5593 7.05798C38.2051 6.86425 37.7596 6.99256 37.5647 7.34404L35.5587 10.9608C35.3636 11.3127 35.4925 11.7549 35.8467 11.9488L36.0929 12.0834L33.5362 16.5631L27.4504 20.1424C27.5119 19.1091 27.706 18.1242 27.8878 17.3215C28.0737 16.5009 28.3116 15.6578 28.61 14.7597C28.7508 14.5295 28.8296 14.2749 28.8296 13.9942C28.8296 12.6511 27.0588 11.8951 25.0381 11.648C25.0955 11.0894 25.2106 10.5247 25.3799 9.95905C25.518 9.89408 25.6336 9.78811 25.7083 9.6534L27.7142 6.03659C27.9093 5.68479 27.7804 5.24251 27.4262 5.04867L18.3644 0.090389C18.0099 -0.103344 17.5649 0.0245573 17.3697 0.376446L15.3638 3.99317C15.2569 4.18586 15.2436 4.41576 15.3275 4.61891L12.5554 6.61346L2.94755 9.8592C1.49719 10.3492 1.04042 11.8495 1.43678 13.017C1.79068 14.0592 2.9007 14.9382 4.50099 14.407L7.11417 13.5389L4.00308 20.8257C3.67767 21.5879 3.50036 22.2801 3.24568 23.0336C2.87496 24.1303 3.99634 25.2344 4.96832 25.585C4.9032 25.7713 4.83878 25.9587 4.7754 26.1462C4.41941 27.1986 5.01583 28.3245 6.09054 28.6294C6.35923 28.7057 6.53371 28.7649 6.82481 28.7649C7.55827 28.7649 8.25485 28.3232 8.65571 27.565C8.67533 27.5278 8.69487 27.4907 8.71449 27.4537C9.05726 27.7977 9.3584 27.8933 9.79601 28.0174C10.7017 28.2739 11.6415 27.8209 12.1343 26.8887C12.3381 26.5031 12.5359 26.1227 12.7292 25.7479C13.4717 26.8399 14.6592 26.7204 15.6109 25.8169C16.0991 25.3538 16.7757 24.2136 17.8392 22.3915C18.3815 21.4625 18.9685 20.4568 19.5385 19.5587C19.6775 20.8729 19.6231 22.2311 19.1373 23.6049C18.354 25.8196 16.9636 26.8981 15.606 28.4802C12.6245 31.9555 12.0563 35.4207 13.9008 38.8061C11.1839 39.1468 8.87073 39.6283 7.16238 40.212C4.83056 41.0086 3.69712 41.9609 3.69712 43.1235C3.69712 44.6736 5.71418 45.8655 9.86362 46.7674C17.4252 48.4109 29.61 48.4109 37.1715 46.7674C41.321 45.8655 43.338 44.6736 43.338 43.1235C43.338 41.9609 42.2046 41.0085 39.8728 40.212C38.1642 39.6282 35.8506 39.1467 33.1333 38.8059C33.4533 38.2171 33.7013 37.6251 33.8752 37.0331C33.9463 36.9875 34.016 36.9388 34.0821 36.8831C34.7013 36.3614 35.2654 35.859 35.791 35.3614C36.5448 36.093 37.7251 36.1082 38.4907 35.4036C40.6828 33.3865 42.4873 31.2935 44.0875 28.8455C44.9129 27.583 44.9152 25.0782 44.7869 24.0629C44.4401 21.3274 44.1014 19.2981 44.7896 16.8421C44.9532 16.9316 45.0602 16.9974 45.2609 16.9974C45.5191 16.9974 45.7696 16.8616 45.9029 16.621L47.909 13.0043C48.0029 12.8353 48.0251 12.6363 47.9711 12.4511ZM27.3373 13.9552C27.3223 13.9987 27.3072 14.0424 27.2925 14.0856C26.9734 14.4057 25.6923 14.9773 23.5178 14.9773C21.3435 14.9773 20.0622 14.4057 19.743 14.0856C19.7283 14.0424 19.7132 13.9987 19.6982 13.9551C19.9186 13.6501 21.2186 13.0111 23.5179 13.0111C25.8173 13.0111 27.1171 13.6502 27.3373 13.9552ZM18.2991 1.71539L26.0783 5.97183L24.779 8.31458L16.9998 4.05806L18.2991 1.71539ZM16.5724 21.6621C15.7804 23.0187 14.9615 24.4217 14.5993 24.7653C14.3204 25.0303 14.107 25.0847 14.0646 25.0745C14.0611 25.073 14.0463 25.0634 14.0247 25.0388C13.7004 24.6694 13.7867 24.3149 14.096 23.4692C14.2027 23.1776 14.3103 22.8762 14.3851 22.5564L16.5546 18.8751C16.7589 18.5285 16.6416 18.083 16.2925 17.88C15.9434 17.6771 15.495 17.7935 15.2907 18.1403L13.0657 21.9159L13.0504 21.943C12.306 23.3319 11.5959 24.7771 10.8375 26.2125C10.7923 26.298 10.5493 26.7183 10.1984 26.6188C9.97744 26.5561 9.78521 26.5307 9.67062 26.3145C9.60843 26.1973 9.59828 26.0617 9.64181 25.9327C9.7364 25.6528 9.83434 25.3713 9.93275 25.0943L13.6868 17.8119C13.8711 17.4544 13.7288 17.0162 13.3688 16.8331C13.009 16.6499 12.5676 16.7915 12.3833 17.149L8.44738 24.7862C8.09886 25.4671 7.73841 26.1708 7.35894 26.8887C7.31394 26.9741 7.0721 27.3957 6.71948 27.2949C6.49975 27.2323 6.30678 27.2076 6.19202 26.9908C6.12992 26.8735 6.11977 26.7379 6.16341 26.6088C6.30886 26.1784 6.4599 25.7495 6.61219 25.3323L11.1387 16.4975C11.322 16.1396 11.1785 15.7017 10.8181 15.5194C10.4579 15.3373 10.017 15.4799 9.83348 15.8378L5.53009 24.2373C5.081 24.111 4.62444 23.6155 4.63864 23.4816C4.71986 23.2404 4.79347 23.0058 4.86465 22.7788C5.01461 22.3005 5.15625 21.849 5.35082 21.3934L9.09619 12.6212C9.34135 12.0468 8.78572 11.4495 8.18982 11.6475L4.0361 13.0273C3.21466 13.3004 2.92403 12.8466 2.82407 12.552C2.69267 12.1652 2.73806 11.466 3.41873 11.2361L13.1309 7.95505C13.2002 7.93169 13.2655 7.89813 13.3246 7.85558L16.5991 5.49955L23.9782 9.5372C23.7758 10.2115 23.6409 10.8869 23.576 11.5571C21.0195 11.5427 18.2053 12.3013 18.2053 13.9942C18.2053 14.275 18.2842 14.5296 18.4251 14.7598C18.7234 15.6576 18.9614 16.5007 19.1472 17.3214C19.1584 17.3709 19.1695 17.4206 19.1805 17.4705C18.3333 18.6458 17.4016 20.2414 16.5724 21.6621ZM16.7208 29.4236C18.1572 27.749 19.6254 26.614 20.5191 24.0869C21.4093 21.57 21.0728 19.1945 20.5765 17.0022C20.501 16.6688 20.4167 16.3319 20.3248 15.9906C22.1826 16.5787 24.8531 16.5786 26.7108 15.9905C26.3175 17.4518 25.9342 19.2988 25.969 21.0143C24.1408 22.1087 24.544 24.8666 26.6175 25.3947C26.7876 25.438 26.9594 25.4622 27.1305 25.4689C27.8305 26.7594 28.7125 27.6761 29.5794 28.6084C28.0253 30.9191 26.4212 31.935 24.3134 33.3071C23.3793 33.9152 23.1476 35.1692 23.8025 36.0675L23.9231 36.2329C24.4983 37.0219 25.5631 37.2584 26.4146 36.8122L26.5448 36.991C27.1599 37.8351 28.3242 38.0391 29.1907 37.4805C29.8381 37.063 30.4359 36.6553 30.997 36.2482C31.1214 36.4527 31.2356 36.5639 31.3952 36.7327C31.6372 36.9884 31.9335 37.1629 32.2498 37.2584C31.9299 38.0564 31.4479 38.8609 30.8087 39.66C28.2393 42.8718 27.2217 42.704 23.3031 42.7071C19.6473 42.7129 18.6659 42.7086 16.227 39.66C13.5359 36.296 13.6975 32.9477 16.7208 29.4236ZM30.3413 27.2842C29.6963 26.5903 29.0843 25.9103 28.5786 25.0601L31.5849 23.292C31.298 24.6986 30.9619 26.0077 30.3413 27.2842ZM39.3967 41.5876C41.356 42.257 41.8737 42.8851 41.8737 43.1237C41.8737 43.4388 40.9727 44.4525 36.8587 45.3468C29.5025 46.9456 17.533 46.9455 10.1768 45.3468C6.06251 44.4525 5.16162 43.4388 5.16162 43.1237C5.16162 42.8851 5.67934 42.257 7.63881 41.5876C9.39522 40.9876 11.8563 40.4986 14.7747 40.1673C14.8731 40.3 14.9745 40.4325 15.0803 40.5649C18.0887 44.3268 19.7189 44.1607 23.732 44.1617C27.4863 44.1627 29.0651 44.1771 31.955 40.5649C32.0607 40.4327 32.162 40.3002 32.2603 40.1673C35.179 40.4985 37.6402 40.9876 39.3967 41.5876ZM43.2622 23.6799L43.334 24.2439C43.4703 25.323 43.3556 27.2944 42.8594 28.0534C41.3248 30.401 39.5997 32.4008 37.4957 34.3367C37.3045 34.5125 37.009 34.5088 36.8223 34.3286C38.0869 32.9848 39.6748 31.0672 40.7651 29.2487C40.9719 28.9036 40.858 28.4573 40.5106 28.2517C40.1634 28.0465 39.7138 28.1595 39.5069 28.5045C38.5585 30.0864 36.9265 32.1477 35.3484 33.757C34.6866 34.4168 33.9625 35.0765 33.1349 35.774C32.9365 35.9415 32.6408 35.9248 32.4623 35.7363C32.3326 35.5992 32.2119 35.5028 32.1921 35.3223C33.2707 34.3923 35.4719 32.4257 36.9771 30.6193C37.6206 29.8471 38.2168 28.9353 38.7999 27.8319C38.9878 27.4762 38.8498 27.0367 38.4917 26.85C38.1337 26.6635 37.6911 26.8002 37.5031 27.1559C36.968 28.1689 36.4269 28.9984 35.8491 29.692C34.3095 31.5396 31.9745 33.5912 31.0273 34.3997C30.238 35.0177 29.3764 35.6263 28.3934 36.2602C28.1749 36.4011 27.884 36.3472 27.7312 36.1376L27.6357 36.0066C28.169 35.6334 28.666 35.2653 29.1429 34.8895C31.8042 32.792 34.0426 30.1089 35.6162 27.1303C35.804 26.7747 35.6661 26.335 35.308 26.1484C34.9501 25.9617 34.5073 26.0989 34.3194 26.4545C32.8401 29.2549 30.7353 31.7777 28.2327 33.75C27.4675 34.3531 26.6359 34.9444 25.7715 35.5019C25.553 35.6428 25.2621 35.589 25.1093 35.3794C24.9715 35.1902 24.8593 35.0828 24.9039 34.8413C24.9509 34.5871 25.1217 34.5197 25.349 34.3717C27.339 33.0768 28.9108 32.0539 30.5743 29.7384C32.3853 27.2173 32.8159 24.6805 33.331 21.9784C33.4477 21.3659 32.7785 20.8993 32.2385 21.2172L27.7027 23.8849C27.2503 24.1508 26.6646 24.0017 26.397 23.5525C26.1292 23.1034 26.2792 22.5216 26.7314 22.2556L34.4502 17.7157C34.5601 17.6512 34.6511 17.559 34.7141 17.4486L37.3757 12.7851L43.4762 16.1231C42.6595 18.7599 42.8972 20.8249 43.2622 23.6799ZM44.9737 15.2822L37.1946 11.0256L38.4939 8.68288L46.2731 12.9394L44.9737 15.2822ZM1.67752 41.3093C2.07425 41.7892 1.71141 42.498 1.11198 42.498C0.90033 42.498 0.690422 42.4074 0.545544 42.2322C0.151804 41.7555 -0.0303478 41.244 0.00411465 40.7116C0.178672 38.0145 5.79992 36.5399 10.4848 35.7779C10.8835 35.712 11.2603 35.9816 11.3257 36.378C11.3911 36.7744 11.1205 37.1484 10.7215 37.2132C3.50795 38.3866 1.51267 40.0757 1.4654 40.8049C1.46188 40.8618 1.45064 41.0347 1.67752 41.3093ZM46.8461 40.8596C46.8805 41.4613 46.6491 42.0327 46.1582 42.5577C45.8825 42.8524 45.4192 42.8685 45.1233 42.5956C44.827 42.3222 44.81 41.8621 45.0852 41.5677C45.4004 41.2306 45.388 41.0136 45.3839 40.9423C45.3436 40.2371 43.8787 39.0347 39.8831 37.9666C39.4926 37.8623 39.2614 37.4633 39.3664 37.0754C39.4714 36.6875 39.8732 36.4578 40.2637 36.5621C44.5335 37.7033 46.748 39.1492 46.8461 40.8596Z" fill="#80011D"/>
</svg>
