<svg width="51" height="50" viewBox="0 0 51 50" fill="none" xmlns="http://www.w3.org/2000/svg">
<path d="M29.5818 36.424C29.4693 36.424 29.3553 36.3762 29.2752 36.2853C29.1257 36.1173 29.1427 35.8585 29.3122 35.709C30.4555 34.7028 31.5941 33.635 32.6912 32.5364C38.0318 27.1959 42.2398 21.3746 44.5402 16.1403C45.6481 13.6211 46.2506 11.3822 46.3307 9.48852C46.4093 7.59328 45.9578 6.13873 44.9855 5.168C44.0117 4.19727 42.5603 3.74272 40.665 3.82284C38.7714 3.90142 36.5341 4.50389 34.0132 5.6133C28.7806 7.91686 22.9577 12.1249 17.6172 17.4655C16.5771 18.5055 15.5633 19.581 14.6064 20.6627C14.4569 20.8307 14.1996 20.8476 14.0301 20.6981C13.8622 20.5487 13.8452 20.2914 13.9947 20.1219C14.9623 19.0294 15.987 17.94 17.0394 16.8892C19.7713 14.1573 22.6311 11.715 25.5371 9.62873C28.3491 7.61023 31.0918 6.00776 33.682 4.86907C36.2952 3.71807 38.6327 3.09248 40.6296 3.01082C41.662 2.96768 42.5973 3.07399 43.4077 3.32515C44.2583 3.58864 44.984 4.01545 45.5618 4.5948C46.1396 5.17416 46.5664 5.89836 46.8315 6.7489C47.0826 7.56092 47.1905 8.49467 47.1458 9.52704C47.0611 11.5224 46.4355 13.8599 45.2876 16.4747C44.1473 19.0679 42.5449 21.8075 40.5279 24.6196C38.4432 27.5271 35.9994 30.3839 33.2675 33.1173C32.155 34.2298 31.0071 35.3084 29.8499 36.3269C29.7729 36.3901 29.6773 36.424 29.5818 36.424Z" fill="#80011D"/>
<path d="M9.23443 47.0032C8.43011 47.0032 7.69205 46.9077 7.03103 46.7182C6.12348 46.4578 5.35306 46.0171 4.74597 45.41C4.1435 44.8075 3.7059 44.0464 3.44396 43.1511C3.19435 42.2975 3.10498 41.3098 3.17586 40.2189C3.24365 39.1634 3.46399 38.0001 3.82763 36.7582C4.18665 35.5378 4.68588 34.2312 5.31762 32.8768C5.41315 32.6734 5.65506 32.584 5.86 32.678C6.06339 32.7736 6.15275 33.0155 6.05876 33.2204C4.81685 35.8876 4.12193 38.2589 3.99096 40.2697C3.86153 42.2821 4.30837 43.8183 5.32378 44.8322C6.34844 45.8568 7.90315 46.3037 9.94321 46.1604C11.9848 46.0186 14.387 45.2991 17.0896 44.0248C17.293 43.9277 17.538 44.0155 17.632 44.2205C17.7291 44.4239 17.6412 44.6689 17.4363 44.7628C16.065 45.41 14.7414 45.9262 13.5056 46.2944C12.2483 46.6704 11.0696 46.8984 10.0002 46.974C9.73982 46.994 9.4825 47.0032 9.23443 47.0032Z" fill="#80011D"/>
<path d="M10.2955 44.5303C10.0983 44.5303 9.90725 44.5226 9.72081 44.5072C8.51433 44.4117 7.54823 44.008 6.84714 43.3069C6.15685 42.6166 5.75469 41.6674 5.653 40.4872C5.55592 39.3885 5.72079 38.0912 6.14144 36.632C6.20462 36.4163 6.42958 36.2899 6.64684 36.3531C6.86255 36.4163 6.9889 36.6412 6.92573 36.8585C6.1399 39.5858 6.31247 41.6166 7.42496 42.7291C8.55593 43.8601 10.6314 44.0203 13.425 43.1913C13.6407 43.1266 13.8672 43.2514 13.9319 43.4671C13.9966 43.6829 13.8718 43.9094 13.6561 43.9741C12.4142 44.3439 11.2863 44.5303 10.2955 44.5303Z" fill="#80011D"/>
<path d="M30.2192 33.0757C30.1113 33.0757 30.0035 33.0341 29.9234 32.9493C29.7693 32.786 29.7739 32.5271 29.9372 32.3715C30.3764 31.9555 30.817 31.5256 31.2469 31.0926C36.0282 26.3114 39.8618 21.1634 42.039 16.5933C43.0852 14.3961 43.6907 12.4623 43.834 10.8429C43.9758 9.24194 43.6568 8.04009 42.8833 7.26658C42.1098 6.49308 40.9095 6.17413 39.3071 6.31589C37.6876 6.45918 35.7539 7.06165 33.5567 8.11097C28.9881 10.2897 23.8401 14.1218 19.0574 18.903C18.6059 19.3545 18.156 19.8167 17.7199 20.2759C17.5658 20.4392 17.307 20.4469 17.1421 20.2913C16.9788 20.1372 16.9711 19.8784 17.1267 19.715C17.5674 19.2497 18.0219 18.7828 18.4796 18.3267C20.9264 15.8799 23.4703 13.6749 26.042 11.7751C28.5289 9.93532 30.9388 8.45457 33.2038 7.37444C37.9804 5.09554 41.6229 4.85363 43.4581 6.68877C45.2932 8.52391 45.0513 12.168 42.7724 16.9431C41.6923 19.2066 40.2115 21.618 38.3718 24.1049C36.4719 26.675 34.267 29.2205 31.8201 31.6673C31.3841 32.1034 30.9388 32.5379 30.4935 32.9601C30.421 33.0387 30.3209 33.0757 30.2192 33.0757Z" fill="#80011D"/>
<path d="M45.537 15.2356C45.4815 15.2356 45.4229 15.2233 45.3659 15.1986C45.161 15.1062 45.0701 14.8627 45.1641 14.6578L49.2565 5.71319L44.4414 0.898061L36.0331 4.8118C35.8297 4.90733 35.5847 4.8195 35.4907 4.61303C35.3952 4.40964 35.483 4.16464 35.6895 4.07065L44.3567 0.0382716C44.5108 -0.0341479 44.6957 -0.00179008 44.8174 0.118396L50.0347 5.33569C50.1564 5.45741 50.1872 5.63923 50.1179 5.79486L45.9098 14.9968C45.839 15.1478 45.691 15.2356 45.537 15.2356Z" fill="#80011D"/>
<path d="M5.78014 50.0003C5.67536 50.0003 5.56905 49.9587 5.492 49.8801L0.27473 44.6628C0.153004 44.5411 0.120646 44.3577 0.194606 44.2021L4.22698 35.5349C4.32251 35.3315 4.56442 35.2421 4.76935 35.3361C4.97274 35.4316 5.06211 35.6735 4.96812 35.8785L1.05439 44.2869L5.86951 49.102L14.8141 45.0095C15.019 44.9171 15.2624 45.0064 15.3549 45.2114C15.4473 45.4163 15.358 45.6597 15.1531 45.7522L5.95117 49.9649C5.8957 49.9895 5.83869 50.0003 5.78014 50.0003Z" fill="#80011D"/>
<path d="M17.9467 44.8473C16.3057 44.8473 14.7048 44.5361 13.1901 43.9213C11.6216 43.2849 10.2148 42.3512 9.00829 41.1447C7.80182 39.9382 6.86653 38.5314 6.23171 36.9628C5.61691 35.4482 5.30566 33.8488 5.30566 32.2062C5.30566 30.5653 5.61691 28.9643 6.23171 27.4497C6.86807 25.8811 7.80182 24.4743 9.00829 23.2678C10.2148 22.0613 11.6216 21.1261 13.1901 20.4912C14.7048 19.8764 16.3042 19.5652 17.9467 19.5652C19.5877 19.5652 21.1886 19.8764 22.7033 20.4912C24.2718 21.1276 25.6786 22.0613 26.8851 23.2678C28.0916 24.4743 29.0268 25.8811 29.6617 27.4497C30.2765 28.9643 30.5877 30.5637 30.5877 32.2062C30.5877 33.8472 30.2765 35.4482 29.6617 36.9628C29.0253 38.5314 28.0916 39.9382 26.8851 41.1447C25.6786 42.3512 24.2718 43.2864 22.7033 43.9213C21.1886 44.5361 19.5892 44.8473 17.9467 44.8473ZM17.9467 20.3834C14.788 20.3834 11.8203 21.613 9.58611 23.8472C7.35343 26.0799 6.12385 29.0491 6.12385 32.2062C6.12385 35.365 7.35344 38.3326 9.58765 40.5669C14.1994 45.1755 21.6986 45.1755 26.3088 40.5669C28.5415 38.3342 29.7726 35.3634 29.7726 32.2062C29.7726 29.0475 28.543 26.0799 26.3088 23.8456C24.0731 21.6114 21.1054 20.3834 17.9467 20.3834Z" fill="#80011D"/>
<path d="M17.9491 37.9983C16.4036 37.9983 14.9491 37.3958 13.8551 36.3034C12.7611 35.2094 12.1602 33.7564 12.1602 32.2094C12.1602 30.6623 12.7626 29.2093 13.8551 28.1153C14.9491 27.0213 16.4021 26.4204 17.9491 26.4204C19.4945 26.4204 20.9491 27.0229 22.0431 28.1153C23.1371 29.2078 23.738 30.6623 23.738 32.2094C23.738 33.7548 23.1355 35.2094 22.0431 36.3034C20.9491 37.3958 19.4961 37.9983 17.9491 37.9983ZM17.9491 27.234C16.6209 27.234 15.3728 27.7517 14.4329 28.6901C12.493 30.63 12.493 33.7841 14.4329 35.7256C16.3728 37.6655 19.5269 37.6655 21.4684 35.7256C23.4083 33.7856 23.4083 30.6315 21.4684 28.6901C20.5254 27.7517 19.2773 27.234 17.9491 27.234Z" fill="#80011D"/>
<path d="M37.77 12.0569C37.1845 12.0569 36.6329 11.8288 36.2215 11.4143C35.3663 10.5592 35.3663 9.16933 36.2215 8.31416C36.6359 7.89967 37.186 7.67163 37.77 7.67163C38.3555 7.67163 38.9071 7.89967 39.3185 8.31416C39.7315 8.72865 39.9611 9.27873 39.9611 9.86271C39.9611 10.4482 39.733 10.9998 39.3185 11.4113C38.9056 11.8288 38.3555 12.0569 37.77 12.0569ZM37.77 8.48828C37.4033 8.48828 37.0566 8.63003 36.7962 8.89044C36.26 9.42665 36.26 10.2988 36.7962 10.8365C37.0566 11.0969 37.4017 11.2387 37.77 11.2387C38.1383 11.2387 38.4834 11.0969 38.7438 10.8365C39.0042 10.5761 39.146 10.231 39.146 9.86271C39.146 9.49445 39.0042 9.1493 38.7438 8.8889C38.4834 8.62849 38.1367 8.48828 37.77 8.48828Z" fill="#80011D"/>
<path d="M40.2925 14.5791C39.7069 14.5791 39.1553 14.351 38.7439 13.9366C37.8887 13.0814 37.8887 11.6915 38.7439 10.8364C39.1584 10.4219 39.7085 10.1938 40.2925 10.1938C40.878 10.1938 41.4296 10.4219 41.841 10.8364C42.2539 11.2509 42.4835 11.8009 42.4835 12.3849C42.4835 12.9704 42.2555 13.5221 41.841 13.9335C41.4281 14.351 40.878 14.5791 40.2925 14.5791ZM40.2925 11.0105C39.9257 11.0105 39.579 11.1523 39.3186 11.4127C38.7824 11.9489 38.7824 12.821 39.3186 13.3587C39.579 13.6191 39.9242 13.7609 40.2925 13.7609C40.6607 13.7609 41.0059 13.6191 41.2663 13.3587C41.5267 13.0983 41.6684 12.7532 41.6684 12.3849C41.6684 12.0167 41.5267 11.6715 41.2663 11.4111C41.0059 11.1507 40.6607 11.0105 40.2925 11.0105Z" fill="#80011D"/>
<path d="M37.5251 14.4637C36.9395 14.4637 36.3879 14.2356 35.9765 13.8212C35.5636 13.4067 35.334 12.8566 35.334 12.2726C35.334 11.6871 35.562 11.1355 35.9765 10.7241C36.1368 10.5638 36.3941 10.5638 36.5543 10.7241C36.7146 10.8843 36.7146 11.1416 36.5543 11.3019C36.2939 11.5623 36.1522 11.9074 36.1522 12.2757C36.1522 12.6424 36.2939 12.9891 36.5543 13.2495C36.8147 13.5099 37.1599 13.6517 37.5281 13.6517C37.8964 13.6517 38.2415 13.5099 38.5019 13.2495C38.6622 13.0893 38.9195 13.0893 39.0798 13.2495C39.24 13.4098 39.24 13.6671 39.0798 13.8273C38.6622 14.2341 38.1121 14.4637 37.5251 14.4637Z" fill="#80011D"/>
<path d="M29.0475 19.5223C27.8826 19.5223 26.7886 19.0693 25.9658 18.2449C25.143 17.4206 24.6885 16.3266 24.6885 15.1632C24.6885 13.9999 25.1415 12.9044 25.9658 12.0816C26.7902 11.2587 27.8842 10.8042 29.0475 10.8042C30.2108 10.8042 31.3064 11.2572 32.1292 12.0816C32.952 12.9059 33.4065 13.9999 33.4065 15.1632C33.4065 16.3266 32.9535 17.4221 32.1292 18.2449C31.3033 19.0662 30.2093 19.5223 29.0475 19.5223ZM29.0475 11.6224C28.1415 11.6224 27.2324 11.9691 26.5421 12.6594C25.1615 14.04 25.1615 16.2865 26.5421 17.6671C27.9227 19.0477 30.1692 19.0477 31.5498 17.6671C32.9304 16.2865 32.9304 14.04 31.5498 12.6594C30.8595 11.9691 29.9535 11.6224 29.0475 11.6224Z" fill="#80011D"/>
<path d="M25.1414 15.7906C25.049 15.7906 24.955 15.7582 24.8779 15.6935C24.7054 15.5471 24.6853 15.2913 24.8286 15.1188C24.861 15.0803 25.6314 14.1773 26.9457 13.45C27.7223 13.0201 28.5297 12.7382 29.3448 12.6149C30.3695 12.4608 31.4049 12.5533 32.4265 12.8938C32.6407 12.9662 32.7562 13.1958 32.6853 13.41C32.6129 13.6242 32.3833 13.7397 32.1692 13.6688C30.5482 13.128 28.9334 13.2913 27.3664 14.1496C26.1753 14.8029 25.4604 15.638 25.4542 15.6442C25.3741 15.7413 25.257 15.7906 25.1414 15.7906Z" fill="#80011D"/>
<path d="M27.6758 17.789C27.0055 17.789 26.3322 17.6842 25.665 17.4746C25.4508 17.4084 25.3291 17.1773 25.3984 16.9631C25.4647 16.7489 25.6958 16.6272 25.91 16.6965C27.5402 17.2081 29.1519 17.0155 30.702 16.1295C31.8807 15.4546 32.5818 14.6087 32.588 14.5994C32.7297 14.4253 32.9886 14.3991 33.1627 14.5409C33.3368 14.6826 33.363 14.94 33.2212 15.1156C33.1889 15.1541 32.4354 16.0709 31.1349 16.8229C30.3661 17.2666 29.5648 17.5625 28.7513 17.6996C28.3923 17.7582 28.0348 17.789 27.6758 17.789Z" fill="#80011D"/>
<path d="M25.6571 16.5101C25.4814 16.5101 25.3196 16.396 25.2672 16.2188C25.2025 16.0031 25.3258 15.7766 25.5415 15.7119L32.523 13.6164C32.7387 13.5516 32.9653 13.6749 33.03 13.8906C33.0947 14.1063 32.9714 14.3328 32.7557 14.3976L25.7726 16.4931C25.7372 16.5039 25.6956 16.5101 25.6571 16.5101Z" fill="#80011D"/>
<path d="M35.6813 24.0582C34.5164 24.0582 33.4224 23.6052 32.5996 22.7808C31.7768 21.9565 31.3223 20.8625 31.3223 19.6991C31.3223 18.5358 31.7753 17.4403 32.5996 16.6174C33.424 15.7946 34.518 15.3401 35.6813 15.3401C36.8446 15.3401 37.9402 15.7931 38.763 16.6174C39.5858 17.4418 40.0403 18.5358 40.0403 19.6991C40.0403 20.8625 39.5873 21.958 38.763 22.7808C37.9402 23.6052 36.8462 24.0582 35.6813 24.0582ZM35.6813 16.1614C34.7753 16.1614 33.8662 16.508 33.1759 17.1983C31.7953 18.5789 31.7953 20.8255 33.1759 22.2061C33.8446 22.8748 34.7337 23.2446 35.6813 23.2446C36.6274 23.2446 37.5164 22.8763 38.1867 22.2061C39.5673 20.8255 39.5673 18.5789 38.1867 17.1983C37.4964 16.508 36.5873 16.1614 35.6813 16.1614Z" fill="#80011D"/>
<path d="M36.3411 18.738C36.1161 18.738 35.9343 18.5546 35.9343 18.3312C35.9343 18.0061 35.6693 17.7411 35.3441 17.7411C35.019 17.7411 34.754 18.0061 34.754 18.3312C34.754 18.5562 34.5706 18.738 34.3472 18.738C34.1238 18.738 33.9404 18.5546 33.9404 18.3312C33.9404 17.5562 34.5706 16.9244 35.3472 16.9244C36.1238 16.9244 36.754 17.5546 36.754 18.3312C36.7478 18.5562 36.566 18.738 36.3411 18.738Z" fill="#80011D"/>
<path d="M35.6738 22.2372C35.6292 22.2372 35.5845 22.2295 35.5398 22.2141C34.8079 21.9614 34.415 21.1602 34.6692 20.4252C34.9219 19.6933 35.7232 19.3004 36.4581 19.5546C36.6708 19.6286 36.7848 19.8597 36.7108 20.0723C36.6369 20.285 36.4057 20.399 36.1931 20.325C35.8865 20.2202 35.549 20.3836 35.4427 20.6902C35.3379 20.9984 35.5013 21.3343 35.8079 21.4406C36.0205 21.5145 36.1346 21.7457 36.0606 21.9583C36.0005 22.1324 35.8418 22.2372 35.6738 22.2372Z" fill="#80011D"/>
<path d="M40.7052 35.222C40.602 35.222 40.4956 35.182 40.4171 35.1019L15.2305 9.91834C15.0703 9.75809 15.0703 9.50077 15.2305 9.34052C15.3908 9.18028 15.6481 9.18028 15.8084 9.34052L40.9949 34.5271C41.1551 34.6874 41.1551 34.9447 40.9949 35.1049C40.9132 35.1835 40.81 35.222 40.7052 35.222Z" fill="#80011D"/>
<path d="M43.1766 39.6995C42.5495 39.6995 41.9239 39.4606 41.4462 38.9845L38.2043 35.7426C38.1535 35.6917 38.1165 35.6285 38.0995 35.5592L37.0379 31.5746C37.0009 31.4328 37.041 31.2834 37.1458 31.1801C37.249 31.0769 37.4 31.0384 37.5433 31.0769L41.4878 32.1786C41.5556 32.1986 41.6173 32.2325 41.6666 32.2834L44.9085 35.5253C45.8623 36.4791 45.8623 38.0323 44.9085 38.986C44.4278 39.4606 43.8006 39.6995 43.1766 39.6995ZM42.0225 38.4067C42.3291 38.7133 42.739 38.8843 43.1751 38.8843C43.6111 38.8843 44.0194 38.7133 44.3276 38.4067C44.6342 38.1001 44.8053 37.6902 44.8053 37.2541C44.8053 36.8181 44.6342 36.4098 44.3276 36.1016L41.1596 32.9352L38.0071 32.0538L38.8576 35.2418L42.0225 38.4067Z" fill="#80011D"/>
<path d="M18.6903 13.1369C18.6548 13.1369 18.6194 13.1323 18.5855 13.1231L14.6009 12.0614C14.53 12.0414 14.4669 12.0075 14.4175 11.9567L11.1725 8.71165C10.7103 8.24939 10.4561 7.6346 10.4561 6.98128C10.4561 6.32796 10.7103 5.71317 11.1725 5.25092C11.6348 4.78866 12.2496 4.53442 12.9029 4.53442C13.5562 4.53442 14.171 4.78866 14.6333 5.25092L17.8752 8.49593C17.9245 8.54523 17.9615 8.60687 17.98 8.67466L19.0817 12.6192C19.1202 12.7594 19.0817 12.9104 18.9784 13.0168C18.9029 13.0923 18.7966 13.1369 18.6903 13.1369ZM14.9168 11.2987L18.1048 12.1493L17.225 8.9967L14.0554 5.82719C13.7488 5.52056 13.339 5.34953 12.9029 5.34953C12.4668 5.34953 12.0585 5.52056 11.7504 5.82719C11.4422 6.13536 11.2727 6.54368 11.2727 6.97974C11.2727 7.4158 11.4437 7.82412 11.7504 8.13229L14.9168 11.2987Z" fill="#80011D"/>
<path d="M21.7765 49.7105C19.9044 49.7105 18.2157 48.598 17.4776 46.8769C17.3882 46.6688 17.4853 46.4285 17.6918 46.3406C17.8998 46.2513 18.1402 46.3483 18.228 46.5548C18.8382 47.9755 20.2311 48.8938 21.7765 48.8938C23.3497 48.8938 24.7519 47.9524 25.3498 46.4978C25.436 46.2883 25.6733 46.1881 25.8813 46.2744C26.0909 46.3607 26.191 46.598 26.1048 46.806C25.7565 47.655 25.1726 48.3761 24.4129 48.8969C23.6348 49.4285 22.7226 49.7105 21.7765 49.7105Z" fill="#80011D"/>
<path d="M29.7258 49.7105C27.8536 49.7105 26.1649 48.598 25.4268 46.8769C25.3375 46.6688 25.4345 46.4285 25.641 46.3406C25.849 46.2513 26.0894 46.3483 26.1772 46.5548C26.7874 47.9755 28.1803 48.8938 29.7258 48.8938C31.299 48.8938 32.7011 47.9524 33.299 46.4978C33.3853 46.2883 33.6225 46.1881 33.8306 46.2744C34.0401 46.3607 34.1403 46.598 34.054 46.806C33.7057 47.655 33.1218 48.3761 32.3621 48.8969C31.584 49.4285 30.6718 49.7105 29.7258 49.7105Z" fill="#80011D"/>
<path d="M37.676 49.7105C35.8038 49.7105 34.1151 48.598 33.377 46.8769C33.2877 46.6688 33.3847 46.4285 33.5912 46.3406C33.7992 46.2513 34.0396 46.3483 34.1274 46.5548C34.7376 47.9755 36.1305 48.8938 37.676 48.8938C39.2492 48.8938 40.6513 47.9524 41.2492 46.4978C41.3354 46.2883 41.5727 46.1881 41.7807 46.2744C41.9903 46.3607 42.0905 46.598 42.0042 46.806C41.6559 47.655 41.072 48.3761 40.3123 48.8969C39.5327 49.4285 38.6236 49.7105 37.676 49.7105Z" fill="#80011D"/>
<path d="M45.7795 49.7105C43.9074 49.7105 42.2186 48.598 41.4805 46.8769C41.3912 46.6688 41.4882 46.4285 41.6947 46.3406C41.9027 46.2513 42.1431 46.3483 42.2309 46.5548C42.8411 47.9755 44.234 48.8938 45.7795 48.8938C47.3527 48.8938 48.7548 47.9524 49.3527 46.4978C49.439 46.2883 49.6763 46.1881 49.8843 46.2744C50.0938 46.3607 50.194 46.598 50.1077 46.806C49.7595 47.655 49.1755 48.3761 48.4158 48.8969C47.6362 49.4285 46.724 49.7105 45.7795 49.7105Z" fill="#80011D"/>
<path d="M13.8472 49.7104C13.6222 49.7104 13.4404 49.5271 13.4404 49.3037C13.4404 49.0802 13.6238 48.8969 13.8472 48.8969C15.4204 48.8969 16.8226 47.9554 17.4204 46.5009C17.5067 46.2913 17.744 46.1912 17.952 46.2774C18.1616 46.3637 18.2617 46.601 18.1754 46.809C17.8272 47.658 17.2432 48.3792 16.4836 48.9C15.7039 49.4285 14.7917 49.7104 13.8472 49.7104Z" fill="#80011D"/>
<path d="M25.6451 44.4037C25.4201 44.4037 25.2383 44.2203 25.2383 43.9969C25.2383 43.7719 25.4216 43.5901 25.6451 43.5901C27.2183 43.5901 28.6204 42.6487 29.2183 41.1941C29.3046 40.9845 29.5418 40.8844 29.7499 40.9707C29.9594 41.057 30.0596 41.2943 29.9733 41.5023C29.625 42.3513 29.0411 43.0724 28.2814 43.5932C27.5018 44.1217 26.5911 44.4037 25.6451 44.4037Z" fill="#80011D"/>
<path d="M33.5949 44.4036C31.7228 44.4036 30.034 43.2911 29.296 41.57C29.2066 41.362 29.3037 41.1216 29.5102 41.0338C29.7182 40.9444 29.9585 41.0415 30.0464 41.2479C30.6565 42.6686 32.0494 43.5869 33.5949 43.5869C35.1681 43.5869 36.5703 42.6455 37.1681 41.1909C37.2544 40.9814 37.4917 40.8812 37.6997 40.9675C37.9093 41.0538 38.0094 41.2911 37.9231 41.4991C37.5749 42.3481 36.9909 43.0692 36.2313 43.59C35.4532 44.1216 34.541 44.4036 33.5949 44.4036Z" fill="#80011D"/>
<path d="M41.6974 44.4036C39.8253 44.4036 38.1366 43.2911 37.3985 41.57C37.3091 41.362 37.4062 41.1216 37.6127 41.0338C37.8207 40.9444 38.0611 41.0415 38.1489 41.2479C38.7591 42.6686 40.152 43.5869 41.6974 43.5869C43.2706 43.5869 44.6728 42.6455 45.2706 41.1909C45.3569 40.9814 45.5942 40.8812 45.8022 40.9675C46.0118 41.0538 46.1119 41.2911 46.0257 41.4991C45.6774 42.3481 45.0935 43.0692 44.3338 43.59C43.5542 44.1216 42.6435 44.4036 41.6974 44.4036Z" fill="#80011D"/>
<path d="M8.71405 3.58864C6.84193 3.58864 5.15317 2.47615 4.41511 0.755032C4.32574 0.547019 4.42282 0.306647 4.62929 0.218819C4.8373 0.129451 5.07767 0.226523 5.1655 0.432996C5.77567 1.85365 7.16859 2.77199 8.71405 2.77199C10.2872 2.77199 11.6894 1.83054 12.2872 0.375985C12.3735 0.166431 12.6108 0.0662763 12.8188 0.152563C13.0284 0.238851 13.1285 0.47614 13.0423 0.684154C12.694 1.53316 12.1101 2.25427 11.3504 2.77508C10.5708 3.30667 9.65858 3.58864 8.71405 3.58864Z" fill="#80011D"/>
<path d="M16.6652 3.58864C14.7931 3.58864 13.1043 2.47615 12.3663 0.755032C12.2769 0.547019 12.374 0.306647 12.5805 0.218819C12.7885 0.129451 13.0288 0.226523 13.1167 0.432996C13.7268 1.85365 15.1198 2.77199 16.6652 2.77199C18.2384 2.77199 19.6406 1.83054 20.2384 0.375985C20.3247 0.166431 20.562 0.0662763 20.77 0.152563C20.9796 0.238851 21.0797 0.47614 20.9934 0.684154C20.6452 1.53316 20.0612 2.25427 19.3016 2.77508C18.5235 3.30667 17.6113 3.58864 16.6652 3.58864Z" fill="#80011D"/>
<path d="M24.6135 3.58864C22.7413 3.58864 21.0526 2.47615 20.3145 0.755032C20.2252 0.547019 20.3222 0.306647 20.5287 0.218819C20.7367 0.129451 20.9771 0.226523 21.0649 0.432996C21.6751 1.85365 23.068 2.77199 24.6135 2.77199C26.1867 2.77199 27.5888 1.83054 28.1867 0.375985C28.2729 0.166431 28.5102 0.0662763 28.7183 0.152563C28.9278 0.238851 29.028 0.47614 28.9417 0.684154C28.5934 1.53316 28.0095 2.25427 27.2498 2.77508C26.4717 3.30667 25.5611 3.58864 24.6135 3.58864Z" fill="#80011D"/>
<path d="M32.7189 3.58864C30.8468 3.58864 29.1581 2.47615 28.42 0.755032C28.3306 0.547019 28.4277 0.306647 28.6342 0.218819C28.8422 0.129451 29.0826 0.226523 29.1704 0.432996C29.7806 1.85365 31.1735 2.77199 32.7189 2.77199C34.2921 2.77199 35.6943 1.83054 36.2921 0.375985C36.3784 0.166431 36.6157 0.0662763 36.8237 0.152563C37.0317 0.238851 37.1334 0.47614 37.0471 0.684154C36.6989 1.53316 36.1149 2.25427 35.3553 2.77508C34.5756 3.30667 33.6665 3.58864 32.7189 3.58864Z" fill="#80011D"/>
<path d="M0.784711 3.58861C0.559749 3.58861 0.37793 3.40525 0.37793 3.18183C0.37793 2.95687 0.56129 2.77505 0.784711 2.77505C2.35791 2.77505 3.76007 1.83359 4.35791 0.379037C4.4442 0.169483 4.68149 0.0693281 4.8895 0.155615C5.09905 0.241902 5.19921 0.479192 5.11292 0.687206C4.76469 1.53621 4.18071 2.25732 3.42108 2.77813C2.64142 3.30664 1.73078 3.58861 0.784711 3.58861Z" fill="#80011D"/>
<path d="M8.71405 15.8333C6.84193 15.8333 5.15317 14.7208 4.41511 12.9997C4.32574 12.7916 4.42282 12.5513 4.62929 12.4634C4.8373 12.3741 5.07767 12.4712 5.1655 12.6776C5.77567 14.0983 7.16859 15.0166 8.71405 15.0166C10.2872 15.0166 11.6894 14.0752 12.2872 12.6206C12.3735 12.4111 12.6108 12.3109 12.8188 12.3972C13.0268 12.4835 13.1285 12.7208 13.0423 12.9288C12.694 13.7778 12.1101 14.4989 11.3504 15.0197C10.5708 15.5513 9.65858 15.8333 8.71405 15.8333Z" fill="#80011D"/>
<path d="M16.6652 15.8334C14.7931 15.8334 13.1043 14.7209 12.3663 12.9998C12.2769 12.7918 12.374 12.5514 12.5805 12.4636C12.7885 12.3742 13.0288 12.4713 13.1167 12.6778C13.7268 14.0984 15.1198 15.0167 16.6652 15.0167C16.8902 15.0167 17.072 15.2001 17.072 15.4235C17.072 15.647 16.8917 15.8334 16.6652 15.8334Z" fill="#80011D"/>
<path d="M0.784711 15.8332C0.559749 15.8332 0.37793 15.6499 0.37793 15.4265C0.37793 15.203 0.56129 15.0197 0.784711 15.0197C2.35791 15.0197 3.76007 14.0782 4.35791 12.6237C4.4442 12.4141 4.68149 12.314 4.8895 12.4002C5.09905 12.4865 5.19921 12.7238 5.11292 12.9318C4.76469 13.7808 4.18071 14.502 3.42108 15.0228C2.64142 15.5513 1.73078 15.8332 0.784711 15.8332Z" fill="#80011D"/>
<path d="M3.81732 9.70998C3.07156 9.70998 2.35815 9.53895 1.69713 9.20304C1.06847 8.88101 0.509146 8.41413 0.0823338 7.8471C-0.0532598 7.66836 -0.0178203 7.41104 0.162458 7.27545C0.341195 7.13985 0.598514 7.17529 0.732567 7.35557C1.47063 8.33247 2.59236 8.89333 3.81578 8.89333C5.38898 8.89333 6.79114 7.95188 7.38898 6.49732C7.47527 6.28777 7.71256 6.18761 7.92057 6.2739C8.12858 6.36019 8.23028 6.59748 8.14399 6.80549C7.79576 7.6545 7.21178 8.37561 6.45215 8.89642C5.67557 9.42801 4.7634 9.70998 3.81732 9.70998Z" fill="#80011D"/>
<path d="M19.7183 9.71068C19.4933 9.71068 19.3115 9.52732 19.3115 9.3039C19.3115 9.08048 19.4949 8.89712 19.7183 8.89712C21.2915 8.89712 22.6937 7.95566 23.2915 6.50111C23.3778 6.29155 23.6151 6.1914 23.8231 6.27769C24.0326 6.36397 24.1328 6.60126 24.0465 6.80928C23.6983 7.65828 23.1143 8.37939 22.3547 8.9002C21.575 9.42871 20.6644 9.71068 19.7183 9.71068Z" fill="#80011D"/>
<path d="M25.0879 8.91219C25.0047 8.91219 24.923 8.88754 24.8506 8.83515C24.1572 8.33592 23.6118 7.65949 23.2774 6.87674C23.188 6.66873 23.2851 6.42836 23.4916 6.34053C23.6996 6.25116 23.94 6.34823 24.0278 6.55471C24.3052 7.20186 24.7551 7.75964 25.3283 8.17259C25.5116 8.30356 25.5532 8.55934 25.4207 8.74116C25.3391 8.8521 25.2142 8.91219 25.0879 8.91219Z" fill="#80011D"/>
</svg>
