<svg width="51" height="48" viewBox="0 0 51 48" fill="none" xmlns="http://www.w3.org/2000/svg">
<path d="M41.7809 3.28752V5.34894H38.7484L38.7463 3.28752C38.7463 1.75141 37.5032 0.508303 35.9775 0.508303H39.01C40.5357 0.506211 41.7809 1.75141 41.7809 3.28752Z" fill="#80011D"/>
<path d="M41.7805 5.85563H38.748C38.4697 5.85563 38.2416 5.62962 38.2416 5.34918V3.28776C38.2416 2.03421 37.2266 1.01291 35.9772 1.01291C35.6988 1.01291 35.4707 0.786882 35.4707 0.506453C35.4707 0.228113 35.6967 0 35.9772 0H39.0097C40.8157 0 42.2849 1.47332 42.2849 3.28566V5.34708C42.2849 5.6296 42.0589 5.85563 41.7805 5.85563ZM39.2524 4.84483H41.274V3.28782C41.274 2.03427 40.259 1.01296 39.0096 1.01296H38.3378C38.9029 1.60315 39.2524 2.40678 39.2524 3.28782L39.2524 4.84483Z" fill="#80011D"/>
<path d="M49.4328 45.2377V46.4097C49.4328 47.0061 48.9473 47.4916 48.3509 47.4916H45.3184C45.9253 47.4916 46.4108 47.0061 46.4108 46.4097V45.2377C46.4108 44.6308 45.9253 44.1453 45.3184 44.1453H43.6399V16.8428C43.7111 16.8532 43.7823 16.8532 43.8513 16.8532C46.0257 16.8532 47.5807 14.7416 46.955 12.6677L45.2179 6.94581C44.9249 5.99571 44.0564 5.349 43.0645 5.349H46.0969C47.0869 5.349 47.9575 5.99565 48.2504 6.94581L49.9791 12.6677C50.6153 14.7395 49.0582 16.8532 46.8755 16.8532C46.8043 16.8532 46.7436 16.8532 46.6725 16.8428V44.1453H48.3509C48.9473 44.1453 49.4328 44.6308 49.4328 45.2377Z" fill="#80011D"/>
<path d="M48.3495 47.9982H45.317C45.0387 47.9982 44.8106 47.7721 44.8106 47.4917C44.8106 47.2134 45.0366 46.9853 45.317 46.9853C45.6414 46.9853 45.903 46.7258 45.903 46.4098V45.2378C45.903 44.9092 45.6456 44.6518 45.317 44.6518H43.6386C43.3603 44.6518 43.1321 44.4258 43.1321 44.1453L43.1342 16.8428C43.1342 16.6963 43.197 16.5582 43.3079 16.462C43.4168 16.3657 43.5633 16.3217 43.7098 16.3427C43.7579 16.3489 43.8018 16.3468 43.8521 16.3468C44.7227 16.3468 45.5221 15.9429 46.0453 15.2398C46.5685 14.5345 46.7255 13.6492 46.4723 12.8122L44.7332 7.09247C44.505 6.35163 43.8332 5.85354 43.0631 5.85354C42.7827 5.85354 42.5566 5.62752 42.5566 5.34709C42.5566 5.06875 42.7827 4.84064 43.0631 4.84064H46.0956C47.3115 4.84064 48.3705 5.62541 48.7304 6.79319L50.4591 12.5172C50.8086 13.6577 50.6014 14.8674 49.8899 15.8321C49.2348 16.7174 48.2596 17.2573 47.1755 17.341V43.6347H48.3475C49.2223 43.6347 49.9338 44.3504 49.9338 45.2315V46.4035C49.9359 47.2845 49.2243 47.9982 48.3495 47.9982ZM46.8071 46.9853H48.3516C48.6676 46.9853 48.9271 46.7258 48.9271 46.4098V45.2378C48.9271 44.9134 48.6676 44.6518 48.3516 44.6518H46.8029C46.8741 44.8339 46.9139 45.0306 46.9139 45.2378V46.4098C46.9139 46.6149 46.8762 46.8074 46.8071 46.9853ZM44.145 43.641H45.317C45.6288 43.641 45.9197 43.731 46.1667 43.8859V16.8427C46.1667 16.6962 46.2295 16.558 46.3404 16.4618C46.4513 16.3655 46.5957 16.3216 46.7422 16.3425C46.7882 16.3488 46.8301 16.3488 46.8761 16.3467C47.7551 16.3467 48.5566 15.9428 49.0799 15.2354C49.601 14.5301 49.7517 13.6491 49.4963 12.8141L47.7677 7.09223C47.5395 6.35348 46.8677 5.85331 46.0976 5.85331H45.1977C45.4195 6.12537 45.5911 6.44349 45.7 6.79505L47.4412 12.5169C47.7886 13.6637 47.5751 14.8754 46.8573 15.8402C46.2001 16.7234 45.2249 17.2612 44.1471 17.3428L44.145 43.641Z" fill="#80011D"/>
<path d="M43.6399 44.6518H3.70079C3.42245 44.6518 3.19434 44.4257 3.19434 44.1453V16.8514C3.19434 16.573 3.42036 16.3449 3.70079 16.3449C3.97914 16.3449 4.20725 16.571 4.20725 16.8514V43.639H43.1354V16.8428C43.1354 16.5645 43.3614 16.3364 43.6418 16.3364C43.9202 16.3364 44.1483 16.5624 44.1483 16.8428V44.1453C44.1462 44.4257 43.9203 44.6518 43.6399 44.6518Z" fill="#80011D"/>
<path d="M3.7503 17.3536C1.6826 17.3536 0 15.6773 0 13.6159C0 13.2392 0.0544115 12.8709 0.16324 12.5213L1.89818 6.79735C2.26233 5.62748 3.32341 4.84271 4.5414 4.84271H8.8484C9.00118 4.84271 9.14558 4.91178 9.24185 5.03106C9.33812 5.15035 9.37579 5.30731 9.34231 5.4559L7.41063 14.4067C7.03812 16.1144 5.49778 17.3536 3.7503 17.3536ZM4.5414 5.85368C3.76916 5.85368 3.09529 6.35176 2.86507 7.09261L1.13222 12.8187C1.0506 13.0782 1.01292 13.3377 1.01292 13.6161C1.01292 15.1208 2.24142 16.343 3.75032 16.343C5.02693 16.343 6.15079 15.4368 6.42493 14.1895L8.22267 5.85373L4.5414 5.85368Z" fill="#80011D"/>
<path d="M10.4874 17.3535H10.3786C9.24012 17.3535 8.17905 16.847 7.46542 15.9639C6.7497 15.0765 6.4755 13.9297 6.71622 12.8142L8.35489 5.24243C8.40511 5.01014 8.61021 4.84271 8.84879 4.84271H14.8278C14.9722 4.84271 15.1104 4.9055 15.2087 5.01432C15.305 5.12314 15.349 5.26964 15.3301 5.41404L14.2021 14.0927C13.9635 15.9511 12.3668 17.3535 10.4874 17.3535ZM9.25685 5.85357L7.70401 13.0278C7.52821 13.844 7.72912 14.6811 8.25021 15.3299C8.77132 15.9745 9.54567 16.3449 10.3786 16.3449H10.4874C11.8603 16.3449 13.0239 15.3215 13.1976 13.9654L14.2524 5.85571L9.25685 5.85357Z" fill="#80011D"/>
<path d="M17.2116 17.3535H17.017C15.9434 17.3535 14.92 16.8889 14.2085 16.0811C13.4948 15.2712 13.1662 14.1955 13.3044 13.1282L14.3235 5.28421C14.357 5.03308 14.5705 4.84473 14.8258 4.84473H20.8156C20.9537 4.84473 21.0856 4.90123 21.1818 5.00169C21.276 5.10214 21.3283 5.23608 21.322 5.37211L20.9537 13.7706C20.8616 15.7776 19.2207 17.3535 17.2116 17.3535ZM15.2695 5.85355L14.3068 13.2577C14.2064 14.0362 14.447 14.8231 14.9681 15.4132C15.4872 16.0055 16.2343 16.3424 17.017 16.3424H17.2116C18.6766 16.3424 19.8758 15.1914 19.9385 13.7244L20.2859 5.85361L15.2695 5.85355Z" fill="#80011D"/>
<path d="M23.9078 17.3536H23.6901C22.6625 17.3536 21.7062 16.9455 20.9967 16.2047C20.281 15.4576 19.9106 14.4781 19.9524 13.4422L20.3103 5.3245C20.3228 5.05452 20.5447 4.84106 20.8167 4.84106H26.7937C27.0636 4.84106 27.2876 5.05453 27.3001 5.3245L27.6475 13.4401C27.6894 14.476 27.3189 15.4554 26.6032 16.2025C25.8917 16.9455 24.9353 17.3536 23.9078 17.3536ZM21.3001 5.85366L20.9632 13.486C20.9318 14.2415 21.2018 14.9593 21.7271 15.5055C22.2461 16.0454 22.943 16.3426 23.6922 16.3426H23.9099C24.6591 16.3426 25.356 16.0454 25.875 15.5055C26.3982 14.9614 26.6703 14.2435 26.6389 13.486L26.3083 5.85366H21.3001Z" fill="#80011D"/>
<path d="M30.5796 17.3535H30.3849C28.3779 17.3535 26.7351 15.7776 26.6472 13.7665L26.2893 5.36802C26.2851 5.2299 26.3353 5.09596 26.4295 4.9976C26.5258 4.89714 26.6555 4.84064 26.7958 4.84064H32.7748C33.028 4.84064 33.2436 5.02899 33.2771 5.28012L34.2963 13.1241C34.4344 14.1914 34.1037 15.2671 33.3922 16.077C32.6785 16.889 31.6532 17.3535 30.5796 17.3535ZM27.3211 5.85357L27.658 13.7243C27.7229 15.1914 28.92 16.3424 30.3849 16.3424H30.5796C31.3623 16.3424 32.1094 16.0034 32.6284 15.4132C33.1495 14.8209 33.3902 14.0361 33.2897 13.2576L32.327 5.85352L27.3211 5.85357Z" fill="#80011D"/>
<path d="M37.2308 17.3537H37.1116C35.2322 17.3537 33.6375 15.9515 33.3989 14.0911L32.2709 5.41239C32.252 5.26799 32.296 5.12359 32.3923 5.01267C32.4885 4.90385 32.6267 4.84106 32.7731 4.84106H38.7501C38.9886 4.84106 39.1937 5.00639 39.244 5.24078L40.8826 12.8126C41.1275 13.9217 40.8596 15.0665 40.146 15.9539C39.4323 16.8454 38.3693 17.3537 37.2308 17.3537ZM33.3466 5.85374L34.4014 13.9634C34.5751 15.3217 35.7387 16.345 37.1116 16.345H37.2309C38.0617 16.345 38.8361 15.9725 39.3572 15.3259C39.8783 14.6792 40.0729 13.8421 39.895 13.0322L38.3422 5.85578L33.3466 5.85374Z" fill="#80011D"/>
<path d="M43.8501 17.3537C42.9857 17.3537 42.1758 17.067 41.504 16.5249C40.8197 15.9725 40.3697 15.2358 40.1981 14.3986L38.2581 5.45425C38.2246 5.30357 38.2623 5.1487 38.3585 5.02941C38.4548 4.91012 38.5992 4.84106 38.752 4.84106H43.0715C44.2833 4.84106 45.3401 5.62584 45.7022 6.79153L47.4392 12.5235C47.7866 13.6662 47.5774 14.8737 46.8637 15.8364C46.148 16.8012 45.0492 17.3537 43.8501 17.3537ZM39.3777 5.85376L41.188 14.1911C41.3115 14.8022 41.6421 15.3359 42.1402 15.7398C43.308 16.6836 45.1538 16.4451 46.0495 15.2354C46.5707 14.5343 46.7234 13.6512 46.4681 12.8183L44.7332 7.0884C44.505 6.35174 43.8353 5.85156 43.0694 5.85156L39.3777 5.85376Z" fill="#80011D"/>
<path d="M45.3192 48H2.02513C1.14825 48 0.43457 47.2864 0.43457 46.4094V45.2354C0.43457 44.3585 1.1482 43.6428 2.02513 43.6428H45.3192C46.196 43.6428 46.9097 44.3585 46.9097 45.2354V46.4094C46.9118 47.2863 46.1982 48 45.3192 48ZM2.02513 44.6515C1.70493 44.6515 1.44544 44.9131 1.44544 45.2333V46.4074C1.44544 46.7276 1.70704 46.987 2.02513 46.987H45.3192C45.6394 46.987 45.8988 46.7254 45.8988 46.4074V45.2333C45.8988 44.9131 45.6372 44.6515 45.3192 44.6515H2.02513Z" fill="#80011D"/>
<path d="M38.7502 5.85353H8.58654C8.30819 5.85353 8.08008 5.62751 8.08008 5.34708V3.28566C8.08008 1.47332 9.55341 0 11.3658 0H35.979C37.7851 0 39.2543 1.47332 39.2543 3.28566V5.34708C39.2564 5.62752 39.0307 5.85353 38.7502 5.85353ZM9.09122 4.84273H38.2439L38.246 3.28572C38.246 2.03217 37.231 1.01086 35.9816 1.01086H11.3662C10.1126 1.01086 9.09133 2.03212 9.09133 3.28572L9.09122 4.84273Z" fill="#80011D"/>
<path d="M15.3385 44.6515C15.0601 44.6515 14.832 44.4255 14.832 44.1451V40.0097C14.832 39.7313 15.0581 39.5032 15.3385 39.5032C15.6168 39.5032 15.8449 39.7293 15.8449 40.0097V44.1451C15.8429 44.4255 15.6168 44.6515 15.3385 44.6515Z" fill="#80011D"/>
<path d="M17.1331 41.0565C16.6182 41.0565 16.0092 40.8975 15.2872 40.4392C13.6297 41.5546 12.5331 40.8933 11.878 40.4978C11.742 40.4162 11.6185 40.3387 11.4993 40.2927C11.3695 40.2425 11.0702 40.2843 10.6056 40.5522C10.3315 40.7113 9.98826 40.7092 9.70988 40.5417C9.42316 40.3701 9.25365 40.0583 9.26201 39.7235C9.48385 34.7866 11.7274 31.3207 12.4096 30.3751C12.5205 30.2056 12.5666 30.0528 12.5666 29.8833V29.7222C12.5666 29.4438 12.4201 29.2283 12.2966 29.0943C12.215 29.0064 12.1605 28.9499 12.1145 28.8725C10.7521 27.3636 10.7144 25.9049 10.9321 24.959C11.0451 24.4881 11.2921 24.103 11.5118 23.7787C11.6666 23.5589 11.7587 23.0462 11.7587 22.4351C11.7587 22.0668 12.058 21.7675 12.4263 21.7675H12.9621C13.3304 21.7675 13.6297 22.0668 13.6297 22.4351C13.6485 23.0713 13.9164 23.5317 14.448 23.8226C14.9942 24.124 15.6701 24.1219 16.2164 23.8226C16.7563 23.5275 17.02 23.0734 17.0263 22.4309C17.0661 22.0312 17.357 21.7675 17.7044 21.7675H18.2401C18.6126 21.7675 18.9182 22.0667 18.9182 22.4351C18.9182 23.0524 19.0103 23.5694 19.1609 23.7828C19.3828 24.1114 19.6234 24.4922 19.726 24.9527C19.9499 25.884 19.9206 27.3426 18.508 28.9457C18.4724 28.9896 18.4201 29.0524 18.3594 29.1173C18.2464 29.2387 18.0999 29.4542 18.0999 29.7326V29.8832C18.0999 30.0402 18.1501 30.2034 18.2443 30.352C18.9391 31.321 21.1826 34.7845 21.4044 39.7132C21.4233 40.0418 21.2642 40.3536 20.9859 40.5315C20.7075 40.7073 20.3559 40.7198 20.0671 40.5566C19.4811 40.2197 19.2426 40.2699 19.1798 40.295C19.0605 40.341 18.935 40.4185 18.7989 40.5022C18.4097 40.7303 17.8697 41.0565 17.1331 41.0565ZM11.3823 39.263C11.5539 39.263 11.7129 39.2923 11.8594 39.3488C12.0247 39.4116 12.2047 39.5162 12.3994 39.6334C12.9937 39.9934 13.6132 40.3638 14.8333 39.5874C15.1472 39.4074 15.5155 39.4074 15.8106 39.5748C17.0537 40.368 17.6774 39.9934 18.276 39.6334C18.4685 39.5183 18.6464 39.4137 18.8138 39.3488C19.2407 39.1835 19.7681 39.2609 20.3834 39.5769C20.1281 35.0251 18.0688 31.8439 17.4368 30.9674C17.42 30.9443 17.3761 30.8711 17.3635 30.846C17.1919 30.5802 17.0873 30.2307 17.0873 29.8812V29.7305C17.0873 29.2513 17.2735 28.7971 17.6272 28.4163C17.6753 28.366 17.7046 28.3284 17.7339 28.2907C18.8745 26.9973 18.908 25.884 18.7385 25.1766C18.6715 24.8795 18.4978 24.6074 18.3262 24.3521C18.1085 24.0381 17.9976 23.5987 17.9453 23.1655C17.7737 23.8163 17.353 24.35 16.7022 24.7058C15.8567 25.1704 14.8082 25.1704 13.9606 24.7058C13.3307 24.3584 12.9121 23.8393 12.7258 23.178C12.6735 23.6049 12.5626 24.0361 12.345 24.3479C12.1692 24.6074 11.9892 24.8878 11.9159 25.1892C11.7527 25.8965 11.7946 27.0099 12.9226 28.2698C12.9288 28.276 13.0565 28.4246 13.0628 28.4309C13.3934 28.7846 13.5776 29.2387 13.5776 29.7179V29.8791C13.5776 30.2516 13.4709 30.6053 13.2679 30.9025C12.5982 31.84 10.5368 35.0211 10.2815 39.5731C10.6875 39.368 11.0558 39.263 11.3823 39.263Z" fill="#80011D"/>
<path d="M17.8151 31.1261H12.851C12.6627 31.1261 12.491 31.0215 12.4031 30.8562C12.3153 30.6908 12.3278 30.4899 12.4324 30.3351C12.5203 30.2032 12.5664 30.0504 12.5664 29.8809V29.7198C12.5664 29.4414 12.4199 29.2259 12.2964 29.0919C12.2148 29.004 12.1604 28.9475 12.1143 28.8701C12.0202 28.7131 12.016 28.5185 12.106 28.3595C12.1939 28.2004 12.3634 28.1021 12.5455 28.1021H18.1248C18.3195 28.1021 18.4974 28.213 18.5811 28.3888C18.6648 28.5625 18.6397 28.7717 18.5183 28.9245C18.4681 28.9873 18.4157 29.0501 18.355 29.115C18.242 29.2363 18.0955 29.4519 18.0955 29.7302V29.8809C18.0955 30.0379 18.1458 30.2011 18.2399 30.3497C18.3383 30.5066 18.3446 30.7013 18.2567 30.8645C18.1688 31.0257 17.9993 31.1261 17.8151 31.1261ZM13.5667 30.1153H17.1057C17.0952 30.0379 17.0889 29.9605 17.0889 29.883V29.7324C17.0889 29.521 17.1245 29.3138 17.1957 29.115H13.4768C13.5437 29.3075 13.5793 29.5126 13.5793 29.7219V29.8831C13.5793 29.9626 13.5751 30.0379 13.5667 30.1153Z" fill="#80011D"/>
<path d="M32.0182 44.6515C31.7398 44.6515 31.5117 44.4255 31.5117 44.1451V40.0097C31.5117 39.7313 31.7377 39.5032 32.0182 39.5032C32.2965 39.5032 32.5246 39.7293 32.5246 40.0097V44.1451C32.5225 44.4255 32.2965 44.6515 32.0182 44.6515Z" fill="#80011D"/>
<path d="M33.8128 41.0565C33.2979 41.0565 32.6889 40.8975 31.9669 40.4392C30.3094 41.5546 29.2128 40.8933 28.5577 40.4978C28.4217 40.4162 28.2982 40.3387 28.1789 40.2927C28.0492 40.2425 27.7499 40.2843 27.2853 40.5522C27.0111 40.7113 26.6679 40.7092 26.3896 40.5417C26.1028 40.3701 25.9333 40.0583 25.9417 39.7235C26.1635 34.7866 28.407 31.3207 29.0893 30.3751C29.2002 30.2056 29.2462 30.0528 29.2462 29.8833V29.7222C29.2462 29.4438 29.0997 29.2283 28.9763 29.0943C28.8946 29.0064 28.8402 28.9499 28.7942 28.8725C27.4318 27.3636 27.3941 25.9049 27.6118 24.959C27.7248 24.4881 27.9717 24.103 28.1915 23.7787C28.3463 23.5589 28.4384 23.0462 28.4384 22.4351C28.4384 22.0668 28.7377 21.7675 29.106 21.7675H29.6418C30.0101 21.7675 30.3094 22.0668 30.3094 22.4351C30.3282 23.0713 30.5961 23.5317 31.1277 23.8226C31.6759 24.124 32.352 24.1219 32.8961 23.8226C33.436 23.5275 33.6997 23.0734 33.706 22.4309C33.7457 22.0312 34.0366 21.7675 34.384 21.7675H34.9198C35.2923 21.7675 35.5979 22.0667 35.5979 22.4351C35.5979 23.0524 35.6899 23.5694 35.8406 23.7828C36.0625 24.1114 36.3031 24.4922 36.4057 24.9527C36.6296 25.884 36.6003 27.3426 35.1877 28.9457C35.1521 28.9896 35.0998 29.0524 35.0391 29.1173C34.9261 29.2387 34.7796 29.4542 34.7796 29.7326V29.8832C34.7796 30.0402 34.8298 30.2034 34.924 30.352C35.6188 31.321 37.8623 34.7845 38.0841 39.7132C38.1029 40.0418 37.9439 40.3536 37.6656 40.5315C37.3872 40.7073 37.0356 40.7198 36.7468 40.5566C36.1608 40.2197 35.9202 40.2699 35.8595 40.295C35.7402 40.341 35.6147 40.4185 35.4786 40.5022C35.0894 40.7303 34.5494 41.0565 33.8128 41.0565ZM28.0619 39.263C28.2336 39.263 28.3926 39.2923 28.5391 39.3488C28.7044 39.4116 28.8844 39.5162 29.079 39.6334C29.6755 39.9934 30.2929 40.3638 31.513 39.5874C31.8269 39.4074 32.1952 39.4074 32.4903 39.5748C33.7334 40.368 34.3571 39.9934 34.9557 39.6334C35.1482 39.5183 35.3261 39.4137 35.4935 39.3488C35.9204 39.1835 36.4478 39.2609 37.0631 39.5769C36.8078 35.0251 34.7485 31.8439 34.1164 30.9674C34.0997 30.9443 34.0558 30.8711 34.0432 30.846C33.8716 30.5802 33.7669 30.2307 33.7669 29.8812V29.7305C33.7669 29.2513 33.9532 28.7971 34.3069 28.4163C34.355 28.366 34.3843 28.3284 34.4136 28.2907C35.5542 26.9973 35.5877 25.884 35.4182 25.1766C35.3512 24.8795 35.1775 24.6074 35.0059 24.3521C34.7882 24.0381 34.6773 23.5987 34.625 23.1655C34.4534 23.8163 34.0327 24.35 33.3819 24.7058C32.5364 25.1704 31.4879 25.1704 30.6403 24.7058C30.0104 24.3584 29.5918 23.8393 29.4055 23.178C29.3532 23.6049 29.2423 24.0361 29.0246 24.3479C28.8489 24.6074 28.6689 24.8878 28.5956 25.1892C28.4324 25.8965 28.4742 27.0099 29.6023 28.2698C29.6085 28.276 29.7362 28.4246 29.7425 28.4309C30.0731 28.7846 30.2573 29.2387 30.2573 29.7179V29.8791C30.2573 30.2516 30.1506 30.6053 29.9476 30.9025C29.2779 31.84 27.2164 35.0211 26.9612 39.5731C27.3672 39.368 27.7355 39.263 28.0619 39.263Z" fill="#80011D"/>
<path d="M34.4938 31.1261H29.5297C29.3414 31.1261 29.1698 31.0215 29.0819 30.8562C28.994 30.6908 29.0065 30.4899 29.1112 30.3351C29.1991 30.2032 29.2451 30.0504 29.2451 29.8809V29.7198C29.2451 29.4414 29.0986 29.2259 28.9751 29.0919C28.8935 29.004 28.8391 28.9475 28.7931 28.8701C28.6989 28.7131 28.6947 28.5185 28.7847 28.3595C28.8726 28.2004 29.0421 28.1021 29.2242 28.1021H34.8035C34.9982 28.1021 35.1761 28.213 35.2598 28.3888C35.3435 28.5625 35.3184 28.7717 35.197 28.9245C35.1468 28.9873 35.0944 29.0501 35.0338 29.115C34.9207 29.2363 34.7742 29.4519 34.7742 29.7302V29.8809C34.7742 30.0379 34.8245 30.2011 34.9186 30.3497C35.017 30.5066 35.0233 30.7013 34.9354 30.8645C34.8475 31.0257 34.678 31.1261 34.4938 31.1261ZM30.2434 30.1153H33.7823C33.7718 30.0379 33.7656 29.9605 33.7656 29.883V29.7324C33.7656 29.521 33.8011 29.3138 33.8723 29.115H30.1534C30.2204 29.3075 30.2559 29.5126 30.2559 29.7219V29.8831C30.258 29.9626 30.2538 30.0379 30.2434 30.1153Z" fill="#80011D"/>
</svg>
