<svg width="48" height="48" viewBox="0 0 48 48" fill="none" xmlns="http://www.w3.org/2000/svg">
<path d="M47.2532 20.9982H42.2896L41.189 17.9715C41.3595 17.9288 41.5094 17.8271 41.6122 17.6845C41.7149 17.5419 41.7639 17.3675 41.7505 17.1923C41.7483 17.1626 41.5567 14.2074 43.3267 12.1056C43.3904 12.0303 43.4386 11.9431 43.4685 11.8492C43.4985 11.7552 43.5096 11.6562 43.5013 11.5579C43.4929 11.4597 43.4653 11.364 43.4199 11.2764C43.3745 11.1888 43.3123 11.1111 43.2369 11.0475C43.1614 10.984 43.0742 10.936 42.9801 10.9063C42.8861 10.8765 42.7871 10.8656 42.6888 10.8741C42.5906 10.8827 42.495 10.9105 42.4075 10.956C42.32 11.0016 42.2423 11.0639 42.179 11.1395C40.6155 12.9963 40.3002 15.2988 40.25 16.4979H37.2524C37.0595 16.4974 36.8739 16.5713 36.7343 16.7044C36.5947 16.8374 36.5119 17.0192 36.5031 17.2118C36.4943 17.4044 36.5602 17.593 36.6871 17.7382C36.814 17.8834 36.992 17.974 37.1841 17.9911L36.0906 20.9982H33.0022V14.9978H36.0024C36.2013 14.9978 36.3921 14.9188 36.5328 14.7781C36.6734 14.6374 36.7525 14.4467 36.7525 14.2477C36.7525 14.0488 36.6734 13.858 36.5328 13.7174C36.3921 13.5767 36.2013 13.4977 36.0024 13.4977H33.2046L34.7719 7.14658C35.1913 7.35064 35.5495 7.66159 35.8105 8.04811C35.8177 8.05896 35.8277 8.06649 35.8353 8.07684C35.8589 8.10904 35.885 8.1393 35.9134 8.16732C35.9272 8.1808 35.9406 8.19414 35.9553 8.20639C35.9885 8.23407 36.0241 8.25879 36.0616 8.28027C36.0727 8.28665 36.0827 8.29456 36.0941 8.30035C36.1437 8.32579 36.1961 8.34563 36.2501 8.35949L36.2558 8.36157C36.2634 8.36345 36.2714 8.3629 36.2791 8.36453L36.2799 8.36462C36.3232 8.37405 36.3672 8.37962 36.4114 8.38126C36.4215 8.38167 36.4315 8.38505 36.4415 8.38505C36.4555 8.38505 36.4688 8.38043 36.4827 8.37965C36.5441 8.37444 36.6048 8.36376 36.6642 8.34775C36.6744 8.34447 36.6842 8.33916 36.6942 8.33541C36.7414 8.3197 36.7869 8.29932 36.83 8.27457C37.295 7.99941 37.8454 7.90583 38.3753 8.0118C38.9052 8.11778 39.3772 8.41584 39.7006 8.84871C39.7068 8.85798 39.7154 8.86439 39.7219 8.87329C39.7469 8.90789 39.7749 8.94028 39.8055 8.97009C39.8192 8.98339 39.8328 8.99617 39.8473 9.00825C39.8784 9.03379 39.9115 9.05676 39.9463 9.07692C39.9605 9.0853 39.9738 9.09503 39.9886 9.10242C40.0385 9.12806 40.0912 9.14799 40.1456 9.16185C40.2046 9.17641 40.2654 9.1838 40.3262 9.18382C40.3916 9.18302 40.4566 9.17358 40.5195 9.15574C40.5294 9.15306 40.5392 9.15127 40.549 9.14818C40.6107 9.12853 40.6696 9.10096 40.7242 9.06615C40.7294 9.06289 40.7353 9.06196 40.7404 9.05857C40.7468 9.05434 40.7516 9.0487 40.7578 9.04432C40.7845 9.02524 40.8099 9.00441 40.8338 8.98199C40.8441 8.97242 40.8552 8.96361 40.8649 8.95356C40.8959 8.92177 40.924 8.88727 40.9489 8.85046L40.9512 8.84763C40.9761 8.80947 40.9975 8.7691 41.015 8.72702C41.0214 8.71214 41.0252 8.6966 41.0305 8.6814C41.0384 8.6589 41.0477 8.63723 41.0535 8.6136C41.0554 8.60621 41.0561 8.59872 41.0579 8.59131L41.0618 8.5711C41.2732 7.69886 41.3089 6.7933 41.1669 5.90713C41.0249 5.02097 40.708 4.17191 40.2346 3.4094C39.2527 1.82079 37.6866 0.680877 35.8731 0.234706C35.8389 0.222304 35.8039 0.212442 35.7682 0.205202C35.7465 0.200008 35.7261 0.192245 35.7043 0.187235L35.6926 0.18515C35.6812 0.182701 35.6698 0.180927 35.6583 0.179014C31.8208 -0.677955 27.9654 1.62372 27.0324 5.33355C27.0309 5.33893 27.029 5.34415 27.0276 5.34957C27.0265 5.35385 27.0248 5.35786 27.0238 5.36214C27.0196 5.37915 27.0195 5.39601 27.0165 5.41302C27.0108 5.44156 27.0066 5.47041 27.0042 5.49943C27.0029 5.52239 27.0048 5.54481 27.0056 5.56751C27.0058 5.59353 27.0073 5.61952 27.0102 5.64538C27.0135 5.66938 27.02 5.69228 27.0256 5.71563C27.0306 5.73984 27.0369 5.76378 27.0443 5.78736C27.0539 5.81268 27.0649 5.83746 27.0772 5.86159C27.0853 5.87862 27.0905 5.89632 27.1 5.91297C27.1017 5.91599 27.1041 5.91828 27.1058 5.92126C27.1209 5.94517 27.1373 5.96822 27.1549 5.99029C27.1677 6.00732 27.179 6.02582 27.1929 6.0415C27.2081 6.05853 27.2263 6.07272 27.243 6.08835C27.2611 6.10667 27.2802 6.12405 27.3001 6.14042C27.3143 6.15118 27.3308 6.1591 27.3458 6.16888C27.3712 6.18637 27.3976 6.2023 27.4249 6.21656C27.4384 6.22311 27.4534 6.22697 27.4674 6.23274C27.499 6.24652 27.5315 6.2581 27.5647 6.26742L27.572 6.27004C27.587 6.27378 27.6018 6.27371 27.6168 6.27648C27.6474 6.28287 27.6784 6.28734 27.7096 6.28984C27.7326 6.29119 27.7549 6.28922 27.7777 6.28845C27.8286 6.28957 27.8794 6.28259 27.9281 6.26777C27.951 6.26221 27.9739 6.25781 27.9964 6.24999C28.0236 6.23976 28.0502 6.22795 28.0761 6.21462C28.0916 6.20716 28.1077 6.20249 28.1228 6.19386C28.6175 5.93363 29.1915 5.86714 29.7326 6.0074C30.2737 6.14765 30.7431 6.48456 31.0491 6.95234C31.0507 6.95483 31.0531 6.95646 31.0548 6.95895C31.0651 6.97415 31.0772 6.98772 31.0885 7.00208C31.1031 7.02045 31.1178 7.03827 31.1338 7.05498C31.1442 7.06587 31.1541 7.07693 31.1652 7.08716C31.1743 7.09565 31.184 7.10284 31.1935 7.11083C31.2095 7.12424 31.2255 7.13713 31.2424 7.14908C31.2615 7.16263 31.2816 7.17442 31.3019 7.18616C31.3125 7.19225 31.3222 7.19976 31.3331 7.20532C31.3436 7.21068 31.3544 7.21478 31.3652 7.21963C31.3879 7.22959 31.4111 7.23841 31.4347 7.24604C31.4524 7.25202 31.4695 7.25917 31.4876 7.26383C31.4943 7.26554 31.5011 7.26669 31.5078 7.26824C31.5287 7.27301 31.5501 7.27543 31.5715 7.27841C31.5967 7.2822 31.6221 7.28471 31.6475 7.28591C31.6566 7.28623 31.6651 7.28853 31.6742 7.28853L31.6752 7.28851C31.6825 7.28851 31.69 7.28851 31.6973 7.28817C31.7076 7.28787 31.717 7.28496 31.7272 7.28425C31.7543 7.28219 31.7813 7.27863 31.8081 7.27361C31.8297 7.26969 31.8511 7.2658 31.8721 7.26011C31.8796 7.25803 31.8871 7.25681 31.8947 7.25448C31.9117 7.24923 31.928 7.2416 31.9448 7.23507C31.9698 7.22555 31.9943 7.21467 32.0182 7.2025C32.0274 7.19771 32.0372 7.1952 32.0463 7.19C32.4313 6.97314 32.8625 6.85123 33.3041 6.83436L31.6597 13.4977H28.5019C28.303 13.4977 28.1122 13.5767 27.9715 13.7174C27.8309 13.858 27.7519 14.0488 27.7519 14.2477C27.7519 14.4467 27.8309 14.6374 27.9715 14.7781C28.1122 14.9188 28.303 14.9978 28.5019 14.9978H31.5021V20.9982H28.4137L27.3202 17.9911C27.5123 17.974 27.6904 17.8834 27.8172 17.7382C27.9441 17.593 28.0101 17.4044 28.0013 17.2118C27.9924 17.0192 27.9096 16.8374 27.77 16.7044C27.6304 16.5713 27.4448 16.4974 27.2519 16.4979H24.2543C24.2041 15.2988 23.8888 12.9963 22.3253 11.1395C22.1971 10.9877 22.0139 10.8931 21.8159 10.8763C21.6179 10.8594 21.4214 10.9219 21.2693 11.0498C21.1173 11.1778 21.0223 11.3608 21.0051 11.5587C20.9879 11.7567 21.0499 11.9534 21.1776 12.1056C22.9476 14.2075 22.756 17.1626 22.7538 17.1904C22.7395 17.3661 22.7881 17.5411 22.8909 17.6842C22.9938 17.8274 23.1442 17.9292 23.3152 17.9716L22.2147 20.9982H0.75005C0.551128 20.9982 0.360355 21.0772 0.219696 21.2179C0.0790361 21.3585 9.94539e-06 21.5493 0 21.7482L0 25.4985C9.94539e-06 25.6974 0.0790361 25.8882 0.219696 26.0289C0.360355 26.1695 0.551128 26.2485 0.75005 26.2485H2.25015V47.25C2.25015 47.4489 2.32917 47.6397 2.46984 47.7803C2.6105 47.921 2.80128 48 3.0002 48C3.19913 48 3.3899 47.921 3.53057 47.7803C3.67123 47.6397 3.75025 47.4489 3.75025 47.25V26.2485H45.003V47.25C45.003 47.4489 45.082 47.6397 45.2227 47.7803C45.3634 47.921 45.5541 48 45.7531 48C45.952 48 46.1428 47.921 46.2834 47.7803C46.4241 47.6397 46.5031 47.4489 46.5031 47.25V26.2485H47.2532C47.4521 26.2485 47.6429 26.1695 47.7835 26.0289C47.9242 25.8882 48.0032 25.6974 48.0032 25.4985V21.7482C48.0032 21.5493 47.9242 21.3585 47.7835 21.2179C47.6429 21.0772 47.4521 20.9982 47.2532 20.9982ZM38.9568 4.19531C39.4647 5.01825 39.7377 5.96449 39.7461 6.9315C39.1063 6.59047 38.3822 6.43986 37.6595 6.49746C37.9388 5.21403 37.8852 3.88047 37.5038 2.6236C38.0853 3.04847 38.5788 3.58226 38.9568 4.19531ZM28.9859 4.43964C29.4071 3.68403 29.9942 3.03384 30.703 2.53802C31.4119 2.04221 32.224 1.71369 33.0782 1.57721C32.1451 2.53229 31.4703 3.70906 31.1172 4.99682C30.4763 4.60736 29.7354 4.41369 28.9859 4.43964ZM32.5542 5.42019C32.9589 3.78952 34.2474 2.1985 35.3857 1.74771C36.1885 2.64769 36.5883 4.63573 36.1758 6.26569C35.6687 5.87217 35.0825 5.59288 34.4574 5.44695C33.8324 5.30102 33.1831 5.29189 32.5542 5.42019ZM38.778 17.998H39.6022L40.6932 20.9982H37.6871L38.778 17.998ZM24.9021 17.998H25.7263L26.8172 20.9982H23.8111L24.9021 17.998ZM46.5031 24.7484H1.5001V22.4983H46.5031V24.7484Z" fill="#80011D"/>
<path d="M7.87505 34.8741H11.6253C11.8242 34.8741 12.015 34.7951 12.1557 34.6544C12.2963 34.5138 12.3753 34.323 12.3754 34.1241V30.3738C12.3753 30.1749 12.2963 29.9841 12.1557 29.8435C12.015 29.7028 11.8242 29.6238 11.6253 29.6238H7.87505C7.67613 29.6238 7.48536 29.7028 7.3447 29.8435C7.20404 29.9841 7.12501 30.1749 7.125 30.3738V34.1241C7.12501 34.323 7.20404 34.5138 7.3447 34.6544C7.48536 34.7951 7.67613 34.8741 7.87505 34.8741ZM8.6251 31.1239H10.8753V33.374H8.6251V31.1239Z" fill="#80011D"/>
<path d="M7.125 42.3745C7.12501 42.5734 7.20404 42.7642 7.3447 42.9049C7.48536 43.0455 7.67613 43.1245 7.87505 43.1246H11.6253C11.8242 43.1245 12.015 43.0455 12.1557 42.9049C12.2963 42.7642 12.3753 42.5734 12.3754 42.3745V38.6243C12.3753 38.4253 12.2963 38.2346 12.1557 38.0939C12.015 37.9532 11.8242 37.8742 11.6253 37.8742H7.87505C7.67613 37.8742 7.48536 37.9532 7.3447 38.0939C7.20404 38.2346 7.12501 38.4253 7.125 38.6243V42.3745ZM8.6251 39.3743H10.8753V41.6245H8.6251V39.3743Z" fill="#80011D"/>
<path d="M37.128 34.8741H40.8782C41.0772 34.8741 41.2679 34.7951 41.4086 34.6544C41.5492 34.5138 41.6283 34.323 41.6283 34.1241V30.3738C41.6283 30.1749 41.5492 29.9841 41.4086 29.8435C41.2679 29.7028 41.0772 29.6238 40.8782 29.6238H37.128C36.9291 29.6238 36.7383 29.7028 36.5976 29.8435C36.457 29.9841 36.3779 30.1749 36.3779 30.3738V34.1241C36.3779 34.323 36.457 34.5138 36.5976 34.6544C36.7383 34.7951 36.9291 34.8741 37.128 34.8741ZM37.878 31.1239H40.1282V33.374H37.878V31.1239Z" fill="#80011D"/>
<path d="M36.3779 42.3745C36.3779 42.5734 36.457 42.7642 36.5976 42.9049C36.7383 43.0455 36.9291 43.1245 37.128 43.1246H40.8782C41.0772 43.1245 41.2679 43.0455 41.4086 42.9049C41.5492 42.7642 41.6283 42.5734 41.6283 42.3745V38.6243C41.6283 38.4253 41.5492 38.2346 41.4086 38.0939C41.2679 37.9532 41.0772 37.8742 40.8782 37.8742H37.128C36.9291 37.8742 36.7383 37.9532 36.5976 38.0939C36.457 38.2346 36.3779 38.4253 36.3779 38.6243V42.3745ZM37.878 39.3743H40.1282V41.6245H37.878V39.3743Z" fill="#80011D"/>
<path d="M27.377 34.8741H31.1273C31.3262 34.8741 31.5169 34.7951 31.6576 34.6544C31.7983 34.5138 31.8773 34.323 31.8773 34.1241V30.3738C31.8773 30.1749 31.7983 29.9841 31.6576 29.8435C31.5169 29.7028 31.3262 29.6238 31.1273 29.6238H27.377C27.1781 29.6238 26.9873 29.7028 26.8466 29.8435C26.706 29.9841 26.627 30.1749 26.627 30.3738V34.1241C26.627 34.323 26.706 34.5138 26.8466 34.6544C26.9873 34.7951 27.1781 34.8741 27.377 34.8741ZM28.1271 31.1239H30.3772V33.374H28.1271V31.1239Z" fill="#80011D"/>
<path d="M26.627 42.3745C26.627 42.5734 26.706 42.7642 26.8466 42.9049C26.9873 43.0455 27.1781 43.1245 27.377 43.1246H31.1273C31.3262 43.1245 31.5169 43.0455 31.6576 42.9049C31.7983 42.7642 31.8773 42.5734 31.8773 42.3745V38.6243C31.8773 38.4253 31.7983 38.2346 31.6576 38.0939C31.5169 37.9532 31.3262 37.8742 31.1273 37.8742H27.377C27.1781 37.8742 26.9873 37.9532 26.8466 38.0939C26.706 38.2346 26.627 38.4253 26.627 38.6243V42.3745ZM28.1271 39.3743H30.3772V41.6245H28.1271V39.3743Z" fill="#80011D"/>
<path d="M17.627 34.8741H21.3773C21.5762 34.8741 21.7669 34.7951 21.9076 34.6544C22.0483 34.5138 22.1273 34.323 22.1273 34.1241V30.3738C22.1273 30.1749 22.0483 29.9841 21.9076 29.8435C21.7669 29.7028 21.5762 29.6238 21.3773 29.6238H17.627C17.4281 29.6238 17.2373 29.7028 17.0966 29.8435C16.956 29.9841 16.877 30.1749 16.877 30.3738V34.1241C16.877 34.323 16.956 34.5138 17.0966 34.6544C17.2373 34.7951 17.4281 34.8741 17.627 34.8741ZM18.3771 31.1239H20.6272V33.374H18.3771V31.1239Z" fill="#80011D"/>
<path d="M16.877 42.3745C16.877 42.5734 16.956 42.7642 17.0966 42.9049C17.2373 43.0455 17.4281 43.1245 17.627 43.1246H21.3773C21.5762 43.1245 21.7669 43.0455 21.9076 42.9049C22.0483 42.7642 22.1273 42.5734 22.1273 42.3745V38.6243C22.1273 38.4253 22.0483 38.2346 21.9076 38.0939C21.7669 37.9532 21.5762 37.8742 21.3773 37.8742H17.627C17.4281 37.8742 17.2373 37.9532 17.0966 38.0939C16.956 38.2346 16.877 38.4253 16.877 38.6243V42.3745ZM18.3771 39.3743H20.6272V41.6245H18.3771V39.3743Z" fill="#80011D"/>
</svg>
