<svg width="50" height="50" viewBox="0 0 50 50" fill="none" xmlns="http://www.w3.org/2000/svg">
<path d="M0.454551 43.3089C0.334096 43.3089 0.218185 43.2612 0.134093 43.1771C0.0477272 43.0907 0 42.9748 0 42.8543V41.5089C0 41.2589 0.204547 41.0543 0.454551 41.0543C0.704556 41.0543 0.909102 41.2589 0.909102 41.5089V42.8543C0.909102 42.9748 0.861375 43.0907 0.775009 43.1771C0.690918 43.2612 0.575006 43.3089 0.454551 43.3089Z" fill="#80011D"/>
<path d="M49.5461 49.9997H0.454551C0.334096 49.9997 0.218184 49.952 0.134093 49.8656C0.047727 49.7816 0 49.6656 0 49.5452V45.9906C0 45.7383 0.204547 45.5361 0.454551 45.5361C0.704556 45.5361 0.909102 45.7383 0.909102 45.9906V49.0906H49.0912V32.4633H45.1639C44.9116 32.4633 44.7094 32.2588 44.7094 32.0087C44.7094 31.7587 44.9116 31.5542 45.1639 31.5542H49.5458C49.6662 31.5542 49.7821 31.6019 49.8662 31.6883C49.9526 31.7724 50.0003 31.8883 50.0003 32.0087V49.5455C50.0003 49.6659 49.9526 49.7818 49.8662 49.8659C49.7821 49.9523 49.6665 49.9997 49.5461 49.9997Z" fill="#80011D"/>
<path d="M0.454551 38.8273C0.334096 38.8273 0.218185 38.7795 0.134093 38.6932C0.0477272 38.6091 0 38.4932 0 38.3727V32.0087C0 31.8883 0.0477278 31.7724 0.134093 31.6883C0.218185 31.6019 0.334096 31.5542 0.454551 31.5542H7.92752C8.17752 31.5542 8.38207 31.7587 8.38207 32.0087C8.38207 32.2588 8.17752 32.4633 7.92752 32.4633H0.909538V38.3723C0.909538 38.4927 0.861811 38.6087 0.775445 38.6927C0.691354 38.7791 0.575443 38.8268 0.454988 38.8268L0.454551 38.8273Z" fill="#80011D"/>
<path d="M25.7632 32.4633H12.1997C11.9497 32.4633 11.7451 32.261 11.7451 32.0087C11.7451 31.7587 11.9497 31.5542 12.1997 31.5542H25.7632C26.0132 31.5542 26.2177 31.7587 26.2177 32.0087C26.2177 32.261 26.0132 32.4633 25.7632 32.4633Z" fill="#80011D"/>
<path d="M49.5459 32.4632C49.4254 32.4632 49.3095 32.4155 49.2231 32.3314C49.139 32.2451 49.0913 32.1291 49.0913 32.0087V22.7903C47.8913 22.8198 46.7118 23.113 45.639 23.6517C42.9253 24.9153 39.7911 24.9153 37.0774 23.6517C35.8661 23.0448 34.5251 22.7471 33.1729 22.7812C31.8183 22.7471 30.4774 23.0449 29.266 23.6517C27.9388 24.3108 26.4728 24.6358 24.9909 24.5994C23.5091 24.6358 22.0432 24.3108 20.7159 23.6517C19.5045 23.0448 18.1636 22.7471 16.809 22.7812C16.0659 22.7721 15.3249 22.8517 14.6022 23.0221C14.3567 23.0835 14.1112 22.9358 14.0499 22.6926C13.9885 22.4494 14.1385 22.2017 14.3817 22.1403C15.1772 21.9517 15.9908 21.8608 16.809 21.8721C18.2909 21.838 19.7568 22.163 21.0841 22.8198C22.2955 23.4267 23.6364 23.7267 24.9909 23.6903C26.3455 23.7267 27.6864 23.4267 28.8978 22.8198C30.225 22.163 31.691 21.838 33.1729 21.8721C34.6524 21.838 36.1206 22.163 37.4479 22.8198C39.9252 23.9812 42.7912 23.9812 45.2683 22.8198C46.5955 22.163 48.0637 21.8358 49.5456 21.8721C49.6661 21.8721 49.782 21.9198 49.8661 22.0062C49.9524 22.0903 50.0002 22.2062 50.0002 22.3267V32.0088C50.0002 32.1292 49.9524 32.2451 49.8661 32.3315C49.782 32.4156 49.6663 32.4632 49.5459 32.4632Z" fill="#80011D"/>
<path d="M0.454551 32.463C0.334096 32.463 0.218185 32.4153 0.134093 32.3312C0.0477272 32.2448 0 32.1289 0 32.0085V22.3264C0 22.2059 0.0477278 22.09 0.134093 22.0059C0.218185 21.9195 0.334096 21.8718 0.454551 21.8718C1.9364 21.8377 3.40458 22.1627 4.7319 22.8195C5.94099 23.4264 7.28192 23.7264 8.63647 23.69C9.1933 23.6923 9.75014 23.6491 10.2979 23.5605C10.5456 23.5196 10.7797 23.6855 10.8206 23.9332C10.8615 24.1809 10.6956 24.415 10.4479 24.4582C9.8479 24.5559 9.24333 24.6014 8.63648 24.5991C7.15463 24.6355 5.68872 24.3105 4.3614 23.6514C3.28863 23.1127 2.1091 22.8195 0.909085 22.79V32.0084C0.909085 32.1288 0.861357 32.2447 0.777266 32.3311C0.6909 32.4152 0.575006 32.463 0.454551 32.463Z" fill="#80011D"/>
<path d="M7.1189 35.1268C7.07344 35.1268 7.03026 35.12 6.98708 35.1064C6.74617 35.0336 6.61207 34.7814 6.6848 34.5405L12.5851 15.2042C12.6601 14.9655 12.9124 14.8314 13.151 14.9042C13.3897 14.9769 13.526 15.2292 13.4556 15.4701L7.55294 34.8064C7.49612 34.9973 7.3189 35.1268 7.1189 35.1268Z" fill="#80011D"/>
<path d="M11.6012 34.9357C11.5649 34.9357 11.5308 34.9312 11.4944 34.9244C11.2512 34.8653 11.1012 34.6198 11.1603 34.3744L15.4331 16.7649H15.4309C15.49 16.5218 15.7377 16.3718 15.9809 16.4308C16.2241 16.4899 16.3763 16.7354 16.3172 16.9786L12.0444 34.588C11.9944 34.7926 11.8126 34.9357 11.6012 34.9357Z" fill="#80011D"/>
<path d="M28.1822 20.5446C28.0981 20.5446 28.0163 20.5219 27.9459 20.4787L24.8276 18.5787C24.7049 18.5037 24.6231 18.3719 24.6117 18.2287L24.5072 16.9423L23.3026 17.4401L23.3003 17.4378C23.1685 17.4923 23.0162 17.481 22.8912 17.406L18.2003 14.5514C18.098 14.4901 18.023 14.3878 17.9957 14.2719C17.9662 14.1537 17.9866 14.031 18.048 13.9287C18.1798 13.7128 18.4594 13.6446 18.673 13.7764L23.1663 16.5105L24.7367 15.8628C24.8708 15.806 25.0231 15.8196 25.1481 15.8946C25.2708 15.9696 25.3504 16.1014 25.3617 16.2446L25.4981 17.9219L27.6004 19.2037C27.2322 17.0264 26.0595 15.0673 24.314 13.715C22.3958 12.2695 19.9571 11.7014 17.598 12.1559C17.4798 12.1786 17.3571 12.1536 17.2571 12.0832C17.1571 12.015 17.0889 11.9082 17.0662 11.79C17.0457 11.6695 17.073 11.5468 17.1435 11.4491C17.2116 11.3491 17.3185 11.2809 17.4389 11.2604C20.0481 10.7627 22.7458 11.39 24.8642 12.9923C27.0619 14.7059 28.4324 17.2696 28.6347 20.0492C28.6461 20.1765 28.6052 20.3038 28.5188 20.397C28.4324 20.4924 28.3095 20.5446 28.1822 20.5446Z" fill="#80011D"/>
<path d="M0.455917 13.5988C0.290003 13.5988 0.135459 13.5079 0.0559115 13.3602C-0.0236357 13.2125 -0.0145417 13.0329 0.0786388 12.8943C3.09686 8.33057 8.73562 6.99401 13.1994 9.78746H13.1971C13.4085 9.92155 13.4721 10.2011 13.3403 10.4125C13.2062 10.6261 12.9267 10.6897 12.7153 10.5579C10.9084 9.42609 8.74254 9.01247 6.64686 9.39653C4.55136 9.7829 2.67409 10.9397 1.38768 12.6397L3.84455 12.5056L4.765 11.0829V11.0806C4.84455 10.9579 4.97637 10.8806 5.12182 10.8738C5.26728 10.8647 5.40819 10.9261 5.4991 11.0397L6.57187 12.3511L10.5765 12.1284C10.6969 12.1193 10.8174 12.1579 10.906 12.2397C10.9969 12.3193 11.0515 12.4352 11.056 12.5556C11.0628 12.6761 11.0219 12.7943 10.9401 12.8852C10.8606 12.9738 10.7469 13.0284 10.6265 13.0352L6.39007 13.2716H6.39235C6.24689 13.2829 6.10371 13.2216 6.01507 13.1056L5.19231 12.0988L4.48551 13.192H4.48324C4.40596 13.3147 4.27187 13.392 4.12641 13.3988L0.480927 13.5988L0.455917 13.5988Z" fill="#80011D"/>
<path d="M13.373 10.1447C13.2321 10.1447 13.098 10.0811 13.0116 9.96745L9.52067 5.42196C9.43431 5.30605 9.40476 5.15605 9.44567 5.01741L9.81386 3.77423L8.5229 3.8106C8.37744 3.8106 8.24108 3.74469 8.15017 3.63105L5.92288 0.731018H5.92061C5.81606 0.596925 5.79788 0.412837 5.87288 0.258287C5.94788 0.101469 6.10243 0.00373988 6.27516 0.00146496C11.7912 -0.0871698 16.0801 3.85604 16.2459 9.16051V9.15824C16.2504 9.27869 16.205 9.39688 16.1232 9.48324C16.0413 9.57187 15.9254 9.62415 15.805 9.62642C15.6845 9.63551 15.5641 9.59233 15.4754 9.50824C15.3868 9.42642 15.3368 9.30824 15.3368 9.18778C15.2732 7.04458 14.4027 5.00367 12.8981 3.47411C11.3936 1.94456 9.36854 1.04 7.2276 0.937718L8.72987 2.89456L10.4162 2.84683H10.414C10.5617 2.84229 10.7003 2.9082 10.789 3.02411C10.8776 3.13774 10.9049 3.29002 10.864 3.42866L10.3844 5.05142L13.7345 9.41281V9.41509C13.839 9.55145 13.8572 9.73782 13.7799 9.89236C13.7049 10.0469 13.5457 10.1447 13.373 10.1447Z" fill="#80011D"/>
<path d="M17.5267 11.8448C17.3107 11.8448 17.1266 11.6948 17.0812 11.4834C17.038 11.2721 17.1494 11.0607 17.3448 10.9743L23.2952 8.3857L23.6633 6.73798H23.6656C23.6974 6.5948 23.7952 6.47661 23.9293 6.41979C24.0611 6.3607 24.2156 6.37206 24.3406 6.44479L25.7952 7.30164L28.0588 6.31982C26.1679 5.4198 24.0202 5.21755 21.9951 5.74481C19.8268 6.34025 17.9859 7.78119 16.8859 9.74484C16.7609 9.96303 16.4836 10.038 16.2655 9.91302C16.0473 9.79029 15.9723 9.51075 16.095 9.29257C17.3155 7.11981 19.3542 5.52661 21.7565 4.86752C24.3315 4.20389 27.0634 4.59706 29.3452 5.9607C29.4929 6.04707 29.5816 6.20843 29.5725 6.38116C29.5611 6.55162 29.4566 6.7039 29.2998 6.77208L25.9452 8.22663C25.8111 8.28345 25.6588 8.27436 25.5315 8.20163L24.4156 7.54482L24.1338 8.80847C24.102 8.94939 24.0042 9.06757 23.8724 9.12666L17.7085 11.8085C17.6517 11.8335 17.5903 11.8471 17.5267 11.8448Z" fill="#80011D"/>
<path d="M13.0913 15.7904C11.5163 15.7904 10.2186 14.554 10.1413 12.9813C10.064 11.4086 11.2322 10.0494 12.8004 9.8949C13.0482 9.87444 13.2686 10.054 13.2982 10.3017C13.3095 10.4199 13.2732 10.5404 13.1982 10.6335C13.1209 10.7267 13.0118 10.7858 12.8913 10.7995C11.805 10.9063 10.9959 11.8472 11.0481 12.9358C11.1027 14.0245 12.0004 14.8813 13.0913 14.8813C13.2254 14.8836 13.3595 14.8677 13.489 14.8359C13.6254 14.7995 13.7709 14.8291 13.8845 14.9154C13.9959 14.9995 14.0641 15.1313 14.0686 15.2723C14.0709 15.495 13.9095 15.6859 13.6913 15.7223C13.4959 15.77 13.2936 15.7927 13.0913 15.7904Z" fill="#80011D"/>
<path d="M13.572 14.0357C13.4765 14.0379 13.3834 14.0061 13.3061 13.9493C12.5379 13.3925 12.0833 12.5038 12.0811 11.5538C12.0833 11.0561 12.2083 10.5675 12.4447 10.1311C13.0947 8.94929 14.4629 8.35833 15.7697 8.69242C17.0765 9.02878 17.9902 10.2061 17.9902 11.5538C17.9902 11.8743 17.9402 12.1902 17.8402 12.4925C17.7652 12.7334 17.5084 12.8629 17.2697 12.7879C17.0311 12.7107 16.8993 12.4538 16.9765 12.2152C17.0447 12.0016 17.0811 11.7788 17.0811 11.5538C17.0811 10.622 16.4493 9.8061 15.5447 9.5743C14.6402 9.34021 13.6947 9.7493 13.2424 10.5652C13.0788 10.8698 12.9924 11.2084 12.9902 11.5538C12.9879 12.2129 13.3038 12.8311 13.8379 13.213C13.9992 13.3289 14.0652 13.5357 14.0061 13.7221C13.9447 13.9107 13.7697 14.0379 13.572 14.0357Z" fill="#80011D"/>
<path d="M15.9446 17.3311C14.7491 17.3311 13.6719 16.6129 13.215 15.5084C12.7582 14.4039 13.0105 13.1334 13.8559 12.2879C14.7014 11.4447 15.9719 11.1902 17.0765 11.647C18.1787 12.1061 18.8992 13.1833 18.8992 14.3765C18.8969 16.0084 17.5764 17.3311 15.9446 17.3311ZM15.9446 12.3333C15.1173 12.3333 14.3718 12.8311 14.0559 13.5947C13.7377 14.3584 13.9127 15.2402 14.4991 15.8243C15.0832 16.4084 15.9627 16.5834 16.7287 16.2675C17.4923 15.9516 17.9901 15.2038 17.9901 14.3765C17.9878 13.2493 17.0741 12.3333 15.9446 12.3333Z" fill="#80011D"/>
<path d="M39.7395 13.3927C37.0667 13.3859 34.7871 11.4541 34.344 8.81768C33.9008 6.18133 35.4235 3.61084 37.9463 2.72891C39.1395 2.31982 40.4349 2.32664 41.6236 2.74937C41.8145 2.81528 41.9372 3.00164 41.9259 3.20392C41.9122 3.40619 41.769 3.57438 41.5713 3.61983C41.5099 3.63346 41.4463 3.65619 41.3849 3.67665L41.3872 3.67892C39.5872 4.30845 38.6372 6.27437 39.2599 8.07668C39.8849 9.87672 41.8486 10.8335 43.6532 10.2153L43.6623 10.2108C43.7146 10.1949 43.7691 10.1744 43.8191 10.1517C44.0009 10.0608 44.2214 10.1017 44.3577 10.2517C44.4941 10.4017 44.5168 10.6244 44.4077 10.7972C43.4032 12.4085 41.6395 13.3905 39.7395 13.3927ZM39.7508 3.33593C38.2463 3.33593 36.8372 4.07682 35.9848 5.31773C35.1302 6.55637 34.9439 8.13823 35.4826 9.54502C36.0212 10.9496 37.219 11.9996 38.6826 12.3518C40.1462 12.7041 41.6895 12.3132 42.8076 11.3064C40.844 11.4359 39.0371 10.2359 38.3917 8.37911C37.7485 6.52001 38.4235 4.45861 40.0463 3.34501C39.9486 3.33819 39.8485 3.33593 39.7508 3.33593Z" fill="#80011D"/>
<path d="M37.8362 46.3636L37.8225 46.3658C37.4089 46.3931 37.0044 46.2454 36.7021 45.9613C36.4021 45.6772 36.2316 45.2817 36.2339 44.8681C36.2339 44.4545 36.4066 44.059 36.7112 43.7772C37.0134 43.4954 37.4203 43.3522 37.8339 43.3817H37.8475C38.2566 43.3545 38.6589 43.4954 38.9612 43.7749C39.2612 44.0522 39.4362 44.4431 39.4408 44.8522C39.4453 45.2636 39.2817 45.6568 38.9885 45.9431C38.693 46.2295 38.2953 46.3818 37.8839 46.3636L37.8362 46.3636ZM31.709 42.4726H31.7113C31.2158 41.0499 31.0885 39.5226 31.3385 38.0362C31.984 38.5658 32.8658 38.7044 33.6408 38.3976C34.8431 37.8976 35.6135 36.4089 35.7727 34.384H35.7749C37.5295 36.6908 38.3227 39.5931 37.9818 42.4724H37.8364C37.8091 42.4724 37.7841 42.4793 37.7568 42.4793C37.7454 42.4793 37.7364 42.4724 37.725 42.4724L31.709 42.4726ZM39.7888 43.3817H42.2229C41.5092 44.2477 41.5092 45.4954 42.2184 46.3636H39.7933C40.5365 45.509 40.5342 44.2363 39.791 43.3817H39.7888ZM28.6497 30.6701C28.7202 31.3451 28.877 32.0087 29.1111 32.6451C29.3725 33.3224 29.9657 33.8155 30.677 33.9474C31.3452 34.0792 32.0316 33.8519 32.4907 33.3519C34.1316 31.5496 34.6976 29.0224 34.1793 25.8336C39.2999 27.6904 41.366 31.3223 40.495 36.9109C40.4723 37.0587 40.5223 37.2087 40.6314 37.3109C40.7382 37.4132 40.8905 37.4564 41.036 37.4268C41.9178 37.2155 42.6974 36.7018 43.2383 35.9723C43.2633 38.4087 42.3064 40.7496 40.586 42.4724H38.8905C39.2769 39.0315 38.261 35.9316 35.6882 32.7676C35.5654 32.6153 35.3564 32.5608 35.1745 32.629C34.9904 32.6994 34.8723 32.8812 34.8813 33.0767C35.0063 35.6631 34.1722 37.1926 33.2904 37.5585H33.2927C32.5972 37.7699 31.8427 37.504 31.4358 36.9017C31.329 36.7835 31.1654 36.7313 31.0086 36.7631C30.8517 36.7949 30.7245 36.9085 30.6699 37.0585C30.1358 38.829 30.1676 40.7199 30.7563 42.4722H28.9153C27.0517 38.779 26.9543 34.4426 28.6497 30.6701ZM23.5088 44.8724C23.5088 44.0497 24.177 43.3838 24.9997 43.3815H35.8839C35.1385 44.2361 35.1385 45.5088 35.8817 46.3633H24.9998C24.177 46.3633 23.5088 45.6952 23.5088 44.8724ZM44.1042 46.3679L44.0906 46.3633H44.0452C43.2315 46.3406 42.5861 45.6701 42.5951 44.8542C42.6042 44.0406 43.2656 43.386 44.0793 43.3815H44.0929C44.9134 43.3838 45.5793 44.0474 45.5815 44.8679C45.5838 45.6884 44.9247 46.3588 44.1042 46.3656L44.1042 46.3679Z" fill="#80011D"/>
</svg>
