<svg width="45" height="48" viewBox="0 0 45 48" fill="none" xmlns="http://www.w3.org/2000/svg">
<path fill-rule="evenodd" clip-rule="evenodd" d="M9.9913 10.8629C-3.00767 13.2026 2.04023 32.8011 14.4151 29.0189L22.6414 20.8369L30.8676 29.0189C43.3128 32.8011 48.2231 13.2024 35.2915 10.8656L9.9913 10.8629ZM21.3994 35.7588H27.7597C30.0418 35.7588 31.9081 37.615 31.9081 39.8849V43.8739C31.9081 46.1438 30.0418 48 27.7597 48H21.3994C19.8086 48 18.3583 47.1055 17.6669 45.663L11.5119 45.6603C4.80589 45.6603 0.311938 39.5411 0.311938 33.2821V22.6232C-0.103979 20.9738 -0.103979 19.1848 0.311938 17.4656V0H8.0549V9.07664C8.60856 8.8698 9.16225 8.7328 9.7834 8.66296H35.3651C51.4049 11.4137 45.8066 35.4122 30.3876 31.2194C25.8233 34.7948 19.2547 34.7948 14.6936 31.2194C12.4816 31.8373 10.1995 31.7701 8.05504 31.0824V33.2824C8.05504 35.2085 9.16238 37.9592 11.512 37.9592H17.7346C18.426 36.5838 19.8086 35.7588 21.3994 35.7588ZM27.7597 37.9588H21.3994C20.3623 37.9588 19.4629 38.8534 19.4629 39.8849V43.8739C19.4629 44.9055 20.3623 45.8 21.3994 45.8H27.7597C28.7968 45.8 29.6961 44.9055 29.6961 43.8739V39.8849C29.6961 38.8534 28.7968 37.9588 27.7597 37.9588ZM16.6973 29.9137L22.6444 23.9986L28.5916 29.9137C24.9942 32.3206 20.2241 32.3206 16.6973 29.9137ZM5.91012 10.0385C4.66505 10.796 3.49023 11.7577 2.59085 12.8591L2.59356 2.20009H5.91282L5.91012 10.0385ZM2.59355 27.2304C3.49292 28.3989 4.66774 29.3633 5.91281 30.051V33.2825C5.91281 36.514 7.98701 40.1593 11.5817 40.1593H17.2506V43.4606H11.5115C6.05054 43.4606 2.52331 38.373 2.52331 33.2824V27.2303L2.59355 27.2304Z" fill="#80011D"/>
</svg>
