<svg width="43" height="48" viewBox="0 0 43 48" fill="none" xmlns="http://www.w3.org/2000/svg">
<path fill-rule="evenodd" clip-rule="evenodd" d="M7.8068 0H35.1939C35.9951 0 36.7225 0.327983 37.2486 0.857973C37.7768 1.38797 38.1036 2.1159 38.1036 2.91986V25.5027C38.1036 26.3067 37.7767 27.0367 37.2486 27.5646C36.7205 28.0946 35.9951 28.4226 35.1939 28.4226L7.8068 28.4206C7.00565 28.4206 6.27822 28.0926 5.75211 27.5626C5.226 27.0326 4.89713 26.3027 4.89713 25.5007V2.91991C4.89713 2.11595 5.22397 1.38597 5.75211 0.858021C6.27822 0.328021 7.00565 0 7.8068 0ZM39.5642 33.7988V41.8445H37.8802C37.5573 41.8445 37.2963 42.1065 37.2963 42.4305C37.2963 42.7544 37.5573 43.0164 37.8802 43.0164H42.4161C42.7389 43.0164 43 42.7544 43 42.4305C43 42.1065 42.7389 41.8445 42.4161 41.8445H40.732L40.7301 32.8746C41.9996 32.6047 42.9522 31.4747 42.9522 30.1208C42.9522 29.3428 42.6373 28.6388 42.1291 28.1289C41.6209 27.6189 40.9194 27.3029 40.1461 27.3029C39.3709 27.3029 38.6694 27.6189 38.1632 28.1289C37.655 28.6388 37.3421 29.3428 37.3421 30.1208C37.3421 30.8987 37.657 31.6027 38.1632 32.1107C38.4083 32.3567 38.6993 32.5566 39.0221 32.6986C36.8837 34.8465 34.251 36.3365 31.4228 37.0944C28.8101 37.7924 26.0321 37.8644 23.3235 37.2444C23.9254 36.7284 24.3061 35.9605 24.3061 35.1045C24.3061 34.3265 23.9912 33.6226 23.483 33.1146C22.9748 32.6046 22.2732 32.2886 21.5 32.2886C20.7248 32.2886 20.0232 32.6046 19.517 33.1146C19.0088 33.6246 18.6939 34.3285 18.6939 35.1045C18.6939 35.8824 19.0088 36.5864 19.517 37.0944C19.5689 37.1464 19.6227 37.1964 19.6785 37.2424C16.9701 37.8623 14.1898 37.7904 11.5792 37.0924C8.75117 36.3364 6.11858 34.8445 3.97986 32.6966C4.96835 32.2606 5.65992 31.2706 5.65992 30.1167C5.65992 29.3387 5.34503 28.6348 4.83881 28.1248C4.33062 27.6148 3.6291 27.2988 2.85386 27.2988C2.07862 27.2988 1.37711 27.6148 0.870898 28.1248C0.362701 28.6348 0.047805 29.3387 0.047805 30.1167C0.047805 30.8946 0.36269 31.5986 0.870898 32.1066C1.24756 32.4846 1.72986 32.7566 2.27194 32.8706V41.8404L0.583915 41.8424C0.26106 41.8424 0 42.1044 0 42.4284C0 42.7524 0.261075 43.0144 0.583915 43.0144H5.11983C5.44268 43.0144 5.70374 42.7524 5.70374 42.4284C5.70374 42.1044 5.44267 41.8424 5.11983 41.8424H3.43579V33.7987C5.67186 35.9486 8.38026 37.4486 11.28 38.2245C14.385 39.0545 17.713 39.0545 20.916 38.1285V46.8281H19.2319C18.9091 46.8281 18.648 47.0901 18.648 47.414C18.648 47.738 18.9091 48 19.2319 48H23.7679C24.0907 48 24.3518 47.738 24.3518 47.414C24.3518 47.0901 24.0907 46.8281 23.7679 46.8281H22.0838V38.1285C25.2864 39.0525 28.6148 39.0545 31.7198 38.2245C34.6195 37.4486 37.3301 35.9487 39.5642 33.7988ZM41.3061 28.955C41.603 29.253 41.7864 29.6629 41.7864 30.1189C41.7864 31.0269 41.053 31.7648 40.1462 31.7648C39.6938 31.7648 39.2833 31.5808 38.9863 31.2828C38.6894 30.9849 38.506 30.5729 38.506 30.1189C38.506 29.6649 38.6894 29.253 38.9863 28.955C39.2833 28.657 39.6918 28.473 40.1462 28.473C40.6006 28.475 41.0111 28.659 41.3061 28.955ZM22.6601 33.9408C22.957 34.2388 23.1404 34.6487 23.1404 35.1047C23.1404 36.0127 22.407 36.7506 21.5002 36.7506C21.0478 36.7506 20.6373 36.5666 20.3403 36.2686C20.0434 35.9707 19.86 35.5607 19.86 35.1047C19.86 34.6507 20.0434 34.2387 20.3403 33.9408C20.6373 33.6428 21.0458 33.4588 21.5002 33.4588C21.9526 33.4588 22.3631 33.6428 22.6601 33.9408ZM4.01205 28.955C4.30899 29.253 4.49235 29.6629 4.49235 30.1189C4.49235 31.0269 3.75895 31.7648 2.85218 31.7648C2.39978 31.7648 1.98924 31.5808 1.69231 31.2828C1.39536 30.9849 1.21201 30.5729 1.21201 30.1189C1.21201 29.6649 1.39536 29.253 1.69231 28.955C1.98926 28.657 2.3978 28.473 2.85218 28.473C3.30458 28.475 3.71511 28.659 4.01205 28.955ZM21.482 6.3578C20.8483 6.3578 20.2743 6.61579 19.8578 7.03376C19.4413 7.45175 19.1842 8.02772 19.1842 8.6637C19.1842 9.29968 19.4413 9.87565 19.8578 10.2936C20.2743 10.7116 20.8483 10.9696 21.482 10.9696C22.1158 10.9696 22.6898 10.7116 23.1063 10.2936C23.5228 9.87565 23.7799 9.29968 23.7799 8.6637C23.7799 8.02772 23.5228 7.45174 23.1063 7.03376C22.6918 6.61578 22.1158 6.3578 21.482 6.3578ZM22.2812 7.86173C22.0759 7.65575 21.7929 7.52975 21.482 7.52975C21.1692 7.52975 20.8881 7.65574 20.6829 7.86173C20.4776 8.06772 20.352 8.35171 20.352 8.6637C20.352 8.97768 20.4776 9.25969 20.6829 9.46566C20.8881 9.67165 21.1711 9.79765 21.482 9.79765C21.7949 9.79765 22.0779 9.67165 22.2812 9.46566C22.4865 9.25967 22.612 8.97568 22.612 8.6637C22.612 8.34971 22.4865 8.06571 22.2812 7.86173ZM32.4549 20.6371L27.076 15.0074L24.3018 17.7213C24.0806 17.9373 23.7298 17.9413 23.5046 17.7353L17.3905 12.1675L10.5009 20.6372L32.4549 20.6371ZM27.7217 13.9973C27.5165 13.7833 27.2873 13.6933 27.0402 13.7093C26.815 13.7233 26.6197 13.8233 26.4463 13.9933L23.8814 16.5012L17.9621 11.1116C17.9502 11.0996 17.9382 11.0896 17.9263 11.0816L17.9143 11.0716C17.7529 10.9396 17.5675 10.8596 17.3603 10.8556C17.1271 10.8516 16.9099 10.9376 16.7265 11.1396C16.7146 11.1516 16.7046 11.1656 16.6946 11.1776L9.34888 20.2053C9.2333 20.3473 9.16354 20.5153 9.14162 20.6932C9.1197 20.8632 9.13963 21.0392 9.20141 21.1992C9.26718 21.3732 9.37679 21.5172 9.51629 21.6252C9.67174 21.7432 9.8531 21.8072 10.0484 21.8072H32.9535C33.1548 21.8072 33.3401 21.7412 33.4936 21.6192C33.6311 21.5132 33.7387 21.3612 33.8045 21.1792C33.8643 21.0112 33.8822 20.8292 33.8543 20.6593C33.8244 20.4733 33.7447 20.2973 33.6092 20.1553L27.7217 13.9973ZM8.41607 25.035H34.5833C34.6212 25.035 34.659 25.019 34.685 24.993C34.7109 24.967 34.7268 24.931 34.7268 24.891V3.5318C34.7268 3.49381 34.7109 3.45581 34.685 3.42981C34.659 3.40381 34.6232 3.38781 34.5833 3.38781H8.41607C8.37821 3.38781 8.34034 3.40381 8.31443 3.42981C8.28853 3.45581 8.27059 3.4918 8.27059 3.5318V24.891C8.27059 24.929 8.28653 24.967 8.31443 24.993C8.34234 25.019 8.37621 25.035 8.41607 25.035ZM34.5833 26.205C34.944 26.205 35.2729 26.057 35.51 25.819C35.7472 25.581 35.8947 25.253 35.8947 24.8891L35.8927 3.53188C35.8927 3.16989 35.7452 2.83989 35.508 2.60192C35.2709 2.36393 34.944 2.21593 34.5813 2.21593H8.41612C8.0554 2.21593 7.72655 2.36393 7.48941 2.60192C7.25225 2.83991 7.10477 3.16791 7.10477 3.53188V24.8911C7.10477 25.2531 7.25225 25.5831 7.48941 25.8211C7.72657 26.059 8.05343 26.207 8.41612 26.207L34.5833 26.205ZM35.1931 1.17028H7.80604C7.32773 1.17028 6.89126 1.36627 6.57637 1.68426C6.2595 2.00224 6.06419 2.43825 6.06419 2.91823V25.5011C6.06419 25.9811 6.2595 26.4191 6.57637 26.735C6.89325 27.053 7.32773 27.249 7.80604 27.249H35.1931C35.6715 27.249 36.1079 27.053 36.4228 26.735C36.7397 26.4171 36.935 25.9811 36.935 25.5011V2.92027C36.935 2.44029 36.7397 2.0023 36.4228 1.6863C36.1079 1.36832 35.6715 1.17028 35.1931 1.17028Z" fill="#80011D"/>
</svg>
