<svg width="50" height="49" viewBox="0 0 50 49" fill="none" xmlns="http://www.w3.org/2000/svg">
<path d="M16.7021 14.4305C16.6521 14.4944 16.6322 14.5744 16.6421 14.6523C16.6521 14.7322 16.6941 14.8042 16.756 14.8521L19.8254 17.216V17.214C19.9572 17.316 20.1451 17.292 20.245 17.1601C20.3469 17.0282 20.3229 16.8404 20.191 16.7405L17.1217 14.3765C17.0598 14.3286 16.9799 14.3066 16.8999 14.3166C16.822 14.3266 16.7501 14.3685 16.7021 14.4305Z" fill="#80011D"/>
<path d="M18.8963 18.4211L15.827 16.0571C15.6971 15.9572 15.5093 15.9812 15.4074 16.1111C15.3075 16.243 15.3314 16.4308 15.4613 16.5327L18.5306 18.8967V18.8947C18.6625 18.9966 18.8504 18.9726 18.9523 18.8407C19.0522 18.7108 19.0282 18.521 18.8963 18.4211Z" fill="#80011D"/>
<path d="M12.8693 19.2862C12.7694 19.4161 12.7933 19.6039 12.9232 19.7058L15.9925 22.0697C16.1244 22.1697 16.3123 22.1457 16.4142 22.0138C16.5141 21.8839 16.4901 21.6941 16.3582 21.5942L13.2889 19.2302C13.159 19.1303 12.9712 19.1543 12.8693 19.2862Z" fill="#80011D"/>
<path d="M15.0652 23.2747L11.9958 20.9108C11.864 20.8109 11.6761 20.8348 11.5742 20.9667C11.4743 21.0966 11.4983 21.2864 11.6302 21.3863L14.6995 23.7503C14.8294 23.8502 15.0172 23.8262 15.1191 23.6943C15.219 23.5644 15.195 23.3766 15.0652 23.2747Z" fill="#80011D"/>
<path d="M9.0973 24.2081C8.99539 24.338 9.01937 24.5258 9.15125 24.6277L12.2206 26.9917C12.3505 27.0916 12.5403 27.0676 12.6402 26.9357C12.7421 26.8058 12.7161 26.616 12.5862 26.5161L9.51693 24.1522C9.45299 24.1042 9.37506 24.0822 9.29513 24.0922C9.2172 24.1022 9.14526 24.1442 9.0973 24.2081Z" fill="#80011D"/>
<path d="M11.2907 28.1963L8.22141 25.8324C8.09152 25.7325 7.90169 25.7565 7.80177 25.8883C7.69986 26.0182 7.72584 26.2061 7.85573 26.308L10.925 28.6719C10.989 28.7199 11.0689 28.7438 11.1468 28.7339C11.2268 28.7239 11.2987 28.6819 11.3487 28.618C11.3966 28.556 11.4186 28.4741 11.4086 28.3962C11.3966 28.3162 11.3547 28.2443 11.2907 28.1963Z" fill="#80011D"/>
<path d="M23.7244 22.3518C23.6765 22.4158 23.6545 22.4957 23.6645 22.5736C23.6745 22.6536 23.7164 22.7235 23.7804 22.7735L26.8497 25.1374L26.8477 25.1354C26.9796 25.2373 27.1674 25.2133 27.2693 25.0814C27.3692 24.9496 27.3453 24.7617 27.2134 24.6618L24.1441 22.2979H24.1461C24.0142 22.198 23.8263 22.2219 23.7244 22.3518Z" fill="#80011D"/>
<path d="M25.9202 26.342L22.8509 23.978C22.719 23.8761 22.5312 23.9021 22.4313 24.032C22.3294 24.1639 22.3534 24.3517 22.4852 24.4536L25.5546 26.8176V26.8156C25.6844 26.9175 25.8743 26.8935 25.9742 26.7616C26.0761 26.6297 26.0501 26.4419 25.9202 26.342Z" fill="#80011D"/>
<path d="M19.8942 27.2075C19.7923 27.3374 19.8162 27.5252 19.9481 27.6271L23.0174 29.9911C23.1473 30.091 23.3372 30.067 23.4371 29.9351C23.539 29.8052 23.513 29.6154 23.3831 29.5155L20.3138 27.1515C20.2499 27.1036 20.1719 27.0816 20.092 27.0916C20.0141 27.1016 19.9421 27.1436 19.8942 27.2075Z" fill="#80011D"/>
<path d="M22.0876 31.196L19.0183 28.832C18.8884 28.7321 18.6986 28.7561 18.5986 28.888C18.4967 29.0179 18.5227 29.2077 18.6526 29.3076L21.7219 31.6715C21.8538 31.7715 22.0416 31.7475 22.1415 31.6156C22.2435 31.4857 22.2195 31.2979 22.0876 31.196Z" fill="#80011D"/>
<path d="M16.119 32.1292C16.071 32.1911 16.049 32.2711 16.059 32.349C16.069 32.4289 16.111 32.5009 16.1729 32.5488L19.2422 34.9128C19.3741 35.0127 19.5619 34.9887 19.6639 34.8568C19.7638 34.7269 19.7398 34.5371 19.6079 34.4372L16.5386 32.0732C16.4087 31.9733 16.2209 31.9973 16.119 32.1292Z" fill="#80011D"/>
<path d="M18.3157 36.1177L15.2464 33.7538C15.1145 33.6539 14.9267 33.6778 14.8268 33.8097C14.7249 33.9396 14.7489 34.1275 14.8807 34.2294L17.9501 36.5933C18.0799 36.6932 18.2698 36.6692 18.3697 36.5373C18.4716 36.4075 18.4456 36.2176 18.3157 36.1177Z" fill="#80011D"/>
<path d="M36.5595 8.61149C36.6734 8.69741 36.7853 8.78334 36.8952 8.86926V8.87126C36.9571 8.92321 37.039 8.94719 37.119 8.9392C37.2009 8.93121 37.2748 8.88924 37.3248 8.8253C37.3747 8.76135 37.3967 8.67942 37.3847 8.59949C37.3747 8.51956 37.3308 8.44762 37.2648 8.39967C37.1509 8.30975 37.035 8.22182 36.9191 8.1339C36.7873 8.03399 36.5994 8.05997 36.4995 8.19185C36.3996 8.32574 36.4276 8.51357 36.5595 8.61348L36.5595 8.61149Z" fill="#80011D"/>
<path d="M29.4952 5.22878C31.6333 5.77031 33.6655 6.66353 35.508 7.87447C35.6479 7.96439 35.8337 7.92643 35.9236 7.78855C36.0155 7.65067 35.9756 7.46283 35.8377 7.37291C33.9394 6.126 31.8452 5.2048 29.6433 4.64931C29.5654 4.62733 29.4834 4.63932 29.4135 4.67928C29.3436 4.71925 29.2936 4.78719 29.2736 4.86512C29.2536 4.94305 29.2676 5.02498 29.3096 5.09292C29.3496 5.16286 29.4173 5.2108 29.4952 5.22878Z" fill="#80011D"/>
<path d="M31.4653 29.024C29.8067 30.0891 28.9555 32.0474 29.3052 33.9876C29.6548 35.926 31.1375 37.4626 33.0639 37.8822C34.9882 38.2999 36.9764 37.5186 38.0995 35.9C39.2245 34.2814 39.2625 32.1453 38.1954 30.4867C36.7407 28.2267 33.7272 27.5713 31.4653 29.024ZM38.2735 34.0296C37.8399 36.0199 36.0615 37.4267 34.0252 37.3907C31.987 37.3547 30.2605 35.886 29.8969 33.8798C29.5352 31.8755 30.6402 29.8932 32.5366 29.1479C34.4309 28.4006 36.591 29.0979 37.692 30.8124C38.3074 31.7636 38.5173 32.9226 38.2735 34.0296Z" fill="#80011D"/>
<path d="M30.7897 27.9748C28.7095 29.3137 27.6384 31.7735 28.078 34.2076C28.5176 36.6435 30.38 38.5738 32.7979 39.0993C35.2158 39.6248 37.7116 38.6437 39.1243 36.6095C40.535 34.5772 40.583 31.8956 39.2442 29.8135C37.4158 26.974 33.6329 26.1525 30.7897 27.9748ZM37.0823 37.7624C35.2059 38.9693 32.786 38.9253 30.9539 37.6525C29.1215 36.3816 28.2343 34.1296 28.7098 31.9497C29.1834 29.7696 30.9239 28.0891 33.12 27.6934C35.3161 27.2958 37.5341 28.2609 38.7409 30.1373C39.5422 31.3662 39.818 32.8649 39.5063 34.2976C39.1945 35.7304 38.3212 36.9791 37.0823 37.7624Z" fill="#80011D"/>
<path d="M37.119 34.7768C37.0531 34.7329 36.9712 34.7169 36.8932 34.7329C36.8153 34.7489 36.7474 34.7928 36.7034 34.8608C36.4636 35.2184 36.1539 35.5222 35.7922 35.754C35.6524 35.8439 35.6124 36.0297 35.7023 36.1676C35.7902 36.3075 35.9761 36.3475 36.1159 36.2575C36.5476 35.9818 36.9172 35.6201 37.201 35.1925C37.245 35.1265 37.2629 35.0446 37.247 34.9667C37.231 34.8887 37.185 34.8208 37.119 34.7768Z" fill="#80011D"/>
<path d="M33.5946 29.4255C33.057 29.4974 32.5395 29.6892 32.0839 29.983C32.016 30.0269 31.968 30.0949 31.95 30.1728C31.932 30.2507 31.946 30.3327 31.99 30.4006C32.0339 30.4665 32.1019 30.5145 32.1798 30.5305C32.2577 30.5485 32.3397 30.5325 32.4076 30.4885C32.7913 30.2407 33.2229 30.0809 33.6765 30.0189C33.8404 29.9969 33.9543 29.8451 33.9323 29.6812C33.9103 29.5174 33.7584 29.4035 33.5946 29.4255Z" fill="#80011D"/>
<path d="M36.4047 32.4845C36.4327 32.6244 36.5546 32.7263 36.6964 32.7263C36.7184 32.7263 36.7384 32.7243 36.7564 32.7203C36.9202 32.6864 37.0241 32.5285 36.9922 32.3666C36.9142 31.983 36.7604 31.6193 36.5346 31.2976C36.4407 31.1617 36.2528 31.1298 36.1169 31.2237C35.9811 31.3196 35.9491 31.5054 36.043 31.6413C36.2209 31.8951 36.3427 32.1828 36.4047 32.4845Z" fill="#80011D"/>
<path d="M32.4788 32.6647C32.4748 32.5848 32.4408 32.5088 32.3809 32.4549C32.3229 32.4009 32.245 32.373 32.1651 32.377C32.0851 32.381 32.0092 32.4169 31.9552 32.4749C31.9013 32.5348 31.8753 32.6128 31.8793 32.6927C31.8993 33.1083 32.0092 33.514 32.203 33.8816C32.281 34.0275 32.4608 34.0855 32.6087 34.0075C32.7545 33.9316 32.8105 33.7497 32.7346 33.6039C32.5807 33.3121 32.4928 32.9924 32.4788 32.6647Z" fill="#80011D"/>
<path d="M37.7023 17.4738C37.7203 17.4738 37.7383 17.4718 37.7563 17.4698L41.1933 16.8383C41.2732 16.8244 41.3452 16.7804 41.3911 16.7144C41.4371 16.6485 41.4551 16.5666 41.4411 16.4886C41.4251 16.4087 41.3811 16.3388 41.3132 16.2928C41.2472 16.2489 41.1633 16.2329 41.0854 16.2489L37.6484 16.8803V16.8783C37.4965 16.9063 37.3886 17.0462 37.4026 17.202C37.4166 17.3559 37.5465 17.4738 37.7023 17.4738Z" fill="#80011D"/>
<path d="M36.8049 19.7062C36.9128 20.2856 37.3105 20.7692 37.858 20.989L38.2896 23.347V23.345C38.4395 24.1643 39.1529 24.7597 39.9842 24.7617C40.0901 24.7617 40.196 24.7517 40.2999 24.7337L42.9736 24.2422C43.9127 24.0683 44.5322 23.1691 44.3623 22.2319L43.8708 19.5582C43.7628 18.9768 43.3672 18.4912 42.8177 18.2694L42.3821 15.8935C42.2082 14.9623 41.317 14.3469 40.3858 14.5167L37.6862 15.0123C36.755 15.1821 36.1396 16.0753 36.3094 17.0065L36.8049 19.7062ZM43.2812 19.6642L43.7708 22.3399C43.8827 22.9533 43.479 23.5408 42.8656 23.6527L40.1919 24.1443C39.8982 24.1982 39.5944 24.1323 39.3486 23.9624C39.1029 23.7926 38.933 23.5328 38.8791 23.2371L38.3875 20.5634C38.2756 19.9519 38.6812 19.3644 39.2947 19.2505L41.9684 18.759V18.761C42.2621 18.707 42.5658 18.771 42.8116 18.9408C43.0594 19.1107 43.2272 19.3724 43.2812 19.6662L43.2812 19.6642ZM37.0786 16.0653C37.2445 15.8215 37.5023 15.6537 37.794 15.6017L40.4936 15.1062C41.0991 14.9963 41.6805 15.3959 41.7925 16.0014L42.1861 18.1435C42.0762 18.1415 41.9683 18.1515 41.8604 18.1715L41.6826 18.2034C41.6146 18.1415 41.5207 18.1155 41.4308 18.1315L37.9938 18.763C37.9118 18.773 37.8399 18.8169 37.7919 18.8829C37.744 18.9488 37.726 19.0307 37.74 19.1107C37.754 19.1906 37.7999 19.2625 37.8659 19.3065C37.9338 19.3525 38.0177 19.3684 38.0977 19.3525C38.0917 19.3624 38.0837 19.3704 38.0757 19.3804C37.8978 19.6382 37.7939 19.9379 37.776 20.2497C37.5761 20.0838 37.4423 19.854 37.3943 19.5983L36.8987 16.8986C36.8448 16.6089 36.9088 16.3091 37.0786 16.0653Z" fill="#80011D"/>
<path d="M38.8956 20.8812C38.9216 21.0231 39.0455 21.125 39.1894 21.127C39.2073 21.125 39.2253 21.125 39.2433 21.121L42.6803 20.4896C42.7603 20.4776 42.8322 20.4336 42.8782 20.3677C42.9241 20.3017 42.9421 20.2198 42.9281 20.1399C42.9141 20.0599 42.8682 19.99 42.8002 19.946C42.7343 19.9001 42.6524 19.8841 42.5724 19.9001L39.1354 20.5315C38.9736 20.5615 38.8656 20.7174 38.8956 20.8812Z" fill="#80011D"/>
<path d="M39.4814 22.4138C39.3295 22.4417 39.2236 22.5796 39.2376 22.7355C39.2516 22.8893 39.3794 23.0072 39.5353 23.0072C39.5533 23.0072 39.5713 23.0052 39.5893 23.0032L43.0263 22.3718C43.1861 22.3398 43.29 22.184 43.2601 22.0241C43.2321 21.8642 43.0782 21.7563 42.9184 21.7823L39.4814 22.4138Z" fill="#80011D"/>
<path d="M42.0707 7.11676C36.947 1.9552 29.7014 -0.510482 22.4921 0.456351C15.2843 1.42349 8.94412 5.71152 5.36121 12.042C1.78034 18.3724 1.37069 26.0155 4.25416 32.6918L0.607356 37.4237C0.0278697 38.179 0.167738 39.26 0.92108 39.8396L1.47458 40.2652V40.2672C1.52653 40.3072 1.59048 40.3291 1.65842 40.3291C1.67041 40.3291 1.6844 40.3271 1.69639 40.3251C1.77432 40.3151 1.84626 40.2752 1.89422 40.2112L5.26928 35.8291C5.32524 35.7591 5.34522 35.6672 5.32524 35.5793L5.11542 34.6701L5.17936 34.5882H5.17736C6.58214 37.1679 8.46449 39.4559 10.7246 41.3304L7.63133 45.3469H7.62933C7.05184 46.1003 7.19171 47.1813 7.94306 47.7609L8.49656 48.1865V48.1885C8.62844 48.2884 8.81628 48.2644 8.91819 48.1325L12.2933 43.7504C12.3472 43.6784 12.3672 43.5885 12.3472 43.5006L12.1374 42.5914L12.2233 42.4795C18.6136 46.9715 26.8343 47.9506 34.1024 45.0852C41.368 42.2177 46.7096 35.8911 48.3138 28.248C49.9184 20.6029 47.5725 12.6615 42.0714 7.11632L42.0707 7.11676ZM4.55347 34.4168C4.49951 34.4887 4.47753 34.5786 4.49751 34.6665L4.70733 35.5757L1.60206 39.6082L1.28633 39.3644C0.796763 38.9867 0.704853 38.2813 1.08251 37.7898L7.91275 28.9256L8.45628 29.3532L4.55347 34.4168ZM24.5679 10.4997H24.5659C24.8657 10.7434 25.0455 11.1051 25.0615 11.4908C25.1554 12.7337 25.687 16.3186 25.7089 16.4664H25.7069C25.7249 16.6043 25.629 16.7282 25.4911 16.7462C25.4252 16.7562 25.3572 16.7382 25.3053 16.6962C25.2533 16.6543 25.2194 16.5943 25.2114 16.5284L24.8677 13.6409C24.8177 13.2033 24.522 12.8337 24.1083 12.6858L22.3499 12.0503C22.142 11.9744 21.9082 12.0144 21.7364 12.1522C21.5626 12.2921 21.4746 12.5119 21.5026 12.7317C21.5266 12.9216 21.3927 13.0954 21.2049 13.1194C21.015 13.1434 20.8412 13.0095 20.8172 12.8216L20.6294 11.3809C20.5434 10.7195 19.962 10.2379 19.2965 10.2759L20.3756 8.87307L20.3776 8.87507C20.5814 8.6073 20.8851 8.43346 21.2188 8.3915C21.5525 8.34753 21.8883 8.43746 22.156 8.64328L24.5679 10.4997ZM23.4609 8.89108L25.573 6.25541H25.571C25.633 6.18347 25.7429 6.16948 25.8188 6.22743C25.8968 6.28339 25.9167 6.39129 25.8648 6.47122L23.8525 9.19283L23.4609 8.89108ZM19.7801 11.0132C19.92 11.1211 20.0119 11.281 20.0359 11.4568L20.0399 11.4948L19.6602 11.203C19.5283 11.1011 19.3405 11.1251 19.2406 11.257C19.1387 11.3889 19.1627 11.5767 19.2945 11.6766L20.1498 12.3341L20.2217 12.8956V12.8976C20.2657 13.2273 20.4795 13.511 20.7853 13.6429C21.091 13.7768 21.4447 13.7368 21.7145 13.541L22.3639 14.0406C22.4258 14.0925 22.5077 14.1165 22.5877 14.1065C22.6676 14.0965 22.7415 14.0546 22.7915 13.9906C22.8415 13.9267 22.8614 13.8448 22.8494 13.7648C22.8395 13.6849 22.7955 13.613 22.7295 13.565L22.0621 13.0514C22.1021 12.9236 22.1141 12.7877 22.0961 12.6538C22.0941 12.6398 22.1001 12.6278 22.1101 12.6198C22.1201 12.6098 22.1341 12.6078 22.1481 12.6138L23.9065 13.2493H23.9045C23.9425 13.2613 23.9784 13.2793 24.0104 13.2992L22.9414 14.69C22.5138 15.2435 21.7185 15.3475 21.1629 14.9218L18.7511 13.0655V13.0635C18.1976 12.6358 18.0936 11.8406 18.5193 11.285L18.781 10.9433L19.2826 10.8774L19.2846 10.8794C19.4604 10.8554 19.6382 10.9033 19.7801 11.0132ZM18.3354 13.507L20.7233 15.3454C21.2849 15.7771 21.3887 16.5824 20.9571 17.1438L19.1187 19.5318C18.6851 20.0933 17.8818 20.1972 17.3203 19.7656L14.9324 17.9271C14.3708 17.4935 14.2669 16.6902 14.6986 16.1287L16.537 13.7408C16.9686 13.1793 17.7739 13.0754 18.3354 13.507ZM14.5027 18.3608L16.8907 20.1992C17.4522 20.6308 17.5561 21.4361 17.1245 21.9976L15.286 24.3855C14.8544 24.9471 14.0491 25.051 13.4876 24.6193L11.0997 22.7809C10.5382 22.3493 10.4343 21.544 10.8659 20.9825L12.7043 18.5946C13.136 18.033 13.9413 17.9291 14.5027 18.3608ZM10.7181 23.2725L13.1299 25.1289C13.6834 25.5565 13.7874 26.3538 13.3597 26.9073L11.5034 29.3192C11.2956 29.591 10.9878 29.7688 10.6501 29.8148C10.3164 29.8647 9.97869 29.7788 9.71095 29.575L7.31704 27.6966L7.31504 27.6946H7.31304C7.04727 27.4888 6.87342 27.187 6.82946 26.8534C6.7855 26.5196 6.87742 26.1819 7.08324 25.9162L8.93961 23.5043C9.14343 23.2366 9.44717 23.0627 9.78086 23.0208C9.83681 23.0128 9.89076 23.0088 9.94671 23.0088C10.2265 23.0088 10.4963 23.1026 10.7181 23.2725ZM5.57852 34.0673L6.99326 32.2309V32.2329C8.26416 34.9126 10.0965 37.2885 12.3646 39.2007L11.0897 40.8553C8.82764 38.9749 6.9551 36.6692 5.57852 34.0673ZM11.5754 42.336V42.338C11.5215 42.4079 11.5015 42.4999 11.5215 42.5878L11.7313 43.497L8.62603 47.5294L8.31031 47.2856C7.81874 46.908 7.72683 46.2026 8.10449 45.711L14.9363 36.8468L15.4798 37.2745L11.5754 42.336ZM31.5899 18.4189V18.4209C31.8877 18.6647 32.0675 19.0264 32.0835 19.412C32.1774 20.6549 32.709 24.2398 32.7309 24.3877C32.7489 24.5236 32.651 24.6495 32.5151 24.6674C32.4491 24.6774 32.3812 24.6574 32.3292 24.6175C32.2753 24.5755 32.2413 24.5156 32.2333 24.4496L31.8896 21.5622C31.8397 21.1246 31.5459 20.7549 31.1323 20.607L29.3738 19.9716C29.3039 19.9456 29.2299 19.9316 29.156 19.9316C28.9722 19.9336 28.7983 20.0115 28.6784 20.1494C28.5585 20.2873 28.5026 20.4711 28.5246 20.651C28.5505 20.8408 28.4167 21.0146 28.2268 21.0386C28.037 21.0646 27.8651 20.9307 27.8392 20.7409L27.6513 19.3001H27.6533C27.5674 18.6407 26.9859 18.1591 26.3205 18.1971L27.3995 16.7944C27.6054 16.5286 27.9071 16.3547 28.2408 16.3108C28.5745 16.2668 28.9122 16.3587 29.178 16.5646L31.5899 18.4189ZM30.4829 16.8103L32.595 14.1766C32.657 14.1027 32.7649 14.0907 32.8428 14.1467C32.9207 14.2046 32.9407 14.3125 32.8888 14.3924L30.8765 17.1141L30.4829 16.8103ZM26.8021 18.9324C26.944 19.0403 27.0359 19.2002 27.0579 19.378L27.0619 19.416L26.6822 19.1243L26.6842 19.1223C26.5523 19.0224 26.3645 19.0463 26.2626 19.1782C26.1627 19.3081 26.1866 19.4979 26.3185 19.5979L27.1738 20.2553L27.2477 20.8168L27.2457 20.8188C27.2877 21.1485 27.5015 21.4323 27.8072 21.5642C28.115 21.696 28.4667 21.6581 28.7364 21.4622L29.3858 21.9618C29.5177 22.0617 29.7056 22.0377 29.8075 21.9059C29.9074 21.776 29.8834 21.5881 29.7535 21.4862L29.0861 20.9727C29.1261 20.8448 29.1381 20.7069 29.1201 20.575C29.1181 20.561 29.1241 20.5471 29.1341 20.5391C29.1441 20.5311 29.158 20.5291 29.17 20.5331L30.9285 21.1685C30.9665 21.1825 31.0004 21.1985 31.0344 21.2205L29.9654 22.6113V22.6093C29.5377 23.1628 28.7424 23.2667 28.1869 22.8411L25.775 20.9847C25.2215 20.5571 25.1176 19.7618 25.5432 19.2062L25.805 18.8645L26.3066 18.7986L26.3086 18.8006C26.4844 18.7766 26.6623 18.8246 26.8021 18.9345L26.8021 18.9324ZM25.3594 21.4263L27.7473 23.2647H27.7453C28.3068 23.6983 28.4107 24.5036 27.9791 25.0651L26.1407 27.453C25.709 28.0145 24.9037 28.1184 24.3423 27.6868L21.9543 25.8484C21.3948 25.4148 21.2889 24.6114 21.7205 24.05L23.559 21.662C23.9926 21.1005 24.7959 20.9966 25.3574 21.4282L25.3594 21.4263ZM21.5267 26.28L23.9146 28.1184V28.1204C24.4742 28.552 24.5801 29.3574 24.1484 29.9188L22.31 32.3068C21.8764 32.8683 21.0731 32.9722 20.5096 32.5406L18.1217 30.7021C17.5622 30.2705 17.4583 29.4652 17.8879 28.9037L19.7263 26.5158C20.1599 25.9543 20.9652 25.8504 21.5267 26.282V26.28ZM17.742 31.1917L20.1519 33.0501C20.7054 33.4777 20.8094 34.275 20.3837 34.8286L18.5273 37.2404H18.5253C18.0957 37.7979 17.3004 37.9098 16.7329 37.4942L14.339 35.6158L14.337 35.6138V35.6158C13.7815 35.1882 13.6796 34.3909 14.1052 33.8374L15.9616 31.4255C16.1674 31.1577 16.4691 30.9839 16.8028 30.9419C16.8588 30.9339 16.9147 30.9299 16.9687 30.9299C17.2484 30.9299 17.5202 31.0239 17.74 31.1937L17.742 31.1917ZM41.5154 39.5382L41.5134 39.5402C37.7467 43.2769 32.7853 45.5709 27.4994 46.0206C22.212 46.4722 16.9349 45.0494 12.5887 42.006L13.8636 40.3515L13.8656 40.3495C17.2926 42.7294 21.3629 44.0083 25.5351 44.0163C36.821 44.0143 46.0729 34.8564 46.119 23.5583C46.1469 17.8335 43.783 12.3563 39.5967 8.44961C35.4103 4.54304 29.781 2.56471 24.0721 2.99032C18.3611 3.41595 13.0896 6.20753 9.52867 10.6917C9.42476 10.8216 9.44674 11.0095 9.57663 11.1114C9.70652 11.2133 9.89435 11.1913 9.99626 11.0634C13.4572 6.71323 18.575 4.00758 24.1161 3.59578C29.6572 3.18414 35.1186 5.10445 39.1829 8.89494C43.2473 12.6836 45.5435 17.999 45.5195 23.556C45.4755 34.5523 36.4895 43.4564 25.4948 43.4165C21.4683 43.4085 17.5376 42.1736 14.2304 39.8756L15.9509 37.6436L16.3645 37.9693V37.9673C16.6882 38.2171 17.0839 38.3509 17.4915 38.3509C18.083 38.3509 18.6405 38.0752 19.0002 37.6056L20.8566 35.1937C21.1603 34.8021 21.2962 34.3065 21.2302 33.815C21.2102 33.6711 21.1763 33.5332 21.1243 33.3973C21.1803 33.4013 21.2342 33.4053 21.2902 33.4053C21.8756 33.4073 22.4272 33.1355 22.7829 32.6719L24.6213 30.284C25.005 29.7885 25.1149 29.133 24.915 28.5395C25.5685 28.6155 26.2159 28.3417 26.6155 27.8181L28.454 25.4302C28.8356 24.9346 28.9455 24.2832 28.7477 23.6898C29.3971 23.7637 30.0386 23.4939 30.4382 22.9764L31.3175 21.8334L31.6332 24.4871C31.6552 24.7109 31.7611 24.9167 31.929 25.0646C32.0828 25.1964 32.2786 25.2684 32.4785 25.2684C32.5164 25.2684 32.5544 25.2664 32.5904 25.2624C32.8142 25.2324 33.018 25.1145 33.1559 24.9347C33.2938 24.7548 33.3537 24.527 33.3237 24.3032C33.3177 24.2672 32.7742 20.5865 32.6803 19.3656C32.6523 18.8101 32.3886 18.2925 31.9549 17.9448L31.3494 17.4792L33.3737 14.7416V14.7436C33.6155 14.3979 33.5415 13.9263 33.2078 13.6705C32.8741 13.4168 32.3985 13.4707 32.1307 13.7944L30.0066 16.4441L29.543 16.0864V16.0884C29.1514 15.7867 28.6538 15.6528 28.1622 15.7167C27.6727 15.7787 27.2271 16.0365 26.9233 16.4281L25.0669 18.84C24.6873 19.3335 24.5794 19.985 24.7772 20.5744C24.1258 20.5025 23.4843 20.7763 23.0827 21.2938L21.2443 23.6817C20.8626 24.1793 20.7527 24.8347 20.9525 25.4302C20.2991 25.3563 19.6536 25.628 19.252 26.1495L17.4136 28.5375C17.0179 29.051 16.916 29.7324 17.1418 30.3399C16.5024 30.2779 15.8769 30.5497 15.4873 31.0592L13.6309 33.4711C13.0034 34.2864 13.1533 35.4573 13.9686 36.0888L14.4622 36.4765L12.7297 38.7245H12.7317C10.4577 36.8042 8.63928 34.4043 7.40644 31.6947L8.92713 29.7204L9.34077 30.0461H9.34277C9.66249 30.2939 10.0581 30.4278 10.4618 30.4258C10.5537 30.4278 10.6436 30.4198 10.7336 30.4078C11.2271 30.3399 11.6747 30.0801 11.9785 29.6844L13.8348 27.2726C14.2285 26.761 14.3284 26.0816 14.1006 25.4782C14.1546 25.4822 14.2105 25.4862 14.2645 25.4862H14.2665C14.3404 25.4862 14.4163 25.4802 14.4903 25.4722C15.0078 25.4042 15.4774 25.1285 15.7911 24.7108L17.5996 22.3629C17.9812 21.8653 18.0911 21.2119 17.8933 20.6164C17.9613 20.6244 18.0312 20.6304 18.0991 20.6304C18.6846 20.6304 19.2362 20.3606 19.5938 19.897L21.4323 17.5091C21.8119 17.0135 21.9238 16.3601 21.726 15.7667C22.3754 15.8426 23.0168 15.5728 23.4165 15.0553L24.2958 13.9123L24.6115 16.566C24.6335 16.7898 24.7394 16.9956 24.9072 17.1455C25.0611 17.2753 25.2549 17.3473 25.4568 17.3473C25.4947 17.3473 25.5307 17.3453 25.5687 17.3413C25.7925 17.3113 25.9963 17.1934 26.1322 17.0136C26.2701 16.8337 26.33 16.6079 26.3 16.3821C26.294 16.3461 25.7505 12.6654 25.6566 11.4444H25.6586C25.6306 10.889 25.3669 10.3714 24.9312 10.0237L24.3277 9.55812L26.352 6.8205V6.8225C26.5938 6.4788 26.5198 6.00519 26.1861 5.74942C25.8524 5.49564 25.3768 5.54959 25.109 5.87331L22.9849 8.52499L22.5213 8.1673C22.1277 7.86557 21.6321 7.73169 21.1405 7.79563C20.649 7.85957 20.2034 8.11535 19.9016 8.50699L18.0452 10.9189C17.6656 11.4124 17.5557 12.0639 17.7555 12.6533C17.1041 12.5814 16.4607 12.8552 16.061 13.3747L14.2505 15.7247C13.9928 16.0504 13.8469 16.4501 13.8309 16.8657C13.8269 17.0835 13.8589 17.3013 13.9288 17.5071C13.2754 17.4352 12.6299 17.707 12.2283 18.2265L10.3899 20.6144C10.0842 21.0101 9.95029 21.5116 10.0142 22.0072C10.0342 22.1471 10.0682 22.285 10.1181 22.4189C9.98027 22.4049 9.84039 22.4069 9.70451 22.4248C9.21294 22.4868 8.76535 22.7446 8.46558 23.1362L6.6332 25.5161C6.34345 25.8838 6.19758 26.3454 6.22356 26.815C6.25753 27.3485 6.5213 27.8421 6.94695 28.1678L7.44051 28.5554L6.60724 29.6365C5.01463 24.7228 5.39031 19.3835 7.66033 14.7437C7.72227 14.6178 7.6883 14.4659 7.5804 14.378L7.5784 14.376V14.378C7.50846 14.3201 7.41454 14.2981 7.32662 14.3181C7.23869 14.3361 7.16276 14.394 7.12279 14.4759C4.7229 19.3837 4.37719 25.0446 6.16762 30.2082L4.67292 32.1485C1.97131 25.638 2.45688 18.2404 5.98776 12.1402C9.51865 6.03941 15.6893 1.93318 22.6792 1.02978C29.669 0.12858 36.6809 2.53446 41.6445 7.53826C45.8708 11.8005 48.2307 17.5657 48.2067 23.5662C48.1827 29.5688 45.7748 35.314 41.5125 39.5404L41.5154 39.5382Z" fill="#80011D" stroke="#80011D" stroke-width="0.5"/>
</svg>
