<svg width="48" height="48" viewBox="0 0 48 48" fill="none" xmlns="http://www.w3.org/2000/svg">
<path fill-rule="evenodd" clip-rule="evenodd" d="M0.116236 30.7127C0.116236 30.7127 2.51246 37.9017 4.06682 42.5664C5.14868 45.812 8.18613 48 11.608 48H35.8232C39.1213 48 42.0761 45.9637 43.2501 42.8812C45.0239 38.2275 47.8513 30.8005 47.8513 30.8005C48.2938 29.6398 47.7107 28.3386 46.5501 27.898C45.3895 27.4555 44.0883 28.0386 43.6476 29.1992C43.6476 29.1992 40.8183 36.6263 39.0446 41.2799C38.5346 42.6169 37.254 43.5 35.8234 43.5H11.6063C10.1232 43.5 8.80508 42.5512 8.33632 41.143C6.78196 36.478 4.38386 29.2874 4.38386 29.2874C3.99199 28.1099 2.71699 27.4724 1.53764 27.8662C0.360168 28.2581 -0.277503 29.5333 0.116236 30.7127ZM1.53932 30.2383C1.40807 29.8464 1.62182 29.4208 2.01369 29.2895C2.40556 29.1582 2.83117 29.372 2.96244 29.7639C2.96244 29.7639 5.35867 36.9529 6.91303 41.6176C7.58613 43.6388 9.47802 45.0001 11.6079 45.0001H35.8231C37.8762 45.0001 39.7156 43.7326 40.4468 41.8126C42.2205 37.1588 45.0499 29.7319 45.0499 29.7319C45.1961 29.3456 45.6311 29.1506 46.0173 29.2987C46.4036 29.445 46.5986 29.88 46.4505 30.2662C46.4505 30.2662 43.6211 37.6933 41.8493 42.347C40.8949 44.8482 38.4987 46.5001 35.823 46.5001H11.6059C8.83091 46.5001 6.3672 44.7245 5.48977 42.0901C3.93541 37.4269 1.53731 30.2364 1.53731 30.2364L1.53932 30.2383ZM19.2127 30.0058C18.2939 30.032 17.3771 30.1801 16.4602 30.467C15.1609 30.8702 14.2496 32.0739 14.2496 33.4314V33.6152C14.2496 34.2189 14.4202 34.7815 14.7146 35.2596C14.5608 35.254 14.4052 35.2502 14.2496 35.2502C13.2371 35.2502 12.2227 35.4002 11.2084 35.7152C9.91094 36.1202 8.99967 37.324 8.99967 38.6815V38.8652C8.99967 40.5978 10.4022 42.0002 12.1346 42.0002H16.3664C17.5589 42.0002 18.5958 41.3346 19.1264 40.354C19.6551 41.3346 20.6939 42.0002 21.8863 42.0002H26.1182C27.3107 42.0002 28.3475 41.3346 28.8781 40.354C29.4069 41.3346 30.4456 42.0002 31.6381 42.0002H35.8699C37.5968 42.0002 38.9992 40.5977 38.9992 38.8652V38.6815C38.9992 37.309 38.1086 36.0977 36.7999 35.689C36.7943 35.6852 36.7868 35.6833 36.7793 35.6815C35.763 35.3965 34.7562 35.2502 33.7493 35.2502C33.5937 35.2502 33.4381 35.254 33.2843 35.2615C33.5787 34.7833 33.7493 34.2189 33.7493 33.6152V33.4314C33.7493 32.0589 32.8587 30.8477 31.55 30.4389C31.5444 30.4351 31.5369 30.4333 31.5294 30.4314C30.6106 30.1726 29.6994 30.0283 28.7882 30.0039C29.0807 29.5276 29.2494 28.967 29.2494 28.3651V28.1814C29.2494 26.8088 28.3588 25.5976 27.0501 25.1888C27.0444 25.1851 27.0369 25.1832 27.0294 25.1813C26.0132 24.8963 25.0064 24.7501 23.9995 24.7501C22.987 24.7501 21.9726 24.9001 20.9583 25.2151C19.6608 25.6201 18.7496 26.8239 18.7496 28.1814V28.3651C18.7496 28.9651 18.9183 29.5276 19.2108 30.0039L19.2127 30.0058ZM17.9996 38.6794V38.8651C17.9996 39.7688 17.2684 40.5001 16.3646 40.5001H12.1328C11.231 40.5001 10.4997 39.7688 10.4997 38.8651V38.6813C10.4997 37.9763 10.9816 37.3576 11.6547 37.1476C12.521 36.8776 13.3853 36.7501 14.2496 36.7501C15.114 36.7501 15.9803 36.8757 16.8521 37.1194C17.5384 37.3388 17.9996 37.9669 17.9996 38.6794ZM27.7492 38.6794V38.8651C27.7492 39.7688 27.018 40.5001 26.1143 40.5001H21.8825C20.9806 40.5001 20.2494 39.7688 20.2494 38.8651V38.6813C20.2494 37.9763 20.7312 37.3576 21.4043 37.1476C22.2706 36.8776 23.135 36.7501 23.9993 36.7501C24.8636 36.7501 25.7299 36.8757 26.6018 37.1194C27.288 37.3388 27.7492 37.9669 27.7492 38.6794ZM37.4989 38.6794V38.8651C37.4989 39.7688 36.7676 40.5001 35.8639 40.5001H31.6321C30.7302 40.5001 29.999 39.7688 29.999 38.8651V38.6813C29.999 37.9763 30.4809 37.3576 31.154 37.1476C32.0202 36.8776 32.8846 36.7501 33.7489 36.7501C34.6132 36.7501 35.4795 36.8757 36.3514 37.1194C37.0376 37.3388 37.4989 37.9669 37.4989 38.6794ZM28.5854 36.7501C28.6979 36.8926 28.7973 37.0463 28.8816 37.2076C28.9697 37.0463 29.0729 36.8944 29.1891 36.7501H28.5854ZM18.8357 36.7501C18.9482 36.8926 19.0476 37.0463 19.132 37.2076C19.2201 37.0463 19.3232 36.8944 19.4395 36.7501H18.8357ZM23.2494 33.4294V33.615C23.2494 34.5188 22.5182 35.25 21.6145 35.25H17.3827C16.4808 35.25 15.7496 34.5188 15.7496 33.615V33.4313C15.7496 32.7262 16.2314 32.1075 16.9045 31.8975C17.7708 31.6275 18.6352 31.5 19.4995 31.5C20.3638 31.5 21.2301 31.6256 22.102 31.8694C22.7882 32.0888 23.2494 32.7169 23.2494 33.4294ZM32.2493 33.4294V33.615C32.2493 34.5188 31.5181 35.25 30.6144 35.25H26.3825C25.4807 35.25 24.7495 34.5188 24.7495 33.615V33.4275C24.7495 32.7225 25.2313 32.1056 25.9044 31.8956C26.7707 31.6256 27.635 31.4981 28.4994 31.4981C29.3637 31.4981 30.23 31.6238 31.1018 31.8675C31.7881 32.0869 32.2493 32.715 32.2493 33.4275V33.4294ZM27.7494 28.1791V28.3647C27.7494 29.2685 27.0181 29.9997 26.1144 29.9997H21.8826C20.9807 29.9997 20.2495 29.2685 20.2495 28.3647V28.181C20.2495 27.476 20.7314 26.8572 21.4045 26.6472C22.2707 26.3772 23.1351 26.2497 23.9994 26.2497C24.8637 26.2497 25.73 26.3754 26.6019 26.6191C27.2881 26.8385 27.7494 27.4666 27.7494 28.1791ZM8.34515 14.3041C6.17208 12.0935 3.19626 11.276 3.19626 11.276C3.00314 11.2235 2.79689 11.2497 2.62439 11.351C2.45189 11.4503 2.3244 11.6153 2.27377 11.8085C2.27377 11.8085 1.11881 16.2448 3.12687 19.7209C3.22061 19.884 3.31999 20.0415 3.42311 20.1934C1.68501 20.4746 0.38941 21.1852 0.38941 21.1852C0.209412 21.2827 0.0781624 21.4515 0.0256655 21.6502C-0.0268362 21.8471 0.00316582 22.059 0.110039 22.2334C0.110039 22.2334 1.97001 25.269 5.03765 26.0922C7.47324 26.7447 9.94799 25.8071 10.8653 25.3947C10.9796 25.4622 11.1128 25.4997 11.2496 25.4997C11.4502 25.4997 11.6415 25.4209 11.7821 25.2784C11.7821 25.2784 14.9996 22.014 14.9996 17.9996C14.9996 13.9871 11.7821 10.7208 11.7821 10.7208C11.6415 10.5783 11.4503 10.4996 11.2496 10.4996C11.049 10.4996 10.8578 10.5783 10.7171 10.7208C10.7171 10.7208 9.29778 12.1609 8.34528 14.3021L8.34515 14.3041ZM37.1352 25.3932C38.0501 25.8057 40.5251 26.7432 42.9628 26.0907C46.0302 25.2694 47.8904 22.2319 47.8904 22.2319C47.9973 22.0575 48.0273 21.8456 47.9748 21.6488C47.9223 21.45 47.791 21.2831 47.611 21.1838C47.611 21.1838 46.3154 20.475 44.5773 20.1919C44.6804 20.0381 44.7798 19.8806 44.8736 19.7194C46.8798 16.2431 45.7267 11.807 45.7267 11.807C45.676 11.6139 45.5504 11.4489 45.376 11.3495C45.2035 11.2501 44.9973 11.222 44.8042 11.2745C44.8042 11.2745 41.8286 12.092 39.6553 14.3026C38.7009 12.1614 37.2816 10.7214 37.2816 10.7214C37.1409 10.5789 36.9497 10.5001 36.7491 10.5001C36.5484 10.5001 36.3572 10.5789 36.2166 10.7214C36.2166 10.7214 32.9991 13.9858 32.9991 18.0002C32.9991 22.0127 36.2166 25.2789 36.2166 25.2789C36.3572 25.4214 36.5484 25.5002 36.7491 25.5002C36.8859 25.5002 37.0189 25.4626 37.1352 25.3932ZM4.606 21.5813C3.5204 21.6113 2.5379 21.9038 1.8948 22.1513C2.53603 22.9463 3.76227 24.195 5.42727 24.6413C6.91602 25.0407 8.42349 24.7088 9.40599 24.3694C8.79851 24.18 6.4641 23.3625 4.606 21.5813ZM43.3919 21.5813C41.5338 23.3606 39.1994 24.1801 38.5938 24.3694C39.5763 24.7069 41.0819 25.0407 42.5725 24.6413C44.2375 24.195 45.4637 22.9463 46.105 22.1513C45.46 21.9038 44.4794 21.6113 43.3938 21.5813L43.3919 21.5813ZM20.249 24.0001C20.249 22.8075 19.8534 21.8063 19.4427 20.8088C19.1034 19.9857 18.749 19.17 18.749 18.1875C18.749 17.2051 19.1034 16.3894 19.4427 15.5663C19.8534 14.5688 20.249 13.5675 20.249 12.375C20.249 11.1826 19.8534 10.1813 19.4427 9.18377C19.1034 8.36066 18.749 7.54499 18.749 6.56252C18.749 5.58005 19.1034 4.76438 19.4427 3.94127C19.8534 2.94377 20.249 1.94248 20.249 0.750006C20.249 0.335628 19.9134 0 19.499 0C19.0846 0 18.749 0.335628 18.749 0.750006C18.749 1.73253 18.3946 2.54815 18.0553 3.37126C17.6447 4.36876 17.249 5.37005 17.249 6.56252C17.249 7.75499 17.6447 8.75628 18.0553 9.75378C18.3946 10.5769 18.749 11.3926 18.749 12.375C18.749 13.3575 18.3946 14.1732 18.0553 14.9963C17.6447 15.9938 17.249 16.9951 17.249 18.1875C17.249 19.38 17.6447 20.3813 18.0553 21.3788C18.3946 22.2019 18.749 23.0176 18.749 24.0001C18.749 24.4144 19.0846 24.7501 19.499 24.7501C19.9134 24.7501 20.249 24.4144 20.249 24.0001ZM30.7489 24.0001C30.7489 22.8075 30.3532 21.8063 29.9426 20.8088C29.6032 19.9857 29.2489 19.17 29.2489 18.1875C29.2489 17.2051 29.6032 16.3894 29.9426 15.5663C30.3532 14.5688 30.7489 13.5675 30.7489 12.375C30.7489 11.1826 30.3532 10.1813 29.9426 9.18377C29.6032 8.36066 29.2489 7.54499 29.2489 6.56252C29.2489 5.58005 29.6032 4.76438 29.9426 3.94127C30.3532 2.94377 30.7489 1.94248 30.7489 0.750006C30.7489 0.335628 30.4132 0 29.9989 0C29.5845 0 29.2489 0.335628 29.2489 0.750006C29.2489 1.73253 28.8945 2.54815 28.5551 3.37126C28.1445 4.36876 27.7489 5.37005 27.7489 6.56252C27.7489 7.75499 28.1445 8.75628 28.5551 9.75378C28.8945 10.5769 29.2489 11.3926 29.2489 12.375C29.2489 13.3575 28.8945 14.1732 28.5551 14.9963C28.1445 15.9938 27.7489 16.9951 27.7489 18.1875C27.7489 19.38 28.1445 20.3813 28.5551 21.3788C28.8945 22.2019 29.2489 23.0176 29.2489 24.0001C29.2489 24.4144 29.5845 24.7501 29.9989 24.7501C30.4132 24.7501 30.7489 24.4144 30.7489 24.0001ZM11.2491 12.3864C12.0572 13.3895 13.4991 15.5252 13.4991 18C13.4991 20.4749 12.0572 22.6107 11.2491 23.6137C10.441 22.6105 8.99914 20.4749 8.99914 18C8.99914 15.5252 10.441 13.3893 11.2491 12.3864ZM36.7488 12.3864C37.5569 13.3895 38.9987 15.5252 38.9987 18C38.9987 20.4749 37.5569 22.6107 36.7488 23.6137C35.9407 22.6105 34.4988 20.4749 34.4988 18C34.4988 15.5252 35.9407 13.3893 36.7488 12.3864ZM25.24 22.2903C24.8387 20.9178 23.9988 19.7496 23.9988 18.1877C23.9988 17.2052 24.3531 16.3896 24.6925 15.5665C25.1031 14.569 25.4987 13.5677 25.4987 12.3752C25.4987 11.1828 25.1031 10.1815 24.6925 9.18397C24.3531 8.36085 23.9988 7.54518 23.9988 6.56271C23.9988 5.58024 24.3531 4.76457 24.6925 3.94146C25.1031 2.94396 25.4987 1.94267 25.4987 0.750198C25.4987 0.33582 25.1631 0.000192002 24.7487 0.000192002C24.3344 0.000192002 23.9988 0.33582 23.9988 0.750198C23.9988 1.73272 23.6444 2.54834 23.305 3.37145C22.8944 4.36895 22.4988 5.37024 22.4988 6.56271C22.4988 7.75519 22.8944 8.75647 23.305 9.75397C23.6444 10.5771 23.9988 11.3928 23.9988 12.3752C23.9988 13.3577 23.6444 14.1734 23.305 14.9965C22.8944 15.994 22.4988 16.9953 22.4988 18.1877C22.4988 19.9015 23.3613 21.2027 23.8 22.7103C23.9162 23.1078 24.3325 23.3365 24.73 23.2203C25.1275 23.104 25.3562 22.6878 25.24 22.2903ZM7.77444 15.9192C6.48258 14.2917 4.60571 13.3898 3.56701 12.9867C3.36826 14.2579 3.18826 16.8286 4.42576 18.9718C5.53013 20.8844 7.49321 21.9887 8.75694 22.5344C8.08384 21.2893 7.49883 19.7125 7.49883 18.0006C7.49883 17.2768 7.60381 16.5792 7.77444 15.9192ZM39.2404 22.5341C40.5041 21.9885 42.4673 20.8841 43.5716 18.9716C44.8091 16.8285 44.6291 14.2578 44.4304 12.9864C43.3916 13.3895 41.5148 14.2914 40.2229 15.9189C40.3935 16.579 40.4985 17.2764 40.4985 18.0002C40.4985 19.7121 39.9135 21.2891 39.2404 22.5341Z" fill="#80011D"/>
</svg>
