<svg width="52" height="50" viewBox="0 0 52 50" fill="none" xmlns="http://www.w3.org/2000/svg">
<path fill-rule="evenodd" clip-rule="evenodd" d="M1.48408 48.1329H50.1714L45.3599 23.0588H6.2978L1.48625 48.1329H1.48408ZM50.8479 49.2498H0.809307C0.644009 49.2498 0.485409 49.1761 0.378188 49.0465C0.273203 48.9169 0.228525 48.7494 0.259799 48.5841L5.28802 22.3932C5.33716 22.1296 5.56724 21.9397 5.83529 21.9397H45.822C46.0901 21.9397 46.3202 22.1296 46.3693 22.3932L51.3953 48.5841C51.4266 48.7472 51.3841 48.9169 51.2769 49.0465C51.1719 49.1738 51.0133 49.2498 50.8458 49.2498H50.8479Z" fill="#80011D" stroke="#80011D" stroke-width="0.5"/>
<path fill-rule="evenodd" clip-rule="evenodd" d="M13.3179 49.2498C13.3 49.2498 13.2821 49.2476 13.2643 49.2476C12.9582 49.2163 12.7304 48.946 12.7617 48.6377L15.2746 22.4468C15.3037 22.1385 15.5762 21.9152 15.8844 21.9442C16.1905 21.9732 16.4161 22.2457 16.3848 22.554L13.8718 48.745C13.845 49.0331 13.6016 49.2498 13.3179 49.2498Z" fill="#80011D" stroke="#80011D" stroke-width="0.5"/>
<path fill-rule="evenodd" clip-rule="evenodd" d="M25.827 49.25C25.5187 49.25 25.2686 48.9998 25.2686 48.6915V22.5006C25.2686 22.1923 25.5187 21.9421 25.827 21.9421C26.1353 21.9421 26.3854 22.1923 26.3854 22.5006V48.6915C26.3854 48.9998 26.1353 49.25 25.827 49.25Z" fill="#80011D" stroke="#80011D" stroke-width="0.5"/>
<path fill-rule="evenodd" clip-rule="evenodd" d="M38.3373 49.2498C38.0514 49.2498 37.8079 49.0331 37.7811 48.7449L35.2681 22.554C35.2391 22.248 35.4647 21.9732 35.7707 21.9442C36.079 21.9151 36.3515 22.1407 36.3806 22.4468L38.8935 48.6377C38.9248 48.9438 38.697 49.2163 38.3909 49.2475C38.3731 49.2498 38.3552 49.2498 38.3373 49.2498Z" fill="#80011D" stroke="#80011D" stroke-width="0.5"/>
<path fill-rule="evenodd" clip-rule="evenodd" d="M7.40074 45.22C7.1796 45.22 6.97856 45.0905 6.88921 44.8894C6.6569 44.3667 6.34864 44.0518 6.06049 44.0473H6.05379C5.84605 44.0473 5.63831 44.2193 5.49758 44.5074C5.36132 44.7844 5.02849 44.9006 4.7515 44.7643C4.47451 44.6281 4.35836 44.2952 4.49461 44.0182C4.82968 43.3347 5.40825 42.9326 6.0538 42.9326H6.08061C6.5698 42.9416 7.02547 43.1806 7.40077 43.6139C7.7738 43.1828 8.22948 42.9416 8.72093 42.9326C9.3754 42.9237 9.9696 43.3258 10.3069 44.0182C10.4409 44.2952 10.327 44.6303 10.05 44.7665C9.773 44.9006 9.43795 44.7866 9.30391 44.5097C9.16095 44.2215 8.95544 44.0495 8.7477 44.0495H8.741C8.45284 44.054 8.14233 44.3689 7.91228 44.8917C7.82293 45.0927 7.62189 45.2222 7.40075 45.2222L7.40074 45.22Z" fill="#80011D" stroke="#80011D" stroke-width="0.5"/>
<path fill-rule="evenodd" clip-rule="evenodd" d="M7.40024 47.0363C7.09198 47.0363 6.8418 46.7861 6.8418 46.4779V44.6618C6.8418 44.3536 7.09198 44.1034 7.40024 44.1034C7.70849 44.1034 7.95868 44.3536 7.95868 44.6618V46.4757C7.95868 46.7839 7.70849 47.0341 7.40024 47.0341V47.0363Z" fill="#80011D" stroke="#80011D" stroke-width="0.5"/>
<path fill-rule="evenodd" clip-rule="evenodd" d="M8.79625 36.5638C8.57511 36.5638 8.37407 36.4343 8.28472 36.2332C8.05241 35.7105 7.74415 35.3978 7.456 35.3911H7.4493C7.24156 35.3911 7.03382 35.5631 6.89309 35.8512C6.75683 36.1282 6.424 36.2421 6.14701 36.1081C5.87001 35.9741 5.75386 35.639 5.89012 35.362C6.22519 34.6807 6.80599 34.2764 7.44931 34.2764H7.47835C7.96755 34.2854 8.42321 34.5266 8.79851 34.9577C9.17378 34.5266 9.62723 34.2854 10.1187 34.2764C10.7731 34.2697 11.3673 34.6718 11.7046 35.362C11.8409 35.639 11.7247 35.9741 11.4477 36.1081C11.1708 36.2444 10.8357 36.1282 10.7017 35.8512C10.5609 35.5631 10.3532 35.3911 10.1454 35.3911H10.1387C9.85058 35.3978 9.54008 35.7105 9.31002 36.2332C9.22067 36.4365 9.01964 36.5638 8.79849 36.5638H8.79625Z" fill="#80011D" stroke="#80011D" stroke-width="0.5"/>
<path fill-rule="evenodd" clip-rule="evenodd" d="M8.79574 38.3782C8.48749 38.3782 8.2373 38.1303 8.2373 37.8198V36.0037C8.2373 35.6955 8.48749 35.4453 8.79574 35.4453C9.104 35.4453 9.35418 35.6955 9.35418 36.0037V37.8176C9.35418 38.1281 9.104 38.376 8.79574 38.376V38.3782Z" fill="#80011D" stroke="#80011D" stroke-width="0.5"/>
<path fill-rule="evenodd" clip-rule="evenodd" d="M10.1915 27.9088C9.97257 27.9088 9.77152 27.7793 9.68218 27.5782C9.44987 27.0555 9.13937 26.7428 8.85346 26.7361H8.84676C8.63902 26.7361 8.43128 26.9081 8.29055 27.1962C8.15652 27.4732 7.82146 27.5894 7.54447 27.4531C7.26748 27.3169 7.15132 26.984 7.28758 26.707C7.62712 26.0146 8.22129 25.6102 8.87353 25.6214C9.36273 25.6304 9.81839 25.8716 10.1915 26.3027C10.5667 25.8716 11.0202 25.6304 11.5116 25.6214C12.1706 25.6125 12.7603 26.0168 13.0976 26.707C13.2316 26.984 13.1177 27.3168 12.8407 27.4531C12.5637 27.5871 12.2286 27.4732 12.0946 27.1962C11.9539 26.9081 11.7461 26.7361 11.5384 26.7361H11.5317C11.2435 26.7428 10.933 27.0555 10.703 27.5782C10.6136 27.7793 10.4126 27.9088 10.1915 27.9088Z" fill="#80011D" stroke="#80011D" stroke-width="0.5"/>
<path fill-rule="evenodd" clip-rule="evenodd" d="M10.1913 29.722C9.88299 29.722 9.63281 29.4718 9.63281 29.1636V27.3475C9.63281 27.0392 9.88299 26.7891 10.1913 26.7891C10.4995 26.7891 10.7497 27.0392 10.7497 27.3475V29.1613C10.7497 29.4696 10.4995 29.7198 10.1913 29.7198V29.722Z" fill="#80011D" stroke="#80011D" stroke-width="0.5"/>
<path fill-rule="evenodd" clip-rule="evenodd" d="M44.2591 45.22C44.038 45.22 43.837 45.0904 43.7476 44.8894C43.5153 44.3667 43.2048 44.0517 42.9189 44.0472H42.9122C42.7044 44.0472 42.4989 44.2192 42.356 44.5074C42.222 44.7844 41.8869 44.9005 41.6099 44.7643C41.3329 44.628 41.219 44.2952 41.353 44.016C41.6881 43.3347 42.2666 42.9304 42.9122 42.9304H42.9412C43.4304 42.9393 43.8861 43.1783 44.2614 43.6117C44.6344 43.1805 45.0901 42.9393 45.5816 42.9304C46.2316 42.917 46.8302 43.3258 47.1675 44.016C47.3038 44.2929 47.1876 44.6258 46.9106 44.762C46.6336 44.8961 46.2986 44.7821 46.1645 44.5052C46.0238 44.217 45.8161 44.045 45.6083 44.045H45.6016C45.3135 44.0495 45.0052 44.3644 44.7729 44.8872C44.6836 45.0882 44.4825 45.2177 44.2614 45.2177L44.2591 45.22Z" fill="#80011D" stroke="#80011D" stroke-width="0.5"/>
<path fill-rule="evenodd" clip-rule="evenodd" d="M44.2577 47.0363C43.9494 47.0363 43.6992 46.7861 43.6992 46.4779V44.6618C43.6992 44.3536 43.9494 44.1034 44.2577 44.1034C44.5659 44.1034 44.8161 44.3536 44.8161 44.6618V46.4757C44.8161 46.7839 44.5659 47.0341 44.2577 47.0341V47.0363Z" fill="#80011D" stroke="#80011D" stroke-width="0.5"/>
<path fill-rule="evenodd" clip-rule="evenodd" d="M42.8627 36.5637C42.6415 36.5637 42.4405 36.4342 42.3511 36.2331C42.1188 35.7105 41.8083 35.3977 41.5224 35.391H41.5157C41.308 35.391 41.1025 35.563 40.9595 35.8512C40.8255 36.1281 40.4904 36.2443 40.2134 36.108C39.9364 35.974 39.8203 35.6389 39.9565 35.362C40.2894 34.6807 40.8702 34.2764 41.5135 34.2764H41.5425C42.0317 34.2853 42.4874 34.5265 42.8627 34.9577C43.2357 34.5265 43.6914 34.2853 44.1806 34.2764H44.2097C44.853 34.2764 45.4337 34.6807 45.7666 35.362C45.9029 35.6389 45.7867 35.974 45.5097 36.108C45.2327 36.2421 44.8977 36.1281 44.7636 35.8512C44.6229 35.563 44.4152 35.391 44.2074 35.391H44.2007C43.9126 35.3977 43.6043 35.7104 43.372 36.2331C43.2827 36.4364 43.0816 36.5637 42.8627 36.5637Z" fill="#80011D" stroke="#80011D" stroke-width="0.5"/>
<path fill-rule="evenodd" clip-rule="evenodd" d="M42.8622 38.3782C42.5539 38.3782 42.3037 38.1303 42.3037 37.8198V36.0037C42.3037 35.6955 42.5539 35.4453 42.8622 35.4453C43.1704 35.4453 43.4206 35.6955 43.4206 36.0037V37.8176C43.4206 38.1281 43.1704 38.376 42.8622 38.376V38.3782Z" fill="#80011D" stroke="#80011D" stroke-width="0.5"/>
<path fill-rule="evenodd" clip-rule="evenodd" d="M41.4662 27.9086C41.245 27.9086 41.044 27.779 40.9546 27.578C40.7223 27.0553 40.4118 26.7426 40.1259 26.7358H40.1192C39.9115 26.7358 39.706 26.9078 39.563 27.196C39.429 27.473 39.0939 27.5891 38.8169 27.4529C38.5399 27.3166 38.4238 26.9838 38.56 26.7068C38.8951 26.0233 39.4737 25.6212 40.117 25.6212H40.146C40.6352 25.6302 41.0909 25.8714 41.4662 26.3025C41.8392 25.8714 42.2949 25.6301 42.7841 25.6212H42.8132C43.4565 25.6212 44.0373 26.0255 44.3701 26.7068C44.5064 26.9838 44.3902 27.3166 44.1132 27.4529C43.834 27.5869 43.5012 27.473 43.3672 27.196C43.2242 26.9078 43.0187 26.7358 42.8109 26.7358H42.8042C42.5161 26.7425 42.2078 27.0553 41.9755 27.578C41.8862 27.779 41.6851 27.9086 41.4662 27.9086Z" fill="#80011D" stroke="#80011D" stroke-width="0.5"/>
<path fill-rule="evenodd" clip-rule="evenodd" d="M41.4666 29.722C41.1562 29.722 40.9082 29.4718 40.9082 29.1636V27.3475C40.9082 27.0392 41.1562 26.7891 41.4666 26.7891C41.7749 26.7891 42.0251 27.0392 42.0251 27.3475V29.1613C42.0251 29.4696 41.7749 29.7198 41.4666 29.7198V29.722Z" fill="#80011D" stroke="#80011D" stroke-width="0.5"/>
<path fill-rule="evenodd" clip-rule="evenodd" d="M20.2589 45.2202C20.0377 45.2202 19.8367 45.0906 19.7473 44.8896C19.515 44.3669 19.2068 44.052 18.9186 44.0474H18.9119C18.7042 44.0474 18.4987 44.2194 18.3579 44.5076C18.2217 44.7846 17.8888 44.9007 17.6118 44.7645C17.3349 44.6282 17.2209 44.2954 17.355 44.0184C17.69 43.3349 18.2686 42.9328 18.9142 42.9328H18.941C19.4302 42.9417 19.8858 43.1808 20.2611 43.6141C20.6342 43.183 21.0898 42.9417 21.5813 42.9328C22.2402 42.9194 22.83 43.3282 23.1672 44.0184C23.3013 44.2954 23.1873 44.6282 22.9103 44.7645C22.6334 44.8985 22.3005 44.7846 22.1643 44.5076C22.0235 44.2194 21.8158 44.0474 21.608 44.0474H21.6013C21.3132 44.0519 21.0049 44.3669 20.7726 44.8896C20.6833 45.0906 20.4822 45.2202 20.2611 45.2202H20.2589Z" fill="#80011D" stroke="#80011D" stroke-width="0.5"/>
<path fill-rule="evenodd" clip-rule="evenodd" d="M20.2577 47.0363C19.9494 47.0363 19.6992 46.7861 19.6992 46.4779V44.6618C19.6992 44.3536 19.9494 44.1034 20.2577 44.1034C20.5659 44.1034 20.8161 44.3536 20.8161 44.6618V46.4757C20.8161 46.7839 20.5659 47.0341 20.2577 47.0341V47.0363Z" fill="#80011D" stroke="#80011D" stroke-width="0.5"/>
<path fill-rule="evenodd" clip-rule="evenodd" d="M20.5375 36.5639C20.3163 36.5639 20.1153 36.4343 20.0259 36.2333C19.7936 35.7106 19.4854 35.3979 19.1972 35.3911H19.1905C18.9828 35.3911 18.775 35.5631 18.6343 35.8513C18.498 36.1283 18.1652 36.2422 17.8882 36.1082C17.6112 35.9742 17.4951 35.6391 17.6313 35.3621C17.9709 34.6697 18.5628 34.2675 19.2173 34.2765C19.7065 34.2854 20.1621 34.5267 20.5374 34.9578C20.9105 34.5267 21.3662 34.2854 21.8576 34.2765H21.8844C22.53 34.2765 23.1085 34.6808 23.4436 35.3621C23.5776 35.6391 23.4637 35.9741 23.1867 36.1082C22.9097 36.2422 22.5769 36.1283 22.4406 35.8513C22.2999 35.5631 22.0922 35.3911 21.8844 35.3911H21.8777C21.5896 35.3978 21.2813 35.7106 21.049 36.2333C20.9596 36.4366 20.7586 36.5639 20.5375 36.5639Z" fill="#80011D" stroke="#80011D" stroke-width="0.5"/>
<path fill-rule="evenodd" clip-rule="evenodd" d="M20.537 38.3782C20.2287 38.3782 19.9785 38.1303 19.9785 37.8198V36.0037C19.9785 35.6955 20.2287 35.4453 20.537 35.4453C20.8452 35.4453 21.0954 35.6955 21.0954 36.0037V37.8176C21.0954 38.1281 20.8452 38.376 20.537 38.376V38.3782Z" fill="#80011D" stroke="#80011D" stroke-width="0.5"/>
<path fill-rule="evenodd" clip-rule="evenodd" d="M20.8169 27.9087C20.5957 27.9087 20.3947 27.7792 20.3053 27.5781C20.073 27.0554 19.7648 26.7427 19.4766 26.736H19.4699C19.2622 26.736 19.0567 26.908 18.9159 27.1961C18.7797 27.4731 18.4469 27.5893 18.1699 27.453C17.8906 27.3168 17.7767 26.9839 17.913 26.7069C18.2525 26.0145 18.8467 25.6124 19.4989 25.6214C19.9881 25.6303 20.4438 25.8715 20.8191 26.3027C21.1921 25.8715 21.6478 25.6303 22.1392 25.6214C22.7982 25.6124 23.3879 26.0167 23.7252 26.7069C23.8614 26.9839 23.7453 27.3168 23.4683 27.453C23.1913 27.5871 22.8585 27.4731 22.7222 27.1961C22.5815 26.908 22.3738 26.736 22.166 26.736H22.1593C21.8712 26.7427 21.5629 27.0554 21.3306 27.5781C21.2412 27.7792 21.0402 27.9087 20.8191 27.9087H20.8169Z" fill="#80011D" stroke="#80011D" stroke-width="0.5"/>
<path fill-rule="evenodd" clip-rule="evenodd" d="M20.8182 29.722C20.5099 29.722 20.2598 29.4718 20.2598 29.1636V27.3475C20.2598 27.0392 20.5099 26.7891 20.8182 26.7891C21.1265 26.7891 21.3766 27.0392 21.3766 27.3475V29.1613C21.3766 29.4696 21.1265 29.7198 20.8182 29.7198V29.722Z" fill="#80011D" stroke="#80011D" stroke-width="0.5"/>
<path fill-rule="evenodd" clip-rule="evenodd" d="M31.3998 45.2202C31.1786 45.2202 30.9776 45.0906 30.8882 44.8896C30.6559 44.3669 30.3477 44.052 30.0595 44.0474H30.0528C29.8451 44.0474 29.6373 44.2194 29.4966 44.5076C29.3603 44.7846 29.0275 44.9007 28.7505 44.7645C28.4735 44.6282 28.3574 44.2954 28.4936 44.0184C28.8332 43.326 29.4251 42.9238 30.0796 42.9328C30.5688 42.9417 31.0244 43.1808 31.3997 43.6141C31.7728 43.183 32.2285 42.9417 32.7199 42.9328C33.3766 42.9194 33.9686 43.3282 34.3059 44.0184C34.4399 44.2954 34.326 44.6282 34.049 44.7645C33.772 44.8985 33.4392 44.7846 33.3029 44.5076C33.1622 44.2194 32.9544 44.0474 32.7467 44.0474H32.74C32.4518 44.0519 32.1435 44.3669 31.9113 44.8896C31.8219 45.0906 31.6209 45.2202 31.3998 45.2202Z" fill="#80011D" stroke="#80011D" stroke-width="0.5"/>
<path fill-rule="evenodd" clip-rule="evenodd" d="M31.3993 47.0363C31.091 47.0363 30.8408 46.7861 30.8408 46.4779V44.6618C30.8408 44.3536 31.091 44.1034 31.3993 44.1034C31.7075 44.1034 31.9577 44.3536 31.9577 44.6618V46.4757C31.9577 46.7839 31.7075 47.0341 31.3993 47.0341V47.0363Z" fill="#80011D" stroke="#80011D" stroke-width="0.5"/>
<path fill-rule="evenodd" clip-rule="evenodd" d="M31.1166 36.5639C30.8954 36.5639 30.6944 36.4343 30.605 36.2333C30.3727 35.7106 30.0645 35.3979 29.7763 35.3911H29.7696C29.5619 35.3911 29.3541 35.5631 29.2134 35.8513C29.0771 36.1283 28.7443 36.2422 28.4673 36.1082C28.1903 35.9742 28.0742 35.6391 28.2104 35.3621C28.5433 34.6808 29.1241 34.2765 29.7696 34.2765H29.7964C30.2856 34.2854 30.7413 34.5267 31.1166 34.9578C31.4896 34.5267 31.9453 34.2854 32.4367 34.2765C33.0912 34.2676 33.6854 34.6719 34.0227 35.3621C34.159 35.6391 34.0428 35.9741 33.7658 36.1082C33.4888 36.2444 33.1538 36.1283 33.0175 35.8513C32.8768 35.5631 32.669 35.3911 32.4613 35.3911H32.4546C32.1664 35.3978 31.8559 35.7106 31.6259 36.2333C31.5365 36.4366 31.3355 36.5639 31.1143 36.5639H31.1166Z" fill="#80011D" stroke="#80011D" stroke-width="0.5"/>
<path fill-rule="evenodd" clip-rule="evenodd" d="M31.1161 38.3782C30.8078 38.3782 30.5576 38.1303 30.5576 37.8198V36.0037C30.5576 35.6955 30.8078 35.4453 31.1161 35.4453C31.4243 35.4453 31.6745 35.6955 31.6745 36.0037V37.8176C31.6745 38.1281 31.4243 38.376 31.1161 38.376V38.3782Z" fill="#80011D" stroke="#80011D" stroke-width="0.5"/>
<path fill-rule="evenodd" clip-rule="evenodd" d="M30.8373 27.9088C30.6161 27.9088 30.4151 27.7793 30.3257 27.5782C30.0934 27.0555 29.7852 26.7428 29.497 26.7361C29.2893 26.7361 29.0771 26.9036 28.9341 27.1962C28.7978 27.4732 28.465 27.5894 28.188 27.4531C27.911 27.3169 27.7949 26.984 27.9311 26.707C28.2707 26.0146 28.8604 25.6102 29.5171 25.6214C30.0063 25.6304 30.4619 25.8716 30.8372 26.3027C31.2103 25.8716 31.666 25.6304 32.1574 25.6214C32.8119 25.6125 33.4061 26.0168 33.7434 26.707C33.8774 26.984 33.7635 27.3168 33.4865 27.4531C33.2095 27.5871 32.8767 27.4732 32.7404 27.1962C32.5997 26.9058 32.3919 26.7361 32.1842 26.7361H32.1775C31.8893 26.7428 31.581 27.0555 31.3488 27.5782C31.2594 27.7793 31.0584 27.9088 30.8373 27.9088Z" fill="#80011D" stroke="#80011D" stroke-width="0.5"/>
<path fill-rule="evenodd" clip-rule="evenodd" d="M30.8377 29.722C30.5295 29.722 30.2793 29.4718 30.2793 29.1636V27.3475C30.2793 27.0392 30.5295 26.7891 30.8377 26.7891C31.146 26.7891 31.3962 27.0392 31.3962 27.3475V29.1613C31.3962 29.4696 31.146 29.7198 30.8377 29.7198V29.722Z" fill="#80011D" stroke="#80011D" stroke-width="0.5"/>
<path fill-rule="evenodd" clip-rule="evenodd" d="M27.6532 23.0586C27.3449 23.0586 27.0947 22.8085 27.0947 22.5002V11.4499C27.0947 11.1417 27.3449 10.8915 27.6532 10.8915C27.9614 10.8915 28.2116 11.1417 28.2116 11.4499V22.5002C28.2116 22.8085 27.9614 23.0586 27.6532 23.0586ZM44.1674 23.0586C43.8592 23.0586 43.609 22.8085 43.609 22.5002V11.4499C43.609 11.1417 43.8592 10.8915 44.1674 10.8915C44.4757 10.8915 44.7259 11.1417 44.7259 11.4499V22.5002C44.7259 22.8085 44.4757 23.0586 44.1674 23.0586Z" fill="#80011D" stroke="#80011D" stroke-width="0.5"/>
<path fill-rule="evenodd" clip-rule="evenodd" d="M35.4932 1.53203L25.745 9.85748C25.5596 10.0161 25.5059 10.2596 25.602 10.5075C25.6958 10.7487 25.9035 10.8917 26.1627 10.8917H45.6591C45.9182 10.8917 46.126 10.7487 46.2198 10.5075C46.3158 10.2596 46.2622 10.0161 46.0746 9.85748L36.3264 1.53203C36.074 1.31535 35.7478 1.31535 35.4932 1.53203ZM45.6588 12.0082H26.1624C25.4476 12.0082 24.8177 11.5771 24.5608 10.9092C24.295 10.2212 24.4737 9.47286 25.0209 9.00601L34.7692 0.680555C35.4415 0.106482 36.3797 0.106482 37.0521 0.680555L46.8003 9.00601C47.3453 9.47287 47.5262 10.2189 47.2604 10.9092C47.0036 11.5748 46.3736 12.0082 45.6588 12.0082Z" fill="#80011D" stroke="#80011D" stroke-width="0.5"/>
<path fill-rule="evenodd" clip-rule="evenodd" d="M38.8445 23.0587C38.5363 23.0587 38.2861 22.8085 38.2861 22.5003V16.21H33.5348V22.5003C33.5348 22.8085 33.2847 23.0587 32.9764 23.0587C32.6681 23.0587 32.418 22.8085 32.418 22.5003V15.6513C32.418 15.3431 32.6681 15.0929 32.9764 15.0929H38.8447C39.1529 15.0929 39.4031 15.3431 39.4031 15.6513V22.5003C39.4031 22.8085 39.1528 23.0587 38.8445 23.0587Z" fill="#80011D" stroke="#80011D" stroke-width="0.5"/>
<path fill-rule="evenodd" clip-rule="evenodd" d="M11.2097 14.4681C9.14794 14.4681 7.47038 16.1457 7.47038 18.2052C7.47038 20.267 9.14794 21.9423 11.2075 21.9423C13.2693 21.9423 14.9446 20.2648 14.9446 18.2052C14.9446 16.1435 13.267 14.4681 11.2075 14.4681H11.2097ZM11.2097 23.0612C8.53367 23.0612 6.35352 20.8833 6.35352 18.2072C6.35352 15.5312 8.53144 13.3533 11.2075 13.3533C13.8836 13.3533 16.0615 15.5312 16.0615 18.2072C16.0615 20.8833 13.8836 23.0612 11.2075 23.0612H11.2097Z" fill="#80011D" stroke="#80011D" stroke-width="0.5"/>
<path fill-rule="evenodd" clip-rule="evenodd" d="M22.0463 18.5447C21.1103 18.5447 20.3464 19.3064 20.3464 20.2423C20.3464 21.1805 21.1103 21.9423 22.0463 21.9423C22.9823 21.9423 23.744 21.1806 23.744 20.2423C23.744 19.3064 22.9823 18.5447 22.0463 18.5447ZM22.0463 23.0591C20.4938 23.0591 19.2295 21.7948 19.2295 20.2423C19.2295 18.6898 20.4938 17.4277 22.0463 17.4277C23.5987 17.4277 24.8608 18.692 24.8608 20.2423C24.8608 21.7947 23.5965 23.0591 22.0463 23.0591Z" fill="#80011D" stroke="#80011D" stroke-width="0.5"/>
<path fill-rule="evenodd" clip-rule="evenodd" d="M17.8225 20.2463C17.7756 20.2463 17.7264 20.2396 17.6773 20.2284C17.3802 20.148 17.2015 19.842 17.2819 19.5449C17.4249 19.0132 17.4963 18.466 17.4963 17.9187C17.4963 14.4519 14.6773 11.633 11.2106 11.633C9.53085 11.633 7.95382 12.2875 6.76547 13.4736C6.54656 13.6903 6.19363 13.6903 5.97473 13.4736C5.75582 13.2569 5.75582 12.9018 5.97473 12.6829C7.37305 11.2846 9.23155 10.5161 11.2084 10.5161C15.2917 10.5161 18.6109 13.8355 18.6109 17.9186C18.6109 18.5642 18.526 19.2097 18.3585 19.833C18.2915 20.0832 18.0659 20.2462 17.8202 20.2462L17.8225 20.2463Z" fill="#80011D" stroke="#80011D" stroke-width="0.5"/>
<path fill-rule="evenodd" clip-rule="evenodd" d="M19.8567 20.2468H15.244C14.9357 20.2468 14.6855 19.9966 14.6855 19.6883C14.6855 19.3801 14.9357 19.1299 15.244 19.1299H19.8567C20.1672 19.1299 20.4151 19.3801 20.4151 19.6883C20.4151 19.9966 20.1672 20.2468 19.8567 20.2468Z" fill="#80011D" stroke="#80011D" stroke-width="0.5"/>
<path fill-rule="evenodd" clip-rule="evenodd" d="M22.0467 18.5445C21.7384 18.5445 21.4882 18.2943 21.4882 17.9861V12.558L17.4831 10.9207V14.1484C17.4831 14.4567 17.2329 14.7069 16.9247 14.7069C16.6164 14.7069 16.3662 14.4567 16.3662 14.1484V10.0874C16.3662 9.90202 16.46 9.72778 16.6142 9.62503C16.7683 9.52005 16.9649 9.49994 17.1369 9.57142L22.2566 11.6667C22.4666 11.7516 22.6051 11.9571 22.6051 12.1827V17.9858C22.6051 18.294 22.3549 18.5445 22.0467 18.5445Z" fill="#80011D" stroke="#80011D" stroke-width="0.5"/>
<path fill-rule="evenodd" clip-rule="evenodd" d="M7.74301 12.5736C7.43475 12.5736 7.18457 12.3257 7.18457 12.0152V5.38522C7.18457 5.07696 7.43475 4.82678 7.74301 4.82678H11.2657C11.5293 4.82678 11.7571 5.01219 11.8107 5.26907L13.037 11.0767C13.0996 11.3783 12.9075 11.6754 12.6059 11.7379C12.3044 11.8026 12.0073 11.6083 11.9448 11.3067L10.8144 5.94126H8.30371V12.0125C8.30371 12.323 8.05353 12.571 7.74527 12.571L7.74301 12.5736Z" fill="#80011D" stroke="#80011D" stroke-width="0.5"/>
<path fill-rule="evenodd" clip-rule="evenodd" d="M7.81307 16.1323C7.62096 16.1323 7.43333 16.0317 7.32834 15.853L5.88535 13.3557C5.73122 13.0876 5.8228 12.7481 6.09086 12.5918C6.35891 12.4376 6.69844 12.5292 6.85479 12.7973L8.29555 15.2946C8.44967 15.5627 8.35809 15.9022 8.09004 16.0586C8.00292 16.1099 7.90689 16.1323 7.81307 16.1323Z" fill="#80011D" stroke="#80011D" stroke-width="0.5"/>
<path fill-rule="evenodd" clip-rule="evenodd" d="M14.5234 9.8466C14.3805 9.8466 14.2375 9.79299 14.128 9.68353C13.9091 9.46462 13.9091 9.11169 14.128 8.89279L15.7297 7.29117C15.9463 7.07226 16.3015 7.07226 16.5182 7.28894C16.7371 7.50784 16.7371 7.86078 16.5204 8.07968L14.9188 9.6813C14.8116 9.79075 14.6664 9.84436 14.5234 9.84436L14.5234 9.8466Z" fill="#80011D" stroke="#80011D" stroke-width="0.5"/>
<path fill-rule="evenodd" clip-rule="evenodd" d="M16.9239 10.648C16.7809 10.648 16.638 10.5944 16.5285 10.485L14.9269 8.88336C14.708 8.66668 14.708 8.31152 14.9269 8.09484C15.1436 7.87594 15.4987 7.87594 15.7154 8.09484L17.317 9.69646C17.5337 9.91314 17.5337 10.2683 17.317 10.4872C17.2076 10.5944 17.0646 10.6503 16.9216 10.6503L16.9239 10.648Z" fill="#80011D" stroke="#80011D" stroke-width="0.5"/>
<path fill-rule="evenodd" clip-rule="evenodd" d="M22.0464 14.4299H20.6727C20.3644 14.4299 20.1143 14.1797 20.1143 13.8714C20.1143 13.5632 20.3644 13.313 20.6727 13.313H22.0464C22.3547 13.313 22.6049 13.5632 22.6049 13.8714C22.6049 14.1797 22.3547 14.4299 22.0464 14.4299Z" fill="#80011D" stroke="#80011D" stroke-width="0.5"/>
<path fill-rule="evenodd" clip-rule="evenodd" d="M11.2096 16.9675C10.5283 16.9675 9.97429 17.5215 9.97429 18.205C9.97429 18.8863 10.5283 19.4403 11.2096 19.4403C11.8909 19.4403 12.4471 18.8864 12.4471 18.205C12.4471 17.5237 11.8931 16.9675 11.2096 16.9675ZM11.2096 20.5571C9.91179 20.5571 8.85742 19.5028 8.85742 18.205C8.85742 16.9072 9.91179 15.8506 11.2096 15.8506C12.5074 15.8506 13.564 16.9072 13.564 18.205C13.564 19.5028 12.5074 20.5571 11.2096 20.5571Z" fill="#80011D" stroke="#80011D" stroke-width="0.5"/>
<path fill-rule="evenodd" clip-rule="evenodd" d="M22.0467 20.8006C21.7385 20.8006 21.4883 20.5526 21.4883 20.2422C21.4883 19.9339 21.7362 19.6837 22.0445 19.6837H22.0467C22.355 19.6837 22.6052 19.9339 22.6052 20.2422C22.6052 20.5526 22.355 20.8006 22.0467 20.8006Z" fill="#80011D" stroke="#80011D" stroke-width="0.5"/>
<path fill-rule="evenodd" clip-rule="evenodd" d="M39.9441 9.04673C39.8011 9.04673 39.6582 8.99311 39.5487 8.88366L37.3842 6.71912C37.1675 6.50021 37.1675 6.14728 37.3842 5.92838C37.6031 5.7117 37.956 5.7117 38.1749 5.92838L40.3395 8.09292C40.5562 8.30959 40.5562 8.66476 40.3395 8.88366C40.23 8.99311 40.0871 9.04673 39.9441 9.04673Z" fill="#80011D" stroke="#80011D" stroke-width="0.5"/>
<path fill-rule="evenodd" clip-rule="evenodd" d="M31.8789 9.04673C31.7359 9.04673 31.593 8.99311 31.4835 8.88366C31.2646 8.66475 31.2646 8.31182 31.4835 8.09292L33.6481 5.92838C33.8647 5.7117 34.2199 5.7117 34.4388 5.92838C34.6555 6.14505 34.6555 6.50022 34.4388 6.71912L32.2743 8.88366C32.1648 8.99311 32.0219 9.04673 31.8789 9.04673Z" fill="#80011D" stroke="#80011D" stroke-width="0.5"/>
</svg>
