<svg width="55" height="48" viewBox="0 0 55 48" fill="none" xmlns="http://www.w3.org/2000/svg">
<mask id="path-1-inside-1_466_6235" fill="white">
<path d="M26.2957 5.20359e-05C26.0977 0.00247306 25.9119 0.0993223 25.7912 0.256695L17.7508 10.6511L15.7449 9.47925V9.25408C15.7449 7.21302 14.0553 5.5594 12.0036 5.5594C9.95193 5.5594 8.27193 7.21308 8.27193 9.25408V17.8684C8.27193 19.1734 8.96227 20.3161 9.99296 20.9723L7.67094 24.0206H4.45824V21.4953C6.20578 21.1926 7.54785 19.6891 7.54785 17.8659V9.25167C7.54785 7.2106 5.86784 5.55698 3.81616 5.55698C1.76447 5.55698 0.0772402 7.21066 0.0772402 9.25167V17.8659C0.0772402 19.6867 1.42171 21.1878 3.16685 21.4953V24.0206H0V25.311H33.2541C26.7344 28.1317 22.7685 31.0976 21.1514 34.9306C21.0332 35.2115 20.927 35.4948 20.8352 35.7805H17.3884L18.6194 34.9306L17.8953 33.8678L15.9498 35.2018V33.582H14.6633V35.2067L12.7179 33.8677L11.9841 34.9306L13.2175 35.7804H6.69288L7.92631 34.9306L7.19253 33.8677L5.25671 35.2018V33.582H3.95808V35.2018L2.02226 33.8677L1.28848 34.9306L2.52191 35.7804H0.0767953V37.083H20.5213C20.251 38.5769 20.3089 40.1773 20.6444 41.8963H17.3859L18.6217 41.0465L17.8976 39.9739L15.9521 41.3079V39.6978H14.6656V41.3128L12.7202 39.9738L11.9864 41.0464L13.2246 41.8963H6.68826L7.92651 41.0464L7.19273 39.9738L5.2569 41.3079V39.6978H3.95828V41.3079L2.02246 39.9738L1.28868 41.0464L2.52693 41.8963H0.076993V43.1867H20.9535C21.3566 44.6927 21.9745 46.2979 22.7566 48H24.1662C21.6221 42.7073 20.9535 38.7126 22.3366 35.4362C23.5966 32.4485 26.6716 29.8748 31.847 27.391C31.456 27.8098 31.1084 28.2384 30.8187 28.679C29.7373 30.3303 29.4139 32.1679 29.7615 34.1339C30.4229 37.8819 33.3894 42.2133 37.8451 47.9999H39.4744C38.1251 46.2615 36.9375 44.6708 35.8828 43.1867H55V41.8962H51.9249L53.1679 41.0464L52.4341 39.9738L50.4983 41.3078V39.6977H49.1997V41.3078L47.2542 39.9738L46.5277 41.0464L47.7635 41.8962H41.2321L42.4703 41.0464L41.7366 39.9738L39.7911 41.3127V39.6978H38.5046V41.3079L36.5591 39.9738L35.835 41.0464L37.0708 41.8963H34.9805C32.8009 38.6906 31.4251 36.0734 31.0437 33.9037C30.7444 32.1992 30.9906 30.7925 31.903 29.3955C32.7961 28.0299 34.3795 26.6789 36.7449 25.3085H54.3631L54.3535 25.3133C54.7059 25.3109 54.9907 25.0276 54.9955 24.6742V24.6693C54.9955 24.5241 54.9497 24.3836 54.8628 24.2698L40.81 5.91509C40.6845 5.7553 40.4938 5.66329 40.2911 5.66571C40.0931 5.66814 39.9073 5.76014 39.7866 5.91509L35.4491 11.5734L26.8198 0.256688H26.8222C26.6967 0.0920515 26.5032 -0.00237146 26.2957 5.20359e-05ZM26.2957 1.71423L34.9923 13.1177L43.3027 24.0203H36.9498L33.252 17.0932H33.2495C33.1844 16.9649 33.0758 16.8632 32.9454 16.8051L23.3577 12.4809C23.0971 12.3598 22.7905 12.4276 22.6022 12.6431L20.3405 15.2362L18.6654 11.585L26.2957 1.71423ZM3.81629 6.85198C5.18733 6.85198 6.25899 7.92216 6.25899 9.25379V17.8681C6.25899 18.9842 5.50346 19.897 4.4559 20.1706V16.2894H3.16698V20.1681C3.06077 20.1415 2.95457 20.1149 2.8556 20.0737C1.97698 19.713 1.37358 18.868 1.37358 17.868V9.25376C1.37358 9.0867 1.39047 8.92448 1.42185 8.7671C1.64633 7.67033 2.61667 6.8495 3.81389 6.8495L3.81629 6.85198ZM12.0037 6.85198C13.3748 6.85198 14.4465 7.92216 14.4465 9.25379V17.8681C14.4465 18.9818 13.6958 19.8921 12.6506 20.1681V16.2894H11.3641V20.1706C10.3166 19.8994 9.56104 18.9842 9.56104 17.8681V9.25379C9.56104 9.08673 9.57794 8.92451 9.60932 8.76713C9.8338 7.67036 10.8041 6.84953 12.0014 6.84953L12.0037 6.85198ZM40.2903 7.3798L53.0374 24.0232H44.9396L36.2572 12.639L40.2903 7.3798ZM15.7446 10.9777L17.4125 11.9655L19.5873 16.6941V16.6917C19.6814 16.8926 19.8673 17.0331 20.087 17.0621C20.3042 17.0936 20.5238 17.0113 20.6663 16.8418L23.261 13.8565L32.2085 17.895L35.4816 24.0205H12.65V21.4953C12.6838 21.4904 12.7176 21.4904 12.7514 21.4856C13.7217 21.2895 14.5593 20.7205 15.1 19.9336C15.5055 19.3453 15.7445 18.6334 15.7445 17.8684L15.7446 10.9777ZM11.2333 21.483C11.2768 21.4927 11.3202 21.4903 11.3637 21.4975V24.0228H9.30475L11.2333 21.483ZM3.96039 27.4754V29.0952L2.02456 27.7539L1.29078 28.824L2.52662 29.6763H0.0791V30.9668H4.53246L4.53004 30.9692C4.58556 30.9764 4.64108 30.9764 4.69659 30.9692H15.2111C15.2763 30.9789 15.3439 30.9789 15.4115 30.9692H21.6488V29.6787H17.3909L18.6244 28.8265L17.9002 27.7563L15.9548 29.0976V27.4779H14.6682V29.1025L12.7228 27.7563L11.989 28.8265L13.2248 29.6787H6.69342L7.92926 28.8265L7.19548 27.7563L5.25966 29.0976V27.4779L3.96039 27.4754ZM38.4991 27.4754V29.0952L36.5536 27.7539L35.8295 28.824L37.0629 29.6763H34.6178V30.9668H39.0447V30.9692C39.1098 30.9789 39.1774 30.9789 39.2426 30.9692H49.7398C49.805 30.9789 49.8726 30.9789 49.9378 30.9692H54.9946V29.6787H51.9218L53.1601 28.8265L52.4263 27.7563L50.4905 29.0976V27.4779H49.1919V29.0976L47.2464 27.7563L46.5199 28.8265L47.7533 29.6787H41.2287L42.4645 28.8265L41.7307 27.7563L39.7853 29.1025V27.4779L38.4991 27.4754ZM38.4991 33.5817V35.2014L36.5536 33.8674L35.8295 34.9303L37.0581 35.7801H34.6178V37.0827H54.9969V35.7801H51.929L53.1624 34.9303L52.4287 33.8674L50.4928 35.2014V33.5817H49.1942V35.2014L47.2487 33.8674L46.5222 34.9303L47.7532 35.7801H41.2335L42.467 34.9303L41.7332 33.8674L39.7877 35.2063V33.5817L38.4991 33.5817Z"/>
</mask>
<path d="M26.2957 5.20359e-05C26.0977 0.00247306 25.9119 0.0993223 25.7912 0.256695L17.7508 10.6511L15.7449 9.47925V9.25408C15.7449 7.21302 14.0553 5.5594 12.0036 5.5594C9.95193 5.5594 8.27193 7.21308 8.27193 9.25408V17.8684C8.27193 19.1734 8.96227 20.3161 9.99296 20.9723L7.67094 24.0206H4.45824V21.4953C6.20578 21.1926 7.54785 19.6891 7.54785 17.8659V9.25167C7.54785 7.2106 5.86784 5.55698 3.81616 5.55698C1.76447 5.55698 0.0772402 7.21066 0.0772402 9.25167V17.8659C0.0772402 19.6867 1.42171 21.1878 3.16685 21.4953V24.0206H0V25.311H33.2541C26.7344 28.1317 22.7685 31.0976 21.1514 34.9306C21.0332 35.2115 20.927 35.4948 20.8352 35.7805H17.3884L18.6194 34.9306L17.8953 33.8678L15.9498 35.2018V33.582H14.6633V35.2067L12.7179 33.8677L11.9841 34.9306L13.2175 35.7804H6.69288L7.92631 34.9306L7.19253 33.8677L5.25671 35.2018V33.582H3.95808V35.2018L2.02226 33.8677L1.28848 34.9306L2.52191 35.7804H0.0767953V37.083H20.5213C20.251 38.5769 20.3089 40.1773 20.6444 41.8963H17.3859L18.6217 41.0465L17.8976 39.9739L15.9521 41.3079V39.6978H14.6656V41.3128L12.7202 39.9738L11.9864 41.0464L13.2246 41.8963H6.68826L7.92651 41.0464L7.19273 39.9738L5.2569 41.3079V39.6978H3.95828V41.3079L2.02246 39.9738L1.28868 41.0464L2.52693 41.8963H0.076993V43.1867H20.9535C21.3566 44.6927 21.9745 46.2979 22.7566 48H24.1662C21.6221 42.7073 20.9535 38.7126 22.3366 35.4362C23.5966 32.4485 26.6716 29.8748 31.847 27.391C31.456 27.8098 31.1084 28.2384 30.8187 28.679C29.7373 30.3303 29.4139 32.1679 29.7615 34.1339C30.4229 37.8819 33.3894 42.2133 37.8451 47.9999H39.4744C38.1251 46.2615 36.9375 44.6708 35.8828 43.1867H55V41.8962H51.9249L53.1679 41.0464L52.4341 39.9738L50.4983 41.3078V39.6977H49.1997V41.3078L47.2542 39.9738L46.5277 41.0464L47.7635 41.8962H41.2321L42.4703 41.0464L41.7366 39.9738L39.7911 41.3127V39.6978H38.5046V41.3079L36.5591 39.9738L35.835 41.0464L37.0708 41.8963H34.9805C32.8009 38.6906 31.4251 36.0734 31.0437 33.9037C30.7444 32.1992 30.9906 30.7925 31.903 29.3955C32.7961 28.0299 34.3795 26.6789 36.7449 25.3085H54.3631L54.3535 25.3133C54.7059 25.3109 54.9907 25.0276 54.9955 24.6742V24.6693C54.9955 24.5241 54.9497 24.3836 54.8628 24.2698L40.81 5.91509C40.6845 5.7553 40.4938 5.66329 40.2911 5.66571C40.0931 5.66814 39.9073 5.76014 39.7866 5.91509L35.4491 11.5734L26.8198 0.256688H26.8222C26.6967 0.0920515 26.5032 -0.00237146 26.2957 5.20359e-05ZM26.2957 1.71423L34.9923 13.1177L43.3027 24.0203H36.9498L33.252 17.0932H33.2495C33.1844 16.9649 33.0758 16.8632 32.9454 16.8051L23.3577 12.4809C23.0971 12.3598 22.7905 12.4276 22.6022 12.6431L20.3405 15.2362L18.6654 11.585L26.2957 1.71423ZM3.81629 6.85198C5.18733 6.85198 6.25899 7.92216 6.25899 9.25379V17.8681C6.25899 18.9842 5.50346 19.897 4.4559 20.1706V16.2894H3.16698V20.1681C3.06077 20.1415 2.95457 20.1149 2.8556 20.0737C1.97698 19.713 1.37358 18.868 1.37358 17.868V9.25376C1.37358 9.0867 1.39047 8.92448 1.42185 8.7671C1.64633 7.67033 2.61667 6.8495 3.81389 6.8495L3.81629 6.85198ZM12.0037 6.85198C13.3748 6.85198 14.4465 7.92216 14.4465 9.25379V17.8681C14.4465 18.9818 13.6958 19.8921 12.6506 20.1681V16.2894H11.3641V20.1706C10.3166 19.8994 9.56104 18.9842 9.56104 17.8681V9.25379C9.56104 9.08673 9.57794 8.92451 9.60932 8.76713C9.8338 7.67036 10.8041 6.84953 12.0014 6.84953L12.0037 6.85198ZM40.2903 7.3798L53.0374 24.0232H44.9396L36.2572 12.639L40.2903 7.3798ZM15.7446 10.9777L17.4125 11.9655L19.5873 16.6941V16.6917C19.6814 16.8926 19.8673 17.0331 20.087 17.0621C20.3042 17.0936 20.5238 17.0113 20.6663 16.8418L23.261 13.8565L32.2085 17.895L35.4816 24.0205H12.65V21.4953C12.6838 21.4904 12.7176 21.4904 12.7514 21.4856C13.7217 21.2895 14.5593 20.7205 15.1 19.9336C15.5055 19.3453 15.7445 18.6334 15.7445 17.8684L15.7446 10.9777ZM11.2333 21.483C11.2768 21.4927 11.3202 21.4903 11.3637 21.4975V24.0228H9.30475L11.2333 21.483ZM3.96039 27.4754V29.0952L2.02456 27.7539L1.29078 28.824L2.52662 29.6763H0.0791V30.9668H4.53246L4.53004 30.9692C4.58556 30.9764 4.64108 30.9764 4.69659 30.9692H15.2111C15.2763 30.9789 15.3439 30.9789 15.4115 30.9692H21.6488V29.6787H17.3909L18.6244 28.8265L17.9002 27.7563L15.9548 29.0976V27.4779H14.6682V29.1025L12.7228 27.7563L11.989 28.8265L13.2248 29.6787H6.69342L7.92926 28.8265L7.19548 27.7563L5.25966 29.0976V27.4779L3.96039 27.4754ZM38.4991 27.4754V29.0952L36.5536 27.7539L35.8295 28.824L37.0629 29.6763H34.6178V30.9668H39.0447V30.9692C39.1098 30.9789 39.1774 30.9789 39.2426 30.9692H49.7398C49.805 30.9789 49.8726 30.9789 49.9378 30.9692H54.9946V29.6787H51.9218L53.1601 28.8265L52.4263 27.7563L50.4905 29.0976V27.4779H49.1919V29.0976L47.2464 27.7563L46.5199 28.8265L47.7533 29.6787H41.2287L42.4645 28.8265L41.7307 27.7563L39.7853 29.1025V27.4779L38.4991 27.4754ZM38.4991 33.5817V35.2014L36.5536 33.8674L35.8295 34.9303L37.0581 35.7801H34.6178V37.0827H54.9969V35.7801H51.929L53.1624 34.9303L52.4287 33.8674L50.4928 35.2014V33.5817H49.1942V35.2014L47.2487 33.8674L46.5222 34.9303L47.7532 35.7801H41.2335L42.467 34.9303L41.7332 33.8674L39.7877 35.2063V33.5817L38.4991 33.5817Z" fill="#80011D" stroke="#80011D" stroke-width="2" mask="url(#path-1-inside-1_466_6235)"/>
</svg>
