<svg width="54" height="48" viewBox="0 0 54 48" fill="none" xmlns="http://www.w3.org/2000/svg">
<path d="M4.00411 19.942C5.06962 19.942 6.03563 20.3729 6.7324 21.0701C7.42917 21.7696 7.86353 22.7331 7.86353 23.7913C7.86353 24.581 7.62373 25.3188 7.21425 25.9303C9.43354 27.9971 11.9515 29.6894 14.6638 30.962C16.3741 31.763 18.1636 32.3971 20.0096 32.8551L20.401 31.8194H18.5075C18.0279 31.8194 17.6387 31.4313 17.6387 30.9529C17.6387 30.4746 18.0279 30.0865 18.5075 30.0865H21.0548L22.1542 27.1735H14.528C14.0484 27.1735 13.6593 26.7854 13.6593 26.3071V0.866447C13.6593 0.388099 14.0484 0 14.528 0H39.4764C39.956 0 40.3452 0.388099 40.3452 0.866447V26.3071C40.3452 26.7854 39.956 27.1735 39.4764 27.1735H31.8503L32.9497 30.0865H35.497C35.9766 30.0865 36.3657 30.4746 36.3657 30.9529C36.3657 31.4313 35.9766 31.8194 35.497 31.8194H33.6058L33.9971 32.8551C35.8409 32.3993 37.6326 31.7653 39.3429 30.962C42.0554 29.6917 44.5733 27.9971 46.7902 25.9303C46.3807 25.3188 46.1409 24.5833 46.1409 23.7913C46.1409 22.7286 46.573 21.7651 47.272 21.0701C47.971 20.3729 48.937 19.942 50.0026 19.942C51.0681 19.942 52.0341 20.3729 52.7309 21.0701C53.4276 21.7696 53.862 22.7331 53.862 23.7913C53.862 24.854 53.4299 25.8175 52.7309 26.5147C52.6517 26.5937 52.568 26.6704 52.4797 26.7426V46.2671H53.1313C53.6109 46.2671 54 46.6552 54 47.1336C54 47.6119 53.6109 48 53.1313 48H46.8672C46.3876 48 45.9985 47.6119 45.9985 47.1336C45.9985 46.6552 46.3876 46.2671 46.8672 46.2671H47.521V27.6044C45.2814 29.6058 42.768 31.2597 40.0738 32.5233C38.3228 33.3446 36.4926 34.0012 34.6104 34.4796L36.246 38.8095H43.1709C43.6505 38.8095 44.0396 39.1976 44.0396 39.676C44.0396 40.1543 43.6505 40.5424 43.1709 40.5424H10.8314C10.3518 40.5424 9.96268 40.1543 9.96268 39.676C9.96268 39.1976 10.3518 38.8095 10.8314 38.8095H17.7562L19.3919 34.4796C17.5096 33.999 15.6817 33.3423 13.9284 32.5233C11.2318 31.2597 8.72065 29.6058 6.48121 27.6044V46.2671H7.13275C7.61235 46.2671 8.00147 46.6552 8.00147 47.1336C8.00147 47.6119 7.61235 48 7.13275 48H0.868718C0.389116 48 0 47.6119 0 47.1336C0 46.6552 0.389116 46.2671 0.868718 46.2671H1.52251V26.7426C1.43655 26.6704 1.35058 26.5937 1.2714 26.5125C0.574633 25.8175 0.140275 24.8518 0.140275 23.789C0.140275 22.7263 0.572369 21.7628 1.2714 21.0679C1.97043 20.3707 2.93644 19.9397 4.00196 19.9397L4.00411 19.942ZM34.3976 38.812L32.9068 34.8679C30.9771 35.2447 28.9998 35.441 27.0024 35.441C25.005 35.441 23.0298 35.247 21.098 34.8679L19.6072 38.812H34.3976ZM22.9051 30.0869H31.1011L29.9994 27.1739H24.0041L22.9024 30.0869H22.9051ZM31.755 31.8198H22.2489L21.7195 33.2233C23.4479 33.5437 25.2148 33.7061 27.002 33.7061C28.7892 33.7061 30.556 33.5414 32.2844 33.2233L31.755 31.8198ZM25.0815 11.8309C25.4955 12.07 25.6358 12.598 25.396 13.011C25.1562 13.4239 24.6268 13.5638 24.2128 13.3246L21.9935 12.0453C21.5795 11.8061 21.4392 11.2781 21.679 10.8652C21.9188 10.4523 22.4482 10.3124 22.8622 10.5515L25.0815 11.8309ZM29.9296 8.07626C30.1694 8.48918 30.0291 9.01942 29.6151 9.25636C29.2011 9.49554 28.6695 9.35565 28.4319 8.94273L27.1492 6.72925C26.9094 6.31633 27.0497 5.78609 27.4637 5.54915C27.8777 5.30997 28.4093 5.44986 28.6469 5.86278L29.9296 8.07626ZM36.0129 7.24592C36.0129 7.72427 35.6238 8.11237 35.1442 8.11237C34.6646 8.11237 34.2755 7.72427 34.2755 7.24592V4.68944C34.2755 4.21109 34.6646 3.82299 35.1442 3.82299C35.6238 3.82299 36.0129 4.21109 36.0129 4.68944V7.24592ZM25.6474 19.4368C25.756 16.9932 26.7966 14.7909 28.4187 13.1707C30.1381 11.4558 32.518 10.3931 35.1443 10.3931C35.995 10.3931 36.8252 10.5059 37.6147 10.718C37.9541 10.8083 38.2867 10.9188 38.6102 11.0452V1.7355H15.3992V19.236C19.0143 18.3853 22.4485 18.8253 25.6495 19.4391L25.6474 19.4368ZM38.6104 12.9339C38.1534 12.7082 37.6715 12.5232 37.1671 12.3878C36.5268 12.2163 35.8482 12.1238 35.1446 12.1238C32.9977 12.1238 31.0543 12.9925 29.6495 14.3937C28.265 15.7746 27.3985 17.679 27.3736 19.7797L27.532 19.8135C30.2716 20.3754 32.8189 20.8988 35.011 20.5513C35.7327 20.4385 36.4023 20.2106 37.0448 19.8992C37.5765 19.642 38.0945 19.3216 38.6103 18.9561V12.9314L38.6104 12.9339ZM38.6104 21.023C38.3434 21.1787 38.0742 21.3254 37.796 21.4585C37.0132 21.8375 36.1853 22.1151 35.2803 22.2595C32.7782 22.6566 30.0838 22.1038 27.1856 21.5081C23.2741 20.7048 19.3967 19.9647 15.3988 21.0162V25.4432H38.6098L38.6104 21.023ZM3.33699 24.3466C3.03159 23.9788 3.08362 23.4328 3.45237 23.1282C3.82112 22.8236 4.36858 22.8755 4.67402 23.2432C5.08123 23.7329 5.50428 24.209 5.9409 24.667C6.06306 24.4007 6.12867 24.1052 6.12867 23.7938C6.12867 23.2071 5.89113 22.6769 5.50881 22.2978C5.12422 21.9165 4.5926 21.6773 4.00662 21.6773C3.42064 21.6773 2.88905 21.9143 2.50444 22.2978C2.12211 22.6792 1.88232 23.2094 1.88232 23.7938C1.88232 24.3782 2.12212 24.9084 2.50444 25.2921C2.88902 25.6756 3.42064 25.9125 4.00662 25.9125C4.22833 25.9125 4.44098 25.8787 4.64235 25.8155C4.19442 25.3417 3.76008 24.852 3.33927 24.3466L3.33699 24.3466ZM48.069 24.6693C48.5056 24.2112 48.9264 23.7351 49.3359 23.2455C49.6413 22.8778 50.1888 22.8259 50.5575 23.1305C50.9263 23.4351 50.9783 23.9811 50.6729 24.3489C50.2521 24.8543 49.8177 25.344 49.3698 25.8178C49.5712 25.881 49.7838 25.9149 50.0055 25.9149C50.5915 25.9149 51.1231 25.6757 51.5054 25.2944C51.89 24.9108 52.1275 24.3806 52.1275 23.7961C52.1275 23.2095 51.89 22.6792 51.5077 22.3002C51.1231 21.9188 50.5915 21.6797 50.0055 21.6797C49.4195 21.6797 48.8879 21.9166 48.5033 22.3002C48.121 22.6815 47.8812 23.2117 47.8812 23.7961C47.8812 24.1075 47.9491 24.4031 48.069 24.6693ZM49.2635 27.5755V46.2717H50.7453V27.5755C50.5055 27.6228 50.2566 27.6454 50.0033 27.6454C49.7499 27.6454 49.501 27.6206 49.2635 27.5755ZM4.74866 27.5755C4.50886 27.6228 4.26001 27.6454 4.00666 27.6454C3.75331 27.6454 3.50443 27.6206 3.26466 27.5755V46.2717H4.74872L4.74866 27.5755Z" fill="#80011D"/>
</svg>
