<svg width="42" height="48" viewBox="0 0 42 48" fill="none" xmlns="http://www.w3.org/2000/svg">
<path d="M6.14935 5.98139C14.224 -1.86984 27.2351 -1.99153 35.4619 5.61431L35.8502 5.98139C44.0499 13.9597 44.0499 26.8923 35.8502 34.87L23.3034 47.0711C22.0328 48.3096 19.9693 48.3096 18.6959 47.0711L6.14149 34.8598L5.7831 34.5033L5.77224 34.4928C-1.92499 26.6152 -1.92498 14.2288 5.77767 6.35393L6.14935 5.98139ZM33.9661 7.14607C26.5893 0.327195 14.9246 0.438139 7.68616 7.47618L7.3522 7.80894C0.450344 14.8678 0.444921 25.9649 7.33862 33.0271L7.69701 33.3863L20.2326 45.5793C20.6562 45.9912 21.3431 45.9912 21.7694 45.5793L34.3133 33.3755C41.6658 26.224 41.6658 14.628 34.3133 7.4758L33.9661 7.14607ZM28.677 20.126C31.0772 20.126 33.0212 22.0169 33.0212 24.3514C33.0212 26.686 31.0772 28.5769 28.677 28.5769H26.5945C25.7556 30.4414 23.8441 31.746 21.6177 31.746H16.7305C13.733 31.746 11.3003 29.3797 11.3003 26.4642V21.7106C11.3003 20.8364 12.0306 20.126 12.9294 20.126H28.677ZM13.4724 26.4642C13.4724 28.2151 14.9304 29.6333 16.7305 29.6333H21.6177C23.4178 29.6333 24.8758 28.2151 24.8758 26.4642V22.2387H13.4725L13.4724 26.4642ZM27.0478 26.4642H28.6769C29.877 26.4642 30.849 25.5188 30.849 24.3514C30.849 23.1841 29.877 22.2387 28.6769 22.2387H27.0478V26.4642ZM21.4384 10.3574C21.8592 9.99297 22.4891 10.0062 22.8937 10.368L22.9724 10.4446L23.1109 10.6004C23.7897 11.3874 24.3327 12.3803 24.3327 13.5238C24.3327 14.7413 23.7137 15.7924 22.9725 16.6032C22.5733 17.0389 21.8864 17.0785 21.4384 16.6903C20.9904 16.3021 20.9497 15.6339 21.3488 15.1982C21.9 14.5961 22.1607 14.0283 22.1607 13.5239C22.1607 13.0511 21.9326 12.5203 21.4493 11.9631L21.3489 11.8495L21.281 11.765C20.9579 11.3319 21.0175 10.7218 21.4384 10.3574ZM15.9973 7.72708C16.4045 7.36528 17.0317 7.35207 17.4526 7.71652C17.8735 8.08096 17.9332 8.69101 17.6101 9.1241L17.5422 9.20861L17.4417 9.32217C16.9585 9.87941 16.7304 10.4102 16.7304 10.883C16.7304 11.3874 16.9911 11.9551 17.5423 12.5573C17.9414 12.9931 17.9006 13.6612 17.4527 14.0494C17.0047 14.4376 16.3177 14.398 15.9186 13.9623C15.1774 13.1515 14.5584 12.1004 14.5584 10.8829C14.5584 9.73944 15.1014 8.74642 15.7829 7.95947L15.9186 7.80366L15.9973 7.72708Z" fill="#80011D"/>
</svg>
