<svg width="44" height="48" viewBox="0 0 44 48" fill="none" xmlns="http://www.w3.org/2000/svg">
<path d="M0.0758101 30.5043C0.244177 30.8397 0.656662 30.9772 0.997597 30.8106C4.22393 29.221 7.20426 27.4647 9.85557 25.5981C10.8342 24.9147 11.7602 24.2168 12.6336 23.5043C13.7995 22.5605 14.8813 21.598 15.8662 20.6209C18.8505 17.6584 20.892 14.6086 21.894 11.6438C22.8958 14.6084 24.9372 17.6583 27.9218 20.6209C28.8878 21.5814 29.9485 22.5272 31.0913 23.4543C31.9921 24.1897 32.9454 24.9106 33.9556 25.6147C36.6011 27.4752 39.575 29.2273 42.7904 30.8106C42.8894 30.8585 42.9925 30.8815 43.0956 30.8815C43.3482 30.8815 43.5923 30.744 43.7122 30.5044C43.7691 30.3898 43.7901 30.2669 43.7817 30.1481C43.7817 30.1335 43.7838 30.119 43.7838 30.1044V14.9021C43.7838 14.575 43.5502 14.2959 43.2261 14.2334C42.7525 14.1438 42.2642 14.0459 41.7634 13.9396C42.0454 13.6063 42.138 13.1521 41.9991 12.723C41.8307 12.2146 41.3762 11.8688 40.8479 11.8417L38.636 11.7021L37.8194 9.66254V9.66046C37.6216 9.16879 37.148 8.85214 36.6135 8.85214C36.0747 8.85214 35.6012 9.17089 35.4096 9.66046L34.5889 11.7021L33.4651 11.773C30.0072 10.7063 26.3473 9.37919 22.5802 7.82712V6.98754C23.0643 6.82087 23.5651 6.71045 24.0913 6.59378C25.1373 6.36253 26.219 6.12295 27.2145 5.42087C28.1047 4.79377 29.3065 4.76044 30.5798 4.7271C31.0659 4.7146 31.5689 4.70002 32.053 4.65002C32.3371 4.62085 32.5749 4.41877 32.6465 4.14585C32.718 3.87085 32.6107 3.58126 32.3771 3.41875C32.0172 3.16875 31.6531 2.88125 31.2659 2.57917C29.7611 1.3958 28.0543 0.0562138 26.1517 0.631259C25.594 0.800012 24.8511 0.597925 24.0661 0.385422C23.3695 0.195836 22.6497 0 21.8942 0H21.8921C21.8689 0 21.8458 0.00208321 21.8226 0.00416696C21.8058 0.00625018 21.789 0.00833339 21.7721 0.0125004C21.7658 0.0125004 21.7616 0.0145837 21.7553 0.0145837C21.7342 0.0187501 21.7153 0.022917 21.6964 0.0291672C21.6943 0.0291672 21.6922 0.0291673 21.6922 0.0312505C21.6711 0.0375007 21.6522 0.0437509 21.6332 0.0520838C21.6311 0.0520838 21.6311 0.0520836 21.629 0.0541674C21.6101 0.0625008 21.5911 0.0708342 21.5743 0.0791676C21.5722 0.0791676 21.5701 0.081251 21.568 0.081251C21.5511 0.0895844 21.5343 0.100001 21.5175 0.110418C21.5154 0.112501 21.5112 0.114585 21.5091 0.114585C21.4922 0.125001 21.4775 0.137502 21.4628 0.147918L21.4564 0.154168C21.4038 0.195835 21.3575 0.245838 21.3196 0.302084C21.2712 0.375002 21.2355 0.456251 21.2186 0.545836C21.2186 0.550002 21.2165 0.554169 21.2165 0.558336C21.2123 0.577086 21.2102 0.593753 21.2081 0.612501C21.206 0.635418 21.2039 0.658335 21.2039 0.681254V7.83332C13.8022 10.8812 6.85905 13.0375 0.558099 14.2398C0.233995 14.3023 0.000361687 14.5814 0.000361687 14.9085V30.1108C0.000361687 30.1254 0.00246627 30.14 0.00246627 30.1545C-0.00805651 30.2733 0.0150935 30.3962 0.0719195 30.5108L0.0758101 30.5043ZM39.181 19.2376C39.421 19.2376 39.6588 19.1709 39.8692 19.0396C40.7047 19.3376 41.555 19.6167 42.4094 19.8751V29.0085C31.7121 23.6564 24.8971 16.9582 22.9549 9.92511C26.3096 12.3689 29.7359 14.4668 33.1684 16.1812L32.7938 17.6354C32.6591 18.152 32.8548 18.6854 33.2884 18.9937C33.7219 19.3041 34.2943 19.3208 34.7426 19.0396L36.6157 17.8666L38.4888 19.0396C38.7035 19.1729 38.9434 19.2396 39.1833 19.2396L39.181 19.2376ZM31.274 13.6418C29.7945 12.8188 28.3171 11.923 26.8502 10.9605C28.3655 11.521 29.8576 12.0418 31.3182 12.5189C31.2825 12.5856 31.253 12.6543 31.2298 12.7293C31.1288 13.0376 31.152 13.3606 31.2761 13.6418L31.274 13.6418ZM1.37856 29.0083V19.8749C7.95752 17.8853 14.4923 14.5436 20.8331 9.92495C18.8906 16.9602 12.0759 23.6584 1.37856 29.0083ZM42.4072 18.4498C41.7548 18.2477 41.1066 18.0311 40.4647 17.8061C40.4584 17.7498 40.4478 17.6936 40.4352 17.6352L39.8859 15.5102L40.4479 15.0498C41.1171 15.1998 41.7737 15.3394 42.4072 15.4644L42.4072 18.4498ZM34.7319 13.0562C35.2327 13.0208 35.6621 12.7124 35.8494 12.2478L36.6155 10.3437L37.3794 12.2499C37.5667 12.7124 37.9961 13.0228 38.5033 13.0562L40.5678 13.1874L38.9747 14.4937C38.5874 14.8145 38.4233 15.3125 38.5454 15.7978L39.0589 17.7833L37.3058 16.6854C37.0932 16.5541 36.8533 16.4875 36.6155 16.4875C36.3756 16.4875 36.1356 16.5541 35.923 16.6875L34.1741 17.7812L34.6308 16.0041C34.635 15.9916 34.6371 15.9791 34.6414 15.9666L34.6834 15.8021C34.8118 15.3166 34.6498 14.8166 34.2562 14.4917L32.6631 13.1875L34.734 13.0562L34.7319 13.0562ZM26.5533 1.93128C27.6603 1.59586 28.8809 2.45004 30.0764 3.38132C28.8431 3.42299 27.5088 3.54382 26.4165 4.31258C25.6462 4.85424 24.7454 5.05424 23.79 5.26677C23.3922 5.35427 22.986 5.44386 22.5798 5.56053V1.42508C22.9502 1.48966 23.3311 1.59383 23.7037 1.69383C24.6444 1.948 25.6146 2.21259 26.5533 1.92925V1.93128ZM16.9394 10.9586C11.8295 14.3107 6.61652 16.8189 1.37802 18.4482V15.4628C6.22908 14.5002 11.4445 12.9877 16.9394 10.9586ZM9.30607 36.5481C8.04965 36.5481 7.02679 37.5606 7.02679 38.8044C7.02679 40.0482 8.0496 41.0607 9.30607 41.0607C10.5625 41.0607 11.5854 40.0482 11.5854 38.8044V31.3046C11.5854 31.0463 11.4359 30.8088 11.2023 30.6942C10.9666 30.5796 10.6867 30.6067 10.4805 30.765C9.40082 31.588 7.17418 31.963 5.93877 32.0151C5.57047 32.0296 5.28001 32.3296 5.28001 32.6942V38.29H4.37924C3.12282 38.29 2.09996 39.3004 2.09996 40.5421C2.09996 41.7859 3.12277 42.7984 4.37924 42.7984C5.63356 42.7984 6.65432 41.7859 6.65432 40.5421V35.8942C7.67712 35.7921 9.06409 35.54 10.2111 35.04V36.5463H9.3061L9.30607 36.5481ZM10.211 38.8044C10.211 39.2982 9.80486 39.7002 9.30607 39.7002C8.80728 39.7002 8.40109 39.2982 8.40109 38.8044C8.40109 38.3106 8.80728 37.9086 9.30607 37.9086H10.211V38.8044ZM5.28004 40.5461C5.28004 41.0398 4.87596 41.4419 4.37926 41.4419C3.88048 41.4419 3.47428 41.0398 3.47428 40.5461C3.47428 40.0544 3.88047 39.6544 4.37926 39.6544H5.28004V40.5461ZM6.65434 33.3273C7.67714 33.2253 9.06411 32.9732 10.2111 32.4731V33.5169C9.27876 34.0836 7.79083 34.4044 6.65434 34.5294V33.3273ZM30.4573 36.9545C29.203 36.9545 28.1802 37.967 28.1802 39.2107C28.1802 40.4545 29.2009 41.467 30.4573 41.467C31.7138 41.467 32.7366 40.4545 32.7366 39.2107V31.711C32.7366 31.4526 32.5872 31.2151 32.3536 31.1005C32.1179 30.986 31.838 31.013 31.6317 31.1714C30.5521 31.9943 28.3254 32.3693 27.0942 32.4214C26.7259 32.436 26.4355 32.736 26.4355 33.1006V38.6963H25.5305C24.2741 38.6963 23.2512 39.7088 23.2512 40.9526C23.2512 42.1943 24.274 43.2048 25.5305 43.2048C26.787 43.2048 27.8098 42.1944 27.8098 40.9526V36.3026C28.8326 36.2005 30.2153 35.9484 31.3623 35.4484V36.9546L30.4573 36.9545ZM31.3623 39.2107C31.3623 39.7045 30.9561 40.1066 30.4573 40.1066C29.9607 40.1066 29.5566 39.7045 29.5566 39.2107C29.5566 38.717 29.9606 38.3149 30.4573 38.3149H31.3623V39.2107ZM26.4355 40.9545C26.4355 41.4462 26.0293 41.8462 25.5305 41.8462C25.0317 41.8462 24.6255 41.4462 24.6255 40.9545C24.6255 40.4607 25.0317 40.0586 25.5305 40.0586H26.4355V40.9545ZM27.8098 33.7336C28.8326 33.6315 30.2175 33.3795 31.3624 32.8794V33.9232C30.43 34.4899 28.9442 34.8107 27.8098 34.9357V33.7336ZM41.8055 44.0793H20.8397V43.3439C20.8397 42.1876 19.8905 41.248 18.7225 41.248H16.82V31.3354L20.5324 27.6604C20.7955 27.7812 21.0817 27.8458 21.3806 27.8458H21.3827C21.9193 27.8458 22.4223 27.6375 22.7991 27.2646L26.2948 23.8041C26.6736 23.4312 26.8819 22.9333 26.8841 22.402C26.8841 21.8687 26.6757 21.3687 26.2948 20.9916C25.5098 20.2187 24.2386 20.2208 23.4578 20.9937L19.96 24.4563C19.5812 24.8313 19.3728 25.3312 19.3728 25.8646C19.3728 26.1583 19.4402 26.4417 19.5601 26.7L15.6477 30.5729C15.5194 30.7 15.4457 30.873 15.4457 31.0542V41.2479H13.5453C12.3772 41.2479 11.4281 42.1875 11.4281 43.3437V44.0792H1.98499C0.892733 44.0792 0.00456623 44.9583 0.00456623 46.0375V47.3188C0.00456623 47.6938 0.311834 48 0.692741 48H43.098C43.4768 48 43.7861 47.6958 43.7861 47.3188V46.0375C43.7861 44.9584 42.898 44.0792 41.8078 44.0792L41.8055 44.0793ZM20.9302 25.4168L24.428 21.9542C24.5501 21.8334 24.7121 21.7709 24.8742 21.7709C25.0363 21.7709 25.1983 21.8313 25.3225 21.9542C25.4424 22.073 25.5077 22.2313 25.5077 22.4001C25.5077 22.5667 25.4424 22.723 25.3225 22.8417L21.8226 26.3063C21.7047 26.423 21.5469 26.4876 21.3785 26.4876C21.208 26.4876 21.0502 26.423 20.9281 26.3043C20.8102 26.1876 20.745 26.0313 20.745 25.8647C20.745 25.6959 20.8102 25.5376 20.9302 25.4188V25.4168ZM12.8001 43.3439C12.8001 42.9376 13.1326 42.6084 13.543 42.6084H18.7203C19.1307 42.6084 19.4632 42.9376 19.4632 43.3439V44.0793H12.8002L12.8001 43.3439ZM42.4073 46.6376H1.37867V46.0376C1.37867 45.7085 1.65016 45.4397 1.98479 45.4397H41.8034C42.1296 45.4397 42.4074 45.7126 42.4074 46.0376L42.4073 46.6376ZM3.10436 7.3333L4.52705 8.4979L4.07246 10.2687C3.94828 10.7437 4.12507 11.2417 4.52494 11.5354C4.52915 11.5375 4.53125 11.5396 4.53546 11.5417C4.75013 11.6938 4.99847 11.7708 5.2468 11.7708C5.472 11.7708 5.69719 11.7083 5.8929 11.5812L7.45448 10.6042L9.01606 11.5792C9.43698 11.8479 9.97152 11.8333 10.3798 11.5375C10.7839 11.2438 10.9628 10.7458 10.8386 10.2708L10.3819 8.4979L11.8025 7.33539C12.1876 7.02288 12.3392 6.51453 12.1834 6.0333C12.0256 5.56454 11.6026 5.24161 11.108 5.21035L9.26855 5.09577L8.58457 3.39368C8.39937 2.93326 7.95739 2.6374 7.45649 2.6374C6.95771 2.6374 6.51574 2.93532 6.33056 3.39368L5.64659 5.09577L3.80506 5.21035C3.30839 5.2416 2.88748 5.56452 2.72542 6.03953C2.57178 6.51246 2.72331 7.0229 3.10634 7.33331L3.10436 7.3333ZM5.8361 6.44785C6.30964 6.4166 6.71161 6.12493 6.88208 5.69158L7.45242 4.27071L8.02067 5.6895C8.19324 6.127 8.59521 6.4166 9.07084 6.44785L10.6093 6.54369L9.41603 7.52076C9.05194 7.82285 8.90252 8.2916 9.02037 8.73741L9.4013 10.2145L8.09855 9.40201C7.89861 9.27701 7.67552 9.2145 7.45035 9.2145C7.22726 9.2145 7.00207 9.27701 6.80005 9.40201L5.4994 10.2145L5.87822 8.74157C5.99818 8.28948 5.84665 7.82071 5.47835 7.51447L4.29138 6.54155L5.83194 6.44572L5.8361 6.44785ZM42.8956 34.3292L41.2035 34.2208L40.5764 32.6645C40.3996 32.2166 39.9702 31.9291 39.4841 31.9291C38.9958 31.9291 38.5644 32.2187 38.3897 32.6645L37.7647 34.2229L36.0684 34.3312C35.5864 34.3646 35.1782 34.6771 35.0287 35.1312C34.8772 35.5854 35.0203 36.0791 35.3949 36.3917L36.6998 37.4646L36.2789 39.0917C36.161 39.55 36.3357 40.0313 36.7208 40.3167C36.725 40.3188 36.7271 40.3209 36.7313 40.3251C37.1228 40.6042 37.6405 40.6188 38.0509 40.3626L39.482 39.4646L40.9194 40.3667C41.1131 40.4855 41.3298 40.5438 41.5466 40.5438C41.7907 40.5438 42.0328 40.4688 42.2391 40.3188C42.6347 40.0313 42.8094 39.5459 42.6852 39.0896L42.2664 37.4646L43.5713 36.3917C43.948 36.0854 44.0932 35.5896 43.9396 35.1312C43.788 34.6792 43.3818 34.3646 42.8957 34.3312L42.8956 34.3292ZM41.2983 36.4896C40.9405 36.7771 40.789 37.2313 40.9026 37.6792L41.2309 38.948L40.1113 38.2459C39.9177 38.1251 39.7009 38.0667 39.4841 38.0667C39.2652 38.0667 39.0485 38.1271 38.8527 38.248L37.7373 38.948L38.0656 37.6751C38.1772 37.2355 38.0277 36.7813 37.6763 36.4938L36.6577 35.6563L37.973 35.573C38.4339 35.548 38.8254 35.2667 38.9979 34.8396L39.4841 33.6251L39.9702 34.8334C40.1365 35.2647 40.5301 35.548 40.9909 35.573L42.3126 35.6563L41.3003 36.4897L41.2983 36.4896Z" fill="#80011D"/>
</svg>
