<svg width="63" height="48" viewBox="0 0 63 48" fill="none" xmlns="http://www.w3.org/2000/svg">
<path d="M44.6436 27.8497L44.748 27.8556C45.2661 27.9093 45.6691 28.3448 45.6709 28.8771V41.298C45.6709 41.5982 45.4275 41.8409 45.127 41.8409H35.7363C35.4362 41.8407 35.1934 41.5982 35.1934 41.298V28.8771C35.1951 28.345 35.598 27.9094 36.1162 27.8556L36.2207 27.8497H44.6436ZM36.2803 40.755H44.584V28.9366H36.2803V40.755Z" fill="#80011D" stroke="#80011D"/>
<path d="M38.6611 33.9335C38.7932 33.8783 38.9412 33.8783 39.0732 33.9335L39.0742 33.9344C39.1098 33.9493 39.1387 33.9651 39.1641 33.9823L39.1709 33.9872L39.1777 33.9911C39.1964 34.003 39.2206 34.0223 39.252 34.0536L39.2617 34.0624C39.277 34.0769 39.2939 34.0976 39.3164 34.1298C39.3424 34.1711 39.3594 34.2028 39.3701 34.2284C39.3803 34.2528 39.3898 34.2853 39.4014 34.3339C39.4138 34.4034 39.4142 34.4734 39.4014 34.5428C39.3957 34.5711 39.3855 34.6055 39.3701 34.6425C39.3535 34.6823 39.3381 34.7114 39.3242 34.7323C39.2975 34.7692 39.2751 34.797 39.252 34.8202C39.2284 34.8438 39.2009 34.865 39.165 34.8895C39.1365 34.9078 39.1069 34.9238 39.0762 34.9364L38.9746 34.9667C38.9314 34.9749 38.8964 34.9784 38.8672 34.9784C38.8378 34.9784 38.8023 34.975 38.7588 34.9667H38.7598C38.6919 34.9534 38.6263 34.9265 38.5664 34.8876C38.532 34.8638 38.5054 34.8431 38.4824 34.8202C38.4586 34.7964 38.4359 34.7686 38.4111 34.7323L38.4043 34.7225C38.392 34.7025 38.3776 34.6767 38.3633 34.6425C38.3482 34.6062 38.3377 34.5728 38.332 34.5448C38.3188 34.4748 38.3195 34.4039 38.332 34.3339C38.3436 34.2852 38.3531 34.2529 38.3633 34.2284C38.3738 34.203 38.3904 34.1715 38.416 34.1307L38.4727 34.0624L38.4824 34.0536C38.5138 34.0222 38.538 34.003 38.5566 33.9911L38.5635 33.9872L38.5693 33.9823C38.5948 33.9649 38.6243 33.9494 38.6602 33.9344L38.6611 33.9335Z" fill="#80011D" stroke="#80011D"/>
<path d="M31.5635 25.0221C31.8637 25.0221 32.1072 25.2649 32.1074 25.5651V46.6949C32.1074 46.8396 32.0496 46.9783 31.9482 47.0797C31.8469 47.1809 31.7081 47.2389 31.5635 47.2389C31.2633 47.2386 31.0205 46.9951 31.0205 46.6949V25.5651C31.0208 25.2651 31.2635 25.0223 31.5635 25.0221Z" fill="#80011D" stroke="#80011D"/>
<path d="M49.3008 25.1531C49.601 25.1531 49.8445 25.3959 49.8447 25.696V46.6951C49.8447 46.8397 49.7869 46.9785 49.6855 47.0798C49.5842 47.1811 49.4454 47.239 49.3008 47.239C49.0006 47.2388 48.7578 46.9953 48.7578 46.6951V25.696C48.7581 25.3961 49.0008 25.1533 49.3008 25.1531Z" fill="#80011D" stroke="#80011D"/>
<path d="M57.2578 19.5444C57.558 19.5444 57.8015 19.7873 57.8018 20.0874V41.3472C57.8018 41.4917 57.7438 41.6306 57.6426 41.7319C57.5413 41.8332 57.4025 41.8911 57.2578 41.8911H23.4766C23.1764 41.8909 22.9336 41.6474 22.9336 41.3472V20.0874C22.9338 19.7874 23.1766 19.5447 23.4766 19.5444C23.7768 19.5444 24.0203 19.7873 24.0205 20.0874V40.8042H56.7148V20.0874C56.7151 19.7873 56.9576 19.5445 57.2578 19.5444Z" fill="#80011D" stroke="#80011D"/>
<path d="M38.7861 1.09277C39.6574 0.302839 40.9814 0.302912 41.8496 1.0918L41.8574 1.09863L60.0166 16.9678V16.9688C60.8486 17.698 61.1217 19.0756 60.6406 20.1787L60.5342 20.3955L60.5273 20.4072C60.2357 20.9759 59.7043 21.3784 59.0771 21.5068C58.5173 21.599 57.9441 21.4334 57.5225 21.0527L57.5166 21.0469L40.6465 6.30859L40.3184 6.02148L39.9893 6.30859L23.1221 21.0469L23.1162 21.0527C22.7747 21.3613 22.3319 21.5321 21.873 21.5342H21.7041C21.1125 21.4786 20.5566 21.1349 20.1836 20.54L20.1055 20.4053C19.484 19.2691 19.7382 17.7519 20.6221 16.9795V16.9785L38.7793 1.09863H38.7803L38.7861 1.09277ZM40.3213 1.58594C40.0152 1.586 39.7208 1.70217 39.4971 1.91602L21.3389 17.7861C21.0639 18.0253 20.9151 18.3928 20.8662 18.7393C20.8158 19.0969 20.86 19.5095 21.0586 19.877C21.135 20.0183 21.2359 20.1504 21.3594 20.2529C21.4774 20.3509 21.6545 20.4521 21.874 20.4521H21.8906L21.9072 20.4512C22.0972 20.4385 22.2715 20.3584 22.4072 20.2334L22.4092 20.2354L39.6387 5.17285L39.6396 5.17188C39.8292 5.00539 40.0723 4.91333 40.3184 4.91309C40.57 4.91309 40.8122 5.005 40.999 5.1709L41.002 5.17285L58.2295 20.2305C58.3984 20.3947 58.6366 20.4776 58.876 20.4424L58.917 20.4355L58.9561 20.4229C59.2479 20.3289 59.4787 20.1158 59.6006 19.8428C59.7856 19.4844 59.8275 19.0874 59.7783 18.7412C59.7289 18.3935 59.5781 18.0266 59.3047 17.7871L59.3037 17.7861L41.1436 1.91602C40.9204 1.70267 40.6259 1.58594 40.3213 1.58594Z" fill="#80011D" stroke="#80011D"/>
<path d="M38.8672 24.2637H41.998C42.2982 24.2637 42.5408 24.5065 42.541 24.8066C42.541 25.1069 42.2983 25.3505 41.998 25.3506H38.8672C38.567 25.3503 38.3242 25.1068 38.3242 24.8066C38.3245 24.5067 38.5672 24.2639 38.8672 24.2637Z" fill="#80011D" stroke="#80011D"/>
<path d="M21.1445 40.8328H59.4912C59.7894 40.833 60.0339 41.0765 60.0342 41.3757C60.0342 41.6751 59.7896 41.9195 59.4912 41.9197H21.1445C20.8444 41.9194 20.6016 41.6759 20.6016 41.3757C20.6018 41.0757 20.8445 40.833 21.1445 40.8328Z" fill="#80011D" stroke="#80011D"/>
<path d="M56.1777 40.7545C56.4779 40.7545 56.7214 40.9973 56.7217 41.2975V46.6373C56.7217 46.7839 56.6643 46.9203 56.5625 47.0221C56.4607 47.1239 56.3244 47.1813 56.1777 47.1813C55.8794 47.181 55.6348 46.9367 55.6348 46.6373V41.2975C55.635 40.9983 55.8795 40.7548 56.1777 40.7545Z" fill="#80011D" stroke="#80011D"/>
<path d="M24.46 40.7545C24.7602 40.7545 25.0037 40.9973 25.0039 41.2975V46.6373C25.0039 46.7839 24.9466 46.9203 24.8447 47.0221C24.7434 47.1234 24.6046 47.1813 24.46 47.1813C24.1598 47.181 23.917 46.9375 23.917 46.6373V41.2975C23.9172 40.9975 24.16 40.7548 24.46 40.7545Z" fill="#80011D" stroke="#80011D"/>
<path d="M11.0234 13.8784C12.6707 12.9136 14.7696 12.9553 16.4932 14.0103L16.5215 14.0278C16.8636 14.2407 17.0677 14.6143 17.0605 15.0161V15.0181C17.0551 15.4181 16.84 15.7862 16.4912 15.9878L16.4902 15.9888L15.5039 16.563L14.7314 17.0122L15.5195 17.4351C17.016 18.2375 18.1051 19.6225 18.5312 21.2534L18.6074 21.5835C18.6891 21.9847 18.5513 22.4001 18.2422 22.6763L18.2373 22.6812C17.9423 22.9528 17.5231 23.0459 17.1367 22.9243H17.1357L13.1914 21.6978L12.4873 21.479L12.5439 22.2144L14.4697 46.9175C14.4798 47.0692 14.4273 47.2183 14.3252 47.3286C14.2226 47.4393 14.0774 47.5009 13.9287 47.4995L13.9277 47.5181V47.4995H5.43652C5.27837 47.4995 5.13423 47.436 5.0332 47.3257L5.03125 47.3237L4.96387 47.2339C4.90708 47.1383 4.88049 47.0251 4.89062 46.9116L4.8916 46.9097L6.99902 22.1606L7.06152 21.4233L6.35449 21.6401L2.2168 22.9077C1.82966 23.0255 1.40842 22.933 1.10645 22.6636C0.806317 22.3907 0.671259 21.9794 0.750977 21.5835C1.11004 19.8099 2.24334 18.2893 3.83887 17.436L4.62793 17.0132L3.85449 16.563L2.86816 15.9888C2.52144 15.7873 2.30528 15.4184 2.2998 15.0181V15.0161C2.29258 14.6147 2.4957 14.2386 2.83398 14.0269C4.56273 12.9542 6.6725 12.9082 8.33789 13.8794H8.33984C8.69944 14.0876 9.03076 14.3417 9.32715 14.6333L9.67676 14.9771L10.0273 14.6343C10.3263 14.3424 10.661 14.0881 11.0215 13.8794L11.0234 13.8784ZM14.9326 14.479C13.8184 14.1143 12.5985 14.2333 11.5723 14.8169L11.5693 14.8188C10.9818 15.1589 10.4889 15.6448 10.1426 16.2271C10.0461 16.3891 9.87162 16.4888 9.67773 16.4888C9.48713 16.4888 9.31258 16.3897 9.21582 16.2271L9.21484 16.2261L9.07715 16.0122C8.74172 15.5257 8.30137 15.1173 7.79004 14.8198L7.78516 14.8169L7.57617 14.7056C6.51877 14.1823 5.28823 14.1289 4.18555 14.5649L3.22949 14.9429L4.11719 15.4614L6.44922 16.8237L6.4707 16.8364C6.65888 16.9612 6.75313 17.187 6.7041 17.4067L6.70312 17.4087C6.65339 17.6359 6.46287 17.8071 6.22754 17.8315C5.8806 17.8636 5.54169 17.934 5.21387 18.0347H5.21191C3.76817 18.484 2.60776 19.5635 2.05664 20.9702L1.67969 21.9331L2.66895 21.6304L7.5127 20.1489H7.51367C7.66391 20.1028 7.826 20.1248 7.95801 20.2065L8.0127 20.2456C8.15243 20.3609 8.22644 20.5355 8.21191 20.7134L6.07324 45.8706L6.02637 46.4126H13.3408L13.2988 45.8745L11.3477 20.772C11.3344 20.5936 11.4102 20.4192 11.5518 20.3052C11.6893 20.1945 11.8757 20.1574 12.0498 20.2104V20.2114L16.6934 21.646L17.6826 21.9517L17.3066 20.9868C16.7558 19.5721 15.5931 18.4879 14.1465 18.0356L14.1445 18.0347L13.8955 17.9644C13.645 17.9008 13.3885 17.8556 13.1309 17.8315H13.1299C12.9232 17.8099 12.7509 17.6756 12.6777 17.4917L12.6523 17.4087C12.6021 17.1763 12.7053 16.9395 12.9092 16.8198L15.0264 15.5825L15.4863 15.7651V14.1558L14.9326 14.479Z" fill="#80011D" stroke="#80011D"/>
<path d="M1.04297 46.4128H61.04C61.3402 46.4128 61.5837 46.6557 61.584 46.9558C61.584 47.2562 61.3404 47.4998 61.04 47.4998H1.04297C0.74283 47.4995 0.5 47.256 0.5 46.9558C0.500244 46.6558 0.742981 46.4131 1.04297 46.4128Z" fill="#80011D" stroke="#80011D"/>
<path d="M39.1426 14.7892C39.9136 14.2024 40.9666 14.1741 41.7646 14.7013L41.9209 14.8146L50.6553 21.7062H50.6484L51.7842 22.5988C52.5041 23.1649 52.8112 24.112 52.5615 24.9913V24.9923C52.3138 25.8742 51.5576 26.5191 50.6475 26.6261H50.6465C50.5606 26.6363 50.4689 26.6417 50.3721 26.6417C49.9284 26.6417 49.4965 26.5095 49.1289 26.2657L48.9756 26.1544L40.79 19.6954L40.4863 19.4552L40.1777 19.6896L31.6318 26.1769L31.626 26.1808C30.6923 26.8344 29.4316 26.6902 28.668 25.8722L28.5205 25.6984C27.7807 24.7232 27.9481 23.3372 28.8984 22.5675L39.1416 14.7892H39.1426ZM41.1514 15.6144C40.7372 15.3423 40.1903 15.3567 39.79 15.6632L29.8896 23.1788L29.8867 23.1759L29.5391 23.4415C29.0223 23.8359 28.9233 24.5757 29.3125 25.0919L29.3145 25.0939C29.7066 25.6077 30.4463 25.7149 30.9658 25.3195L40.1533 18.3448L40.1748 18.3273C40.2682 18.261 40.3803 18.2238 40.4902 18.2238C40.5831 18.2238 40.6756 18.2477 40.7578 18.2921L40.8369 18.3439L49.6445 25.3058L49.6455 25.3077C50.0194 25.6006 50.5319 25.6414 50.9492 25.4064L50.9502 25.4073C51.3627 25.1761 51.5963 24.7198 51.5469 24.2511L51.5459 24.2394L51.5244 24.1232C51.4715 23.8938 51.3524 23.687 51.1816 23.5275L51.0928 23.4523L41.2334 15.673L41.2324 15.672L41.1514 15.6144Z" fill="#80011D" stroke="#80011D"/>
</svg>
