<svg width="65" height="74" viewBox="0 0 65 74" fill="none" xmlns="http://www.w3.org/2000/svg">
<path d="M20.4541 66.8319L20.4446 66.7075C20.3243 65.2596 20.1882 63.6139 21.9452 63.0175L21.9895 63.008H42.8707L42.8897 63.0175C44.6466 63.6139 44.5105 65.2564 44.3902 66.7075L44.3839 66.8319H20.4541ZM64.8341 5.9864C64.7074 13.4558 62.5041 20.0321 58.4584 25.0174C57.094 26.6982 55.4858 28.2674 53.6719 29.6866C52.7887 30.3755 51.839 31.0421 50.8449 31.6736C50.6423 31.8012 50.3922 31.9319 50.1295 32.0659C49.2906 32.4964 48.3377 32.9876 48.2491 33.7754C48.1889 34.3335 48.5372 34.9108 49.0595 35.1117C49.1671 35.1563 49.2843 35.1819 49.4046 35.2137C49.5185 35.2425 49.6357 35.268 49.7496 35.3094C50.0599 35.4211 50.2783 35.6252 50.3479 35.8676C50.4112 36.0876 50.3574 36.3364 50.1865 36.6266C49.7686 37.3251 48.9803 37.711 48.018 37.711C47.8185 37.711 47.6128 37.695 47.4038 37.6631C45.6722 37.392 45.305 36.196 45.0929 35.0989C45.0295 34.7768 44.7605 34.544 44.4376 34.528C42.0158 38.0905 38.8945 40.996 35.0068 43.292V46.1879C35.0068 46.4845 34.8928 46.7684 34.6775 46.9789C34.5193 47.1415 34.4306 47.352 34.4306 47.5785V51.0516C34.4306 53.4405 35.7539 55.6794 37.8844 56.8881C39.8122 57.982 41.0532 59.3279 41.68 61.0023L41.7528 61.1873H23.0817L23.1513 61.0023C23.7813 59.3279 25.0222 57.9821 26.947 56.8881C29.0806 55.6793 30.4007 53.4436 30.4007 51.0516V47.5785C30.4007 47.352 30.3121 47.1415 30.1506 46.9789C29.9417 46.7684 29.8214 46.4877 29.8214 46.1879V43.292C25.9371 40.9957 22.8126 38.0902 20.3906 34.528C20.0709 34.544 19.7986 34.7768 19.7385 35.0989C19.5264 36.1993 19.156 37.3921 17.4275 37.6631C17.2186 37.695 17.0128 37.711 16.8165 37.711C15.851 37.711 15.0659 37.3251 14.648 36.6266C14.4771 36.3364 14.4233 36.0876 14.4866 35.8676C14.5562 35.6284 14.7746 35.4211 15.0817 35.3094C15.1957 35.268 15.316 35.2425 15.4268 35.2137C15.5502 35.185 15.6642 35.1563 15.7718 35.1117C16.2973 34.9108 16.6455 34.3335 16.5823 33.7754C16.4936 32.9876 15.5439 32.4997 14.7018 32.0659C14.4391 31.9319 14.189 31.8043 13.9896 31.6736C12.9955 31.0421 12.0427 30.3756 11.1626 29.6866C9.34865 28.2705 7.7373 26.7015 6.37288 25.0174C2.32713 20.0388 0.123859 13.4563 0.000352089 5.9864C-0.0123106 5.11253 0.316916 4.28015 0.934193 3.65179C1.55783 3.01712 2.39043 2.66632 3.2831 2.66632H7.3953C8.34503 2.66632 9.27571 2.93103 10.0861 3.43176L10.9218 3.94842C11.6753 4.41725 12.8276 4.64051 13.6538 4.66921C13.6475 3.98669 13.6443 3.30416 13.6443 2.62804H12.4699V0H52.3698V2.62804H51.1922C51.1922 3.30737 51.189 3.98991 51.1827 4.67239C51.9994 4.65964 53.1327 4.43319 53.9147 3.95161L54.7504 3.43494C55.1556 3.18617 55.5893 2.99482 56.042 2.86405C56.4947 2.73648 56.9664 2.6695 57.4413 2.6695H61.5535C62.4431 2.6695 63.2756 3.02033 63.8992 3.65498C64.5165 4.28327 64.849 5.11572 64.8362 5.98958L64.8341 5.9864ZM17.7919 29.855C17.2063 28.5601 16.6903 27.1951 16.2407 25.7599C14.5281 20.303 13.9266 14.3424 13.7271 8.43204H12.4989C11.7993 8.43204 11.1059 8.25025 10.495 7.9058L8.52274 6.7959C7.95292 6.47697 7.30712 6.30793 6.65181 6.30793H5.59763C5.20508 6.30793 4.88218 6.62048 4.86319 7.02234C4.44532 16.7718 8.67781 24.2449 17.7917 29.8581L17.7919 29.855ZM59.9683 7.01923C59.9525 6.61737 59.6296 6.30482 59.2339 6.30482H58.1829C57.5307 6.30482 56.8818 6.47385 56.312 6.79279L54.3397 7.90269C53.7319 8.24395 53.0386 8.42893 52.339 8.42893H51.1107C50.9144 14.3388 50.3066 20.2995 48.5971 25.7568C48.1476 27.1952 47.6253 28.557 47.0459 29.8519C56.1598 24.2387 60.3894 16.7631 59.9712 7.01612L59.9683 7.01923ZM47.2837 68.6624H17.5488C17.0455 68.6624 16.6371 69.0739 16.6371 69.581V72.563C16.6371 73.0701 17.0455 73.4815 17.5488 73.4815H47.2837C47.7871 73.4815 48.1954 73.0701 48.1954 72.563V69.581C48.1954 69.0739 47.7871 68.6624 47.2837 68.6624Z" fill="#EE9411"/>
<path d="M32.7812 9.2251C32.9712 9.22539 33.1453 9.33311 33.2295 9.50342L36.2305 15.5845L42.9443 16.5669C43.1324 16.5945 43.289 16.7268 43.3477 16.9077C43.4062 17.0885 43.3567 17.2867 43.2207 17.4194L38.3633 22.1509L39.5098 28.8345C39.5419 29.0219 39.4652 29.2118 39.3115 29.3237C39.1576 29.4355 38.9526 29.4503 38.7842 29.3618L32.7803 26.2036L26.7773 29.3618C26.6091 29.4503 26.4049 29.4352 26.251 29.3237C26.097 29.2119 26.0196 29.0221 26.0518 28.8345L27.1973 22.1499L22.3408 17.4194C22.2046 17.2867 22.1553 17.0886 22.2139 16.9077C22.2726 16.7269 22.429 16.5944 22.6172 16.5669L29.3301 15.5845L32.333 9.50342L32.3682 9.44287C32.4605 9.30803 32.6148 9.2251 32.7812 9.2251Z" fill="#26692D"/>
</svg>
