<svg width="50" height="50" viewBox="0 0 50 50" fill="none" xmlns="http://www.w3.org/2000/svg">
<path d="M0.286298 40.0795C0.192372 40.1302 0.115445 40.2069 0.064969 40.3002C0.014493 40.3936 -0.00733323 40.4995 0.00217233 40.605C0.0116779 40.7104 0.0521011 40.8108 0.118475 40.8939C0.184849 40.9769 0.274282 41.0389 0.375785 41.0724L5.31682 42.7027C5.42454 42.7381 5.54073 42.7397 5.64937 42.7071C5.75801 42.6745 5.85378 42.6093 5.92347 42.5206C6.08817 42.3125 9.91747 37.3688 8.76786 32.8169C8.24519 30.5838 7.51558 28.4032 6.58831 26.3027V24.8083L15.9098 24.9985H15.9214C16.0109 24.9983 16.0991 24.9767 16.1783 24.9354L20.1064 22.879L18.1981 27.2195L15.4053 30.3171C15.2999 30.2809 15.1858 30.2781 15.0787 30.309L13.5085 30.8013C13.3785 30.8422 13.2686 30.9295 13.2001 31.0463C13.1316 31.163 13.1094 31.3008 13.1379 31.4328L13.9417 35.1662C13.96 35.2514 13.9988 35.331 14.0548 35.3983C14.0937 35.4456 17.9576 40.1806 16.9003 45.3433C16.36 47.9817 15.4284 48.9968 15.4223 49.0033C15.3482 49.0794 15.2981 49.1753 15.2781 49.2792C15.2582 49.383 15.2693 49.4904 15.3101 49.5881C15.3509 49.6858 15.4196 49.7697 15.5078 49.8293C15.596 49.8889 15.6998 49.9218 15.8066 49.9239L21.0145 50H21.0271C21.141 50 21.252 49.965 21.3449 49.8997C21.4377 49.8345 21.5078 49.7423 21.5454 49.6359C21.631 49.3903 23.6074 43.6602 21.1237 39.6714C19.9419 37.6951 18.5776 35.8315 17.0485 34.1044L16.9387 33.8087L21.7765 29.5519C21.7949 29.535 21.8121 29.5168 21.8281 29.4976L26.9596 23.5909L27.031 27.2429L26.8427 28.3939C26.8289 28.4771 26.8351 28.5624 26.8608 28.6428L27.4757 30.5894C27.5619 30.8587 27.7323 31.0939 27.9623 31.2611C28.1923 31.4283 28.4701 31.5189 28.7554 31.5197C28.8264 31.5196 28.8973 31.5138 28.9674 31.5024L30.4057 31.2709C30.6013 31.2394 30.7873 31.1654 30.9505 31.0542C31.1137 30.943 31.2498 30.7973 31.3492 30.6276C31.4486 30.458 31.5087 30.2686 31.5251 30.0732C31.5416 29.8778 31.5141 29.6812 31.4445 29.4976L30.4387 26.8402L30.9998 21.2851L32.8581 20.3069L32.9405 22.3035C32.945 22.4135 32.9833 22.5195 33.0503 22.6073L37.9611 29.0889L38.4882 30.1323C38.5272 30.2082 38.5836 30.2739 38.6529 30.3242L40.2999 31.5475C40.5581 31.7378 40.8768 31.8302 41.198 31.8076C41.5192 31.7851 41.8216 31.6492 42.0501 31.4246L43.0806 30.4046C43.2202 30.2661 43.3271 30.0986 43.3936 29.9143C43.46 29.73 43.4844 29.5335 43.465 29.3387C43.4456 29.144 43.3828 28.9559 43.2812 28.788C43.1797 28.6201 43.0418 28.4766 42.8775 28.3678L40.4909 26.7918L37.3419 21.403L37.5214 17.3816C39.2435 15.7042 40.3324 13.4929 40.6062 11.1168L41.4347 10.2967C42.0043 10.6826 42.6815 10.8826 43.3716 10.869C44.4376 10.8317 45.4776 10.5329 46.3982 9.99948C46.6518 10.1328 46.9322 10.2086 47.219 10.2212C47.2437 10.2212 47.2678 10.2212 47.2925 10.2212C47.806 10.2206 48.2983 10.0187 48.6618 9.65983L49.4397 8.88978C49.7488 8.58016 49.9425 8.17581 49.9891 7.74296C50.0357 7.31012 49.9324 6.87446 49.6961 6.50733C49.8647 6.07846 49.954 5.62304 49.9596 5.16286C49.9605 4.18016 49.6777 3.21766 49.1447 2.38863C48.6116 1.5596 47.8505 0.898543 46.9507 0.483254C46.0509 0.0679646 45.0501 -0.0842755 44.0659 0.0444497C43.0816 0.173175 42.1551 0.577509 41.3952 1.20987C41.3891 1.21476 41.382 1.21585 41.3759 1.22074C41.3699 1.22563 41.365 1.2365 41.3578 1.24356C40.7871 1.72475 40.3281 2.32234 40.0124 2.99543C39.6967 3.66851 39.5316 4.40119 39.5285 5.14329L39.086 5.43458C38.8563 5.58519 38.5951 5.68227 38.322 5.71851C38.0489 5.75475 37.771 5.72921 37.5093 5.6438C37.014 5.47889 36.483 5.44904 35.9721 5.5574C33.6827 6.04649 32.0374 7.529 30.2625 9.28486L28.8641 10.7473C27.182 12.4129 25.5608 13.4748 24.527 13.5884C22.7741 13.7785 21.1473 14.5815 19.939 15.8529L14.578 20.6754L6.40989 21.6862C6.31011 21.5914 6.1776 21.5377 6.03931 21.5362H4.3923C4.25851 21.5362 4.12934 21.5846 4.02905 21.6723C3.92877 21.7599 3.86428 21.8808 3.84769 22.0122L3.29868 26.3598C3.28706 26.4509 3.29896 26.5434 3.33327 26.6288C3.35413 26.6831 5.41399 31.9159 3.3415 36.5319C2.70129 37.9883 1.63777 39.2233 0.286298 40.0795ZM20.1882 40.2425C22.0603 43.2516 20.9991 47.6181 20.6225 48.9066L16.8344 48.8523C17.3793 47.8173 17.7647 46.7074 17.9779 45.5595C19.0606 40.2691 15.603 35.5956 14.9881 34.8135L14.315 31.6877L14.9101 31.5007L16.0559 34.5831C16.0825 34.6543 16.1239 34.7193 16.1772 34.7739C17.6886 36.464 19.0318 38.2944 20.1882 40.2398V40.2425ZM30.3997 30.0851C30.3821 30.1158 30.3577 30.1421 30.3283 30.1622C30.2989 30.1822 30.2653 30.1954 30.2301 30.2008L28.7911 30.4329C28.7341 30.4417 28.6757 30.4302 28.6265 30.4003C28.5773 30.3704 28.5405 30.3242 28.5227 30.2698L27.9446 28.4417L28.0544 27.7553L29.5191 27.5195L30.4151 29.8791C30.4281 29.912 30.4334 29.9473 30.4307 29.9825C30.4279 30.0177 30.4171 30.0519 30.3992 30.0823L30.3997 30.0851ZM29.3758 26.444L28.1175 26.6467L28.0434 22.8426L29.8342 21.9008L29.3758 26.444ZM25.9045 14.3003C26.1021 14.2122 26.2997 14.1117 26.4968 14.0008C27.0063 16.4703 28.1426 18.7706 29.7985 20.6852L29.1886 21.0058C27.0541 18.9864 26.1559 15.491 25.9045 14.3003ZM42.3746 29.4443C42.3782 29.4794 42.3738 29.5149 42.3617 29.5481C42.3497 29.5813 42.3302 29.6114 42.3049 29.6362L41.2744 30.6562C41.2333 30.6965 41.179 30.7209 41.1213 30.725C41.0635 30.7291 41.0063 30.7126 40.9598 30.6785L39.4154 29.5318L39.0987 28.9112L40.1473 27.8733L42.2653 29.271C42.295 29.2902 42.32 29.3157 42.3384 29.3457C42.3569 29.3757 42.3683 29.4094 42.3718 29.4443H42.3746ZM39.3913 27.0831L38.4898 27.9754L34.0308 22.09L33.5861 11.3842C33.5761 11.1769 33.609 10.9697 33.6827 10.7755C33.7565 10.5812 33.8695 10.4039 34.0149 10.2544C34.3126 9.9604 34.716 9.79532 35.1365 9.79532C35.557 9.79532 35.9604 9.9604 36.2581 10.2544C36.4035 10.4039 36.5166 10.5812 36.5903 10.7755C36.664 10.9697 36.6969 11.1769 36.6869 11.3842L36.2345 21.5123C36.2297 21.616 36.2552 21.7188 36.3081 21.8085L39.3913 27.0831ZM40.6293 5.33567C41.7098 5.72128 42.8468 5.92909 43.9952 5.95085C43.8798 6.268 43.8509 6.60968 43.9114 6.94142C43.972 7.27316 44.1198 7.58324 44.34 7.84039L45.5319 9.21747C44.863 9.56204 44.1251 9.75491 43.3716 9.78211C41.164 9.78211 40.6551 7.4051 40.6293 5.33567ZM48.6634 8.12298L47.8855 8.89304C47.8038 8.97387 47.7061 9.03713 47.5986 9.07885C47.4911 9.12056 47.376 9.13982 47.2606 9.13544C47.1451 9.13105 47.0319 9.1031 46.9279 9.05335C46.8239 9.00359 46.7314 8.9331 46.6563 8.8463L45.1739 7.13283C45.0376 6.97374 44.9665 6.76984 44.9746 6.56137C44.9827 6.3529 45.0695 6.15503 45.2179 6.00682L45.4078 5.81879L45.9953 5.23677C46.0726 5.15961 46.1646 5.09842 46.266 5.05672C46.3674 5.01502 46.4762 4.99365 46.586 4.99385H46.6195C46.7349 4.99799 46.8481 5.02583 46.9521 5.0756C47.0561 5.12537 47.1484 5.19598 47.2234 5.28296L48.6695 6.95621L48.7068 6.99969C48.8424 7.15853 48.9132 7.36183 48.9051 7.56966C48.8971 7.77749 48.8109 7.97485 48.6634 8.12298ZM48.8616 5.16286C48.8608 5.26865 48.8533 5.37429 48.8391 5.47914L48.0568 4.57594C47.8832 4.37546 47.6697 4.21264 47.4297 4.09769C47.1896 3.98274 46.9281 3.91813 46.6616 3.90793C46.3951 3.89772 46.1293 3.94214 45.881 4.03839C45.6326 4.13464 45.4071 4.28064 45.2184 4.46725L45.0499 4.63409L42.5371 1.72777C43.1588 1.33431 43.876 1.11377 44.6135 1.0893C45.351 1.06483 46.0816 1.23733 46.7285 1.5887C47.3754 1.94007 47.9149 2.45734 48.2902 3.08623C48.6655 3.71512 48.8629 4.43243 48.8616 5.16286ZM41.6988 2.42881L43.7932 4.85255C42.7445 4.83495 41.7097 4.61202 40.7484 4.19662C40.9113 3.53811 41.238 2.93039 41.6988 2.42881ZM39.59 6.40136C39.6556 7.51991 40.0224 8.60072 40.6523 9.53158L40.1132 10.0652C39.3272 9.11705 38.909 7.92221 38.934 6.6959C39.1641 6.62495 39.3845 6.52601 39.59 6.40136ZM29.6531 11.5064L31.0514 10.0435C32.7467 8.36536 34.2038 7.04697 36.2032 6.61982C36.5214 6.55308 36.8518 6.57185 37.1601 6.67417C37.3783 6.74587 37.6042 6.79201 37.8332 6.81166C37.8488 8.37298 38.4413 9.87462 39.4989 11.0331C39.2987 12.7173 38.6402 14.3161 37.5938 15.6589L37.7822 11.4331C37.7985 11.0789 37.7421 10.7252 37.6164 10.3932C37.4907 10.0612 37.2983 9.75787 37.0509 9.50153C36.8035 9.2452 36.5061 9.04118 36.1768 8.90178C35.8475 8.76239 35.493 8.69052 35.1349 8.69052C34.7767 8.69052 34.4223 8.76239 34.0929 8.90178C33.7636 9.04118 33.4663 9.2452 33.2188 9.50153C32.9714 9.75787 32.779 10.0612 32.6534 10.3932C32.5277 10.7252 32.4713 11.0789 32.4876 11.4331L32.8065 19.1043L30.8005 20.1591C29.0872 18.2369 27.9428 15.8841 27.4933 13.3596C28.26 12.7968 28.9825 12.1773 29.6547 11.5064H29.6531ZM14.8914 21.7335C15.0038 21.7197 15.109 21.6718 15.1928 21.5965L20.7147 16.6295C21.7494 15.5329 23.1462 14.839 24.6527 14.6731C24.7181 14.6655 24.785 14.6519 24.8509 14.6399C25.1413 15.9887 26.0434 19.3483 28.1669 21.5471L26.644 22.3481C26.5835 22.3796 26.5297 22.4222 26.4853 22.4736L21.0189 28.7629L16.5308 32.7115L16.0015 31.2872L19.0759 27.876C19.115 27.833 19.1468 27.784 19.1698 27.7309L21.6623 22.0639L25.5114 20.0472C25.6401 19.9797 25.7365 19.8644 25.7793 19.7266C25.8221 19.5888 25.8079 19.4398 25.7398 19.3124C25.6716 19.185 25.5551 19.0896 25.4159 19.0472C25.2767 19.0048 25.1262 19.0189 24.9975 19.0864L15.7907 23.9116L6.58831 23.7214V22.7611L14.8914 21.7335ZM4.34508 36.9737C6.44118 32.3039 4.74201 27.2635 4.40492 26.3603L4.87707 22.6231H5.4903V26.4272C5.49022 26.5115 5.50996 26.5946 5.54795 26.6701C6.47308 28.734 7.19471 30.8815 7.70279 33.0827C8.57131 36.5194 6.06456 40.4322 5.28168 41.5457L1.74829 40.3778C2.86637 39.4555 3.75492 38.2907 4.34508 36.9737Z" fill="#80011D"/>
</svg>
