<svg width="48" height="48" viewBox="0 0 48 48" fill="none" xmlns="http://www.w3.org/2000/svg">
<path d="M47.9396 4.88416C48.1682 3.53652 47.742 2.20667 46.7652 1.23198C45.804 0.272871 44.4365 -0.166701 43.1113 0.0575183C32.3358 1.88918 22.6947 6.98017 15.2137 14.2734L11.0802 10.1395C11.5997 9.42458 11.8905 8.57425 11.8905 7.67289C11.8905 6.54725 11.451 5.486 10.6562 4.6912L7.51732 1.55191C6.9313 0.965818 5.90569 0.965818 5.31961 1.55191L1.55244 5.31953C0.946413 5.92563 0.946413 6.9114 1.55244 7.5175L4.69136 10.6568C5.51494 11.4782 6.59384 11.8912 7.67491 11.8912C8.54287 11.8912 9.40423 11.6115 10.139 11.0808L14.2746 15.217C6.98 22.6966 1.89206 32.3389 0.0604414 43.1156C-0.168206 44.4633 0.258015 45.7931 1.23477 46.7678C2.02947 47.5626 3.10173 48 4.19831 48C4.42696 48 4.65783 47.98 4.88867 47.9423C15.6641 46.1106 25.3052 41.0196 32.7863 33.7264L36.9197 37.8603C36.4002 38.5752 36.1094 39.4255 36.1094 40.3269C36.1094 41.4525 36.549 42.5138 37.3437 43.3086L40.4826 46.4479C40.7756 46.7409 41.1663 46.903 41.5815 46.903C41.9966 46.903 42.3873 46.7409 42.6803 46.4479L46.4475 42.6803C47.0535 42.0742 47.0535 41.0884 46.4475 40.4823L43.3086 37.343C41.8257 35.8599 39.5103 35.7267 37.8632 36.919L33.7275 32.7828C41.0222 25.3032 46.1101 15.6609 47.9417 4.88419L47.9396 4.88416ZM43.3355 1.36964C43.4975 1.343 43.6574 1.32968 43.8172 1.32968C44.5631 1.32968 45.2757 1.62496 45.8239 2.17335C46.4899 2.83942 46.7829 3.74521 46.6276 4.65994C46.0105 8.28768 45.007 11.7798 43.6773 15.1036L32.8951 4.32006C36.2183 2.98793 39.7101 1.98665 43.3375 1.36946L43.3355 1.36964ZM31.561 4.87086L43.1246 16.4382C40.625 22.2019 37.1018 27.4104 32.7822 31.8419L29.963 29.0223L32.003 26.982C33.4704 25.5145 34.2784 23.563 34.2784 21.4871C34.2784 19.4112 33.4704 17.4597 32.003 15.9922C28.9751 12.9617 24.0446 12.9617 21.0145 15.9922L18.9744 18.0325L16.1552 15.2129C20.5861 10.8946 25.794 7.36893 31.5571 4.86927L31.561 4.87086ZM25.2563 31.8482L16.1522 22.743L18.9782 19.9167L28.0823 29.0219L25.2563 31.8482ZM15.2111 23.6848L24.3152 32.7899L23.5294 33.5759C23.0965 34.0088 22.3928 34.0088 21.9599 33.5759L14.4255 26.0405C14.2168 25.8296 14.1014 25.5521 14.1014 25.2546C14.1014 24.9571 14.2168 24.6796 14.4255 24.4687L15.2113 23.6827L15.2111 23.6848ZM19.9196 18.9758L21.9596 16.9355C24.4704 14.4267 28.5547 14.4267 31.0637 16.9355C33.5744 19.4465 33.5744 23.5296 31.0637 26.0406L29.0236 28.081L19.9196 18.9758ZM5.63433 9.71319L2.49541 6.5739C2.40884 6.48732 2.40884 6.34745 2.49541 6.26086L6.26258 2.49325C6.31808 2.43774 6.38468 2.42886 6.42019 2.42886C6.45349 2.42886 6.52009 2.43774 6.5778 2.49325L9.71672 5.63254C10.2628 6.17648 10.5625 6.90248 10.5625 7.67284C10.5625 8.21678 10.4071 8.73187 10.1274 9.18253L8.14725 7.20213C7.88753 6.94237 7.46575 6.94237 7.20604 7.20213C6.94632 7.46188 6.94632 7.88371 7.20604 8.14345L9.18621 10.1238C8.07406 10.8076 6.5978 10.6767 5.63658 9.71312L5.63433 9.71319ZM4.66425 46.6277C3.74964 46.7787 2.84173 46.4901 2.17575 45.824C1.50976 45.158 1.21675 44.2522 1.37212 43.3374C1.70733 41.3682 2.15574 39.4388 2.70631 37.5538L10.4448 45.2932C8.56009 45.8438 6.63118 46.2925 4.66425 46.6277ZM11.881 44.845L3.15657 36.1195C5.61842 28.533 9.78743 21.7285 15.2175 16.1558L18.0367 18.9753L13.4837 23.5289C13.022 23.9907 12.7689 24.6034 12.7689 25.2562C12.7689 25.9089 13.022 26.5217 13.4837 26.9835L21.0182 34.5188C21.4932 34.994 22.1193 35.2337 22.7453 35.2337C23.3713 35.2337 23.9951 34.9962 24.4724 34.5188L29.0254 29.9653L31.8447 32.7849C26.2727 38.2154 19.4689 42.3851 11.8833 44.8472L11.881 44.845ZM42.3672 38.2844L45.5061 41.4237C45.5927 41.5102 45.5927 41.6501 45.5061 41.7367L41.739 45.5043C41.6257 45.6175 41.5392 45.6175 41.4259 45.5043L38.287 42.365C37.7409 41.8211 37.4412 41.0951 37.4412 40.3247C37.4412 39.7808 37.5966 39.2657 37.8763 38.815L39.8565 40.7954C39.9875 40.9264 40.1562 40.9908 40.3271 40.9908C40.498 40.9908 40.669 40.9264 40.7977 40.7954C41.0575 40.5357 41.0575 40.1138 40.7977 39.8541L38.8176 37.8737C39.9297 37.1899 41.406 37.3208 42.3672 38.2844Z" fill="#80011D"/>
</svg>
