<svg width="48" height="48" viewBox="0 0 48 48" fill="none" xmlns="http://www.w3.org/2000/svg">
<path d="M1.9076 22.8573C2.13926 23.312 12.3497 25.989 13.0613 26.2378C14.3419 26.6046 15.7212 26.3622 16.8001 25.5814C17.879 24.7985 18.5376 23.5629 18.5869 22.2309L18.9901 11.9349C19.0995 9.81345 17.6409 7.93013 15.5581 7.50758C8.33389 5.86022 0.723079 11.3858 0.0284406 18.7646C-0.156031 20.3733 0.566958 21.95 1.9076 22.8573ZM16.9486 19.6483C15.5843 19.1571 14.0657 19.3716 12.8924 20.2211C11.7169 21.0705 11.0391 22.4454 11.0798 23.8954L7.87951 22.986C8.15622 20.8517 9.29948 18.9255 11.037 17.6557C12.7766 16.388 14.9601 15.8882 17.0773 16.2764L16.9486 19.6483ZM15.7731 24.1871C14.913 24.7599 13.819 24.8435 12.8817 24.4102C12.6221 23.3549 13.0275 22.2481 13.9091 21.611C14.7886 20.9739 15.9683 20.9331 16.8886 21.5101C17.0065 22.5355 16.5861 23.55 15.7731 24.1871ZM1.6673 18.9276C1.99763 16.1777 3.32109 13.6423 5.391 11.8C7.45877 9.95743 10.1293 8.93426 12.8986 8.92355C14.6146 8.92355 16.8368 9.20669 17.1886 11.1887C14.5223 10.9549 11.8475 11.5533 9.53494 12.9047C8.67694 13.4709 5.00469 15.7704 6.30886 16.8858C6.66707 17.1968 7.2076 17.1582 7.51863 16.8C9.9146 13.9943 13.5331 12.5357 17.2057 12.8961L17.1456 14.5606C14.6445 14.1745 12.092 14.7901 10.0411 16.2744C7.99258 17.7588 6.61121 19.9917 6.19723 22.4883L3.55459 21.7418C2.32335 21.39 1.52574 20.1996 1.6673 18.9276Z" fill="#80011D"/>
<path d="M29.0709 9.4126C28.5968 9.4126 28.2129 9.79655 28.2129 10.2706C28.2129 10.7446 28.5968 11.1286 29.0709 11.1286C29.5449 11.1286 29.9289 10.7446 29.9289 10.2706C29.9289 9.79655 29.5449 9.4126 29.0709 9.4126Z" fill="#80011D"/>
<path d="M44.13 9.45539C42.2553 7.58926 39.7221 6.53819 37.0771 6.52962H26.5752C25.5027 6.55107 24.5567 7.23535 24.1985 8.24563C23.4714 8.38934 22.7185 8.22847 22.1157 7.79947C21.5108 7.37261 21.1097 6.71407 21.0068 5.9805C20.9339 5.26192 21.1677 4.54548 21.6482 4.00707C22.1308 3.46868 22.815 3.15764 23.5379 3.14907H35.2237C36.4421 3.32925 39.9685 1.53603 38.5099 0.163225C38.3254 0.0302339 38.0938 -0.0255348 37.8685 0.0109323C37.6433 0.0495427 37.4417 0.173955 37.3087 0.360568C36.8261 1.03198 36.0517 1.43092 35.2237 1.43306H23.5379C22.4075 1.43091 21.3243 1.87707 20.5263 2.67715C19.3294 3.9041 18.9776 5.72735 19.634 7.31035C20.2882 8.8955 21.824 9.93801 23.5379 9.96156H24.1042C24.4495 12.5291 26.3371 14.6227 28.8575 15.2297C28.1882 15.9268 27.9651 16.9414 28.2826 17.8552L28.8575 19.3138C29.0333 19.7535 29.5331 19.9701 29.9728 19.7942C30.4125 19.6183 30.6292 19.1185 30.4533 18.6789L29.8784 17.2288C29.8055 17.0508 29.8291 16.847 29.9385 16.6883L30.7965 15.4185H34.1084L33.9024 15.7188C33.4756 16.3472 33.3855 17.1474 33.6622 17.8552L34.2371 19.3138C34.3207 19.5261 34.4859 19.6956 34.6961 19.7857C34.9042 19.8757 35.1401 19.8779 35.3525 19.7942C35.5648 19.7106 35.7343 19.5454 35.8244 19.3352C35.9145 19.1271 35.9166 18.8912 35.8329 18.6788L35.2581 17.2288C35.1916 17.0487 35.213 16.8492 35.3181 16.6883L36.1761 15.4184C37.624 15.2962 39.029 15.9418 39.8806 17.1173C40.73 18.2949 40.9037 19.8307 40.3374 21.1671C40.2302 21.4095 40.0972 21.639 39.9428 21.8535C37.92 21.9715 36.0303 22.9002 34.7004 24.4275C34.3743 24.7085 34.1963 25.1246 34.2242 25.5558C34.2499 25.9848 34.4773 26.3773 34.8377 26.6154C35.7643 27.0616 36.8218 27.1581 37.8149 26.89C37.5661 28.2199 37.5404 30.0732 38.9303 30.4592C39.4301 30.5279 39.9363 30.3606 40.2945 30.0045C41.8561 28.6446 42.7871 26.7012 42.8685 24.6335C45.2366 22.9153 46.7381 20.249 46.9805 17.334C47.2229 14.4168 46.1828 11.5404 44.13 9.45539ZM45.3312 16.3194C44.2952 16.9329 43.1026 17.2311 41.8992 17.1774C41.5303 16.3301 40.9619 15.5858 40.2433 15.0067C41.423 13.7132 42.2339 12.1281 42.5942 10.4164C44.2866 11.9222 45.2776 14.0628 45.3312 16.3282V16.3194ZM25.7518 9.0776C25.7518 8.60355 26.1357 8.2196 26.6098 8.2196H33.431C33.7935 10.075 33.4889 11.9969 32.573 13.6507H30.3594C27.8347 13.6379 25.784 11.6022 25.7518 9.0776ZM34.4521 13.7022C35.1943 11.9948 35.4345 10.1115 35.147 8.27111C37.1118 8.21963 39.3426 8.27111 41.0589 9.30071C40.8487 11.1197 40.0314 12.8142 38.7422 14.1141C37.5925 13.5478 35.7133 13.7022 34.4521 13.7022ZM39.4285 28.4599C39.3513 27.7349 39.4778 27.0034 39.7974 26.3492C40.0119 25.933 39.9304 25.4268 39.6001 25.0986C39.2676 24.7683 38.7614 24.6911 38.3474 24.9077C37.6996 25.2273 36.9746 25.3625 36.2539 25.2938C37.7811 23.8695 39.8918 22.9686 41.0072 23.8695C41.5134 25.0193 40.8699 26.924 39.4285 28.4341V28.4599ZM42.3714 22.8314C42.1848 22.6061 41.9725 22.4045 41.7365 22.2307C41.6593 22.1535 41.8824 21.9562 41.8996 21.8361C42.32 20.9009 42.483 19.8691 42.3715 18.8502C43.3196 18.8309 44.2548 18.6379 45.1342 18.284C44.7438 20.0643 43.7721 21.6645 42.3714 22.8314Z" fill="#80011D"/>
<path d="M33.7301 34.7062C33.256 34.7062 32.8721 35.0901 32.8721 35.5642C32.8721 36.0382 33.256 36.4222 33.7301 36.4222C34.2041 36.4222 34.5881 36.0382 34.5881 35.5642C34.5881 35.0901 34.2041 34.7062 33.7301 34.7062Z" fill="#80011D"/>
<path d="M37.6515 33.2906C34.567 31.3408 31.1455 29.983 27.5614 29.2924C26.7034 27.3018 21.727 22.6859 19.8397 25.234C19.0245 26.3065 20.0456 27.748 20.3973 28.9577C15.8285 29.3739 11.4417 30.9611 7.66433 33.5652L7.26106 32.3554C6.6047 30.4271 4.78574 29.1336 2.74795 29.1465C2.11948 29.1443 1.52956 29.4489 1.16494 29.9594C0.800294 30.4699 0.705911 31.1263 0.911831 31.7205L2.47342 36.3451C2.482 36.3837 2.482 36.4266 2.47342 36.4652L0.911831 41.1585C0.710199 41.7527 0.806724 42.4047 1.17138 42.9153C1.53389 43.4258 2.12163 43.7304 2.74796 43.7325C4.78355 43.7282 6.58752 42.4262 7.23532 40.4979L7.64716 39.2795C11.18 41.6947 15.2448 43.2241 19.4961 43.7325V45.663C19.5133 46.6197 20.101 47.4734 20.989 47.8294C21.8771 48.1855 22.8916 47.9732 23.563 47.2932L27.0894 43.5952C30.8432 42.9388 34.4317 41.551 37.6512 39.5111C38.7516 38.8612 39.4273 37.6793 39.4273 36.4008C39.4273 35.1224 38.7519 33.9406 37.6515 33.2906ZM29.4235 40.8668L29.6036 41.2701C21.8171 43.5245 13.4216 41.8256 7.12373 36.7227C7.02292 36.6455 6.96285 36.5275 6.96285 36.401C6.96285 36.2744 7.02292 36.1564 7.12373 36.0792C13.4688 30.9805 21.8984 29.2948 29.7151 31.5575C28.1986 34.4533 28.0914 37.8835 29.4235 40.8668ZM21.2207 26.2119C22.8788 26.6173 24.3395 27.5997 25.3391 28.9833C24.2837 28.8782 23.2241 28.8395 22.1645 28.8631L21.2207 26.2119ZM5.61358 39.9399C5.19959 41.1712 4.04771 42.0013 2.74783 42.0077C2.67919 42.012 2.61269 41.982 2.57194 41.9262C2.52904 41.8704 2.51831 41.7975 2.54191 41.7331L4.09488 37.057C4.23216 36.6624 4.23216 36.2334 4.09488 35.8387L2.53329 31.0424C2.55045 30.9373 2.64054 30.8601 2.74778 30.8622C4.04766 30.8687 5.1995 31.6988 5.61354 32.93L6.18841 34.646C5.60283 35.0407 5.25106 35.7014 5.25106 36.4092C5.25106 37.117 5.60284 37.7777 6.18841 38.1723L5.61358 39.9399ZM22.3189 46.1433C22.1409 46.3407 21.8599 46.4072 21.6132 46.3085C21.3665 46.212 21.2057 45.9717 21.2121 45.7057V43.8953C22.2803 43.9726 23.3528 43.9726 24.421 43.8953L22.3189 46.1433ZM36.7932 38.018C35.0279 39.1055 33.1596 40.0171 31.2163 40.7379C29.9015 38.2303 29.8371 35.2509 31.0447 32.6899L31.3279 32.0979C33.2198 32.8186 35.0387 33.7174 36.759 34.7835C37.3382 35.1116 37.7006 35.7251 37.7071 36.3901C37.7136 37.0571 37.366 37.677 36.7932 38.018Z" fill="#80011D"/>
</svg>
