<svg width="49" height="48" viewBox="0 0 49 48" fill="none" xmlns="http://www.w3.org/2000/svg">
<path d="M39.1868 48C37.2492 48 36.2743 47.4902 35.3298 46.9986C34.4504 46.5356 33.6096 46.1091 31.9076 46.1091C30.2056 46.1091 29.3647 46.5437 28.4853 46.9986C27.5409 47.4901 26.566 48 24.6283 48C22.6907 48 21.7158 47.4902 20.7714 46.9986C19.8919 46.5356 19.0511 46.1091 17.3491 46.1091C15.6471 46.1091 14.8062 46.5437 13.9268 46.9986C12.9824 47.4901 12.0075 48 10.0699 48C8.13222 48 7.15733 47.4902 6.2129 46.9986C5.33346 46.5356 4.49261 46.1091 2.79062 46.1091C2.52658 46.1091 2.31738 45.9019 2.31738 45.6358C2.31738 45.3718 2.52455 45.1626 2.79062 45.1626C4.72825 45.1626 5.70314 45.6724 6.64757 46.1639C7.52701 46.627 8.36786 47.0535 10.0699 47.0535C11.7718 47.0535 12.6127 46.6188 13.4921 46.1639C14.4366 45.6724 15.4115 45.1626 17.3491 45.1626C19.2867 45.1626 20.2616 45.6724 21.206 46.1639C22.0855 46.627 22.9263 47.0535 24.6283 47.0535C26.3303 47.0535 27.1712 46.6188 28.0506 46.1639C28.995 45.6724 29.9699 45.1626 31.9076 45.1626C33.8452 45.1626 34.8201 45.6724 35.7645 46.1639C36.644 46.627 37.4848 47.0535 39.1868 47.0535C40.8888 47.0535 41.7296 46.6188 42.6091 46.1639C43.5535 45.6724 44.5284 45.1626 46.466 45.1626C46.7301 45.1626 46.9393 45.3698 46.9393 45.6358C46.9393 45.8999 46.7321 46.1091 46.466 46.1091C44.7641 46.1091 43.9232 46.5437 43.0438 46.9986C42.0993 47.5003 41.1265 48 39.1868 48Z" fill="#80011D"/>
<path d="M39.1868 43.5015C37.2492 43.5015 36.2743 42.9917 35.3298 42.5002C34.4504 42.0372 33.6096 41.6107 31.9076 41.6107C30.2056 41.6107 29.3647 42.0453 28.4853 42.5002C27.5409 42.9917 26.566 43.5015 24.6283 43.5015C22.6907 43.5015 21.7158 42.9917 20.7714 42.5002C19.8919 42.0372 19.0511 41.6107 17.3491 41.6107C15.6471 41.6107 14.8062 42.0453 13.9268 42.5002C12.9824 42.9917 12.0075 43.5015 10.0699 43.5015C8.13222 43.5015 7.15733 42.9917 6.2129 42.5002C5.33346 42.0372 4.49261 41.6107 2.79062 41.6107C2.52658 41.6107 2.31738 41.4035 2.31738 41.1374C2.31738 40.8734 2.52455 40.6642 2.79062 40.6642C4.72825 40.6642 5.70314 41.174 6.64757 41.6655C7.52701 42.1286 8.36786 42.5551 10.0699 42.5551C11.7718 42.5551 12.6127 42.1204 13.4921 41.6655C14.4366 41.174 15.4115 40.6642 17.3491 40.6642C19.2867 40.6642 20.2616 41.174 21.206 41.6655C22.0855 42.1286 22.9263 42.5551 24.6283 42.5551C26.3303 42.5551 27.1712 42.1204 28.0506 41.6655C28.995 41.174 29.9699 40.6642 31.9076 40.6642C33.8452 40.6642 34.8201 41.174 35.7645 41.6655C36.644 42.1286 37.4848 42.5551 39.1868 42.5551C40.8888 42.5551 41.7296 42.1204 42.6091 41.6655C43.5535 41.174 44.5284 40.6642 46.466 40.6642C46.7301 40.6642 46.9393 40.8714 46.9393 41.1374C46.9393 41.4015 46.7321 41.6107 46.466 41.6107C44.7641 41.6107 43.9232 42.0453 43.0438 42.5002C42.0993 42.9897 41.1265 43.5015 39.1868 43.5015Z" fill="#80011D"/>
<path d="M39.1868 39.0007C37.2492 39.0007 36.2743 38.4909 35.3298 37.9994C34.4504 37.5363 33.6096 37.1098 31.9076 37.1098C30.2056 37.1098 29.3647 37.5444 28.4853 37.9994C27.5409 38.4909 26.566 39.0007 24.6283 39.0007C22.6907 39.0007 21.7158 38.4909 20.7714 37.9994C19.8919 37.5363 19.0511 37.1098 17.3491 37.1098C15.6471 37.1098 14.8062 37.5444 13.9268 37.9994C12.9824 38.4909 12.0075 39.0007 10.0699 39.0007C8.13222 39.0007 7.15733 38.4909 6.2129 37.9994C5.33346 37.5363 4.49261 37.1098 2.79062 37.1098C2.52658 37.1098 2.31738 36.9026 2.31738 36.6366C2.31738 36.3725 2.52455 36.1633 2.79062 36.1633C4.72825 36.1633 5.70314 36.6731 6.64757 37.1646C7.52701 37.6277 8.36786 38.0542 10.0699 38.0542C11.7718 38.0542 12.6127 37.6196 13.4921 37.1646C14.4366 36.6731 15.4115 36.1633 17.3491 36.1633C19.2867 36.1633 20.2616 36.6731 21.206 37.1646C22.0855 37.6277 22.9263 38.0542 24.6283 38.0542C26.3303 38.0542 27.1712 37.6196 28.0506 37.1646C28.995 36.6731 29.9699 36.1633 31.9076 36.1633C33.8452 36.1633 34.8201 36.6731 35.7645 37.1646C36.644 37.6277 37.4848 38.0542 39.1868 38.0542C40.8888 38.0542 41.7296 37.6196 42.6091 37.1646C43.5535 36.6731 44.5284 36.1633 46.466 36.1633C46.7301 36.1633 46.9393 36.3705 46.9393 36.6366C46.9393 36.9006 46.7321 37.1098 46.466 37.1098C44.7641 37.1098 43.9232 37.5444 43.0438 37.9994C42.0993 38.4909 41.1265 39.0007 39.1868 39.0007Z" fill="#80011D"/>
<path d="M47.8369 31.2581H14.6373C14.3733 31.2581 14.1641 31.0509 14.1641 30.7849C14.1641 30.5208 14.3712 30.3116 14.6373 30.3116L47.8369 30.3137C48.1009 30.3137 48.3101 30.5208 48.3101 30.7869C48.3101 31.0509 48.1029 31.2581 47.8369 31.2581Z" fill="#80011D"/>
<path d="M8.69078 31.2581H2.38437C2.12033 31.2581 1.91113 31.0509 1.91113 30.7849C1.91113 30.5208 2.1183 30.3116 2.38437 30.3116H8.69078C8.95482 30.3116 9.16402 30.5188 9.16402 30.7849C9.16402 31.0509 8.95482 31.2581 8.69078 31.2581Z" fill="#80011D"/>
<path d="M23.136 29.6418C22.8232 29.6418 22.5693 29.3858 22.5693 29.0751V17.797C22.5693 17.4842 22.8252 17.2303 23.136 17.2303C23.4487 17.2303 23.7026 17.4863 23.7026 17.797V29.0751C23.7026 29.3879 23.4487 29.6418 23.136 29.6418Z" fill="#80011D"/>
<path d="M44.5775 26.1546C44.2647 26.1546 44.0108 25.8987 44.0108 25.588L44.0088 13.8263C44.0088 13.5135 44.2647 13.2596 44.5754 13.2596C44.8882 13.2596 45.1421 13.5156 45.1421 13.8263V25.5781C45.1441 25.899 44.8882 26.1546 44.5775 26.1546Z" fill="#80011D"/>
<path d="M44.5774 29.6416C44.2646 29.6416 44.0107 29.3857 44.0107 29.075V24.4524C44.0107 24.1396 44.2667 23.8857 44.5774 23.8857C44.8902 23.8857 45.144 24.1417 45.144 24.4524V29.075C45.144 29.3878 44.8881 29.6416 44.5774 29.6416Z" fill="#80011D"/>
<path d="M31.5785 29.6335C31.2657 29.6335 31.0118 29.3776 31.0118 29.0668L31.0098 18.9887H26.7182V29.0668C26.7182 29.3796 26.4623 29.6335 26.1516 29.6335C25.8388 29.6335 25.585 29.3776 25.585 29.0668V18.4199C25.585 18.1071 25.8409 17.8533 26.1516 17.8533H31.5788C31.8916 17.8533 32.1454 18.1092 32.1454 18.4199V29.0648C32.1454 29.3775 31.8892 29.6335 31.5785 29.6335Z" fill="#80011D"/>
<path d="M41.6934 22.0028H33.8557C33.5429 22.0028 33.2891 21.7469 33.2891 21.4362V15.6029C33.2891 15.2901 33.545 15.0363 33.8557 15.0363H41.6934C42.0061 15.0363 42.26 15.2922 42.26 15.6029V21.4362C42.26 21.7489 42.0142 22.0028 41.6934 22.0028ZM34.4245 20.8695H41.1271V16.1717H34.4245V20.8695Z" fill="#80011D"/>
<path d="M29.9514 25.1511C29.6386 25.1511 29.3848 24.8952 29.3848 24.5844V23.1749C29.3848 22.8621 29.6407 22.6083 29.9514 22.6083C30.2642 22.6083 30.518 22.8642 30.518 23.1749V24.5844C30.518 24.8972 30.2642 25.1511 29.9514 25.1511Z" fill="#80011D"/>
<path d="M33.855 13.3627C32.5978 13.3627 31.5762 12.3411 31.5762 11.0839C31.5762 9.82664 32.5978 8.80505 33.855 8.80505C35.1122 8.80505 36.1338 9.82664 36.1338 11.0839C36.1338 12.3411 35.1122 13.3627 33.855 13.3627ZM33.855 9.94041C33.2213 9.94041 32.7115 10.4502 32.7115 11.0839C32.7115 11.7175 33.2213 12.2273 33.855 12.2273C34.4887 12.2273 34.9985 11.7175 34.9985 11.0839C34.9985 10.4502 34.4887 9.94041 33.855 9.94041Z" fill="#80011D"/>
<path d="M46.3834 31.2015H21.3303C21.0175 31.2015 20.7637 30.9456 20.7637 30.6349V29.0649C20.7637 28.7521 21.0196 28.4983 21.3303 28.4983H46.3834C46.6961 28.4983 46.95 28.7542 46.95 29.0649V30.6349C46.95 30.9477 46.6941 31.2015 46.3834 31.2015ZM21.897 30.0682H45.8145V29.6336H21.897V30.0682Z" fill="#80011D"/>
<path d="M16.5471 36.561C16.3399 36.561 16.1307 36.4372 16.0373 36.2401C15.9987 36.1548 15.0441 34.1604 14.0895 30.945C13.5797 29.2064 13.1634 27.4293 12.8607 25.6785C12.095 21.2346 12.0666 17.0001 12.7571 13.0859C12.7673 13.0575 12.7673 13.0108 12.7754 12.9722V12.9539C12.7937 12.83 12.8221 12.7183 12.8424 12.5944C12.8526 12.5274 12.8709 12.4624 12.881 12.4055L12.8993 12.3019C12.9176 12.1882 12.946 12.0745 12.9745 11.9607C13.0415 11.6297 13.1248 11.2986 13.2101 10.9675C13.2852 10.6649 13.598 10.476 13.9006 10.5613C14.2032 10.6365 14.3921 10.9493 14.3068 11.2519C14.2317 11.5646 14.1565 11.8856 14.0793 12.2064C14.0509 12.3202 14.0326 12.4238 14.0123 12.5375L13.994 12.6411C13.9839 12.6979 13.9757 12.7548 13.9554 12.8198V12.83C13.9372 12.9437 13.9087 13.0574 13.8884 13.1712V13.1895C13.8783 13.228 13.8783 13.2565 13.8701 13.293C13.1999 17.083 13.2364 21.1957 13.9737 25.5076C14.2662 27.2177 14.6724 28.9482 15.1741 30.6502C16.09 33.7698 17.0467 35.7542 17.0548 35.7745C17.1868 36.0588 17.0731 36.398 16.7908 36.53C16.7177 36.5422 16.6324 36.5605 16.547 36.5605L16.5471 36.561Z" fill="#80011D"/>
<path d="M10.4574 39.0293C10.2401 39.0293 10.0329 38.9054 9.93745 38.6983C9.88058 38.5744 8.53807 35.5501 8.1217 30.832C7.80079 27.2493 8.11155 23.6765 9.02958 20.2262C9.67343 17.7869 10.6361 15.3963 11.8852 13.1175C11.9888 12.9286 12.1025 12.7295 12.2061 12.5406C12.3564 12.2664 12.7078 12.171 12.982 12.3335C13.2562 12.4838 13.3516 12.8351 13.1892 13.1093C13.0856 13.2982 12.982 13.479 12.8764 13.6679C11.6659 15.8715 10.7397 18.1768 10.1162 20.5228C9.22662 23.8496 8.93415 27.2821 9.2469 30.733C9.64295 35.2419 10.9489 38.201 10.9672 38.2296C11.0992 38.5139 10.9672 38.8531 10.6828 38.977C10.6097 39.0217 10.5346 39.0293 10.4574 39.0293Z" fill="#80011D"/>
<path d="M11.8105 33.7832C11.4612 33.7832 11.1017 33.7446 10.7321 33.6593C9.48504 33.3852 8.56697 32.7434 8.52839 32.7149C8.27248 32.5362 8.21561 32.1767 8.39637 31.9208C8.5751 31.6649 8.93462 31.608 9.19048 31.7888C9.31437 31.8741 12.1781 33.8584 14.266 31.4577C14.4732 31.2221 14.8327 31.2018 15.0703 31.4009C15.3059 31.608 15.3262 31.9675 15.1272 32.2052C14.2112 33.2532 13.086 33.7832 11.8105 33.7832Z" fill="#80011D"/>
<path d="M11.1301 26.5425C9.68405 26.5425 8.70099 26.1261 8.63397 26.0977C8.34962 25.9738 8.2176 25.6448 8.3415 25.3503C8.46539 25.0659 8.79442 24.9339 9.08892 25.0578C9.11735 25.068 10.9981 25.8418 13.2383 25.0476C13.5308 24.9441 13.8619 25.0944 13.9654 25.397C14.069 25.6895 13.9187 26.0205 13.6161 26.1241C12.7082 26.4369 11.8572 26.5425 11.1301 26.5425Z" fill="#80011D"/>
<path d="M10.8929 21.3325C9.71085 21.3325 9.22948 20.8308 9.1543 20.7455L10.0053 19.9981L9.98701 19.9798C9.99717 19.99 10.6491 20.5566 12.6436 19.8376C12.9361 19.734 13.2671 19.8843 13.3707 20.1788C13.4743 20.4713 13.324 20.8024 13.0295 20.9059C12.142 21.2289 11.4413 21.3325 10.8929 21.3325Z" fill="#80011D"/>
<path d="M13.5124 13.8358H13.4556C13.1428 13.8074 12.9173 13.523 12.9458 13.2123L12.9641 13.0417C12.9823 12.8914 13.0026 12.7208 13.0209 12.5217V12.4831C13.0311 12.4263 13.0311 12.3694 13.0392 12.3125C13.0494 12.2658 13.0494 12.2171 13.0575 12.1805V12.1521C13.0575 12.1236 13.0676 12.0952 13.0676 12.0566C13.2565 10.6857 13.6343 8.59576 14.3817 6.38402C15.2043 3.95488 16.2909 1.93198 17.6049 0.380207C17.804 0.144609 18.1635 0.116173 18.4093 0.313181C18.655 0.512221 18.6733 0.871706 18.4763 1.11748C17.2576 2.55342 16.2462 4.4545 15.4704 6.75161C14.7514 8.88828 14.3838 10.901 14.203 12.2251V12.2434C14.203 12.2616 14.1928 12.2819 14.1928 12.3104V12.3388C14.1827 12.3855 14.1827 12.4241 14.1746 12.4708V12.481C14.1644 12.5379 14.1644 12.5846 14.1563 12.6414V12.68C14.138 12.8689 14.1177 13.0395 14.0994 13.1817L14.0811 13.3523C14.0507 13.6184 13.7948 13.8358 13.5124 13.8358Z" fill="#80011D"/>
<path d="M13.5119 13.8359C13.4367 13.8359 13.3616 13.8177 13.2946 13.7892C13.2194 13.7608 13.1524 13.7222 13.0772 13.6938C12.9534 13.6369 12.8213 13.5617 12.6812 13.4866C12.5776 13.4196 12.474 13.3627 12.3887 13.2977C12.2851 13.2226 12.1714 13.1474 12.0759 13.0702C11.5662 12.6742 11.1315 12.1725 10.772 11.5957C9.96772 10.2999 9.62856 8.67509 9.80727 7.01168C9.88242 6.32114 10.0429 5.6306 10.2886 4.97048C11.621 1.38774 15.1001 -0.702128 18.2116 0.215835C18.5142 0.301138 18.6848 0.622043 18.5893 0.924677C18.504 1.2273 18.1831 1.39791 17.8805 1.30245C15.3376 0.546916 12.4637 2.3322 11.3385 5.36655C11.1212 5.94338 10.979 6.53846 10.9222 7.13353C10.7719 8.55122 11.0542 9.92216 11.7265 11.0006C12.0189 11.4637 12.3703 11.8618 12.7765 12.1827C12.8516 12.2497 12.9369 12.3066 13.0223 12.3614C13.0974 12.4081 13.1726 12.465 13.2497 12.5036C13.3533 12.5706 13.4569 12.6173 13.5625 12.664C13.6194 12.6925 13.6762 12.7107 13.7331 12.7392C14.0256 12.8631 14.1576 13.1921 14.0357 13.4866C13.9362 13.7039 13.7292 13.8359 13.5119 13.8359Z" fill="#80011D"/>
<path d="M11.9329 14.5836C11.7826 14.5836 11.6404 14.5268 11.5267 14.413L11.3561 14.2424C11.1388 14.0149 11.1388 13.6554 11.3662 13.4381C11.5937 13.2208 11.9532 13.2208 12.1705 13.4483L12.3411 13.6189C12.5585 13.8463 12.5483 14.2058 12.331 14.4232C12.2172 14.5349 12.0751 14.5836 11.9329 14.5836Z" fill="#80011D"/>
<path d="M9.19248 12.0958C9.06859 12.0958 8.93657 12.0572 8.83299 11.9719C6.82834 10.3552 3.74729 8.28559 0.457184 7.64174C0.144406 7.58487 -0.0526069 7.28225 0.0123863 6.97965C0.0692579 6.66687 0.371882 6.46985 0.674485 6.53485C4.1902 7.2193 7.4421 9.39252 9.54995 11.0844C9.79571 11.2834 9.8343 11.6429 9.63526 11.8785C9.52152 12.0308 9.36106 12.0958 9.19248 12.0958Z" fill="#80011D"/>
<path d="M11.9321 14.5838C11.8366 14.5838 11.7533 14.5655 11.6579 14.5168C11.3837 14.3665 11.2801 14.0253 11.4304 13.751C11.4974 13.6272 11.5624 13.4951 11.6193 13.355C11.7229 13.091 11.8082 12.8167 11.865 12.5222C11.9219 12.2095 12.2144 12.0125 12.5271 12.0693C12.8399 12.1262 13.0369 12.4187 12.9801 12.7314C12.913 13.0909 12.8094 13.4504 12.6673 13.7815C12.5921 13.9602 12.517 14.1308 12.4317 14.2912C12.3301 14.4781 12.1413 14.5838 11.9321 14.5838Z" fill="#80011D"/>
<path d="M0.570012 7.65384C0.456274 7.65384 0.342536 7.62541 0.249107 7.55026C-0.00680473 7.37153 -0.0717978 7.02017 0.106933 6.75614C1.95924 4.0894 5.9766 3.54101 9.26681 5.50911C9.8152 5.84017 10.3168 6.21795 10.7596 6.64446C10.9871 6.86178 10.9952 7.22129 10.7779 7.44876C10.5606 7.67624 10.2011 7.68436 9.9736 7.46704C9.58568 7.09739 9.15105 6.76834 8.6778 6.48403C5.90139 4.83685 2.544 5.23294 1.03304 7.4163C0.929454 7.56863 0.748738 7.65384 0.570012 7.65384Z" fill="#80011D"/>
<path d="M5.45714 21.7105C5.382 21.7105 5.30685 21.6922 5.22967 21.6638C4.94533 21.5399 4.81331 21.2007 4.9372 20.9164C7.00684 16.1983 12.1208 12.8146 13.6343 11.8985C13.8984 11.738 14.2497 11.8233 14.4102 12.0873C14.5706 12.3514 14.4853 12.7027 14.2213 12.8632C13.1916 13.4867 7.95336 16.844 5.96925 21.3711C5.88191 21.5782 5.67447 21.7105 5.45714 21.7105Z" fill="#80011D"/>
<path d="M13.9287 12.9385C13.7967 12.9385 13.6647 12.8918 13.5591 12.7963C13.5205 12.7578 13.4738 12.7293 13.4352 12.6928C13.4352 12.6928 13.425 12.6928 13.425 12.6826C13.3966 12.6643 13.3783 12.644 13.3499 12.6257C13.3397 12.6257 13.3397 12.6156 13.3316 12.6156C13.3214 12.6054 13.3133 12.6054 13.3133 12.5973C13.2849 12.579 13.2564 12.5506 13.2179 12.5303C12.9619 12.3515 12.897 12.0002 13.0757 11.7463C13.2544 11.4904 13.6058 11.4254 13.8597 11.6041C13.8982 11.6326 13.9348 11.661 13.9734 11.6894C13.9835 11.6996 14.0018 11.7077 14.0201 11.7179C14.0587 11.7463 14.0953 11.7747 14.1338 11.8133C14.1907 11.86 14.2476 11.8986 14.2943 11.9453C14.5299 12.1525 14.5583 12.512 14.3512 12.7496C14.2496 12.8715 14.0892 12.9385 13.9287 12.9385Z" fill="#80011D"/>
<path d="M5.45704 21.7104C5.30674 21.7104 5.15442 21.6434 5.04068 21.5317C3.01778 19.328 3.33053 15.595 5.76777 13.0337C6.68376 12.069 7.81911 11.3601 9.03776 11.0006C9.79329 10.7732 10.5509 10.6879 11.2963 10.7447C11.6091 10.763 11.8447 11.0372 11.8264 11.35C11.8081 11.6628 11.5339 11.8984 11.2211 11.8801C10.6158 11.8334 9.99233 11.9085 9.37692 12.0974C8.34717 12.4102 7.3926 13.0053 6.6066 13.8278C4.5837 15.9543 4.2709 19.009 5.89776 20.7759C6.10492 21.0033 6.0968 21.3628 5.85917 21.5802C5.73121 21.6533 5.58906 21.7104 5.45704 21.7104Z" fill="#80011D"/>
<path d="M13.1708 13.3062C13.0002 13.3062 12.8397 13.231 12.726 13.099C12.527 12.8533 12.5656 12.4937 12.8113 12.3049C14.3143 11.0863 19.6663 7.08725 25.2614 6.70925C25.5742 6.69097 25.8484 6.92657 25.8667 7.23933C25.8849 7.55211 25.6493 7.8263 25.3366 7.8446C19.938 8.21425 14.5498 12.3637 13.5198 13.1943C13.4162 13.2593 13.2947 13.3062 13.1708 13.3062Z" fill="#80011D"/>
<path d="M25.3001 7.82438C25.0929 7.82438 24.9041 7.71064 24.7984 7.52175C23.5697 5.17794 20.2895 4.3635 17.3305 5.66945C16.5749 6.00051 15.9026 6.44531 15.3177 6.9835C15.0902 7.20083 14.7307 7.18254 14.5134 6.95507C14.2961 6.72759 14.3144 6.3681 14.5418 6.15077C15.2121 5.52725 15.9981 5.0073 16.8674 4.62951C20.3649 3.08798 24.2886 4.11972 25.8021 6.99365C25.9443 7.26784 25.8407 7.61717 25.5665 7.75937C25.4792 7.80406 25.3935 7.82438 25.3001 7.82438Z" fill="#80011D"/>
<path d="M23.0685 18.5236C22.9182 18.5236 22.7659 18.4668 22.6522 18.3449C19.5609 15.0546 14.02 13.769 12.9438 13.5516C12.6411 13.4846 12.4421 13.182 12.499 12.8814C12.5558 12.5788 12.8686 12.3797 13.1692 12.4366C14.7676 12.7676 20.2207 14.1203 23.4725 17.569C23.6898 17.7965 23.6796 18.156 23.444 18.3733C23.3425 18.4688 23.2107 18.5236 23.0685 18.5236Z" fill="#80011D"/>
<path d="M45.4832 14.9694C45.3512 14.9694 45.2273 14.9227 45.1237 14.8374L33.8169 5.57401L22.9938 14.281C22.8699 14.3846 22.7013 14.4232 22.5408 14.3948C22.3804 14.3663 22.2382 14.2709 22.1529 14.1307C21.9457 13.7814 21.6898 13.4605 21.3872 13.1579C21.2735 13.0441 21.2166 12.8938 21.2267 12.7334C21.2369 12.5729 21.312 12.4307 21.4339 12.3272L33.4213 2.36916C33.6284 2.19856 33.931 2.19856 34.1402 2.36916L46.7224 12.701C46.9499 12.8899 46.9966 13.2209 46.826 13.4667L45.9465 14.7341C45.8511 14.8661 45.7191 14.9514 45.5586 14.9697C45.5403 14.9616 45.5116 14.9694 45.4832 14.9694ZM33.8187 4.27826C33.9426 4.27826 34.0746 4.32498 34.1782 4.41028L45.3711 13.5806L45.5986 13.2495L33.7901 3.54108L22.6154 12.8247C22.6621 12.8917 22.719 12.9486 22.7657 13.0136L33.4672 4.40226C33.5728 4.31695 33.6948 4.27826 33.8187 4.27826Z" fill="#80011D"/>
<path d="M21.793 13.3348C21.6427 13.3348 21.5006 13.278 21.3868 13.1642C20.9339 12.7012 20.4038 12.3234 19.8168 12.0208C18.4459 11.3302 16.9145 11.188 15.6187 11.6247C15.3262 11.7283 15.0033 11.5678 14.8997 11.2754C14.7961 10.9829 14.9566 10.66 15.2491 10.5564C16.8373 10.0181 18.6896 10.1786 20.3246 11.0093C21.0233 11.3688 21.657 11.8217 22.1972 12.3701C22.4146 12.5976 22.4146 12.9571 22.1871 13.1744C22.0855 13.278 21.9352 13.3348 21.793 13.3348Z" fill="#80011D"/>
<path d="M23.0684 18.5239C22.9933 18.5239 22.9181 18.5138 22.8511 18.4772C22.5586 18.3533 22.4266 18.0243 22.5485 17.7399C22.5668 17.6932 22.5871 17.6445 22.6054 17.5977C22.8978 16.8219 22.8897 15.9526 22.5952 15.0833C22.4815 14.7624 22.3393 14.4395 22.1504 14.1389C21.99 13.8749 22.0753 13.5235 22.3393 13.3631C22.6033 13.2026 22.9547 13.2879 23.1152 13.5519C23.3426 13.9297 23.5315 14.3177 23.6635 14.7238C24.0413 15.8389 24.0413 16.9742 23.6534 18.004C23.6351 18.0608 23.6067 18.1279 23.5782 18.1827C23.5051 18.3919 23.2878 18.5239 23.0684 18.5239Z" fill="#80011D"/>
<path d="M13.0678 13.562C12.9723 13.562 12.8789 13.5437 12.7936 13.4949C12.5194 13.3446 12.4158 13.0034 12.5661 12.7292C12.5946 12.6825 12.623 12.6338 12.6413 12.5972C12.7083 12.4936 12.7652 12.3982 12.8302 12.3128C12.8972 12.2174 12.9622 12.1341 13.0292 12.0569C13.0962 11.9818 13.1531 11.9148 13.2079 11.8498C13.2364 11.8213 13.2547 11.7929 13.2831 11.7746C13.5106 11.5573 13.8701 11.5675 14.0874 11.7929C14.3047 12.0204 14.2946 12.3799 14.0691 12.5972L14.0407 12.6256C14.0021 12.6724 13.9554 12.7211 13.9087 12.7759C13.8619 12.8328 13.8051 12.8998 13.7584 12.9648C13.7116 13.0217 13.6731 13.0968 13.6162 13.1821C13.5979 13.2106 13.5776 13.239 13.5695 13.2674C13.4639 13.4584 13.2668 13.562 13.0678 13.562Z" fill="#80011D"/>
</svg>
