<svg width="57" height="48" viewBox="0 0 57 48" fill="none" xmlns="http://www.w3.org/2000/svg">
<path fill-rule="evenodd" clip-rule="evenodd" d="M29.2609 44.8534H10.1278C9.49741 44.8534 8.96827 44.5548 8.59958 43.9859C8.22244 43.4029 8.14082 42.741 8.36317 42.0679L11.794 31.7507L22.5058 35.3192V36.4204C22.5058 37.4372 23.3332 38.2652 24.3493 38.2652C25.3653 38.2652 26.1928 37.4372 26.1928 36.4204V35.4459L37.1834 32.59L40.3356 42.0679C40.4172 42.3129 40.679 42.4424 40.9238 42.3636C41.1687 42.2819 41.2982 42.02 41.2194 41.7749L36.3391 27.0985C35.9366 25.8846 34.8981 25.1016 33.6934 25.1016H31.9626C31.9626 25.0903 31.9654 25.0819 31.9654 25.0706C31.9654 24.4144 31.6305 23.8342 31.1182 23.4483V20.736C31.1182 17.2773 28.1095 14.4609 24.4113 14.4609C20.7131 14.4609 17.7044 17.2745 17.7044 20.736V23.4709C17.2203 23.8567 16.9079 24.42 16.9079 25.0537C16.9079 25.0678 16.9107 25.0847 16.9107 25.0988H15.0109C13.8063 25.0988 12.7678 25.8818 12.3653 27.0957L7.485 41.7721C7.1726 42.7101 7.29362 43.6761 7.82274 44.4929C8.36312 45.3265 9.18212 45.7828 10.1306 45.7828H29.2637C29.5198 45.7828 29.728 45.5744 29.728 45.3181C29.728 45.0618 29.5198 44.8534 29.2637 44.8534L29.2609 44.8534ZM25.2587 36.421C25.2587 36.9252 24.8506 37.3335 24.3468 37.3335C23.8431 37.3335 23.435 36.9251 23.435 36.421V34.4636C23.435 33.9594 23.8431 33.551 24.3468 33.551C24.8506 33.551 25.2587 33.9594 25.2587 34.4636V36.421ZM28.3434 25.1016C28.3434 25.0904 28.3377 25.0819 28.3377 25.0707C28.3377 24.4257 28.94 23.9018 29.6831 23.9018C30.4261 23.9018 31.0284 24.4257 31.0284 25.0707C31.0284 25.0819 31.0228 25.0904 31.0228 25.1016H28.3434ZM20.6426 23.4596V20.8347C20.6426 18.9871 22.3313 17.4831 24.4056 17.4831C26.4798 17.4831 28.1686 18.9871 28.1686 20.8347V23.516C27.707 23.9019 27.4086 24.4511 27.4086 25.0707C27.4086 25.082 27.4114 25.0904 27.4114 25.1017H21.4504C21.4504 25.0876 21.4532 25.0707 21.4532 25.0566C21.4532 24.4145 21.1324 23.8483 20.6398 23.4625L20.6426 23.4596ZM18.6302 20.7361C18.6302 17.7901 21.2224 15.3932 24.4055 15.3932C27.5915 15.3932 30.1808 17.79 30.1808 20.7361V23.0231C30.0204 22.9893 29.8543 22.9696 29.6826 22.9696C29.48 22.9696 29.2858 23.0034 29.0972 23.0485V20.8347C29.0972 18.4745 26.992 16.5536 24.4027 16.5536C21.8162 16.5536 19.7109 18.4745 19.7109 20.8347V23.0175C19.5393 22.9781 19.3619 22.9527 19.179 22.9527C18.9876 22.9527 18.8075 22.9809 18.6302 23.0231L18.6302 20.7361ZM17.8337 25.0566C17.8337 24.4117 18.436 23.8878 19.179 23.8878C19.922 23.8878 20.5243 24.4117 20.5243 25.0566C20.5243 25.0735 20.5159 25.0876 20.5159 25.1017H17.8422C17.8422 25.0848 17.8337 25.0707 17.8337 25.0566ZM13.2432 27.3915C13.5219 26.5522 14.1973 26.0312 15.0079 26.0312H33.6849C34.4927 26.0312 35.1709 26.5522 35.4496 27.3915L36.885 31.7036L26.1898 34.4807V34.461C26.1898 33.4442 25.3623 32.6162 24.3463 32.6162C23.3724 32.6162 22.5788 33.3795 22.5168 34.3371L12.086 30.8643L13.2428 27.3888L13.2432 27.3915ZM39.3422 5.81703C39.7418 5.90153 39.9107 5.97757 39.8938 6.0508C39.5617 7.62523 25.7114 11.8415 21.8927 12.9766C24.1893 10.5319 26.8686 8.84758 29.4522 7.72379C33.8372 5.81704 37.9149 5.51564 39.3422 5.81703ZM10.9074 18.9671C6.17904 20.5725 1.45648 21.2935 0.0687789 20.5415C-0.708 17.7898 5.26709 15.0014 9.29775 13.1258C10.9048 12.3766 12.2136 11.7682 12.7426 11.3035C13.9641 11.3852 16.3846 10.7628 18.881 9.68684C20.9975 8.77431 23.1872 7.53502 24.7576 6.11835C25.7595 5.48182 28.7204 4.34116 31.7882 3.71027C33.5444 3.34975 35.3316 3.15823 36.7895 3.32722C38.1799 3.49058 39.2578 3.98347 39.6856 4.98053C39.7334 5.09601 39.7756 5.21711 39.8094 5.34386C39.7053 5.31006 39.5899 5.27627 39.4604 5.25092C37.9687 4.93547 33.7301 5.23402 29.2242 7.19148C26.314 8.45609 23.2828 10.4136 20.7863 13.3427C18.8443 15.6213 14.89 17.6097 10.9074 18.9616L10.9074 18.9671ZM12.309 9.05876C11.5969 6.95762 11.1578 4.83117 12.1964 2.93004C12.824 1.77806 13.6965 1.09929 14.6872 0.685278C15.6975 0.262801 16.8431 0.110714 17.9857 0.0149473C19.4858 -0.108982 20.651 0.547266 21.6417 1.62882C22.32 2.36953 22.9195 3.30462 23.4908 4.32704C22.0583 5.31845 20.4597 6.39155 18.6358 7.26745C16.7867 8.15748 14.6984 8.85032 12.3117 9.05876L12.309 9.05876ZM5.1686 13.1906C5.23052 13.1906 5.29525 13.1709 5.34873 13.1286C5.99324 12.6188 6.47171 12.6329 7.4258 12.6611L7.50461 12.6639C10.1361 12.7371 11.6644 12.0217 12.4525 10.36C12.5454 10.3318 12.6411 10.3037 12.7396 10.2643C12.7846 10.3882 12.8296 10.5121 12.8775 10.636L12.9141 10.7374C14.0877 10.7628 16.3224 10.1628 18.6528 9.16017C20.6764 8.2899 22.7563 7.11823 24.2649 5.79162C24.0988 5.47054 23.9327 5.15227 23.7667 4.83965C22.3313 5.83106 20.727 6.90416 18.8836 7.79138C17.0402 8.6786 14.963 9.37425 12.596 9.61363C10.184 7.96883 9.14544 8.22227 8.74015 8.52928C8.42775 8.76868 8.31798 9.17989 8.46152 9.577C8.61913 10.0164 9.10041 10.4445 9.81809 10.4135C10.1333 10.3995 10.4091 10.4304 10.7019 10.4614C10.9411 10.4868 11.1831 10.5121 11.4449 10.5121C11.5377 10.5121 11.6306 10.5093 11.7263 10.5008C11.1803 11.3909 10.1333 12.157 7.51868 12.0837L7.43987 12.0809C6.45198 12.0527 5.79625 12.033 4.98568 12.6752C4.85903 12.7738 4.83933 12.9568 4.93783 13.0836C4.99412 13.1568 5.08137 13.1934 5.16581 13.1934L5.1686 13.1906ZM10.7638 9.87835C10.5161 9.853 10.26 9.82483 9.97568 9.82483C9.91657 9.82483 9.85465 9.82483 9.79273 9.82765C9.36775 9.84455 9.09474 9.61359 9.01034 9.37419C8.98219 9.29814 8.93434 9.10662 9.09477 8.98833C9.41844 8.74047 10.3557 8.8475 11.9599 9.88117C11.5293 9.95722 11.1662 9.92059 10.7638 9.87835ZM53.541 38.4432C54.2727 38.0489 55.1059 37.7898 56.0909 37.7053C55.5421 38.2714 55.0383 38.891 54.6696 40.7133C54.4135 41.9864 54.4726 44.2424 54.5232 46.121C54.5373 46.6533 54.5514 47.1547 54.5542 47.6166H53.6311L53.541 38.4432ZM57 33.9678C57 35.0718 56.893 36.221 56.62 37.0546C52.4433 37.1448 50.704 39.8232 48.6015 43.065C48.2075 43.6706 47.8022 44.2958 47.3434 44.9549C46.8284 45.6984 46.1416 46.2758 45.3396 46.7208C42.8882 48.0756 39.3588 48.1798 36.2742 47.8278C33.3387 47.4926 30.8281 46.7547 30.0119 46.2843C30.5242 45.7717 31.3798 45.1099 32.3648 44.4311C32.3817 44.4226 32.3958 44.4114 32.4099 44.4001C32.8236 44.1156 33.257 43.8312 33.6961 43.5523C35.3088 42.5299 36.9947 41.6118 37.9826 41.2653C39.4883 43.6425 41.208 43.7494 42.9501 42.713C45.1004 41.4315 47.2365 38.3333 48.9984 35.7759C50.0257 34.286 50.9235 32.9848 51.5934 32.3736C52.0746 31.9342 52.5897 31.5455 53.3665 31.2695C54.1292 30.9963 55.1509 30.8273 56.6453 30.8132C56.8452 31.3371 57 32.6074 57 33.9705L57 33.9678Z" fill="#80011D"/>
</svg>
