<svg width="48" height="48" viewBox="0 0 48 48" fill="none" xmlns="http://www.w3.org/2000/svg">
<path d="M17.8625 40.675C17.9825 40.54 18.0325 40.355 17.9925 40.175C17.9575 39.995 17.8425 39.845 17.6775 39.765C16.4374 39.15 15.3673 38.465 14.4172 37.685C15.2323 37.235 15.9223 36.685 16.4824 36.045C16.6024 35.91 16.6524 35.725 16.6124 35.545C16.5774 35.365 16.4624 35.215 16.2973 35.135C15.1823 34.58 14.2222 33.955 13.3871 33.235C13.6421 33.04 13.8671 32.825 14.0672 32.59C14.1872 32.455 14.2372 32.27 14.1972 32.09C14.1622 31.91 14.0472 31.76 13.8821 31.68C13.0721 31.275 12.397 30.825 11.812 30.28C12.147 30.075 12.432 29.835 12.677 29.555C12.7971 29.42 12.8471 29.235 12.8071 29.055C12.7721 28.875 12.657 28.725 12.492 28.645C11.1269 27.965 10.3219 27.095 9.51178 25.43C9.41177 25.23 9.21176 25.1 8.98674 25.1C8.76172 25.1 8.5567 25.23 8.46169 25.43C7.65663 27.095 6.84656 27.965 5.48145 28.645C5.32143 28.725 5.20142 28.875 5.16642 29.055C5.13142 29.235 5.18142 29.415 5.29643 29.555C5.53645 29.835 5.82648 30.075 6.1615 30.28C5.57645 30.82 4.9014 31.275 4.09133 31.68C3.93132 31.76 3.81131 31.91 3.7763 32.09C3.7413 32.27 3.79131 32.45 3.90632 32.59C4.10633 32.82 4.33635 33.035 4.58637 33.235C3.7513 33.955 2.79122 34.58 1.67613 35.135C1.51612 35.215 1.39611 35.365 1.3611 35.545C1.3261 35.725 1.3761 35.905 1.49111 36.045C2.05116 36.685 2.74122 37.235 3.55629 37.685C2.60621 38.465 1.53612 39.15 0.296015 39.765C0.166004 39.845 0.0459939 40 0.0109909 40.175C-0.024012 40.355 0.0259922 40.535 0.141002 40.675C1.73613 42.51 4.33635 43.72 7.3016 44.055V47.41C7.3016 47.735 7.56162 47.995 7.88665 47.995H10.1168C10.4419 47.995 10.7019 47.735 10.7019 47.41V44.055C13.6621 43.72 16.2673 42.51 17.8625 40.675ZM5.03141 37.975C5.17642 37.84 5.24143 37.64 5.21142 37.445C5.17642 37.25 5.04641 37.085 4.8664 37.005C4.12133 36.685 3.47128 36.28 2.93623 35.805C4.09633 35.16 5.09141 34.43 5.96649 33.58C6.0965 33.45 6.1615 33.27 6.1415 33.085C6.1165 32.905 6.01149 32.74 5.85148 32.65C5.68146 32.55 5.51645 32.445 5.36644 32.33C6.24151 31.815 6.96657 31.22 7.60662 30.5C7.73663 30.355 7.78164 30.16 7.73663 29.97C7.69163 29.785 7.55662 29.63 7.3766 29.565C7.16159 29.485 6.96157 29.385 6.78156 29.27C7.69163 28.69 8.38669 27.96 9.00674 26.925C9.63179 27.96 10.3218 28.69 11.2319 29.27C11.0519 29.385 10.8519 29.48 10.6369 29.565C10.4569 29.635 10.3218 29.785 10.2768 29.97C10.2318 30.155 10.2818 30.355 10.4069 30.5C11.0469 31.225 11.772 31.815 12.647 32.33C12.497 32.445 12.337 32.55 12.162 32.65C12.002 32.74 11.897 32.9 11.872 33.085C11.847 33.265 11.912 33.45 12.047 33.58C12.9221 34.43 13.9172 35.16 15.0772 35.805C14.5422 36.28 13.8921 36.68 13.1471 37.005C12.9671 37.085 12.8371 37.25 12.8021 37.445C12.7671 37.64 12.8371 37.84 12.9821 37.975C13.9922 38.91 15.1323 39.725 16.4574 40.445C14.7222 42.045 12.002 42.98 9.00674 42.98C6.01149 42.98 3.29126 42.045 1.55612 40.445C2.88123 39.725 4.02133 38.915 5.03141 37.975ZM9.53178 46.83H8.4767V44.145C8.65171 44.15 8.82673 44.155 9.00674 44.155C9.18176 44.155 9.36177 44.15 9.53678 44.145V46.83H9.53178ZM45.1348 15.02C44.7347 13.29 44.0497 11.655 43.0896 10.15C43.3796 9.68 43.5496 9.13 43.5496 8.54V7.425C43.5496 5.74 42.1795 4.37 40.4944 4.37C39.6143 4.37 38.8192 4.745 38.2592 5.345C36.639 4.32 34.8689 3.61 32.9887 3.24V3.055C32.9887 1.37 31.6186 0 29.9335 0C28.2483 0 26.8782 1.37 26.8782 3.055V3.245C24.9981 3.615 23.2279 4.325 21.6078 5.35C21.0477 4.75 20.2527 4.375 19.3726 4.375C17.6875 4.375 16.3174 5.745 16.3174 7.43V8.545C16.3174 9.135 16.4874 9.685 16.7774 10.155C15.8173 11.655 15.1272 13.29 14.7322 15.025C13.1321 15.12 11.862 16.45 11.862 18.075V19.19C11.862 20.825 13.1521 22.165 14.7722 22.24C15.1773 23.91 15.8523 25.49 16.7774 26.94C16.4874 27.41 16.3174 27.96 16.3174 28.55V29.665C16.3174 31.35 17.6875 32.72 19.3726 32.72C20.2527 32.72 21.0477 32.345 21.6078 31.745C22.3078 32.19 23.0379 32.575 23.788 32.895L19.5826 44.4H18.4075C17.3874 44.4 16.5524 45.23 16.5524 46.255V47.415C16.5524 47.74 16.8124 48 17.1374 48H42.7246C43.0496 48 43.3096 47.74 43.3096 47.415V46.255C43.3096 45.235 42.4795 44.4 41.4544 44.4H40.2793L36.074 32.89C36.8291 32.565 37.5541 32.185 38.2542 31.74C38.8142 32.34 39.6093 32.715 40.4894 32.715C42.1745 32.715 43.5446 31.345 43.5446 29.66V28.545C43.5446 27.955 43.3746 27.405 43.0846 26.935C44.0147 25.48 44.6897 23.905 45.0897 22.235C46.7049 22.16 48 20.82 48 19.185V18.07C48.005 16.45 46.7349 15.12 45.1348 15.02ZM40.4944 25.495C39.7193 25.495 39.0142 25.785 38.4742 26.26L33.5188 21.305C33.9938 20.69 34.3139 19.945 34.4189 19.135H41.8995V19.19C41.8995 20.515 42.7496 21.65 43.9347 22.07C43.5796 23.48 43.0196 24.82 42.2595 26.06C41.7595 25.705 41.1494 25.495 40.4944 25.495ZM32.9737 32.655C32.8537 31.29 31.8386 30.18 30.5185 29.925V23.03C30.7436 23 30.9636 22.955 31.1786 22.895L34.5839 32.215C34.0588 32.39 33.5238 32.54 32.9737 32.655ZM26.8932 32.655C26.3482 32.54 25.8081 32.39 25.2831 32.215L28.6884 22.895C28.9034 22.955 29.1234 23 29.3484 23.03V29.925C28.0283 30.18 27.0082 31.29 26.8932 32.655ZM28.0483 32.92C28.0483 31.88 28.8934 31.035 29.9335 31.035C30.9736 31.035 31.8186 31.88 31.8186 32.92V34.035C31.8186 35.075 30.9736 35.92 29.9335 35.92C28.8934 35.92 28.0483 35.075 28.0483 34.035V32.92ZM29.9335 21.9C28.0833 21.9 26.5832 20.395 26.5832 18.55C26.5832 16.705 28.0883 15.2 29.9335 15.2C31.7836 15.2 33.2838 16.705 33.2838 18.55C33.2838 20.395 31.7836 21.9 29.9335 21.9ZM21.3928 26.26C20.8527 25.785 20.1477 25.495 19.3726 25.495C18.7176 25.495 18.1075 25.705 17.6075 26.06C16.8474 24.815 16.2873 23.48 15.9323 22.07C17.1174 21.65 17.9675 20.52 17.9675 19.19V19.135H25.4481C25.5531 19.945 25.8731 20.69 26.3482 21.305L21.3928 26.26ZM19.3726 11.6C20.1477 11.6 20.8527 11.31 21.3928 10.835L26.3482 15.79C25.8731 16.405 25.5531 17.15 25.4481 17.96H17.9675C17.9225 16.665 17.0674 15.575 15.8973 15.18C16.2473 13.715 16.8224 12.325 17.6075 11.035C18.1075 11.39 18.7176 11.6 19.3726 11.6ZM41.8995 17.96H34.4189C34.3139 17.15 33.9938 16.405 33.5188 15.79L38.4742 10.835C39.0142 11.31 39.7193 11.6 40.4944 11.6C41.1494 11.6 41.7595 11.39 42.2595 11.035C43.0496 12.325 43.6196 13.71 43.9697 15.18C42.7996 15.575 41.9445 16.67 41.8995 17.96ZM40.4944 5.545C41.5345 5.545 42.3795 6.39 42.3795 7.43V8.545C42.3795 9.585 41.5345 10.43 40.4944 10.43C39.4543 10.43 38.6092 9.585 38.6092 8.545V7.43C38.6092 6.39 39.4543 5.545 40.4944 5.545ZM32.9737 4.435C34.6339 4.79 36.199 5.43 37.6391 6.34C37.5091 6.675 37.4391 7.04 37.4391 7.425V8.54C37.4391 9.025 37.5541 9.485 37.7541 9.89L32.6887 14.965C32.0737 14.49 31.3286 14.17 30.5185 14.065V7.17C31.8386 6.91 32.8587 5.8 32.9737 4.435ZM28.0483 3.055C28.0483 2.015 28.8934 1.17 29.9335 1.17C30.9736 1.17 31.8186 2.015 31.8186 3.055V4.17C31.8186 5.21 30.9736 6.055 29.9335 6.055C28.8934 6.055 28.0483 5.21 28.0483 4.17V3.055ZM26.8932 4.435C27.0132 5.8 28.0283 6.91 29.3484 7.165V14.06C28.5384 14.165 27.7933 14.485 27.1783 14.96L22.1128 9.895C22.3128 9.485 22.4279 9.03 22.4279 8.545V7.43C22.4279 7.05 22.3579 6.685 22.2278 6.345C23.668 5.43 25.2331 4.79 26.8932 4.435ZM17.4874 7.43C17.4874 6.39 18.3325 5.545 19.3726 5.545C20.4127 5.545 21.2578 6.39 21.2578 7.43V8.545C21.2578 9.585 20.4127 10.43 19.3726 10.43C18.3325 10.43 17.4874 9.585 17.4874 8.545V7.43ZM13.0321 19.185V18.07C13.0321 17.03 13.8771 16.185 14.9172 16.185C15.9573 16.185 16.8024 17.03 16.8024 18.07V19.185C16.8024 20.225 15.9573 21.07 14.9172 21.07C13.8771 21.07 13.0321 20.225 13.0321 19.185ZM19.3726 31.545C18.3325 31.545 17.4874 30.7 17.4874 29.66V28.545C17.4874 27.505 18.3325 26.66 19.3726 26.66C20.4127 26.66 21.2578 27.505 21.2578 28.545V29.66C21.2578 30.705 20.4127 31.545 19.3726 31.545ZM22.2278 30.75C22.3579 30.415 22.4279 30.05 22.4279 29.665V28.55C22.4279 28.065 22.3128 27.605 22.1128 27.2L27.1783 22.135C27.3183 22.24 27.4633 22.34 27.6133 22.435L24.193 31.8C23.5129 31.495 22.8579 31.15 22.2278 30.75ZM42.1445 46.255V46.83H17.7225V46.255C17.7225 45.88 18.0275 45.57 18.4075 45.57H41.4594C41.8345 45.575 42.1445 45.88 42.1445 46.255ZM39.0342 44.4H20.8327L24.8831 33.31C25.5331 33.53 26.1982 33.71 26.8782 33.845V34.035C26.8782 35.72 28.2483 37.09 29.9335 37.09C31.6186 37.09 32.9887 35.72 32.9887 34.035V33.85C33.6688 33.715 34.3339 33.535 34.9839 33.315L39.0342 44.4ZM35.674 31.79L32.2537 22.425C32.4037 22.335 32.5487 22.235 32.6887 22.125L37.7541 27.195C37.5541 27.605 37.4391 28.06 37.4391 28.545V29.66C37.4391 30.04 37.5091 30.405 37.6391 30.745C37.0091 31.15 36.354 31.495 35.674 31.79ZM42.3795 29.665C42.3795 30.705 41.5345 31.55 40.4944 31.55C39.4543 31.55 38.6092 30.705 38.6092 29.665V28.55C38.6092 27.51 39.4543 26.665 40.4944 26.665C41.5345 26.665 42.3795 27.51 42.3795 28.55V29.665ZM46.8349 19.185C46.8349 20.225 45.9898 21.07 44.9497 21.07C43.9097 21.07 43.0646 20.225 43.0646 19.185V18.07C43.0646 17.03 43.9097 16.185 44.9497 16.185C45.9898 16.185 46.8349 17.03 46.8349 18.07V19.185ZM29.9335 16.41C28.7584 16.41 27.7983 17.365 27.7983 18.545C27.7983 19.725 28.7534 20.68 29.9335 20.68C31.1136 20.68 32.0687 19.725 32.0687 18.545C32.0687 17.365 31.1086 16.41 29.9335 16.41ZM29.9335 19.51C29.4034 19.51 28.9684 19.08 28.9684 18.545C28.9684 18.01 29.3984 17.58 29.9335 17.58C30.4685 17.58 30.8986 18.01 30.8986 18.545C30.8986 19.08 30.4635 19.51 29.9335 19.51Z" fill="#80011D"/>
</svg>
