<svg width="47" height="50" viewBox="0 0 47 50" fill="none" xmlns="http://www.w3.org/2000/svg">
<path fill-rule="evenodd" clip-rule="evenodd" d="M2.55434 25.521V43.8396C2.33881 43.9169 2.14524 44.041 1.9816 44.2078C1.69623 44.5008 1.53259 44.8975 1.53259 45.3125V48.4375C1.53259 48.8526 1.69623 49.2493 1.9816 49.5422C2.26896 49.8352 2.6561 50 3.0652 50C3.47431 50 3.86145 49.8352 4.14881 49.5422C4.43418 49.2493 4.59782 48.8526 4.59782 48.4375V45.3125C4.59782 44.8975 4.43418 44.5008 4.14881 44.2078C3.98517 44.041 3.7916 43.9169 3.57607 43.8396V25.521H3.61599C5.00693 25.521 6.13043 24.3736 6.13043 22.9555V18.7503C6.13043 18.4634 5.90094 18.2294 5.61957 18.2294H0.51087C0.229493 18.2294 0 18.4634 0 18.7503V22.9555C0 24.3736 1.1235 25.521 2.51445 25.521H2.55434ZM43.4239 25.521V43.8396C43.2084 43.9169 43.0148 44.041 42.8512 44.2078C42.5658 44.5008 42.4022 44.8975 42.4022 45.3125V48.4375C42.4022 48.8526 42.5658 49.2493 42.8512 49.5422C43.1385 49.8352 43.5257 50 43.9348 50C44.3439 50 44.731 49.8352 45.0184 49.5422C45.3037 49.2493 45.4674 48.8526 45.4674 48.4375V45.3125C45.4674 44.8975 45.3037 44.5008 45.0184 44.2078C44.8547 44.041 44.6612 43.9169 44.4456 43.8396V25.521H44.4856C45.8765 25.521 47 24.3736 47 22.9555V18.7503C47 18.4634 46.7705 18.2294 46.4891 18.2294H41.3804C41.0991 18.2294 40.8696 18.4634 40.8696 18.7503V22.9555C40.8696 24.3736 41.9931 25.521 43.384 25.521H43.4239ZM19.9239 46.1547V47.1292C19.9239 47.6113 20.1175 48.0142 20.3529 48.2217C20.5106 48.3641 20.7002 48.4353 20.8997 48.4353H26.1004C26.2999 48.4353 26.4895 48.3641 26.6472 48.2217C26.8826 48.0162 27.0762 47.6114 27.0762 47.1292V46.1547L30.9696 44.171L30.6942 45.5769L29.2694 47.0275C29.1756 47.1251 29.1197 47.2574 29.1197 47.3957V48.4374C29.1197 48.7242 29.3492 48.9582 29.6306 48.9582C29.9119 48.9582 30.1414 48.7242 30.1414 48.4374V47.6114L31.5263 46.2015C31.5982 46.1283 31.6441 46.0367 31.664 45.935L32.1749 43.3308C32.2148 43.1355 32.139 42.9362 31.9853 42.8141C31.8277 42.694 31.6181 42.6737 31.4445 42.7632L26.4436 45.3124H20.5568L15.5559 42.7632C15.3822 42.6737 15.1727 42.694 15.0151 42.8141C14.8614 42.9341 14.7856 43.1355 14.8255 43.3308L15.3363 45.935C15.3563 46.0367 15.4022 46.1283 15.474 46.2015L16.859 47.6114V48.4374C16.859 48.7242 17.0884 48.9582 17.3698 48.9582C17.6512 48.9582 17.8807 48.7242 17.8807 48.4374V47.3957C17.8807 47.2574 17.8248 47.1251 17.733 47.0275L16.3082 45.5769L16.0328 44.171L19.9239 46.1547ZM28.6087 48.4373V46.8749C28.6087 46.588 28.3792 46.354 28.0978 46.354C27.8164 46.354 27.5869 46.588 27.5869 46.8749V48.4373C27.5869 48.7242 27.8164 48.9582 28.0978 48.9582C28.3792 48.9582 28.6087 48.7242 28.6087 48.4373ZM19.413 48.4373V46.8749C19.413 46.588 19.1835 46.354 18.9022 46.354C18.6208 46.354 18.3913 46.588 18.3913 46.8749V48.4373C18.3913 48.7242 18.6208 48.9582 18.9022 48.9582C19.1835 48.9582 19.413 48.7242 19.413 48.4373ZM3.0652 48.9582C2.9315 48.9582 2.79979 48.9032 2.70201 48.8056C2.61021 48.7079 2.55434 48.5757 2.55434 48.4373V45.3124C2.55434 45.174 2.61021 45.0418 2.70201 44.9441C2.79979 44.8465 2.9315 44.7915 3.0652 44.7915C3.2029 44.7915 3.33062 44.8465 3.4284 44.9441C3.5202 45.0418 3.57607 45.174 3.57607 45.3124V48.4373C3.57607 48.5757 3.5202 48.7079 3.4284 48.8056C3.33062 48.9032 3.2029 48.9582 3.0652 48.9582ZM43.9348 48.9582C43.8011 48.9582 43.6694 48.9032 43.5716 48.8056C43.4798 48.7079 43.4239 48.5757 43.4239 48.4373V45.3124C43.4239 45.174 43.4798 45.0418 43.5716 44.9441C43.6694 44.8465 43.8011 44.7915 43.9348 44.7915C44.0725 44.7915 44.2002 44.8465 44.298 44.9441C44.3898 45.0418 44.4456 45.174 44.4456 45.3124V48.4373C44.4456 48.5757 44.3898 48.7079 44.298 48.8056C44.2002 48.9032 44.0725 48.9582 43.9348 48.9582ZM25.9925 47.3957H21.0076C20.9816 47.3347 20.9457 47.2167 20.9457 47.1292V46.354H26.0544V47.1292C26.0544 47.2167 26.0185 47.3347 25.9925 47.3957ZM10.8861 31.9276L10.7085 31.3966C10.483 30.7497 9.95216 30.3041 9.33952 30.2227C8.71687 30.1393 8.09826 30.4404 7.74106 31.0202V31.0243C7.58341 31.2868 7.43973 31.5716 7.32199 31.8849C6.88296 33.0343 7.33197 34.3629 8.32375 34.9325C8.59914 35.1095 8.9324 35.256 9.30958 35.3394C9.62687 37.024 10.5868 38.5804 12.0315 39.8865C14.6218 42.2181 18.7903 43.75 23.5001 43.75C28.2098 43.75 32.3785 42.2181 34.9686 39.8865C36.4134 38.5824 37.3752 37.026 37.6905 35.3394C38.0677 35.254 38.4009 35.1075 38.6764 34.9305C39.6682 34.369 40.1172 33.0364 39.6781 31.8828C39.5604 31.5716 39.4167 31.2847 39.259 31.0223V31.0182C38.9018 30.4384 38.2832 30.1373 37.6606 30.2207C37.048 30.3021 36.5171 30.7476 36.2916 31.3946L36.112 31.9256C36.0721 31.9052 36.0322 31.8829 35.9963 31.8605C33.6515 30.5828 28.936 29.6876 23.4999 29.6876C18.0637 29.6876 13.3484 30.5828 11.0035 31.8605C10.9676 31.8829 10.9277 31.9052 10.8858 31.9256L10.8861 31.9276ZM36.4137 36.1166C36.288 36.2021 36.1443 36.2875 35.9967 36.3689C33.6519 37.6466 28.9365 38.5418 23.5003 38.5418C18.0641 38.5418 13.3488 37.6466 11.0039 36.3689C10.8562 36.2875 10.7185 36.2021 10.5848 36.1166C10.9939 37.2112 11.7243 38.2223 12.7102 39.1053C15.1428 41.2985 19.0761 42.7084 23.5002 42.7084C27.9244 42.7084 31.8575 41.2985 34.2903 39.1053C35.2761 38.2223 36.0065 37.2112 36.4156 36.1166H36.4137ZM23.5005 30.7292C28.7211 30.7292 33.2627 31.5491 35.5121 32.78C35.9411 33.0139 36.2843 33.2601 36.5138 33.5226C36.6815 33.7138 36.7852 33.9071 36.7852 34.1146C36.7852 34.3221 36.6835 34.5154 36.5138 34.7066C36.2843 34.9691 35.9411 35.2152 35.5121 35.4492C33.2631 36.6801 28.7211 37.5 23.5005 37.5C18.2799 37.5 13.7383 36.6801 11.4889 35.4492C11.0599 35.2152 10.7186 34.9691 10.4892 34.7066C10.3195 34.5154 10.2178 34.3221 10.2178 34.1146C10.2178 33.9071 10.3195 33.7138 10.4892 33.5226C10.7187 33.2601 11.0619 33.0139 11.4909 32.78C13.7379 31.5491 18.2799 30.7292 23.5005 30.7292ZM11.96 34.3669C12.5167 34.1105 13.1812 33.8766 13.9316 33.6649C14.203 33.5876 14.3607 33.3008 14.2848 33.0241C14.213 32.7474 13.9316 32.5846 13.6622 32.6599C12.85 32.8857 12.1395 33.14 11.5429 33.4147C11.2875 33.5327 11.1697 33.8419 11.2875 34.1044C11.4052 34.3668 11.7065 34.4828 11.962 34.3648L11.96 34.3669ZM8.85484 34.0414C8.95661 34.1085 9.07435 34.1675 9.19808 34.2204V34.1166C9.19808 33.5836 9.47347 33.0444 10.0203 32.548C10.0203 32.5399 10.0143 32.5318 10.0143 32.5236L9.74289 31.7404C9.65509 31.482 9.45153 31.2887 9.20607 31.2562C8.97059 31.2256 8.74708 31.3518 8.60738 31.5715C8.48565 31.779 8.36791 32.0069 8.27611 32.2531V32.2612C8.02068 32.9244 8.27611 33.7159 8.85283 34.0434L8.85484 34.0414ZM38.1481 34.0414C38.7248 33.7138 38.9803 32.9244 38.7248 32.2591V32.251C38.633 32.0028 38.5153 31.777 38.3936 31.5694C38.2559 31.3497 38.0304 31.2236 37.7949 31.2541C37.5494 31.2866 37.3459 31.4799 37.258 31.7383L36.9866 32.5216C36.9866 32.5297 36.9807 32.5378 36.9807 32.546C37.5274 33.0424 37.8029 33.5815 37.8029 34.1146V34.2183C37.9246 34.1675 38.0423 34.1064 38.1461 34.0393L38.1481 34.0414ZM15.9294 33.2011C16.097 33.1706 16.2606 33.1401 16.4342 33.1095C16.7096 33.0607 16.8992 32.7922 16.8533 32.5094C16.8014 32.2246 16.542 32.0354 16.2606 32.0822C16.087 32.1127 15.9134 32.1432 15.7438 32.1757C15.4624 32.2286 15.2848 32.5013 15.3347 32.782C15.3865 33.0648 15.652 33.252 15.9274 33.1991L15.9294 33.2011ZM23.5004 32.5521C25.4781 32.5521 27.3579 32.6721 29.0582 32.8857C29.3336 32.9203 29.589 32.7189 29.625 32.4341C29.6609 32.1493 29.4613 31.8888 29.1799 31.8522C27.4498 31.6325 25.5241 31.5104 23.5006 31.5104C23.2192 31.5104 22.9897 31.7444 22.9897 32.0313C22.9897 32.3181 23.2191 32.5521 23.5004 32.5521ZM13.7939 18.146V22.9169C13.7939 23.4906 14.217 24.0948 15.0911 24.573C16.6656 25.4335 19.8426 26.0419 23.5005 26.0419C27.1584 26.0419 30.3354 25.4335 31.9099 24.573C32.784 24.0949 33.2071 23.4906 33.2071 22.9169V18.2173C35.6956 18.1013 39.3375 17.0759 39.3375 12.5001C39.3375 9.66 37.5195 8.35387 35.941 7.7557H35.9351C34.9652 7.39152 34.2089 6.6042 33.8656 5.60931C32.762 2.34399 29.172 0 24.5223 0C20.6808 0 18.775 2.53497 17.9428 4.19105V4.19308C17.6415 4.79323 17.0329 5.17167 16.3743 5.17167C14.8617 5.14929 12.7364 5.23473 10.9903 5.959C9.12442 6.73009 7.66363 8.19491 7.66363 10.9374C7.66363 16.4165 12.3072 17.8325 13.7939 18.146ZM14.8157 21.804V22.9168C14.8157 23.0715 14.9374 23.1996 15.101 23.34C15.3724 23.5699 15.7656 23.7774 16.2605 23.9666C17.8968 24.5973 20.533 25.0001 23.5005 25.0001C26.468 25.0001 29.1098 24.5973 30.7405 23.9666C31.2354 23.7754 31.6286 23.5699 31.9 23.34C32.0636 23.1996 32.1853 23.0715 32.1853 22.9168V21.804C32.0975 21.861 32.0057 21.9159 31.9099 21.9688C30.3354 22.8293 27.1584 23.4377 23.5005 23.4377C19.8426 23.4377 16.6656 22.8293 15.0911 21.9688C14.9953 21.9159 14.9035 21.861 14.8157 21.804ZM5.10914 19.271V22.9555C5.10914 23.7978 4.44062 24.4793 3.61643 24.4793H2.51285C1.69066 24.4793 1.02214 23.7978 1.02214 22.9555V19.271H5.10914ZM45.9787 19.271V22.9555C45.9787 23.7978 45.3102 24.4793 44.486 24.4793H43.3824C42.5602 24.4793 41.8917 23.7978 41.8917 22.9555V19.271H45.9787ZM3.57653 20.3127V22.9168C3.57653 23.2037 3.80603 23.4377 4.0874 23.4377C4.36878 23.4377 4.59827 23.2037 4.59827 22.9168V20.3127C4.59827 20.0258 4.36878 19.7919 4.0874 19.7919C3.80603 19.7919 3.57653 20.0258 3.57653 20.3127ZM42.4026 20.3127V22.9168C42.4026 23.2037 42.6321 23.4377 42.9135 23.4377C43.1949 23.4377 43.4244 23.2037 43.4244 22.9168V20.3127C43.4244 20.0258 43.1949 19.7919 42.9135 19.7919C42.6321 19.7919 42.4026 20.0258 42.4026 20.3127ZM44.4461 20.3127V22.9168C44.4461 23.2037 44.6756 23.4377 44.957 23.4377C45.2383 23.4377 45.4678 23.2037 45.4678 22.9168V20.3127C45.4678 20.0258 45.2383 19.7919 44.957 19.7919C44.6756 19.7919 44.4461 20.0258 44.4461 20.3127ZM1.53306 20.3127V22.9168C1.53306 23.2037 1.76255 23.4377 2.04393 23.4377C2.3253 23.4377 2.5548 23.2037 2.5548 22.9168V20.3127C2.5548 20.0258 2.3253 19.7919 2.04393 19.7919C1.76255 19.7919 1.53306 20.0258 1.53306 20.3127ZM26.3164 16.3943C26.2645 16.4492 26.2186 16.4981 26.1727 16.5408C25.7955 16.8846 25.4623 16.9538 25.1908 16.9212C24.8995 16.8866 24.65 16.7219 24.4604 16.496C24.4445 16.4838 24.4345 16.4696 24.4245 16.4574C24.3267 16.5245 24.2349 16.5774 24.1392 16.6161C23.746 16.7809 23.3429 16.7422 22.9278 16.6384C22.7383 16.5896 22.5447 16.5286 22.3511 16.494C22.1476 16.4594 21.938 16.4553 21.7225 16.5876C20.579 17.3017 19.9344 17.4868 18.6772 17.2549C18.4378 17.5885 18.0327 17.8388 17.5218 17.9954C16.6577 18.2599 15.4943 18.2742 14.8138 18.2538L14.8158 20.3127C14.8158 20.4673 14.9375 20.5955 15.1012 20.7359C15.3726 20.9658 15.7657 21.1733 16.2606 21.3625C17.8969 21.9931 20.5331 22.396 23.5006 22.396C26.4681 22.396 29.11 21.9932 30.7407 21.3625C31.2356 21.1712 31.6287 20.9657 31.9001 20.7359C32.0637 20.5955 32.1855 20.4673 32.1855 20.3127V18.0971C31.8322 17.8774 31.5927 17.4868 31.3832 17.0901C31.3313 16.9883 31.2815 16.8907 31.2256 16.8052C31.1897 16.7544 31.1697 16.6994 31.1178 16.6832C31.0659 16.6669 31.0101 16.7015 30.9282 16.7422C30.8005 16.8093 30.6469 16.9151 30.4693 17.0677C29.5693 17.8327 28.6253 17.7879 27.8171 17.4461C27.1945 17.1836 26.6577 16.734 26.3145 16.3963L26.3164 16.3943ZM32.6665 17.1877H32.6964C34.7498 17.1877 38.316 16.5916 38.316 12.5003C38.316 10.2359 36.8452 9.21053 35.582 8.73241C34.3248 8.26041 33.339 7.23909 32.8999 5.94921C31.9141 3.03992 28.6653 1.04202 24.5227 1.04202C21.208 1.04202 19.5677 3.23721 18.851 4.66542C18.3761 5.61551 17.4162 6.21368 16.3685 6.21165H16.3585C14.9636 6.19131 12.992 6.25031 11.3716 6.9217C9.87089 7.54424 8.68552 8.72423 8.68552 10.9377C8.68552 16.4372 14.1416 17.1632 14.3608 17.1898C14.4785 17.1999 15.6998 17.2935 16.7355 17.1145C17.0628 17.0575 17.3681 16.9761 17.6095 16.8459C17.7472 16.7707 17.865 16.6893 17.8909 16.555C17.9528 16.2743 18.2282 16.0972 18.5036 16.1603C19.6989 16.4309 20.2038 16.317 21.1916 15.7026C21.7783 15.3363 22.3351 15.4076 22.8719 15.5479C23.0355 15.5907 23.1932 15.6375 23.3468 15.668C23.4945 15.6944 23.6382 15.7107 23.7759 15.6415C23.8876 15.5846 23.9954 15.4808 24.1072 15.3241C24.2049 15.1817 24.3686 15.0983 24.5422 15.1065C24.7158 15.1126 24.8695 15.2082 24.9613 15.3587C25.0012 15.434 25.073 15.6008 25.1868 15.7555C25.2227 15.8063 25.2427 15.8816 25.3085 15.8897C25.3344 15.8918 25.3544 15.8694 25.3843 15.849C25.4562 15.8002 25.532 15.729 25.6198 15.6293C25.9012 15.3018 26.2225 14.7443 26.6116 13.8532C27.7671 11.186 28.8387 10.5024 28.8387 10.5024C29.0742 10.3437 29.3895 10.4108 29.5491 10.6509C29.7028 10.891 29.6369 11.2144 29.4014 11.3731C29.4014 11.3731 28.5334 11.9916 27.5416 14.2723C27.3221 14.785 27.1125 15.2021 26.9189 15.5398C27.1125 15.7432 27.4238 16.0402 27.8129 16.2763C28.3797 16.6262 29.1201 16.8602 29.8165 16.2661C30.5729 15.6212 31.0937 15.5744 31.4469 15.6944C31.7183 15.788 31.9378 15.9975 32.1115 16.2823C32.2292 16.4634 32.327 16.6791 32.4387 16.8805C32.5046 16.9985 32.5664 17.1226 32.6682 17.1877L32.6665 17.1877ZM18.2702 14.7687C17.5338 13.8797 17.2125 13.1798 16.9371 12.4983C16.6298 11.7455 16.3644 11.0151 15.7477 10.1179C15.5841 9.88191 15.2668 9.82698 15.0333 9.99177C14.8039 10.1566 14.752 10.4821 14.9116 10.7181C15.4784 11.54 15.7138 12.2114 15.9952 12.9011C16.3065 13.664 16.6697 14.4473 17.4979 15.4421C17.6775 15.6619 17.9988 15.6903 18.2123 15.5032C18.4318 15.318 18.4577 14.9884 18.2742 14.7687L18.2702 14.7687ZM32.5224 14.9763C32.5224 14.9763 34.3204 13.3527 34.7235 11.5767C34.7894 11.2979 34.6158 11.0172 34.3464 10.9521C34.071 10.887 33.7956 11.062 33.7337 11.3427C33.3905 12.8381 31.8479 14.193 31.8479 14.193C31.6384 14.3823 31.6124 14.7118 31.802 14.9275C31.9856 15.1432 32.3069 15.1655 32.5224 14.9763ZM24.4762 13.3243C24.4762 13.3243 23.7258 11.656 23.5003 9.32445C23.4704 9.03759 23.219 8.83007 22.9376 8.85856C22.6562 8.88704 22.4526 9.14339 22.4826 9.42824C22.728 11.9551 23.5442 13.7617 23.5442 13.7617C23.662 14.0221 23.9673 14.1381 24.2227 14.016C24.4781 13.896 24.5899 13.5867 24.4721 13.3263L24.4762 13.3243Z" fill="#80011D"/>
</svg>
