<svg width="70" height="48" viewBox="0 0 70 48" fill="none" xmlns="http://www.w3.org/2000/svg">
<path d="M31.0148 22.8059C31.0908 22.8819 31.1911 22.9214 31.2883 22.9214C31.3886 22.9214 31.4889 22.8849 31.5618 22.8059C31.7137 22.654 31.7137 22.4079 31.5618 22.2559L30.5469 21.241L31.4676 20.3202L32.3883 21.241L32.2303 21.399C32.0784 21.5509 32.0784 21.7971 32.2303 21.949C32.3823 22.1009 32.6284 22.1009 32.7803 21.949L33.2118 21.5175C33.2848 21.4446 33.3273 21.3473 33.3273 21.244C33.3273 21.1407 33.2848 21.0435 33.2118 20.9705L31.7411 19.4998C31.5892 19.3479 31.343 19.3479 31.1911 19.4998L29.7204 20.9705C29.5685 21.1225 29.5685 21.3686 29.7204 21.5205L31.0148 22.8059Z" fill="#80011D"/>
<path d="M37.4359 22.9882C37.5119 23.0642 37.6122 23.1037 37.7094 23.1037C37.8097 23.1037 37.9099 23.0672 37.9829 22.9882L39.4536 21.5175C39.6055 21.3656 39.6055 21.1194 39.4536 20.9675L37.9829 19.4968C37.8309 19.3448 37.5848 19.3448 37.4329 19.4968L35.9622 20.9675C35.8892 21.0404 35.8467 21.1377 35.8467 21.241C35.8467 21.3443 35.8892 21.4415 35.9622 21.5144L37.4359 22.9882ZM37.7124 20.3232L38.6332 21.244L37.7124 22.1647L36.7917 21.244L37.7124 20.3232Z" fill="#80011D"/>
<path d="M33.3332 28.8985C33.3332 28.7952 33.2906 28.698 33.2177 28.625L31.747 27.1543C31.6011 27.0085 31.3428 27.0085 31.197 27.1543L29.7263 28.625C29.5743 28.777 29.5743 29.0231 29.7263 29.175L31.197 30.6458C31.2729 30.7217 31.3732 30.7612 31.4705 30.7612C31.5707 30.7612 31.671 30.7248 31.7439 30.6458L33.2147 29.175C33.2906 29.1021 33.3332 29.0018 33.3332 28.8985ZM31.4735 29.8193L30.5528 28.8985L31.4735 27.9778L32.3942 28.8985L31.4735 29.8193Z" fill="#80011D"/>
<path d="M38.9338 28.102L37.9857 27.1539C37.9128 27.081 37.8155 27.0385 37.7122 27.0385C37.6089 27.0385 37.5117 27.081 37.4387 27.1539L35.968 28.6246C35.8951 28.6976 35.8525 28.7948 35.8525 28.8981C35.8525 29.0014 35.8951 29.0987 35.968 29.1716L37.4387 30.6423C37.5147 30.7183 37.615 30.7578 37.7122 30.7578C37.8125 30.7578 37.9128 30.7213 37.9857 30.6423L38.5023 30.1257C38.6542 29.9738 38.6542 29.7277 38.5023 29.5757C38.3503 29.4238 38.1042 29.4238 37.9523 29.5757L37.7122 29.8158L36.7915 28.8951L37.7122 27.9743L38.3838 28.6489C38.5357 28.8009 38.7818 28.8009 38.9338 28.6489C39.0857 28.5 39.0857 28.254 38.9338 28.102Z" fill="#80011D"/>
<path d="M28.0765 26.9416C28.1495 27.0145 28.2467 27.057 28.35 27.057C28.4533 27.057 28.5506 27.0145 28.6235 26.9416L30.0942 25.4709C30.2462 25.3189 30.2462 25.0728 30.0942 24.9208L28.6235 23.4501C28.4716 23.2982 28.2254 23.2982 28.0735 23.4501L26.6028 24.9208C26.5298 24.9938 26.4873 25.091 26.4873 25.1943C26.4873 25.2976 26.5298 25.3949 26.6028 25.4678L28.0765 26.9416ZM28.3531 24.2766L29.2738 25.1973L28.3531 26.1181L27.4323 25.1973L28.3531 24.2766Z" fill="#80011D"/>
<path d="M32.8477 25.4712L34.3185 26.9419C34.3914 27.0149 34.4886 27.0574 34.5919 27.0574C34.6953 27.0574 34.7925 27.0149 34.8654 26.9419L36.3361 25.4712C36.4881 25.3193 36.4881 25.0732 36.3361 24.9212L34.8654 23.4505C34.7135 23.2986 34.4674 23.2986 34.3154 23.4505L32.8447 24.9212C32.6958 25.0732 32.6958 25.3193 32.8477 25.4712ZM34.592 24.277L35.5127 25.1977L34.592 26.1184L33.6712 25.1977L34.592 24.277Z" fill="#80011D"/>
<path d="M10.2663 34.7663C10.3423 34.8423 10.4425 34.8818 10.5398 34.8818C10.6401 34.8818 10.7403 34.8453 10.8133 34.7663C10.9652 34.6144 10.9652 34.3683 10.8133 34.2163L10.0323 33.4354L10.6856 32.7821L11.339 33.4354L11.26 33.5144C11.108 33.6663 11.108 33.9125 11.26 34.0644C11.4119 34.2163 11.658 34.2163 11.81 34.0644L12.1625 33.7089C12.3144 33.5569 12.3144 33.3108 12.1625 33.1589L10.9591 31.9555C10.8072 31.8036 10.561 31.8036 10.4091 31.9555L9.20575 33.1589C9.05381 33.3108 9.05381 33.5569 9.20575 33.7089L10.2663 34.7663Z" fill="#80011D"/>
<path d="M16.0734 31.9559C15.9214 31.8039 15.6753 31.8039 15.5234 31.9559L14.32 33.1592C14.1681 33.3112 14.1681 33.5573 14.32 33.7092L15.3106 34.6998C15.3866 34.7758 15.4868 34.8153 15.5841 34.8153C15.6844 34.8153 15.7846 34.7788 15.8576 34.6998C16.0095 34.5479 16.0095 34.3017 15.8576 34.1498L15.1435 33.4357L15.7968 32.7824L16.4501 33.4357C16.2982 33.5876 16.2982 33.8338 16.4501 33.9857C16.602 34.1377 16.8482 34.1377 17.0001 33.9857L17.2736 33.7122C17.4255 33.5603 17.4255 33.3142 17.2736 33.1622L16.0734 31.9559Z" fill="#80011D"/>
<path d="M10.965 38.2275C10.813 38.0755 10.5669 38.0755 10.415 38.2275L9.21161 39.4308C9.05967 39.5828 9.05967 39.8289 9.21161 39.9808L10.415 41.1842C10.4909 41.2601 10.5912 41.2997 10.6884 41.2997C10.7887 41.2997 10.889 41.2632 10.9619 41.1842L12.1653 39.9808C12.3172 39.8289 12.3172 39.5828 12.1653 39.4308L10.965 38.2275ZM10.6884 40.3637L10.0351 39.7104L10.6884 39.0571L11.3418 39.7104L10.6884 40.3637Z" fill="#80011D"/>
<path d="M16.0734 38.2275C15.9214 38.0755 15.6753 38.0755 15.5234 38.2275L14.32 39.4308C14.1681 39.5828 14.1681 39.8289 14.32 39.9808L15.5234 41.1842C15.5993 41.2601 15.6996 41.2997 15.7968 41.2997C15.8971 41.2997 15.9974 41.2632 16.0703 41.1842L16.4927 40.7618C16.6446 40.6099 16.6446 40.3637 16.4927 40.2118C16.3408 40.0599 16.0946 40.0599 15.9427 40.2118L15.7938 40.3607L15.1405 39.7074L15.7938 39.0541L16.2952 39.5554C16.4471 39.7074 16.6933 39.7074 16.8452 39.5554C16.9971 39.4035 16.9971 39.1574 16.8452 39.0054L16.0734 38.2275Z" fill="#80011D"/>
<path d="M14.7239 36.4009L13.5205 35.1975C13.4476 35.1246 13.3503 35.082 13.247 35.082C13.1437 35.082 13.0465 35.1246 12.9736 35.1975L11.7702 36.4009C11.6183 36.5528 11.6183 36.7989 11.7702 36.9509L12.9736 38.1542C13.0465 38.2271 13.1437 38.2697 13.247 38.2697C13.3503 38.2697 13.4476 38.2271 13.5205 38.1542L14.7239 36.9509C14.8758 36.7989 14.8758 36.5528 14.7239 36.4009ZM13.244 37.3307L12.5907 36.6774L13.244 36.0241L13.8974 36.6774L13.244 37.3307Z" fill="#80011D"/>
<path d="M53.1186 34.7663C53.1946 34.8423 53.2949 34.8818 53.3921 34.8818C53.4924 34.8818 53.5927 34.8453 53.6656 34.7663C53.8175 34.6144 53.8175 34.3683 53.6656 34.2163L52.8846 33.4354L53.538 32.7821L54.1913 33.4354L54.1123 33.5144C53.9604 33.6663 53.9604 33.9125 54.1123 34.0644C54.2642 34.2163 54.5104 34.2163 54.6623 34.0644L55.0178 33.7089C55.1698 33.5569 55.1698 33.3108 55.0178 33.1589L53.8145 31.9555C53.6625 31.8036 53.4164 31.8036 53.2645 31.9555L52.0641 33.1619C51.9122 33.3138 51.9122 33.56 52.0641 33.7119L53.1186 34.7663Z" fill="#80011D"/>
<path d="M58.9279 31.9559C58.7759 31.8039 58.5298 31.8039 58.3778 31.9559L57.1745 33.1592C57.0226 33.3112 57.0226 33.5573 57.1745 33.7092L58.3778 34.9126C58.4538 34.9885 58.5541 35.028 58.6513 35.028C58.7516 35.028 58.8519 34.9916 58.9248 34.9126L60.1282 33.7092C60.2801 33.5573 60.2801 33.3112 60.1282 33.1592L58.9279 31.9559ZM58.6513 34.0921L57.998 33.4388L58.6513 32.7854L59.3046 33.4388L58.6513 34.0921Z" fill="#80011D"/>
<path d="M53.8175 38.2275C53.6656 38.0755 53.4194 38.0755 53.2675 38.2275L52.0641 39.4339C51.9122 39.5858 51.9122 39.8319 52.0641 39.9839L53.2675 41.1872C53.3435 41.2632 53.4437 41.3027 53.541 41.3027C53.6413 41.3027 53.7415 41.2662 53.8145 41.1872L55.0178 39.9839C55.1697 39.8319 55.1697 39.5858 55.0178 39.4339L53.8175 38.2275ZM53.544 40.3637L52.8907 39.7104L53.544 39.0571L54.1973 39.7104L53.544 40.3637Z" fill="#80011D"/>
<path d="M58.9287 38.2274C58.8558 38.1545 58.7586 38.1119 58.6552 38.1119C58.5519 38.1119 58.4547 38.1545 58.3818 38.2274L57.1784 39.4308C57.0265 39.5827 57.0265 39.8288 57.1784 39.9808L58.169 40.9714C58.245 41.0473 58.3452 41.0868 58.4425 41.0868C58.5428 41.0868 58.643 41.0504 58.716 40.9714C58.8679 40.8194 58.8679 40.5733 58.716 40.4214L58.0019 39.7073L58.6552 39.0539L59.1566 39.5553C59.3085 39.7073 59.5546 39.7073 59.7066 39.5553C59.8585 39.4034 59.8585 39.1572 59.7066 39.0053L58.9287 38.2274Z" fill="#80011D"/>
<path d="M57.5765 36.4008L56.3732 35.1974C56.2273 35.0515 55.969 35.0515 55.8232 35.1974L54.6198 36.4008C54.4679 36.5527 54.4679 36.7988 54.6198 36.9508L55.8232 38.1541C55.8961 38.227 55.9933 38.2696 56.0966 38.2696C56.2 38.2696 56.2972 38.227 56.3701 38.1541L57.5735 36.9508C57.7284 36.7988 57.7285 36.5527 57.5765 36.4008ZM56.0997 37.3306L55.4464 36.6773L56.0997 36.024L56.753 36.6773L56.0997 37.3306Z" fill="#80011D"/>
<path d="M39.086 25.4712L40.5567 26.942C40.6297 27.0149 40.7269 27.0574 40.8302 27.0574C40.9335 27.0574 41.0308 27.0149 41.1037 26.942L42.5744 25.4712C42.6474 25.3983 42.6899 25.3011 42.6899 25.1978C42.6899 25.0944 42.6474 24.9972 42.5744 24.9243L41.1037 23.4535C40.9518 23.3016 40.7056 23.3016 40.5537 23.4535L39.083 24.9243C38.9341 25.0732 38.9341 25.3193 39.086 25.4712ZM40.8303 24.277L41.751 25.1977L40.8303 26.1185L39.9095 25.1977L40.8303 24.277Z" fill="#80011D"/>
<path d="M28.6293 30.8195C28.5563 30.7465 28.4591 30.704 28.3558 30.704C28.2525 30.704 28.1552 30.7465 28.0823 30.8195L26.6116 32.2902C26.5386 32.3631 26.4961 32.4634 26.4961 32.5637C26.4961 32.667 26.5386 32.7642 26.6116 32.8371L27.113 33.3385C27.1889 33.4145 27.2892 33.454 27.3864 33.454C27.4867 33.454 27.587 33.4175 27.6599 33.3385C27.8119 33.1866 27.8119 32.9404 27.6599 32.7885L27.4351 32.5637L28.3558 31.6429L29.1458 32.436C29.2978 32.5879 29.5439 32.5879 29.6958 32.436C29.8478 32.2841 29.8478 32.0379 29.6958 31.886L28.6293 30.8195Z" fill="#80011D"/>
<path d="M34.8681 30.8194C34.7222 30.6735 34.4639 30.6735 34.3181 30.8194L32.8473 32.2901C32.6954 32.442 32.6954 32.6881 32.8473 32.8401L33.4612 33.4539C33.6131 33.6058 33.8592 33.6058 34.0112 33.4539C34.1631 33.302 34.1631 33.0558 34.0112 32.9039L33.6708 32.5636L34.5916 31.6428L35.5123 32.5636L35.172 32.9039C35.02 33.0558 35.02 33.302 35.172 33.4539C35.2479 33.5299 35.3482 33.5694 35.4455 33.5694C35.5457 33.5694 35.646 33.5329 35.7189 33.4539L36.3328 32.8401C36.4847 32.6881 36.4847 32.442 36.3328 32.2901L34.8681 30.8194Z" fill="#80011D"/>
<path d="M41.1064 30.8194C40.9605 30.6735 40.7022 30.6735 40.5563 30.8194L39.0856 32.2901C38.9337 32.442 38.9337 32.6881 39.0856 32.8401L39.6994 33.4539C39.8514 33.6058 40.0975 33.6058 40.2495 33.4539C40.4014 33.302 40.4014 33.0558 40.2495 32.9039L39.9091 32.5636L40.8299 31.6428L41.7506 32.5636L41.4103 32.9039C41.2583 33.0558 41.2583 33.302 41.4103 33.4539C41.4862 33.5299 41.5865 33.5694 41.6837 33.5694C41.784 33.5694 41.8843 33.5329 41.9572 33.4539L42.571 32.8401C42.644 32.7672 42.6865 32.6699 42.6865 32.5666C42.6865 32.4633 42.644 32.366 42.571 32.2931L41.1064 30.8194Z" fill="#80011D"/>
<path d="M22.5003 38.3486C22.2845 38.3486 22.1113 38.5218 22.1113 38.7376C22.1113 38.9533 22.2845 39.1265 22.5003 39.1265H43.416C43.6317 39.1265 43.8049 38.9533 43.8049 38.7376C43.8049 38.5218 43.6317 38.3486 43.416 38.3486H22.5003Z" fill="#80011D"/>
<path d="M26.1371 47.6323C26.21 46.3621 25.3379 45.5113 24.952 45.2013V44.3232C24.952 44.1074 24.7788 43.9342 24.563 43.9342H23.4904L22.8158 43.0469C22.7428 42.9497 22.6274 42.8919 22.5058 42.8919H21.6458C21.1748 42.6792 20.6339 40.5066 20.166 37.6319H20.3392C20.4608 37.6319 20.5763 37.5742 20.6492 37.477L21.6337 36.1824H47.5296L47.8912 36.6595C47.9672 36.7598 48.0826 36.8145 48.2011 36.8145C48.2832 36.8145 48.3652 36.7902 48.4351 36.7355C48.6053 36.6048 48.6387 36.3617 48.5081 36.1916L48.0279 35.5595C47.955 35.4623 47.8395 35.4045 47.718 35.4045H46.4843C45.3053 35.131 43.8224 26.2913 43.1174 18.2142C43.1174 18.193 43.1113 18.1747 43.1083 18.1535C42.4671 15.5554 40.8657 14.1697 39.2157 13.4343L37.745 11.0276C37.6751 10.9122 37.5475 10.8423 37.4138 10.8423H37.0947L35.5784 0.334262C35.5511 0.142826 35.387 0 35.1925 0H33.974C33.7795 0 33.6154 0.142818 33.5881 0.334262L32.0687 10.8454H31.7496C31.6129 10.8454 31.4883 10.9153 31.4184 11.0308L29.9386 13.4526C28.4344 14.1333 26.9819 15.3762 26.2466 17.5792C26.201 17.6461 26.1736 17.722 26.1736 17.8041C26.1311 17.9408 26.0794 18.0654 26.043 18.2113C25.338 26.2883 23.8551 35.1277 22.6761 35.4015H21.4424C21.3209 35.4015 21.2054 35.4593 21.1325 35.5565L20.1479 36.851H20.0446C19.7499 34.9184 19.4946 32.7396 19.3123 30.646C19.3123 30.6247 19.3062 30.6065 19.3032 30.5852C18.8352 28.6951 17.6744 27.6802 16.4772 27.1362L15.438 25.4376C15.3681 25.3221 15.2404 25.2522 15.1067 25.2522H14.973L13.8943 17.8013C13.8669 17.6099 13.7029 17.4671 13.5084 17.4671H12.6332C12.4388 17.4671 12.2747 17.6099 12.2473 17.8013L11.1686 25.2522H11.0349C10.8981 25.2522 10.7736 25.3221 10.7037 25.4376L9.65527 27.1514C8.56744 27.6498 7.52209 28.5583 6.98424 30.1506C6.94473 30.2114 6.92042 30.2783 6.92042 30.3542C6.89004 30.4515 6.85357 30.5426 6.82926 30.646C6.34003 36.2676 5.30689 42.5301 4.49856 42.8887H3.63555C3.514 42.8887 3.39852 42.9465 3.3256 43.0407L2.651 43.9279H1.57834C1.36259 43.9279 1.18938 44.1012 1.18938 44.3169V45.1951C0.803467 45.505 -0.0686566 46.3559 0.00431143 47.6261C0.0164663 47.8327 0.186638 47.9937 0.393267 47.9937H25.7485C25.9551 47.9998 26.1249 47.8389 26.1371 47.6323ZM31.9684 11.6236H32.4059C32.6004 11.6236 32.7645 11.4808 32.7918 11.2893L34.3112 0.77818H34.8582L36.3137 10.8428L34.5846 10.8458C34.3689 10.8458 34.1957 11.019 34.1957 11.2348C34.1957 11.4505 34.3689 11.6237 34.5846 11.6237H37.201L38.0579 13.0246C36.3623 12.5445 34.8521 12.6296 34.5847 12.6508C34.3173 12.6296 32.804 12.5445 31.1054 13.0307L31.9684 11.6236ZM26.8086 18.3422C26.8299 18.254 26.8633 18.1811 26.8876 18.096C27.5744 17.8681 30.1968 17.1176 34.4024 17.2634C34.603 17.2847 34.7974 17.1024 34.8035 16.8897C34.8096 16.6739 34.6425 16.4946 34.4298 16.4886C30.8349 16.3579 28.3858 16.8623 27.2128 17.1875C27.93 15.5556 29.1302 14.6137 30.364 14.0849C30.3914 14.0758 30.4157 14.0636 30.4369 14.0485C32.3999 13.228 34.3963 13.4194 34.5422 13.4346C34.5696 13.4377 34.5969 13.4377 34.6242 13.4346C34.6881 13.4286 40.969 12.8208 42.3517 18.3178C42.6647 21.9096 43.7222 32.4509 45.512 35.4109L23.6542 35.4048C25.4531 32.436 26.5078 21.8521 26.8086 18.3422ZM11.2535 26.0362H11.5057C11.7002 26.0362 11.8643 25.8934 11.8916 25.7019L12.9704 18.251H13.1709L14.1859 25.2583H13.8516C13.6359 25.2583 13.4626 25.4315 13.4626 25.6472C13.4626 25.863 13.6359 26.0362 13.8516 26.0362H14.8878L15.3284 26.7564C14.2223 26.492 13.2773 26.5376 13.0707 26.5558C12.864 26.5406 11.9159 26.495 10.8068 26.7655L11.2535 26.0362ZM7.59492 30.7766C7.60403 30.7341 7.62227 30.7006 7.63138 30.6611C8.18747 30.4849 10.0319 29.9865 12.937 30.0868C13.1314 30.102 13.332 29.9258 13.3381 29.7131C13.3442 29.4973 13.177 29.318 12.9643 29.3119C10.588 29.2238 8.90455 29.5247 7.98086 29.7556C8.49441 28.7407 9.28752 28.136 10.0989 27.7896C10.1141 27.7835 10.1262 27.7774 10.1414 27.7683C11.521 27.194 12.9249 27.3247 13.0282 27.3368C13.0555 27.3399 13.0829 27.3399 13.1102 27.3368C13.2135 27.3247 14.6174 27.194 16 27.7713C16.0122 27.7805 16.0243 27.7835 16.0395 27.7896C17.0909 28.2393 18.121 29.1023 18.5403 30.7523C18.8199 33.94 19.5279 40.6194 20.7434 42.8979L5.40064 42.8948C6.61612 40.6097 7.32755 33.9007 7.59492 30.7766ZM13.0707 47.2224H0.800721C0.919228 46.4688 1.49659 45.9553 1.70932 45.7851H19.413C19.6288 45.7851 19.802 45.6119 19.802 45.3961C19.802 45.1804 19.6288 45.0072 19.413 45.0072H1.96759V44.7124H2.84274C2.96429 44.7124 3.07976 44.6547 3.15269 44.5605L3.82729 43.6732H22.3151L22.9897 44.5605C23.0626 44.6577 23.1781 44.7155 23.2997 44.7155H24.1748V45.3992C24.1748 45.5298 24.2417 45.6514 24.348 45.7243C24.3571 45.7304 25.1989 46.3017 25.3417 47.2254L13.0707 47.2224Z" fill="#80011D"/>
<path d="M67.9809 45.2014V44.3232C67.9809 44.1075 67.8077 43.9343 67.5919 43.9343H66.5193L65.8447 43.047C65.7717 42.9498 65.6563 42.8951 65.5347 42.8951H64.6747C63.8573 42.5243 62.8272 36.2676 62.338 30.6523C62.338 30.631 62.3319 30.6128 62.3289 30.5915C61.8609 28.7014 60.7001 27.6865 59.5029 27.1426L58.4667 25.4439C58.3968 25.3284 58.2692 25.2586 58.1355 25.2586H58.0018L56.923 17.8077C56.8957 17.6162 56.7316 17.4734 56.5371 17.4734H55.662C55.4675 17.4734 55.3034 17.6162 55.276 17.8077L54.1973 25.2586H54.0636C53.9269 25.2586 53.8023 25.3285 53.7324 25.4439L52.684 27.1577C51.5992 27.6561 50.5508 28.5647 50.013 30.1539C49.9735 30.2147 49.9492 30.2846 49.9492 30.3575C49.9188 30.4548 49.8823 30.5429 49.858 30.6493C49.4994 34.7515 48.8552 39.1907 48.2171 41.4303C48.214 41.4303 48.211 41.4273 48.2079 41.4273L34.5852 41.4303H23.8733C23.6576 41.4303 23.4844 41.6035 23.4844 41.8193C23.4844 42.035 23.6576 42.2082 23.8733 42.2082H47.9613C47.8124 42.5881 47.6666 42.8312 47.5268 42.8919H46.6608C46.5392 42.8919 46.4237 42.9497 46.3508 43.0469L45.6762 43.9342H44.6036C44.3878 43.9342 44.2146 44.1074 44.2146 44.3232V45.2013C43.8287 45.5113 42.9566 46.3621 43.0295 47.6323C43.0417 47.839 43.2119 48 43.4185 48H68.7737C68.9804 48 69.1505 47.839 69.1627 47.6323C69.2387 46.3621 68.3638 45.5144 67.9809 45.2014ZM54.2826 26.036H54.5349C54.7293 26.036 54.8934 25.8932 54.9208 25.7018L55.9995 18.2508H56.2001L57.215 25.2581H56.0998C55.884 25.2581 55.7108 25.4313 55.7108 25.6471C55.7108 25.8628 55.884 26.036 56.0998 26.036H57.9169L58.3575 26.7562C57.2544 26.4918 56.3064 26.5374 56.0998 26.5556C55.8932 26.5405 54.9451 26.4949 53.8359 26.7653L54.2826 26.036ZM50.6241 30.7765C50.6332 30.7339 50.6514 30.7005 50.6605 30.661C51.2166 30.4847 53.0611 29.9864 55.9661 30.0867C56.1606 30.1019 56.3611 29.9256 56.3672 29.7129C56.3733 29.4972 56.2062 29.3179 55.9935 29.3118C53.6172 29.2237 51.9337 29.5245 51.01 29.7554C51.5235 28.7405 52.3167 28.1358 53.128 27.7894C53.1432 27.7834 53.1554 27.7773 53.1706 27.7682C54.5501 27.1938 55.954 27.3245 56.0573 27.3367C56.0847 27.3397 56.112 27.3397 56.1394 27.3367C56.2427 27.3275 57.6496 27.1938 59.0291 27.7712C59.0413 27.7773 59.0535 27.7833 59.0686 27.7894C60.1201 28.2392 61.1532 29.1021 61.5695 30.7522C61.849 33.9398 62.557 40.6192 63.7725 42.8977L48.4267 42.8947C49.6452 40.6096 50.3537 33.9005 50.6241 30.7765ZM56.0998 47.2223H43.8267C43.9696 46.2985 44.8113 45.7272 44.8204 45.7211C44.9298 45.6482 44.9936 45.5267 44.9936 45.396V44.7123H45.8687C45.9903 44.7123 46.1058 44.6545 46.1787 44.5573L46.8533 43.67H65.3411L66.0157 44.5573C66.0886 44.6545 66.2041 44.7092 66.3257 44.7092H67.2008V45.393C67.2008 45.5236 67.2677 45.6452 67.374 45.7181C67.3831 45.7242 68.2249 46.2955 68.3676 47.2192L56.0998 47.2223Z" fill="#80011D"/>
<path d="M62.4378 45.0068H52.2884C52.0726 45.0068 51.8994 45.18 51.8994 45.3958C51.8994 45.6115 52.0726 45.7847 52.2884 45.7847H62.4378C62.6535 45.7847 62.8267 45.6115 62.8267 45.3958C62.8267 45.18 62.6535 45.0068 62.4378 45.0068Z" fill="#80011D"/>
<path d="M40.8295 44.9305C41.0452 44.9305 41.2184 44.7573 41.2184 44.5415C41.2184 44.3258 41.0452 44.1526 40.8295 44.1526H28.1487C27.933 44.1526 27.7598 44.3258 27.7598 44.5415C27.7598 44.7573 27.933 44.9305 28.1487 44.9305H40.8295Z" fill="#80011D"/>
</svg>
