<svg width="50" height="51" viewBox="0 0 50 51" fill="none" xmlns="http://www.w3.org/2000/svg">
<path d="M41.1118 34.4138L30.6202 33.3418C30.6068 33.3396 30.5956 33.3463 30.5822 33.3463C30.5688 33.3463 30.5576 33.3396 30.542 33.3396L10.2518 34.4116C9.98375 34.425 9.77379 34.6483 9.77379 34.9163V41.8261L3.48385 42.1589C3.21581 42.1723 3.00585 42.3956 3.00585 42.6636V47.6103C3.00585 47.8693 3.20018 48.0837 3.45705 48.1128L12.2978 49.0463C12.3157 49.0485 12.3336 49.0485 12.3514 49.0485C12.385 49.0485 12.4185 49.0463 12.452 49.0373L17.0242 48.1038C17.2588 48.0547 17.4285 47.8492 17.4285 47.6103L17.4263 47.5321L24.9937 48.3316V48.8118C24.9937 49.0708 25.188 49.2852 25.4448 49.3143L34.2856 50.2478C34.3035 50.25 34.3214 50.25 34.3392 50.25C34.3728 50.25 34.4063 50.2478 34.4398 50.2388L39.012 49.3053C39.2466 49.2562 39.4163 49.0507 39.4163 48.8118V47.1212L41.1608 46.7639C41.3953 46.7147 41.5651 46.5093 41.5651 46.2703V34.9165C41.5651 34.6575 41.3687 34.4406 41.1118 34.4138ZM4.01316 43.1394L11.8464 42.7262V47.9812L4.01316 47.1548V43.1394ZM16.4163 47.1973L12.8537 47.9253V42.753L16.4163 43.1171V47.1973ZM17.4259 46.5184V42.6615C17.4259 42.4024 17.2294 42.1858 16.9725 42.159L12.4002 41.6922C12.3868 41.69 12.3757 41.6967 12.3623 41.6967C12.3489 41.6967 12.3355 41.69 12.3221 41.69L10.7808 41.7704V35.3946L30.0641 34.3762V43.1173L25.4717 43.3607C25.2037 43.3741 24.9937 43.5974 24.9937 43.8654V47.3181L17.4259 46.5184ZM26.0031 44.3409L33.8364 43.9278V49.1827L26.0031 48.3564V44.3409ZM38.4063 48.3988L34.8436 49.1269V43.9546L38.4063 44.3186V48.3988ZM40.5551 45.8574L39.4159 46.0896V43.8631C39.4159 43.604 39.2193 43.3874 38.9625 43.3606L34.3902 42.8938C34.3768 42.8916 34.3656 42.8983 34.3522 42.8983C34.3388 42.8983 34.3254 42.8916 34.312 42.8916L31.071 43.0635V34.4031L40.5528 35.3723L40.5551 45.8574ZM49.0722 21.2556L41.3865 14.7163C41.3731 14.7051 41.3574 14.6984 41.344 14.6895C41.3306 14.6806 41.3172 14.6716 41.3038 14.6627C41.2525 14.6337 41.1966 14.6113 41.1363 14.6024L30.6447 12.9699C30.6246 12.9676 30.6067 12.9721 30.5889 12.9699C30.5688 12.9699 30.5486 12.9632 30.5263 12.9654L10.2361 14.5979C10.1624 14.6046 10.0954 14.627 10.0351 14.6605C10.0329 14.6627 10.0306 14.6605 10.0284 14.6627L0.506563 20.0516C0.301071 20.1678 0.202788 20.4112 0.272028 20.639C0.336803 20.8511 0.533364 20.9963 0.754495 20.9963C0.767898 20.9963 0.781299 20.9963 0.794701 20.9941L9.77159 20.2727V32.3995C9.77159 32.6786 9.99718 32.9042 10.2764 32.9042C10.5556 32.9042 10.7812 32.6786 10.7812 32.3995V20.1904L21.087 19.3618C21.1607 19.3551 21.2322 19.335 21.2947 19.2971L23.3117 18.1536L30.0619 17.6109V31.4129C30.0619 31.692 30.2875 31.9176 30.5667 31.9176C30.8459 31.9176 31.0715 31.692 31.0715 31.4129V17.6561L35.5232 18.3484L37.9243 20.3919C37.9958 20.4522 38.0807 20.4924 38.1745 20.5058L40.5534 20.8765V32.4001C40.5534 32.6792 40.779 32.9048 41.0582 32.9048C41.3374 32.9048 41.563 32.6792 41.563 32.4001L41.5652 21.0326L48.6682 22.138C48.6951 22.1425 48.7196 22.1447 48.7464 22.1447C48.9408 22.1447 49.1217 22.0308 49.2043 21.8499C49.2981 21.6445 49.2442 21.4008 49.0722 21.2556ZM20.895 18.3658L2.99041 19.8062L10.4285 15.5942L28.3331 14.1538L20.895 18.3658ZM25.3958 16.9767L30.0619 14.3347V16.6014L25.3958 16.9767ZM31.0715 16.635V14.5602L34.0557 17.0995L31.0715 16.635ZM38.4713 19.5293L32.2551 14.2409L32.7533 14.319L40.8415 15.5786L47.0577 20.867L38.4713 19.5293ZM19.6821 23.4934C19.6821 21.8765 18.3665 20.5589 16.7471 20.5589C15.13 20.5589 13.8121 21.8743 13.8121 23.4934C13.8121 25.1103 15.1278 26.4279 16.7471 26.4279C18.3665 26.4279 19.6821 25.1103 19.6821 23.4934ZM14.824 23.4934C14.824 22.4326 15.6884 21.5683 16.7494 21.5683C17.8104 21.5683 18.6748 22.4326 18.6748 23.4934C18.6748 24.5542 17.8104 25.4185 16.7494 25.4185C15.6861 25.4185 14.824 24.5542 14.824 23.4934ZM12.0453 31.4706C12.0386 31.6113 12.09 31.7475 12.1882 31.848C13.3989 33.0831 15.0183 33.762 16.7471 33.762C18.476 33.762 20.0954 33.0831 21.306 31.848C21.4043 31.7475 21.4557 31.6113 21.449 31.4706C21.3306 28.9582 19.2645 26.9884 16.7449 26.9884C14.2298 26.9884 12.1637 28.9582 12.0453 31.4706ZM16.7494 27.9979C18.6546 27.9979 20.2294 29.4316 20.4282 31.2986C19.4275 32.2388 18.1298 32.7525 16.7494 32.7525C15.369 32.7525 14.0712 32.2366 13.0706 31.2986C13.2693 29.4294 14.8441 27.9979 16.7494 27.9979ZM24.8331 11.1698C24.8353 11.1698 24.8375 11.1721 24.842 11.1721H24.8442H24.851H28.3153C29.8097 11.1721 31.0672 10.1001 31.304 8.62613L31.9718 4.46331C31.9942 4.31815 31.954 4.16852 31.8579 4.05685C31.7619 3.94519 31.6212 3.88043 31.4737 3.88043H28.3779L29.7181 0.965964C29.8342 0.713601 29.7226 0.414345 29.4702 0.295965C29.2155 0.179837 28.9162 0.291498 28.8001 0.543857L27.2655 3.88036H25.8941L24.3618 0.543857C24.2457 0.291494 23.9464 0.179831 23.6917 0.295965C23.4393 0.412092 23.3276 0.711354 23.4438 0.965964L24.784 3.88043H21.6882C21.5407 3.88043 21.4 3.94519 21.304 4.05685C21.2079 4.16852 21.1655 4.31815 21.19 4.46331L21.8579 8.62613C22.0992 10.0956 23.3477 11.1609 24.8331 11.1698ZM26.0795 6.45759V7.02038H25.3469V6.45759H26.0795ZM27.8127 6.45759V7.02038H27.0891V6.45759H27.8127ZM30.6316 6.45759L30.5423 7.02038H28.8224V6.45759H30.6316ZM27.8127 10.1626H27.0891V8.02982H27.8127V10.1626ZM25.3468 8.02982H26.0794V10.1626H25.3468V8.02982ZM24.3372 7.02039H22.6285L22.5391 6.4576H24.3394L24.3372 7.02039ZM22.8608 8.4653L22.7915 8.02981H24.3394V10.0889C23.58 9.89015 22.9903 9.27371 22.8608 8.4653ZM28.8225 10.0934V8.02982H30.3794L30.3101 8.46531C30.1806 9.27601 29.5842 9.89683 28.8225 10.0934ZM30.8842 4.88758L30.7948 5.45037H22.376L22.2867 4.88758H30.8842Z" fill="#80011D" stroke="#80011D" stroke-width="0.5"/>
</svg>
