<svg width="64" height="48" viewBox="0 0 64 48" fill="none" xmlns="http://www.w3.org/2000/svg">
<path d="M35.166 3.50684C35.8957 3.41626 36.4411 3.42087 36.752 3.50391C37.685 3.75452 38.5622 4.29604 39.376 5.1377L39.4961 5.2627L39.6689 5.28613C42.9346 5.72532 44.5548 7.62053 46.9287 10.9248V10.9258C47.6038 11.8603 48.5775 12.3882 49.7393 12.4248V12.4258L55.2441 12.6094V12.6084C55.594 12.6214 55.8201 13.0198 55.626 13.3418L52.2578 18.7744L52.0859 19.0527L52.2705 19.3213L56.7227 25.8027C57.6752 27.1945 57.094 29.0959 55.541 29.708H55.54C53.6416 30.4595 51.8278 31.2568 50.5449 32.4004C49.3089 33.5023 48.5694 34.9225 48.6572 36.8691L48.6855 37.2656C48.821 38.6579 49.5182 40.0524 50.6768 41.4219L50.8408 41.6162L51.0947 41.5967C54.872 41.3193 59.0093 39.7272 62.7578 37.0283C62.9562 36.8882 63.2124 36.92 63.3643 37.082C63.4362 37.1589 63.4623 37.2125 63.4756 37.2549C63.4906 37.3028 63.4981 37.367 63.499 37.4834C63.4895 37.5626 63.459 37.6416 63.4053 37.71L63.4033 37.7119C59.0499 43.3206 54.0203 46.5075 48.4648 47.2627C36.2008 48.9304 26.4706 41.6771 22.7109 29.7246L22.6475 29.5234L22.458 29.4277C22.4342 29.4158 22.4131 29.4081 22.4082 29.4062C22.3995 29.4029 22.392 29.3994 22.3867 29.3975C22.3759 29.3936 22.3651 29.3909 22.3613 29.3896L22.1992 29.335L22.0381 29.3906C21.1642 29.6949 20.2323 29.8447 19.2744 29.8447C13.1891 29.8445 7.85372 24.0142 7.95605 17.9541C7.96032 17.7566 8.08348 17.5831 8.25879 17.5146L8.26074 17.5137C10.7355 16.5361 13.7034 16.8221 16.3506 18.2783L17.0752 18.6768L17.0908 17.8496C17.1796 13.4223 19.0487 9.36293 21.9277 7.16309L21.9297 7.16113C22.0911 7.03646 22.324 7.03649 22.4854 7.16113L22.4883 7.16406C23.1085 7.63418 23.6762 8.18844 24.2012 8.81934L24.5898 9.28613L24.9727 8.81641C26.0778 7.46215 27.2356 6.40982 28.4277 5.6709L28.4297 5.66992C29.3496 5.0945 31.0625 4.44381 32.7734 3.99121C33.6224 3.76665 34.4539 3.59527 35.166 3.50684ZM35.875 4.38574C35.6436 4.3968 35.3719 4.42668 35.0762 4.47168C34.4836 4.56184 33.7654 4.71575 33.0215 4.91113C31.5494 5.29775 29.9036 5.86843 28.915 6.48438C27.6583 7.26108 26.4663 8.40263 25.3398 9.86035L25.1338 10.127L25.3037 10.418C26.5302 12.5248 27.2601 15.1214 27.3154 17.8477L27.332 18.6738L28.0557 18.2764C30.7033 16.8225 33.6796 16.5345 36.1455 17.5117L36.1475 17.5127C36.3009 17.5727 36.4146 17.7125 36.4434 17.8789L36.4502 17.9521C36.5033 21.456 34.7087 25.095 31.7559 27.4248H31.7549C29.5716 29.1505 26.937 30.0084 24.4531 29.8184L23.6885 29.7598L23.9434 30.4834C27.8656 41.6281 37.2242 47.828 48.3369 46.3193C51.8973 45.8351 55.23 44.2946 58.2725 41.7412L57.7598 40.8955C55.26 41.9295 52.5603 42.6006 49.9023 42.6006C46.9912 42.6016 44.4527 41.8072 42.3936 40.2734C40.462 38.8346 38.9251 36.7251 37.9033 33.9512L37.7061 33.3877C36.7656 30.5573 38.3201 27.9847 40.0156 25.2451C40.624 24.2629 41.2621 23.2331 41.751 22.1904C42.2403 21.1465 42.5973 20.0546 42.6191 18.9404V18.9395C42.6685 16.3417 42.1869 13.0334 41.2002 10.2334C40.7066 8.83266 40.0793 7.53788 39.3125 6.51855C38.5474 5.50152 37.6157 4.72256 36.5068 4.42773H36.5059C36.3212 4.37898 36.0934 4.37531 35.875 4.38574ZM41.0859 7.58789C42.657 10.5526 43.5172 14.7934 43.5635 18.2754L43.5625 18.9609C43.5144 21.5045 42.0139 23.8141 40.5811 26.1406C39.8801 27.2788 39.1964 28.4251 38.7832 29.5625C38.3664 30.7099 38.2086 31.892 38.6064 33.0869C39.4553 35.6331 40.7254 37.6485 42.4082 39.084C44.0938 40.5218 46.1663 41.3551 48.5762 41.5801L49.6035 41.6758L49.043 40.8105C48.2926 39.6517 47.8621 38.4998 47.749 37.3662C47.4821 34.6786 48.5541 32.8743 50.0762 31.5703C51.6256 30.2429 53.6301 29.4451 55.1992 28.8242L55.2021 28.8232C56.1816 28.4299 56.5556 27.2321 55.9473 26.3516L51.1377 19.3408L51.1367 19.3398L51.0996 19.2764C51.025 19.1257 51.0337 18.9523 51.1191 18.8203L51.125 18.8125L53.9385 14.2744L54.3936 13.54L53.5303 13.5107L49.707 13.3818C48.2634 13.3327 47.0119 12.6639 46.1631 11.4873C44.5499 9.244 43.3447 7.73039 41.7568 6.91016L40.3379 6.17676L41.0859 7.58789ZM19.6357 35.123C19.8956 35.123 20.1055 35.3303 20.1055 35.6006V38.5908C20.1053 38.858 19.8926 39.0684 19.6357 39.0684C19.3789 39.0683 19.1662 38.858 19.166 38.5908V35.6006C19.166 35.3332 19.3788 35.1231 19.6357 35.123ZM8.20801 30.6279C8.38768 30.4455 8.68754 30.4455 8.86719 30.6279L8.87109 30.6318C9.05798 30.8176 9.05808 31.1181 8.87109 31.3037L8.86816 31.3066L6.77148 33.4219L6.77051 33.4238C6.59142 33.6055 6.29859 33.6098 6.10938 33.4209L6.10742 33.4189C5.9206 33.2332 5.92045 32.9327 6.10742 32.7471L6.11035 32.7441L8.20703 30.6289L8.20801 30.6279ZM35.1289 18.1738C32.6475 17.4749 29.7865 18.0987 27.4092 19.8086L27.2314 19.9365L27.2051 20.1543C26.8345 23.2277 25.6131 26.0252 23.8125 27.9961L23.165 28.7051L24.1172 28.8291C26.3214 29.1164 28.7211 28.4516 30.7725 26.9785L31.1777 26.6729C33.6855 24.6898 35.3034 21.6897 35.4922 18.6865L35.5176 18.2832L35.1289 18.1738ZM16.5498 19.5029C14.2609 18.026 11.5991 17.5175 9.27539 18.1729L8.88672 18.2832L8.91211 18.6855C9.10078 21.6915 10.7151 24.6925 13.2266 26.6729C15.3653 28.3581 17.9354 29.1356 20.2979 28.8262L21.251 28.7012L20.6016 27.9922C18.7983 26.0238 17.5719 23.2276 17.207 20.1582L17.1816 19.9395L17.0029 19.8105L16.5498 19.5029ZM21.8672 8.44434C19.2847 10.8051 18.0264 14.5208 18.0264 18.1855C18.0264 21.8505 19.2844 25.5662 21.8672 27.9258L22.2051 28.2344L22.543 27.9248C25.1192 25.5612 26.3756 21.8475 26.376 18.1846C26.3763 14.5216 25.1208 10.808 22.543 8.44434L22.2051 8.13477L21.8672 8.44434ZM0.969727 19.3066H3.9375C4.19822 19.3067 4.41016 19.5178 4.41016 19.7842C4.41009 20.0533 4.19822 20.2616 3.94043 20.2617H0.969727C0.717669 20.2615 0.500073 20.0504 0.5 19.7842C0.5 19.5198 0.718587 19.3069 0.969727 19.3066ZM6.11426 6.14746C6.26967 5.98967 6.5143 5.96593 6.70117 6.08984L6.77734 6.15137L8.87109 8.26465L8.87305 8.2666C9.17261 8.56624 8.95697 9.08105 8.54004 9.08105C8.45313 9.08097 8.36175 9.05391 8.2832 9.00195L8.20996 8.94238L6.11328 6.82617L6.11035 6.82324C5.92348 6.63748 5.92336 6.337 6.11035 6.15137L6.11426 6.14746ZM19.6357 0.5C19.8927 0.5 20.1064 0.710171 20.1064 0.977539V3.96777C20.1064 4.23701 19.8936 4.44531 19.6357 4.44531C19.378 4.44518 19.1661 4.23691 19.166 3.96777V0.977539C19.166 0.710245 19.3789 0.500137 19.6357 0.5Z" fill="#80011D" stroke="#80011D"/>
</svg>
