<svg width="79" height="49" viewBox="0 0 79 49" fill="none" xmlns="http://www.w3.org/2000/svg">
<path d="M40.6397 33.5863C40.4592 33.3974 40.463 33.1005 40.6513 32.9154C44.3627 29.3024 49.6264 27.9799 54.7281 29.3719C54.9779 29.4413 55.1277 29.6996 55.0586 29.9541C54.9894 30.2048 54.732 30.3551 54.4784 30.2857C49.6297 28.9632 44.8271 30.1662 41.3074 33.5941C41.2152 33.6828 41.0961 33.7291 40.9808 33.7291C40.8579 33.7291 40.7349 33.6828 40.6427 33.5864L40.6397 33.5863ZM28.1258 16.7976C28.3486 16.9364 28.6368 16.867 28.7751 16.6434C28.9134 16.4197 28.8442 16.1305 28.6214 15.9917C24.3336 13.3235 18.7168 11.2374 9.56078 15.9879C9.33025 16.1074 9.23805 16.3927 9.35715 16.6241C9.44167 16.786 9.60689 16.8786 9.77593 16.8786C9.84893 16.8786 9.92193 16.8631 9.99109 16.8246C19.9035 11.677 25.4518 15.1319 28.1183 16.7899L28.1258 16.7976ZM29.5935 21.3322C29.8163 21.471 30.1045 21.4016 30.2428 21.1779C30.3811 20.9543 30.3119 20.6651 30.0891 20.5263C26.1125 18.0547 20.9066 16.119 12.4192 20.5224C12.1887 20.642 12.0965 20.9273 12.2156 21.1587C12.3001 21.3206 12.4653 21.4131 12.6344 21.4131C12.7074 21.4131 12.7804 21.3977 12.8495 21.3592C22.0014 16.6087 27.1271 19.7937 29.586 21.3245L29.5935 21.3322ZM30.677 26.0363C30.7538 26.0788 30.8345 26.1019 30.9152 26.1019C31.0765 26.1019 31.2341 26.0171 31.3224 25.8667C31.4531 25.643 31.3801 25.35 31.1534 25.2189C27.392 23.0017 22.4741 21.2435 14.5399 25.0338C14.3055 25.1456 14.2056 25.4271 14.317 25.6662C14.4284 25.9014 14.7089 26.0016 14.9471 25.8898C23.4996 21.8026 28.3488 24.6636 30.677 26.0363ZM32.6056 30.5979L32.6325 30.6094C32.8746 30.7058 33.1474 30.5863 33.2434 30.3434C33.3395 30.1005 33.2204 29.8267 32.9783 29.7303L32.9514 29.7187C29.8086 28.4656 25.056 26.5685 16.5228 30.3511C16.2846 30.4552 16.1771 30.7367 16.2808 30.9758C16.3576 31.1531 16.5305 31.2572 16.7111 31.2572C16.7764 31.2572 16.8379 31.2457 16.9032 31.2148C25.0753 27.5941 29.428 29.3292 32.602 30.594L32.6056 30.5979ZM18.6547 35.1825C18.4203 35.2943 18.3204 35.5796 18.4357 35.8149C18.5163 35.9845 18.6854 36.0809 18.8621 36.0809C18.9313 36.0809 19.0004 36.0655 19.0658 36.0346C26.7076 32.3368 30.7722 33.7404 33.7387 34.766L33.7886 34.7853C34.0345 34.8701 34.3035 34.739 34.388 34.4922C34.4725 34.2455 34.3419 33.9755 34.096 33.8907L34.046 33.8714C31.0992 32.8535 26.6458 31.3151 18.6547 35.1825ZM78.2453 36.5244C78.2069 37.2107 77.9072 37.8354 77.4001 38.2904L77.0043 38.6452C76.5663 39.0385 76.0054 39.2505 75.4175 39.2505C75.3714 39.2505 75.3253 39.2505 75.2792 39.2467C74.6414 39.212 74.0574 38.9305 73.6348 38.4524L65.4589 29.2676C65.2744 29.3486 65.0823 29.3987 64.8902 29.3987C64.5406 29.3987 64.2025 29.2637 63.9605 28.9938L61.8895 26.6648C61.8165 26.7034 61.7435 26.7343 61.6667 26.7728L67.3146 39.4354C67.3837 39.5935 67.3645 39.7786 67.2569 39.9174C67.1494 40.0562 66.9765 40.1218 66.8074 40.0948C55.938 38.2748 45.8033 37.28 41.2769 45.0611C40.9964 45.52 40.4585 45.7976 39.8015 45.8285C39.2943 45.8477 38.6335 45.7166 38.2955 45.2616C35.606 41.668 29.8313 42.5356 25.4589 43.8928C20.5487 45.4198 16.2763 47.8721 15.8844 48.1382C15.7999 48.2114 15.6923 48.25 15.5809 48.25H15.5693C15.3926 48.2461 15.2351 48.1459 15.1544 47.9839L0.297548 17.58C0.189965 17.3564 0.270654 17.0903 0.481967 16.9631C0.647178 16.8667 0.827752 16.7433 1.0237 16.616C1.6807 16.1842 2.5682 15.6251 3.75154 15.2549L2.89091 13.3693C2.79486 13.1611 2.86017 12.9182 3.04459 12.7871C9.80281 7.94801 17.1677 6.37475 23.258 8.46851C26.3701 9.54041 28.8136 11.5108 29.8741 13.7511C32.1294 10.5816 37.758 6.83366 43.7021 7.16908C44.4282 5.91979 45.3427 4.7784 46.4492 3.78744C52.1624 -1.33318 60.9608 -0.835781 66.0626 4.89794C68.533 7.67418 69.7817 11.2525 69.5704 14.9694C69.4321 17.4256 68.656 19.743 67.3574 21.7519L69.436 24.0886C69.6703 24.3508 69.7779 24.7094 69.7318 25.0757C69.7087 25.2647 69.6396 25.4459 69.5435 25.6117L77.6042 34.6692C78.0576 35.1782 78.2842 35.8337 78.2458 36.52L78.2453 36.5244ZM42.7787 13.4547C42.5828 16.9211 43.7469 20.2526 46.0483 22.8437C48.3536 25.431 51.5233 26.9657 54.9734 27.1623C58.4236 27.359 61.747 26.1906 64.3289 23.881C66.9069 21.5674 68.4361 18.3863 68.632 14.9238C68.8279 11.4573 67.6638 8.12585 65.3624 5.53469C62.8074 2.66595 59.2612 1.20454 55.6996 1.20454C52.6298 1.20454 49.5484 2.29194 47.0818 4.50128C44.5038 6.81487 42.9747 9.99592 42.7787 13.4585V13.4547ZM30.2923 14.835L39.3673 40.9046C45.772 33.6554 51.4387 34.2493 60.6597 35.2171C61.0246 35.2557 61.3935 35.2943 61.77 35.3328L58.2469 27.8948C57.4208 28.049 56.5756 28.1261 55.7226 28.1261C55.4575 28.1261 55.1886 28.1184 54.9235 28.103C52.4992 27.9642 50.213 27.2046 48.2267 25.9244C45.0993 26.1751 42.237 27.4745 39.9509 29.6993C39.8586 29.788 39.7395 29.8343 39.6243 29.8343C39.5013 29.8343 39.3784 29.788 39.2862 29.6916C39.1056 29.5027 39.1094 29.2058 39.2977 29.0207C41.4839 26.8961 44.1541 25.5581 47.0856 25.1031C46.4709 24.6095 45.883 24.0735 45.349 23.4721C44.9648 23.0402 44.6229 22.5852 44.2963 22.1148C42.041 22.6932 40.0162 23.8307 38.2873 25.5118C38.1951 25.6005 38.076 25.6468 37.9607 25.6468C37.8378 25.6468 37.7148 25.6005 37.6226 25.5041C37.442 25.3152 37.4459 25.0183 37.6341 24.8332C39.4015 23.1134 41.4608 21.9259 43.7508 21.2819C43.0861 20.1598 42.5943 18.9567 42.2716 17.6997C40.0854 18.2897 38.1221 19.4118 36.4355 21.0505C36.3432 21.1392 36.2241 21.1854 36.1089 21.1854C35.9859 21.1854 35.863 21.1392 35.7708 21.0428C35.5902 20.8538 35.594 20.5569 35.7823 20.3719C37.5958 18.6058 39.7127 17.4028 42.0756 16.7743C41.872 15.6754 41.7797 14.5456 41.8451 13.4004C41.8489 13.3117 41.8643 13.2269 41.8719 13.1382C39.2056 13.7127 36.6736 15.0198 34.8525 16.7936C34.7603 16.8822 34.6412 16.9285 34.5259 16.9285C34.403 16.9285 34.28 16.8822 34.1878 16.7859C34.0072 16.5969 34.0111 16.3 34.1993 16.1149C36.2126 14.1561 39.0327 12.7256 41.9796 12.1511C42.1871 10.7321 42.602 9.371 43.2129 8.10237C37.6265 8.00597 32.0867 11.7963 30.3035 14.8347L30.2923 14.835ZM3.9129 13.339L17.5334 43.1141C21.8634 40.0718 32.7207 36.6015 38.1618 40.3186L29.3289 14.947V14.9354C29.3289 14.9315 29.325 14.9277 29.325 14.9238C28.6373 12.6142 26.1937 10.4857 22.9548 9.37134C17.2532 7.40868 10.3287 8.85845 3.9129 13.339ZM60.8066 27.1545C60.2802 27.3628 59.7385 27.5363 59.1853 27.6789L62.9774 35.6876C63.0504 35.8419 63.0351 36.0231 62.9352 36.1619C62.8353 36.3007 62.6739 36.3779 62.501 36.3586C61.8325 36.2892 61.1871 36.2236 60.5531 36.1581C51.0747 35.1633 45.8496 34.6157 39.545 42.1347C39.5373 42.1463 39.5257 42.1501 39.5142 42.1579C39.5027 42.1694 39.4989 42.181 39.4873 42.1926C39.4681 42.208 39.4451 42.2157 39.4259 42.2273C39.4028 42.2427 39.3797 42.2581 39.3529 42.2658C39.3144 42.2812 39.276 42.2851 39.2376 42.2928C39.2184 42.2967 39.203 42.3044 39.1838 42.3044C39.1723 42.3044 39.1646 42.3005 39.1531 42.3005H39.1339C39.1223 42.3005 39.1108 42.3005 39.0993 42.2967C39.0877 42.2928 39.0762 42.2851 39.0647 42.2812C39.0109 42.2658 38.961 42.2427 38.9149 42.208C38.8956 42.1926 38.8803 42.181 38.8611 42.1656C38.8495 42.154 38.8342 42.1501 38.8265 42.1386C34.3658 36.8483 21.6101 41.0782 17.6335 44.2131C17.549 44.2786 17.4452 44.3133 17.3415 44.3133C17.3031 44.3133 17.2685 44.3095 17.2301 44.3018C17.0879 44.2671 16.9726 44.1707 16.9112 44.0396L4.14441 16.131C3.02638 16.4549 2.20028 16.9793 1.53952 17.4151C1.47036 17.4614 1.40121 17.5076 1.33204 17.55L15.7748 47.0981C16.0092 46.9632 16.3396 46.782 16.8083 46.5313C17.619 46.0995 18.9138 45.4439 20.5044 44.7499C23.2399 43.5546 27.278 42.0778 30.9853 41.8078C34.7006 41.5379 37.4132 42.5096 39.0537 44.6959C39.119 44.7846 39.3879 44.9041 39.7606 44.8848C40.0872 44.8694 40.3677 44.7499 40.4714 44.5764C42.6498 40.8323 46.1807 38.7039 51.2602 38.0792C55.7054 37.5317 60.9845 38.1795 66.1023 39.0162L60.8079 27.1512L60.8066 27.1545ZM65.2442 28.3152L65.5093 28.0761L66.3315 27.3396L68.6213 25.2883C68.7212 25.1996 68.7866 25.0801 68.8019 24.9644C68.8096 24.9105 68.8096 24.8025 68.7404 24.7254L66.8194 22.5661C66.2739 23.291 65.6553 23.9696 64.9637 24.5866C64.2722 25.2074 63.5307 25.7434 62.7507 26.206L64.6794 28.373C64.8023 28.508 65.0674 28.4849 65.2518 28.3191L65.2442 28.3152ZM76.9015 35.3059L68.8946 26.3101L67.4731 27.5825L66.2206 28.7046L74.3389 37.8238C74.5924 38.1091 74.9459 38.2788 75.334 38.3019C75.7182 38.3251 76.0908 38.194 76.3752 37.9395L76.7709 37.5847C77.4317 36.9909 77.4894 35.9691 76.8977 35.3059L76.9015 35.3059ZM44.962 12.3675C44.962 12.3559 44.9581 12.3482 44.9581 12.3366C44.962 12.2865 44.9773 12.2402 44.9965 12.1939C45.2578 10.775 45.7957 9.40615 46.6102 8.16456V8.16071C46.6371 8.0913 46.6793 8.03346 46.7293 7.98719C47.2134 7.28157 47.7782 6.61452 48.4429 6.02068C52.9266 1.999 59.8385 2.39226 63.8417 6.8921C67.8489 11.3919 67.4571 18.3287 62.9733 22.3463C62.0897 23.1367 61.11 23.7498 60.0764 24.201C60.0572 24.2125 60.0457 24.2279 60.0265 24.2357C60.0034 24.2472 59.9804 24.2434 59.9573 24.2511C59.1005 24.6135 58.2092 24.8642 57.3025 24.9991C57.2641 25.0107 57.2256 25.0261 57.1834 25.0261C57.1757 25.0261 57.168 25.0184 57.1565 25.0184C56.6762 25.084 56.1921 25.1264 55.708 25.1264C52.7458 25.1264 49.7989 23.9194 47.6511 21.5635C47.6396 21.5519 47.6281 21.5404 47.6166 21.5288C47.6012 21.5095 47.582 21.4941 47.5666 21.4787C46.3795 20.1445 45.5841 18.5906 45.1615 16.9673C45.1423 16.9326 45.1346 16.8902 45.1269 16.8516C44.7619 15.3786 44.7081 13.8517 44.954 12.371L44.962 12.3675ZM56.4688 24.1437L50.0602 10.6094C49.188 9.89607 48.2429 9.33308 47.2439 8.92057C46.6599 9.86912 46.2489 10.8948 46.0068 11.9551C46.8982 12.0631 47.6896 12.279 48.3505 12.6029C48.5848 12.7186 48.6809 13.0039 48.5656 13.2353C48.4849 13.4011 48.3159 13.5013 48.143 13.5013C48.0738 13.5013 48.0008 13.4859 47.9355 13.4512C47.3669 13.1697 46.6446 12.9808 45.8416 12.8883C45.6956 14.018 45.7378 15.1709 45.9799 16.293C47.2823 16.3084 48.5809 16.4819 49.8565 16.829C50.1063 16.8984 50.2561 17.1567 50.187 17.4112C50.1293 17.6233 49.9411 17.7621 49.7336 17.7621C49.6913 17.7621 49.6491 17.7582 49.6106 17.7467C48.5003 17.4421 47.3708 17.284 46.2335 17.2493C46.6369 18.5101 47.29 19.7055 48.2083 20.762C49.3839 20.8044 50.5634 20.9779 51.7122 21.2941C51.962 21.3635 52.1118 21.6218 52.0427 21.8763C51.985 22.0884 51.7968 22.2272 51.5893 22.2272C51.547 22.2272 51.5048 22.2234 51.4664 22.2118C50.744 22.0151 50.0102 21.8956 49.2725 21.8108C51.3165 23.5536 53.9176 24.3441 56.4764 24.1513L56.4688 24.1437ZM59.1966 23.5421L54.102 12.1252C53.5756 12.079 52.5075 12.0404 51.7737 12.025L57.4561 24.0203C58.0477 23.9162 58.6279 23.7581 59.2003 23.5461L59.1966 23.5421ZM47.7852 8.12646C48.8341 8.58146 49.8292 9.18681 50.7397 9.94649C50.7935 9.98891 50.8358 10.0467 50.8627 10.1084L51.3161 11.0686C52.096 11.0801 54.017 11.138 54.4973 11.2189C54.6549 11.2459 54.7855 11.3462 54.8508 11.4927L60.0607 23.1722C60.8675 22.7789 61.636 22.2776 62.339 21.6491C66.4347 17.9743 66.7919 11.6427 63.1343 7.52847C59.4728 3.41805 53.1639 3.05953 49.0643 6.7303C48.5841 7.16216 48.1617 7.62902 47.7852 8.12646Z" fill="#80011D" stroke="#80011D" stroke-width="0.5"/>
</svg>
